<svg width="791" height="773" viewBox="0 0 791 773" fill="none" xmlns="http://www.w3.org/2000/svg">
<g opacity="0.08">
<path fill-rule="evenodd" clip-rule="evenodd" d="M364.347 169.67L364.348 169.67V272.994L265.527 214.577L265.601 214.543L364.347 51.3867V169.67Z" fill="#898990" fill-opacity="0.2"/>
<path fill-rule="evenodd" clip-rule="evenodd" d="M361.837 169.67L361.836 169.67V272.994L460.656 214.577L460.583 214.543L361.837 51.3867V169.67Z" fill="#898990" fill-opacity="0.2"/>
<path d="M362.85 170.161L265.808 214.268L362.85 53.232V170.161Z" fill="#F3F6F4" fill-opacity="0.7" stroke="#003831"/>
<path d="M362.85 271.253L265.628 213.77L362.85 169.582V271.253Z" fill="#F3F6F4" fill-opacity="0.7" stroke="#003831"/>
<path d="M363.218 169.161V52.2318L460.278 213.268L363.218 169.161Z" stroke="#003831"/>
<path d="M363.218 169.581L460.457 213.769L363.218 271.252V169.581Z" fill="#898990" fill-opacity="0.2" stroke="#003831"/>
<path d="M362.85 292.758V371.765L266.313 235.716L362.85 292.758Z" fill="#F3F6F4" fill-opacity="0.7" stroke="#003831"/>
<path d="M458.827 235.715L362.218 371.766V292.758L458.827 235.715Z" fill="#898990" fill-opacity="0.2" stroke="#003831"/>
</g>
<g opacity="0.08">
<path fill-rule="evenodd" clip-rule="evenodd" d="M207.816 355.041L207.817 355.04V462.522L105.02 401.754L105.098 401.718L207.816 232V355.041Z" fill="#898990" fill-opacity="0.2"/>
<path fill-rule="evenodd" clip-rule="evenodd" d="M307.067 402.306L307.935 403.741L306.072 402.894L205.203 462.522V355.04L205.204 355.041V234L306.252 400.96L308 401.754L307.067 402.306Z" fill="#898990" fill-opacity="0.2"/>
<path d="M206.278 355.608L105.26 401.522L206.278 233.888V355.608Z" fill="#F3F6F4" fill-opacity="0.7" stroke="#003831"/>
<path d="M206.278 460.75L105.081 400.916L206.278 354.921V460.75Z" fill="#F3F6F4" fill-opacity="0.7" stroke="#003831"/>
<path d="M206.58 354.608V233.789L307.611 400.519L206.58 354.608Z" stroke="#003831"/>
<path d="M206.58 354.921L307.796 400.916L206.58 460.75V354.921Z" fill="#898990" fill-opacity="0.2" stroke="#003831"/>
<path d="M206.278 483.07V565.331L105.765 423.679L206.278 483.07Z" fill="#F3F6F4" fill-opacity="0.7" stroke="#003831"/>
<path d="M306.168 423.678L205.58 565.332V483.07L306.168 423.678Z" fill="#898990" fill-opacity="0.2" stroke="#003831"/>
</g>
<g opacity="0.08">
<path fill-rule="evenodd" clip-rule="evenodd" d="M315.975 584.007L315.976 584.007V679.595L224.554 625.551L224.622 625.52L315.975 474.58V584.007Z" fill="#898990" fill-opacity="0.2"/>
<path fill-rule="evenodd" clip-rule="evenodd" d="M313.653 584.007V679.595L405.075 625.551L405.005 625.52L313.653 474.58L313.653 584.007Z" fill="#898990" fill-opacity="0.2"/>
<path d="M314.553 585.365L224.907 626.11L314.553 477.349V585.365Z" fill="#F3F6F4" fill-opacity="0.7" stroke="#003831"/>
<path d="M314.553 677.919L224.728 624.81L314.553 583.984V677.919Z" fill="#F3F6F4" fill-opacity="0.7" stroke="#003831"/>
<path d="M314.043 585.365V477.348L403.705 626.11L314.043 585.365Z" stroke="#003831"/>
<path d="M314.043 583.983L403.884 624.81L314.043 677.919V583.983Z" fill="#898990" fill-opacity="0.2" stroke="#003831"/>
<path d="M314.553 697.902V770.855L225.413 645.23L314.553 697.902Z" fill="#F3F6F4" fill-opacity="0.7" stroke="#003831"/>
<path d="M403.25 645.23L314.043 770.856V697.902L403.25 645.23Z" fill="#898990" fill-opacity="0.2" stroke="#003831"/>
</g>
<g opacity="0.08">
<path d="M527.053 158.57L526.836 158.795L526.943 159.088C527.069 159.436 527.188 159.777 527.306 160.113C528.027 162.169 528.694 164.07 530.534 166.629C532.662 169.587 536.352 173.424 543.509 179.517C544.845 180.853 546.062 182.28 547.289 183.719C547.886 184.419 548.485 185.121 549.101 185.817C550.813 187.752 552.636 189.61 554.829 191.094L519.54 216.034C494.81 194.837 479.148 163.383 479.148 128.268C479.148 107.263 484.752 87.5728 494.545 70.5998L522.621 110.327L522.621 110.327L522.628 110.336L544.78 140.229L527.053 158.57ZM564.427 60.5917L564.182 60.355L563.872 60.4962C550.681 66.5093 538.35 77.8196 530.603 89.9787L520.222 76.2603L505.751 54.9354C516.358 42.5873 533.152 30.0353 551.698 20.5456C570.392 10.9804 590.81 4.55566 608.406 4.55566C629.158 4.55566 640.765 14.0237 654.876 25.5343C654.995 25.6319 655.115 25.7297 655.235 25.8277L612.669 56.161L612.661 56.1665L582.769 78.3184L582.138 77.7086L579.703 75.3553L573.75 69.6023L567.798 63.8493L565.363 61.496L564.673 60.829L564.49 60.6524L564.443 60.607L564.431 60.5955L564.428 60.5926L564.428 60.5919L564.427 60.5917L564.427 60.5917L564.08 60.9512L564.427 60.5917ZM710.311 128.268C710.311 149.273 704.707 168.963 694.914 185.936L666.838 146.209L666.838 146.209L666.831 146.2L644.679 116.307L662.406 97.9658L662.643 97.7209L662.501 97.4109C658.787 89.2621 653.64 81.9116 647.39 75.6651C645.774 74.0504 644.518 72.0822 643.232 70.067C642.962 69.644 642.691 69.2189 642.415 68.7945C640.976 66.5838 639.411 64.4109 637.23 62.8566L669.915 40.498C694.647 61.6951 710.311 93.1505 710.311 128.268ZM535.318 229.606L576.788 200.376L576.788 200.377L576.798 200.369L606.691 178.218L607.321 178.827L609.756 181.181L615.709 186.934L621.661 192.687L624.096 195.04L624.786 195.707L624.969 195.884L625.016 195.929L625.028 195.94L625.031 195.943L625.031 195.944L625.032 195.944L625.379 195.585L625.032 195.944L625.277 196.181L625.587 196.04C638.763 190.033 649.852 180.282 657.562 168.178L682.496 203.458C661.298 228.187 629.845 243.849 594.73 243.849C573.699 243.849 552.314 239.358 535.318 229.606Z" fill="#898990" fill-opacity="0.2" stroke="#003831"/>
<path d="M506.3 52.314L494.823 40.8361C515.977 16.1871 547.328 0.56153 582.334 0.500181L593.527 11.6931C558.646 12.0452 527.436 27.7199 506.3 52.314Z" fill="#898990" fill-opacity="0.2" stroke="#003831" stroke-linejoin="round"/>
<path d="M478.154 127.065L466.961 115.872C466.998 94.8987 472.622 75.2414 482.422 58.2989L493.878 69.7543C484.064 86.6294 478.365 106.189 478.154 127.065Z" fill="#898990" fill-opacity="0.2" stroke="#003831" stroke-linejoin="round"/>
<path d="M519.237 105.537L511.225 97.5259L486.107 61.9852L494.119 69.9967L519.237 105.537Z" fill="#898990" fill-opacity="0.2" stroke="#003831" stroke-linejoin="round"/>
<mask id="path-29-inside-1" fill="white">
<path d="M555.264 52.0184L551.893 48.7607L564.08 60.9478L567.451 64.2054L555.264 52.0184Z"/>
</mask>
<path d="M555.264 52.0184L551.893 48.7607L564.08 60.9478L567.451 64.2054L555.264 52.0184Z" fill="#898990" fill-opacity="0.2"/>
<path d="M551.893 48.7607L552.588 48.0417C552.193 47.6602 551.565 47.6682 551.18 48.0597C550.795 48.4511 550.798 49.0797 551.186 49.4678L551.893 48.7607ZM555.264 52.0184L555.971 51.3113C555.967 51.3073 555.963 51.3033 555.959 51.2993L555.264 52.0184ZM567.451 64.2054L566.756 64.9244C567.15 65.306 567.779 65.2979 568.164 64.9065C568.549 64.515 568.546 63.8865 568.158 63.4983L567.451 64.2054ZM564.08 60.9478L563.373 61.6549C563.377 61.6589 563.381 61.6629 563.385 61.6668L564.08 60.9478ZM551.198 49.4798L554.569 52.7374L555.959 51.2993L552.588 48.0417L551.198 49.4798ZM554.557 52.7255L566.744 64.9125L568.158 63.4983L555.971 51.3113L554.557 52.7255ZM568.146 63.4863L564.775 60.2287L563.385 61.6668L566.756 64.9244L568.146 63.4863ZM564.787 60.2407L552.6 48.0536L551.186 49.4678L563.373 61.6549L564.787 60.2407Z" fill="#003831" mask="url(#path-29-inside-1)"/>
<mask id="path-31-inside-2" fill="white">
<path d="M567.167 63.5318L555.262 52.0259L567.449 64.2129L579.354 75.7189L567.167 63.5318Z"/>
</mask>
<path d="M567.167 63.5318L555.262 52.0259L567.449 64.2129L579.354 75.7189L567.167 63.5318Z" fill="#898990" fill-opacity="0.2"/>
<path d="M555.262 52.0259L555.957 51.3068C555.563 50.9253 554.934 50.9334 554.549 51.3248C554.164 51.7163 554.167 52.3448 554.555 52.733L555.262 52.0259ZM567.167 63.5318L567.874 62.8247C567.87 62.8207 567.866 62.8167 567.862 62.8128L567.167 63.5318ZM579.354 75.7189L578.659 76.4379C579.054 76.8194 579.683 76.8114 580.067 76.4199C580.452 76.0285 580.45 75.3999 580.061 75.0118L579.354 75.7189ZM567.449 64.2129L566.742 64.92C566.746 64.924 566.75 64.928 566.755 64.9319L567.449 64.2129ZM554.567 52.7449L566.472 64.2509L567.862 62.8128L555.957 51.3068L554.567 52.7449ZM566.46 64.239L578.647 76.426L580.061 75.0118L567.874 62.8247L566.46 64.239ZM580.049 74.9998L568.144 63.4938L566.755 64.9319L578.659 76.4379L580.049 74.9998ZM568.157 63.5058L555.97 51.3188L554.555 52.733L566.742 64.92L568.157 63.5058Z" fill="#003831" mask="url(#path-31-inside-2)"/>
<mask id="path-33-inside-3" fill="white">
<path d="M570.539 66.7864L567.168 63.5288L579.355 75.7158L582.726 78.9735L570.539 66.7864Z"/>
</mask>
<path d="M570.539 66.7864L567.168 63.5288L579.355 75.7158L582.726 78.9735L570.539 66.7864Z" fill="#898990" fill-opacity="0.2"/>
<path d="M567.168 63.5288L567.863 62.8098C567.468 62.4283 566.84 62.4363 566.455 62.8277C566.07 63.2192 566.073 63.8477 566.461 64.2359L567.168 63.5288ZM570.539 66.7864L571.246 66.0793C571.242 66.0753 571.238 66.0713 571.233 66.0674L570.539 66.7864ZM582.726 78.9735L582.031 79.6925C582.425 80.074 583.054 80.066 583.439 79.6745C583.823 79.2831 583.821 78.6545 583.433 78.2664L582.726 78.9735ZM579.355 75.7158L578.648 76.4229C578.652 76.4269 578.656 76.4309 578.66 76.4349L579.355 75.7158ZM566.473 64.2479L569.844 67.5055L571.233 66.0674L567.863 62.8098L566.473 64.2479ZM569.831 67.4936L582.018 79.6806L583.433 78.2664L571.246 66.0793L569.831 67.4936ZM583.42 78.2544L580.05 74.9968L578.66 76.4349L582.031 79.6925L583.42 78.2544ZM580.062 75.0087L567.875 62.8217L566.461 64.2359L578.648 76.4229L580.062 75.0087Z" fill="#003831" mask="url(#path-33-inside-3)"/>
<path d="M541.007 135.14L533.627 127.759L515.27 102.987L522.65 110.368L541.007 135.14Z" fill="#898990" fill-opacity="0.2" stroke="#003831" stroke-linejoin="round"/>
<path d="M478.148 128.473C478.194 155.027 487.12 179.496 502.118 199.074C480.703 178.327 467.297 149.378 466.967 117.292L478.148 128.473Z" fill="#898990" fill-opacity="0.2" stroke="#003831" stroke-linejoin="round"/>
<path d="M525.87 159.848L512.549 146.238L533.137 124.18L544.783 140.229L525.87 159.848Z" fill="#898990" fill-opacity="0.2" stroke="#003831" stroke-linejoin="round"/>
<path d="M636.286 62.7606L622.428 53.2676L657.706 28.3356L669.173 39.8027L636.286 62.7606Z" fill="#898990" fill-opacity="0.2" stroke="#003831" stroke-linejoin="round"/>
<path d="M634.866 63.8516L647.037 76.0221C643.037 72.0247 638.455 67.4404 634.866 63.8516Z" fill="#898990" fill-opacity="0.2"/>
<path d="M634.866 63.8516L647.037 76.0221C643.037 72.0247 638.455 67.4404 634.866 63.8516Z" fill="#898990" fill-opacity="0.2"/>
<path d="M634.85 63.835C630.435 60.3291 626.149 56.9261 621.552 53.2754L634.85 63.835ZM634.85 63.835L647.037 76.0221C643.031 72.0186 638.441 67.4264 634.85 63.835Z" stroke="#003831" stroke-linejoin="round"/>
<path d="M542.775 180.164L539.213 176.602C540.518 177.538 541.854 178.432 543.219 179.284L551.726 187.791C548.542 185.488 545.549 182.936 542.775 180.164C542.775 180.164 542.775 180.164 542.775 180.164Z" fill="#898990" fill-opacity="0.2" stroke="#003831" stroke-linejoin="round"/>
<path d="M650.277 85.1418C648.288 80.7926 645.89 76.6713 643.135 72.8246L646.683 76.3726L646.683 76.3727C652.168 81.855 656.792 88.1985 660.325 95.1906L650.277 85.1418Z" fill="#898990" fill-opacity="0.2" stroke="#003831" stroke-linejoin="round"/>
<path d="M644.019 115.553L632.539 104.073L649.865 86.1463L661.345 97.6261L644.019 115.553Z" fill="#898990" fill-opacity="0.2" stroke="#003831" stroke-linejoin="round"/>
<path d="M576.548 199.314L565.076 187.842L594.497 166.039L605.969 177.511L576.548 199.314Z" fill="#898990" fill-opacity="0.2" stroke="#003831" stroke-linejoin="round"/>
<path d="M654.622 133.982L636.264 109.21L643.645 116.591L662.002 141.363L654.622 133.982Z" fill="#898990" fill-opacity="0.2" stroke="#003831" stroke-linejoin="round"/>
<mask id="path-46-inside-4" fill="white">
<path d="M594.546 165.381L597.917 168.639L610.104 180.826L606.733 177.568L594.546 165.381Z"/>
</mask>
<path d="M594.546 165.381L597.917 168.639L610.104 180.826L606.733 177.568L594.546 165.381Z" fill="#898990" fill-opacity="0.2"/>
<path d="M597.917 168.639L598.624 167.931C598.62 167.927 598.616 167.923 598.611 167.919L597.917 168.639ZM594.546 165.381L595.241 164.662C594.846 164.28 594.218 164.288 593.833 164.68C593.448 165.071 593.451 165.7 593.839 166.088L594.546 165.381ZM606.733 177.568L606.026 178.275C606.03 178.279 606.034 178.283 606.038 178.287L606.733 177.568ZM610.104 180.826L609.409 181.545C609.803 181.926 610.432 181.918 610.817 181.527C611.201 181.135 611.199 180.507 610.811 180.118L610.104 180.826ZM598.611 167.919L595.241 164.662L593.851 166.1L597.222 169.358L598.611 167.919ZM593.839 166.088L606.026 178.275L607.44 176.861L595.253 164.674L593.839 166.088ZM606.038 178.287L609.409 181.545L610.798 180.107L607.428 176.849L606.038 178.287ZM610.811 180.118L598.624 167.931L597.209 169.346L609.396 181.533L610.811 180.118Z" fill="#003831" mask="url(#path-46-inside-4)"/>
<path d="M581.091 228.997L593.648 243.849C572.707 243.693 551.229 238.99 534.424 229.164L524.402 218.079C534.466 221.51 557.656 228.948 581.091 228.997Z" fill="#898990" fill-opacity="0.2" stroke="#003831" stroke-linejoin="round"/>
<mask id="path-49-inside-5" fill="white">
<path d="M597.915 168.638L609.82 180.144L622.007 192.331L610.102 180.825L597.915 168.638Z"/>
</mask>
<path d="M597.915 168.638L609.82 180.144L622.007 192.331L610.102 180.825L597.915 168.638Z" fill="#898990" fill-opacity="0.2"/>
<path d="M609.82 180.144L610.527 179.436C610.523 179.432 610.519 179.428 610.515 179.424L609.82 180.144ZM597.915 168.638L598.61 167.919C598.216 167.537 597.587 167.545 597.202 167.937C596.817 168.328 596.82 168.957 597.208 169.345L597.915 168.638ZM610.102 180.825L609.395 181.532C609.399 181.536 609.403 181.54 609.407 181.544L610.102 180.825ZM622.007 192.331L621.312 193.05C621.707 193.431 622.335 193.423 622.72 193.032C623.105 192.64 623.102 192.012 622.714 191.623L622.007 192.331ZM610.515 179.424L598.61 167.919L597.22 169.357L609.125 180.863L610.515 179.424ZM597.208 169.345L609.395 181.532L610.809 180.118L598.622 167.931L597.208 169.345ZM609.407 181.544L621.312 193.05L622.702 191.612L610.797 180.106L609.407 181.544ZM622.714 191.623L610.527 179.436L609.113 180.851L621.3 193.038L622.714 191.623Z" fill="#003831" mask="url(#path-49-inside-5)"/>
<mask id="path-51-inside-6" fill="white">
<path d="M609.821 180.137L613.191 183.394L625.378 195.581L622.008 192.324L609.821 180.137Z"/>
</mask>
<path d="M609.821 180.137L613.191 183.394L625.378 195.581L622.008 192.324L609.821 180.137Z" fill="#898990" fill-opacity="0.2"/>
<path d="M613.191 183.394L613.899 182.687C613.894 182.683 613.89 182.679 613.886 182.675L613.191 183.394ZM609.821 180.137L610.516 179.418C610.121 179.036 609.493 179.044 609.108 179.436C608.723 179.827 608.726 180.456 609.114 180.844L609.821 180.137ZM622.008 192.324L621.301 193.031C621.305 193.035 621.309 193.039 621.313 193.043L622.008 192.324ZM625.378 195.581L624.683 196.3C625.078 196.682 625.707 196.674 626.092 196.282C626.476 195.891 626.474 195.262 626.086 194.874L625.378 195.581ZM613.886 182.675L610.516 179.418L609.126 180.856L612.496 184.113L613.886 182.675ZM609.114 180.844L621.301 193.031L622.715 191.617L610.528 179.43L609.114 180.844ZM621.313 193.043L624.683 196.3L626.073 194.862L622.703 191.605L621.313 193.043ZM626.086 194.874L613.899 182.687L612.484 184.102L624.671 196.289L626.086 194.874Z" fill="#003831" mask="url(#path-51-inside-6)"/>
<path d="M683.152 174.348L658.034 138.807L666.046 146.819L691.164 182.36L683.152 174.348Z" fill="#898990" fill-opacity="0.2" stroke="#003831" stroke-linejoin="round"/>
<path d="M657.158 167.607L680.218 200.236L669.429 190.66L657.097 173.318L647.717 158.622L657.158 167.607Z" fill="#898990" fill-opacity="0.2" stroke="#003831" stroke-linejoin="round"/>
<path d="M514.866 146.383L514.629 146.628L514.771 146.938C520.777 160.115 530.529 171.204 542.633 178.914L507.353 203.847C482.623 182.65 466.961 151.197 466.961 116.081C466.961 95.0628 472.572 75.3601 482.377 58.3795L512.458 96.9599L534.24 126.385L514.866 146.383ZM552.24 48.405L551.995 48.1683L551.685 48.3096C538.514 54.3134 527.5 63.5624 519.788 75.6583L494.778 40.8892C515.975 16.161 547.428 0.5 582.542 0.5C603.599 0.5 624.943 4.44775 641.259 14.8626L600.481 43.9746L600.474 43.9799L570.581 66.1318L552.24 48.405ZM698.124 116.081C698.124 137.086 692.52 156.777 682.727 173.749L654.65 134.022L654.65 134.022L654.644 134.013L632.492 104.12L650.219 85.7792L650.455 85.5342L650.314 85.2243C644.308 72.0478 634.556 60.9585 622.452 53.2486L657.732 28.3153C682.462 49.5124 698.124 80.9661 698.124 116.081ZM612.844 183.758L613.089 183.994L613.399 183.853C626.578 177.846 637.669 168.092 645.379 155.985L657.432 172.722L657.437 172.729L670.31 191.268C649.113 216 617.659 231.663 582.542 231.663C561.523 231.663 540.65 226.701 523.659 216.934L564.6 188.19L564.6 188.19L564.611 188.183L594.503 166.031L612.844 183.758Z" fill="#F3F6F4" stroke="#003831"/>
</g>
<g opacity="0.08">
<path d="M45.1267 625.248L44.9098 625.472L45.0161 625.766C45.1099 626.024 45.1987 626.278 45.2865 626.528C45.825 628.064 46.3279 629.499 47.7127 631.424C49.3093 633.644 52.0718 636.515 57.4125 641.061C58.404 642.054 59.3055 643.111 60.2187 644.182C60.6645 644.704 61.1131 645.23 61.5763 645.754C62.8174 647.156 64.1412 648.511 65.724 649.609L39.6185 668.059C21.2338 652.264 9.59473 628.854 9.59473 602.723C9.59473 587.141 13.7329 572.531 20.9689 559.922L41.807 589.407L41.8069 589.407L41.8136 589.416L58.2809 611.638L45.1267 625.248ZM72.8497 552.486L73.1972 552.127L72.9523 551.89L72.6424 552.031C62.829 556.504 53.6575 564.893 47.8584 573.927L40.2229 563.837L29.4804 548.006C37.3861 538.83 49.8743 529.503 63.6677 522.446C77.6084 515.313 92.8252 510.527 105.929 510.527C121.37 510.527 130 517.567 140.535 526.16C140.579 526.196 140.623 526.232 140.667 526.268L109.037 548.808L109.036 548.808L109.029 548.814L86.8074 565.281L86.4138 564.901L84.5967 563.144L80.1547 558.851L75.7126 554.558L73.8955 552.802L73.3805 552.304L73.2441 552.172L73.2091 552.138L73.2002 552.13L73.198 552.127L73.1974 552.127L73.1973 552.127L72.8497 552.486ZM181.851 602.723C181.851 618.304 177.712 632.915 170.476 645.523L149.638 616.038L149.638 616.038L149.632 616.029L133.164 593.807L146.319 580.197L146.555 579.952L146.414 579.642C143.636 573.547 139.786 568.049 135.111 563.377C133.916 562.183 132.988 560.728 132.028 559.225C131.826 558.908 131.623 558.589 131.415 558.27C130.372 556.669 129.232 555.078 127.659 553.911L151.822 537.382C170.21 553.177 181.851 576.589 181.851 602.723ZM51.6215 678.337L82.4066 656.639L82.4067 656.639L82.4162 656.632L104.638 640.164L105.031 640.545L106.849 642.301L111.291 646.594L115.733 650.887L117.55 652.644L118.065 653.141L118.201 653.273L118.236 653.307L118.245 653.316L118.247 653.318L118.248 653.318L118.248 653.319L118.595 652.959L118.248 653.319L118.493 653.555L118.803 653.414C128.601 648.948 136.856 641.713 142.618 632.733L161.059 658.827C145.264 677.211 121.854 688.851 95.7226 688.851C80.1153 688.851 64.2537 685.532 51.6215 678.337Z" fill="#898990" fill-opacity="0.2" stroke="#003831"/>
<path d="M29.7242 545.854L21.3384 537.468C37.091 519.164 60.3985 507.561 86.4201 507.5L94.5228 515.603C68.6246 515.952 45.4573 527.604 29.7242 545.854Z" fill="#898990" fill-opacity="0.2" stroke="#003831" stroke-linejoin="round"/>
<path d="M8.60288 601.522L0.500243 593.419C0.536806 577.869 4.69489 563.292 11.9386 550.713L20.3014 559.076C13.0447 571.588 8.81139 586.068 8.60288 601.522Z" fill="#898990" fill-opacity="0.2" stroke="#003831" stroke-linejoin="round"/>
<path d="M38.4225 584.618L33.5032 579.699L15.6233 554.399L20.5426 559.319L38.4225 584.618Z" fill="#898990" fill-opacity="0.2" stroke="#003831" stroke-linejoin="round"/>
<mask id="path-60-inside-7" fill="white">
<path d="M66.2707 545.82L63.7554 543.389L72.8502 552.483L75.3655 554.915L66.2707 545.82Z"/>
</mask>
<path d="M66.2707 545.82L63.7554 543.389L72.8502 552.483L75.3655 554.915L66.2707 545.82Z" fill="#898990" fill-opacity="0.2"/>
<path d="M63.7554 543.389L64.4503 542.67C64.0556 542.288 63.4271 542.296 63.0423 542.688C62.6574 543.079 62.6601 543.708 63.0483 544.096L63.7554 543.389ZM66.2707 545.82L66.9778 545.113C66.9738 545.109 66.9698 545.105 66.9657 545.101L66.2707 545.82ZM75.3655 554.915L74.6705 555.634C75.0653 556.015 75.6938 556.007 76.0786 555.616C76.4635 555.224 76.4608 554.596 76.0726 554.207L75.3655 554.915ZM72.8502 552.483L72.1431 553.191C72.1471 553.195 72.1511 553.199 72.1552 553.203L72.8502 552.483ZM63.0604 544.108L65.5758 546.539L66.9657 545.101L64.4503 542.67L63.0604 544.108ZM65.5636 546.527L74.6584 555.622L76.0726 554.207L66.9778 545.113L65.5636 546.527ZM76.0605 554.195L73.5451 551.764L72.1552 553.203L74.6705 555.634L76.0605 554.195ZM73.5573 551.776L64.4625 542.682L63.0483 544.096L72.1431 553.191L73.5573 551.776Z" fill="#003831" mask="url(#path-60-inside-7)"/>
<mask id="path-62-inside-8" fill="white">
<path d="M75.1539 554.412L66.2698 545.825L75.3646 554.92L84.2487 563.507L75.1539 554.412Z"/>
</mask>
<path d="M75.1539 554.412L66.2698 545.825L75.3646 554.92L84.2487 563.507L75.1539 554.412Z" fill="#898990" fill-opacity="0.2"/>
<path d="M66.2698 545.825L66.9647 545.106C66.57 544.725 65.9415 544.733 65.5567 545.124C65.1718 545.516 65.1745 546.144 65.5627 546.532L66.2698 545.825ZM75.1539 554.412L75.8611 553.705C75.857 553.701 75.853 553.697 75.8489 553.693L75.1539 554.412ZM84.2487 563.507L83.5538 564.226C83.9485 564.607 84.577 564.599 84.9618 564.208C85.3467 563.816 85.344 563.188 84.9558 562.799L84.2487 563.507ZM75.3646 554.92L74.6575 555.627C74.6615 555.631 74.6655 555.635 74.6696 555.639L75.3646 554.92ZM65.5748 546.544L74.459 555.131L75.8489 553.693L66.9647 545.106L65.5748 546.544ZM74.4468 555.119L83.5416 564.214L84.9558 562.799L75.8611 553.705L74.4468 555.119ZM84.9437 562.787L76.0595 554.201L74.6696 555.639L83.5538 564.226L84.9437 562.787ZM76.0717 554.213L66.9769 545.118L65.5627 546.532L74.6575 555.627L76.0717 554.213Z" fill="#003831" mask="url(#path-62-inside-8)"/>
<mask id="path-64-inside-9" fill="white">
<path d="M77.6699 556.841L75.1545 554.41L84.2493 563.504L86.7647 565.936L77.6699 556.841Z"/>
</mask>
<path d="M77.6699 556.841L75.1545 554.41L84.2493 563.504L86.7647 565.936L77.6699 556.841Z" fill="#898990" fill-opacity="0.2"/>
<path d="M75.1545 554.41L75.8495 553.691C75.4548 553.309 74.8263 553.317 74.4414 553.709C74.0566 554.1 74.0593 554.729 74.4474 555.117L75.1545 554.41ZM77.6699 556.841L78.377 556.134C78.373 556.13 78.3689 556.126 78.3648 556.122L77.6699 556.841ZM86.7647 565.936L86.0697 566.655C86.4644 567.036 87.0929 567.028 87.4778 566.637C87.8626 566.245 87.86 565.617 87.4718 565.228L86.7647 565.936ZM84.2493 563.504L83.5422 564.212C83.5462 564.216 83.5503 564.22 83.5544 564.224L84.2493 563.504ZM74.4596 555.129L76.9749 557.56L78.3648 556.122L75.8495 553.691L74.4596 555.129ZM76.9628 557.548L86.0576 566.643L87.4718 565.228L78.377 556.134L76.9628 557.548ZM87.4596 565.216L84.9443 562.785L83.5544 564.224L86.0697 566.655L87.4596 565.216ZM84.9564 562.797L75.8616 553.703L74.4474 555.117L83.5422 564.212L84.9564 562.797Z" fill="#003831" mask="url(#path-64-inside-9)"/>
<path d="M54.5082 606.548L50.2199 602.26L37.5474 585.159L41.8357 589.447L54.5082 606.548Z" fill="#898990" fill-opacity="0.2" stroke="#003831" stroke-linejoin="round"/>
<path d="M8.59503 602.928C8.63979 622.136 14.9017 639.883 25.4771 654.265C10.3001 638.968 0.828958 618.011 0.508404 594.841L8.59503 602.928Z" fill="#898990" fill-opacity="0.2" stroke="#003831" stroke-linejoin="round"/>
<path d="M44.3345 626.108L34.5698 616.131L49.7457 599.871L58.2843 611.637L44.3345 626.108Z" fill="#898990" fill-opacity="0.2" stroke="#003831" stroke-linejoin="round"/>
<path d="M126.734 553.682L116.615 546.75L142.706 528.311L151.081 536.686L126.734 553.682Z" fill="#898990" fill-opacity="0.2" stroke="#003831" stroke-linejoin="round"/>
<path d="M125.663 554.638L134.758 563.733C131.769 560.745 128.344 557.318 125.663 554.638Z" fill="#898990" fill-opacity="0.2"/>
<path d="M125.663 554.638L134.758 563.733C131.769 560.745 128.344 557.318 125.663 554.638Z" fill="#898990" fill-opacity="0.2"/>
<path d="M125.663 554.638C122.369 552.022 119.171 549.482 115.74 546.758L125.663 554.638ZM125.663 554.638L134.758 563.733C131.769 560.745 128.344 557.318 125.663 554.638Z" stroke="#003831" stroke-linejoin="round"/>
<path d="M57.0405 641.361L55.3987 639.719C55.992 640.122 56.5934 640.514 57.2026 640.894L62.2888 645.98C60.4424 644.552 58.6892 643.009 57.0406 641.361C57.0406 641.361 57.0406 641.361 57.0405 641.361Z" fill="#898990" fill-opacity="0.2" stroke="#003831" stroke-linejoin="round"/>
<path d="M134.405 564.084C138.299 567.977 141.611 572.452 144.191 577.374L137.282 570.465C135.997 567.658 134.485 564.979 132.77 562.449L134.405 564.084L134.405 564.084Z" fill="#898990" fill-opacity="0.2" stroke="#003831" stroke-linejoin="round"/>
<path d="M132.504 593.052L124.117 584.665L136.87 571.469L145.258 579.857L132.504 593.052Z" fill="#898990" fill-opacity="0.2" stroke="#003831" stroke-linejoin="round"/>
<path d="M82.1672 655.574L73.7873 647.194L95.5371 631.077L103.917 639.457L82.1672 655.574Z" fill="#898990" fill-opacity="0.2" stroke="#003831" stroke-linejoin="round"/>
<path d="M140.515 606.904L127.842 589.803L132.131 594.091L144.803 611.192L140.515 606.904Z" fill="#898990" fill-opacity="0.2" stroke="#003831" stroke-linejoin="round"/>
<mask id="path-77-inside-10" fill="white">
<path d="M95.5859 630.418L98.1013 632.85L107.196 641.944L104.681 639.513L95.5859 630.418Z"/>
</mask>
<path d="M95.5859 630.418L98.1013 632.85L107.196 641.944L104.681 639.513L95.5859 630.418Z" fill="#898990" fill-opacity="0.2"/>
<path d="M98.1013 632.85L98.8084 632.142C98.8044 632.138 98.8004 632.134 98.7963 632.131L98.1013 632.85ZM95.5859 630.418L96.2809 629.699C95.8862 629.318 95.2577 629.326 94.8728 629.717C94.488 630.109 94.4907 630.737 94.8788 631.126L95.5859 630.418ZM104.681 639.513L103.974 640.22C103.978 640.224 103.982 640.228 103.986 640.232L104.681 639.513ZM107.196 641.944L106.501 642.663C106.896 643.045 107.524 643.037 107.909 642.645C108.294 642.254 108.291 641.625 107.903 641.237L107.196 641.944ZM98.7963 632.131L96.2809 629.699L94.891 631.138L97.4064 633.569L98.7963 632.131ZM94.8788 631.126L103.974 640.22L105.388 638.806L96.293 629.711L94.8788 631.126ZM103.986 640.232L106.501 642.663L107.891 641.225L105.376 638.794L103.986 640.232ZM107.903 641.237L98.8084 632.142L97.3942 633.557L106.489 642.651L107.903 641.237Z" fill="#003831" mask="url(#path-77-inside-10)"/>
<path d="M85.4857 678.02L94.6401 688.848C79.1232 688.692 63.2403 685.187 50.7995 677.918L43.6616 670.023C51.3957 672.644 68.3455 677.972 85.4857 678.02Z" fill="#898990" fill-opacity="0.2" stroke="#003831" stroke-linejoin="round"/>
<mask id="path-80-inside-11" fill="white">
<path d="M98.1003 632.849L106.984 641.436L116.079 650.53L107.195 641.944L98.1003 632.849Z"/>
</mask>
<path d="M98.1003 632.849L106.984 641.436L116.079 650.53L107.195 641.944L98.1003 632.849Z" fill="#898990" fill-opacity="0.2"/>
<path d="M106.984 641.436L107.692 640.728C107.688 640.724 107.683 640.72 107.679 640.717L106.984 641.436ZM98.1003 632.849L98.7953 632.13C98.4006 631.749 97.7721 631.757 97.3872 632.148C97.0024 632.54 97.0051 633.168 97.3932 633.556L98.1003 632.849ZM107.195 641.944L106.488 642.651C106.492 642.655 106.496 642.659 106.5 642.663L107.195 641.944ZM116.079 650.53L115.384 651.249C115.779 651.631 116.407 651.623 116.792 651.231C117.177 650.84 117.175 650.211 116.786 649.823L116.079 650.53ZM107.679 640.717L98.7953 632.13L97.4054 633.568L106.289 642.155L107.679 640.717ZM97.3932 633.556L106.488 642.651L107.902 641.237L98.8074 632.142L97.3932 633.556ZM106.5 642.663L115.384 651.249L116.774 649.811L107.89 641.225L106.5 642.663ZM116.786 649.823L107.692 640.728L106.277 642.143L115.372 651.237L116.786 649.823Z" fill="#003831" mask="url(#path-80-inside-11)"/>
<mask id="path-82-inside-12" fill="white">
<path d="M106.985 641.431L109.5 643.862L118.595 652.957L116.08 650.525L106.985 641.431Z"/>
</mask>
<path d="M106.985 641.431L109.5 643.862L118.595 652.957L116.08 650.525L106.985 641.431Z" fill="#898990" fill-opacity="0.2"/>
<path d="M109.5 643.862L110.208 643.155C110.204 643.151 110.2 643.147 110.195 643.143L109.5 643.862ZM106.985 641.431L107.68 640.712C107.285 640.33 106.657 640.338 106.272 640.73C105.887 641.121 105.89 641.75 106.278 642.138L106.985 641.431ZM116.08 650.525L115.373 651.233C115.377 651.237 115.381 651.241 115.385 651.245L116.08 650.525ZM118.595 652.957L117.9 653.676C118.295 654.057 118.924 654.049 119.308 653.658C119.693 653.266 119.691 652.638 119.302 652.249L118.595 652.957ZM110.195 643.143L107.68 640.712L106.29 642.15L108.806 644.581L110.195 643.143ZM106.278 642.138L115.373 651.233L116.787 649.818L107.692 640.724L106.278 642.138ZM115.385 651.245L117.9 653.676L119.29 652.238L116.775 649.806L115.385 651.245ZM119.302 652.249L110.208 643.155L108.793 644.569L117.888 653.664L119.302 652.249Z" fill="#003831" mask="url(#path-82-inside-12)"/>
<path d="M161.807 637.029L143.927 611.729L148.847 616.649L166.726 641.948L161.807 637.029Z" fill="#898990" fill-opacity="0.2" stroke="#003831" stroke-linejoin="round"/>
<path d="M142.215 632.163L158.782 655.605L151.564 649.198L142.371 636.271L135.934 626.186L142.215 632.163Z" fill="#898990" fill-opacity="0.2" stroke="#003831" stroke-linejoin="round"/>
<path d="M36.0324 616.153L35.7951 616.398L35.9365 616.708C40.4027 626.506 47.6377 634.761 56.6172 640.523L30.5238 658.964C12.1391 643.169 0.5 619.759 0.5 593.628C0.5 578.033 4.64561 563.41 11.8936 550.793L34.2254 579.435L50.4156 601.306L36.0324 616.153ZM64.1025 543.032L63.8576 542.795L63.5476 542.937C53.7548 547.4 45.5544 554.264 39.7905 563.236L21.2937 537.521C37.0886 519.138 60.4978 507.5 86.6279 507.5C102.261 507.5 118.092 510.419 130.22 518.098L99.9414 539.714L99.9414 539.714L99.9343 539.719L77.7126 556.186L64.1025 543.032ZM172.756 593.628C172.756 609.209 168.618 623.82 161.382 636.429L140.543 606.943L140.544 606.943L140.537 606.934L124.07 584.713L137.224 571.102L137.461 570.858L137.319 570.548C132.853 560.75 125.618 552.495 116.639 546.732L142.732 528.292C161.117 544.086 172.756 567.497 172.756 593.628ZM42.9216 668.88L73.3111 647.544L73.3112 647.545L73.3215 647.537L95.5432 631.07L109.153 644.224L109.398 644.461L109.708 644.319C119.508 639.852 127.765 632.615 133.527 623.633L142.411 635.969L142.416 635.976L151.966 649.729C136.171 668.116 112.76 679.756 86.6279 679.756C71.0315 679.756 55.5476 676.091 42.9216 668.88Z" fill="#F3F6F4" stroke="#003831"/>
</g>
<g opacity="0.08">
<path d="M116.295 156.195L116.078 156.419L116.185 156.713C116.287 156.994 116.383 157.268 116.478 157.54C117.062 159.204 117.605 160.754 119.102 162.836C120.83 165.238 123.821 168.347 129.61 173.274C130.686 174.352 131.666 175.5 132.657 176.662C133.139 177.228 133.625 177.798 134.126 178.364C135.483 179.898 136.93 181.377 138.664 182.57L110.292 202.621C90.3423 185.493 77.7107 160.099 77.7107 131.751C77.7107 114.831 82.2105 98.9675 90.0773 85.2821L112.701 117.294L112.701 117.294L112.708 117.303L130.578 141.418L116.295 156.195ZM146.661 76.9408L146.416 76.7041L146.106 76.8454C135.46 81.6985 125.509 90.8075 119.229 100.613L110.916 89.6278L99.2537 72.4413C107.826 62.4828 121.376 52.3603 136.342 44.7026C151.456 36.9695 167.956 31.7793 182.168 31.7793C198.919 31.7793 208.284 39.4183 219.701 48.7315C219.764 48.7825 219.826 48.8337 219.889 48.8849L185.56 73.3479L185.56 73.3479L185.553 73.3534L161.439 91.2232L160.987 90.7862L159.017 88.8827L154.202 84.2293L149.388 79.5759L147.418 77.6723L146.86 77.1328L146.712 76.99L146.674 76.9533L146.665 76.944L146.662 76.9416L146.661 76.941L146.661 76.9409L146.314 77.3004L146.661 76.9408ZM264.5 131.751C264.5 148.67 260 164.534 252.133 178.22L229.509 146.208L229.51 146.207L229.503 146.198L211.633 122.084L225.915 107.307L226.152 107.062L226.011 106.752C223.001 100.15 218.832 94.1949 213.768 89.1344C212.47 87.8364 211.46 86.255 210.42 84.6253C210.201 84.2824 209.981 83.9374 209.757 83.5925C208.616 81.8408 207.371 80.1063 205.648 78.8437L231.914 60.8767C251.867 78.0044 264.5 103.401 264.5 131.751ZM123.227 213.712L156.648 190.155L156.648 190.155L156.658 190.148L180.772 172.279L181.224 172.716L183.194 174.619L188.008 179.272L192.823 183.926L194.793 185.829L195.351 186.369L195.499 186.512L195.537 186.548L195.546 186.558L195.549 186.56L195.549 186.561L195.549 186.561L195.897 186.201L195.549 186.561L195.794 186.798L196.104 186.656C206.736 181.81 215.69 173.954 221.933 164.204L241.976 192.564C224.848 212.514 199.453 225.146 171.105 225.146C154.16 225.146 136.936 221.538 123.227 213.712Z" fill="#898990" fill-opacity="0.2" stroke="#003831"/>
<path d="M99.5729 70.1748L90.4243 61.0262C107.51 41.1566 132.802 28.5615 161.04 28.5002L169.905 37.3652C141.79 37.7154 116.639 50.3597 99.5729 70.1748Z" fill="#898990" fill-opacity="0.2" stroke="#003831" stroke-linejoin="round"/>
<path d="M76.7177 130.551L67.8528 121.686C67.8894 104.798 72.4091 88.967 80.2836 75.3119L89.4094 84.4378C81.522 98.0257 76.9269 113.759 76.7177 130.551Z" fill="#898990" fill-opacity="0.2" stroke="#003831" stroke-linejoin="round"/>
<path d="M109.317 112.506L103.634 106.824L83.9688 78.9979L89.651 84.6801L109.317 112.506Z" fill="#898990" fill-opacity="0.2" stroke="#003831" stroke-linejoin="round"/>
<mask id="path-91-inside-13" fill="white">
<path d="M139.182 70.0754L136.456 67.4404L146.314 77.2981L149.04 79.9331L139.182 70.0754Z"/>
</mask>
<path d="M139.182 70.0754L136.456 67.4404L146.314 77.2981L149.04 79.9331L139.182 70.0754Z" fill="#898990" fill-opacity="0.2"/>
<path d="M136.456 67.4404L137.151 66.7214C136.756 66.3399 136.128 66.3479 135.743 66.7394C135.358 67.1308 135.361 67.7594 135.749 68.1475L136.456 67.4404ZM139.182 70.0754L139.889 69.3683C139.885 69.3643 139.881 69.3603 139.877 69.3564L139.182 70.0754ZM149.04 79.9331L148.345 80.6522C148.74 81.0337 149.368 81.0257 149.753 80.6342C150.138 80.2427 150.135 79.6142 149.747 79.226L149.04 79.9331ZM146.314 77.2981L145.606 78.0052C145.61 78.0093 145.614 78.0132 145.619 78.0172L146.314 77.2981ZM135.761 68.1595L138.487 70.7945L139.877 69.3564L137.151 66.7214L135.761 68.1595ZM138.475 70.7825L148.333 80.6403L149.747 79.226L139.889 69.3683L138.475 70.7825ZM149.735 79.2141L147.008 76.5791L145.619 78.0172L148.345 80.6522L149.735 79.2141ZM147.021 76.591L137.163 66.7333L135.749 68.1475L145.606 78.0052L147.021 76.591Z" fill="#003831" mask="url(#path-91-inside-13)"/>
<mask id="path-93-inside-14" fill="white">
<path d="M148.811 79.3889L139.181 70.082L149.039 79.9397L158.669 89.2466L148.811 79.3889Z"/>
</mask>
<path d="M148.811 79.3889L139.181 70.082L149.039 79.9397L158.669 89.2466L148.811 79.3889Z" fill="#898990" fill-opacity="0.2"/>
<path d="M139.181 70.082L139.876 69.363C139.482 68.9815 138.853 68.9895 138.468 69.381C138.083 69.7724 138.086 70.401 138.474 70.7891L139.181 70.082ZM148.811 79.3889L149.518 78.6818C149.514 78.6777 149.51 78.6738 149.506 78.6698L148.811 79.3889ZM158.669 89.2466L157.974 89.9656C158.368 90.3471 158.997 90.3391 159.382 89.9476C159.766 89.5562 159.764 88.9276 159.376 88.5395L158.669 89.2466ZM149.039 79.9397L148.332 80.6468C148.336 80.6509 148.34 80.6548 148.344 80.6588L149.039 79.9397ZM138.486 70.8011L148.116 80.1079L149.506 78.6698L139.876 69.363L138.486 70.8011ZM148.104 80.096L157.961 89.9537L159.376 88.5395L149.518 78.6818L148.104 80.096ZM159.363 88.5275L149.734 79.2207L148.344 80.6588L157.974 89.9656L159.363 88.5275ZM149.746 79.2326L139.889 69.3749L138.474 70.7891L148.332 80.6468L149.746 79.2326Z" fill="#003831" mask="url(#path-93-inside-14)"/>
<mask id="path-95-inside-15" fill="white">
<path d="M151.537 82.0222L148.811 79.3872L158.669 89.2449L161.395 91.8799L151.537 82.0222Z"/>
</mask>
<path d="M151.537 82.0222L148.811 79.3872L158.669 89.2449L161.395 91.8799L151.537 82.0222Z" fill="#898990" fill-opacity="0.2"/>
<path d="M148.811 79.3872L149.506 78.6682C149.111 78.2867 148.483 78.2947 148.098 78.6861C147.713 79.0776 147.716 79.7061 148.104 80.0943L148.811 79.3872ZM151.537 82.0222L152.244 81.3151C152.24 81.3111 152.236 81.3071 152.232 81.3032L151.537 82.0222ZM161.395 91.8799L160.7 92.599C161.095 92.9805 161.723 92.9724 162.108 92.581C162.493 92.1895 162.49 91.561 162.102 91.1728L161.395 91.8799ZM158.669 89.2449L157.962 89.952C157.966 89.956 157.97 89.96 157.974 89.964L158.669 89.2449ZM148.116 80.1063L150.842 82.7413L152.232 81.3032L149.506 78.6682L148.116 80.1063ZM150.83 82.7293L160.688 92.587L162.102 91.1728L152.244 81.3151L150.83 82.7293ZM162.09 91.1609L159.364 88.5259L157.974 89.964L160.7 92.599L162.09 91.1609ZM159.376 88.5378L149.518 78.6801L148.104 80.0943L157.962 89.952L159.376 88.5378Z" fill="#003831" mask="url(#path-95-inside-15)"/>
<path d="M126.805 136.332L121.754 131.281L107.678 112.287L112.73 117.338L126.805 136.332Z" fill="#898990" fill-opacity="0.2" stroke="#003831" stroke-linejoin="round"/>
<path d="M76.7105 131.957C76.7557 152.977 83.6734 172.383 95.3383 188.049C78.624 171.404 68.1837 148.476 67.8603 123.106L76.7105 131.957Z" fill="#898990" fill-opacity="0.2" stroke="#003831" stroke-linejoin="round"/>
<path d="M115.406 157.157L104.764 146.283L121.275 128.593L130.581 141.415L115.406 157.157Z" fill="#898990" fill-opacity="0.2" stroke="#003831" stroke-linejoin="round"/>
<path d="M204.719 78.6502L193.677 71.0866L222.035 51.0456L231.172 60.1833L204.719 78.6502Z" fill="#898990" fill-opacity="0.2" stroke="#003831" stroke-linejoin="round"/>
<path d="M203.558 79.6312L213.415 89.4889C210.175 86.2507 206.463 82.5361 203.558 79.6312Z" fill="#898990" fill-opacity="0.2"/>
<path d="M203.558 79.6312L213.415 89.4889C210.175 86.2507 206.463 82.5361 203.558 79.6312Z" fill="#898990" fill-opacity="0.2"/>
<path d="M203.558 79.6312C199.987 76.7954 196.52 74.0428 192.802 71.0898L203.558 79.6312ZM203.558 79.6312L213.415 89.4889C210.175 86.2507 206.463 82.5361 203.558 79.6312Z" stroke="#003831" stroke-linejoin="round"/>
<path d="M129.148 173.665L127.049 171.566C127.814 172.093 128.591 172.603 129.38 173.096L135.344 179.06C133.156 177.404 131.086 175.601 129.148 173.665C129.148 173.665 129.148 173.665 129.148 173.665Z" fill="#898990" fill-opacity="0.2" stroke="#003831" stroke-linejoin="round"/>
<path d="M216.115 96.8128C214.66 93.6328 212.935 90.6033 210.971 87.7522L213.061 89.8426L213.061 89.8427C217.349 94.1286 220.985 99.0661 223.802 104.5L216.115 96.8128Z" fill="#898990" fill-opacity="0.2" stroke="#003831" stroke-linejoin="round"/>
<path d="M210.972 121.331L201.822 112.181L215.704 97.8177L224.854 106.968L210.972 121.331Z" fill="#898990" fill-opacity="0.2" stroke="#003831" stroke-linejoin="round"/>
<path d="M156.408 189.093L147.266 179.95L170.908 162.43L180.051 171.573L156.408 189.093Z" fill="#898990" fill-opacity="0.2" stroke="#003831" stroke-linejoin="round"/>
<path d="M219.623 136.311L205.548 117.318L210.599 122.369L224.674 141.363L219.623 136.311Z" fill="#898990" fill-opacity="0.2" stroke="#003831" stroke-linejoin="round"/>
<mask id="path-108-inside-16" fill="white">
<path d="M170.956 161.771L173.683 164.407L183.54 174.264L180.814 171.629L170.956 161.771Z"/>
</mask>
<path d="M170.956 161.771L173.683 164.407L183.54 174.264L180.814 171.629L170.956 161.771Z" fill="#898990" fill-opacity="0.2"/>
<path d="M173.683 164.407L174.39 163.699C174.386 163.695 174.382 163.691 174.378 163.687L173.683 164.407ZM170.956 161.771L171.651 161.052C171.257 160.671 170.628 160.679 170.243 161.07C169.858 161.462 169.861 162.09 170.249 162.479L170.956 161.771ZM180.814 171.629L180.107 172.336C180.111 172.34 180.115 172.344 180.119 172.348L180.814 171.629ZM183.54 174.264L182.845 174.983C183.24 175.365 183.869 175.357 184.253 174.965C184.638 174.574 184.636 173.945 184.247 173.557L183.54 174.264ZM174.378 163.687L171.651 161.052L170.261 162.491L172.988 165.126L174.378 163.687ZM170.249 162.479L180.107 172.336L181.521 170.922L171.663 161.064L170.249 162.479ZM180.119 172.348L182.845 174.983L184.235 173.545L181.509 170.91L180.119 172.348ZM184.247 173.557L174.39 163.699L172.976 165.114L182.833 174.971L184.247 173.557Z" fill="#003831" mask="url(#path-108-inside-16)"/>
<path d="M160.029 213.326L170.023 225.147C153.167 224.991 135.904 221.191 122.386 213.291L114.537 204.608C122.85 207.432 141.337 213.278 160.029 213.326Z" fill="#898990" fill-opacity="0.2" stroke="#003831" stroke-linejoin="round"/>
<mask id="path-111-inside-17" fill="white">
<path d="M173.682 164.404L183.311 173.711L193.169 183.569L183.54 174.262L173.682 164.404Z"/>
</mask>
<path d="M173.682 164.404L183.311 173.711L193.169 183.569L183.54 174.262L173.682 164.404Z" fill="#898990" fill-opacity="0.2"/>
<path d="M183.311 173.711L184.018 173.004C184.014 173 184.01 172.996 184.006 172.992L183.311 173.711ZM173.682 164.404L174.377 163.685C173.982 163.304 173.354 163.312 172.969 163.703C172.584 164.095 172.587 164.723 172.975 165.111L173.682 164.404ZM183.54 174.262L182.832 174.969C182.837 174.973 182.841 174.977 182.845 174.981L183.54 174.262ZM193.169 183.569L192.474 184.288C192.869 184.669 193.497 184.661 193.882 184.27C194.267 183.878 194.264 183.25 193.876 182.862L193.169 183.569ZM184.006 172.992L174.377 163.685L172.987 165.123L182.616 174.43L184.006 172.992ZM172.975 165.111L182.832 174.969L184.247 173.555L174.389 163.697L172.975 165.111ZM182.845 174.981L192.474 184.288L193.864 182.85L184.235 173.543L182.845 174.981ZM193.876 182.862L184.018 173.004L182.604 174.418L192.462 184.276L193.876 182.862Z" fill="#003831" mask="url(#path-111-inside-17)"/>
<mask id="path-113-inside-18" fill="white">
<path d="M183.312 173.706L186.039 176.341L195.896 186.199L193.17 183.564L183.312 173.706Z"/>
</mask>
<path d="M183.312 173.706L186.039 176.341L195.896 186.199L193.17 183.564L183.312 173.706Z" fill="#898990" fill-opacity="0.2"/>
<path d="M186.039 176.341L186.746 175.634C186.742 175.63 186.738 175.626 186.734 175.622L186.039 176.341ZM183.312 173.706L184.007 172.987C183.612 172.605 182.984 172.614 182.599 173.005C182.214 173.396 182.217 174.025 182.605 174.413L183.312 173.706ZM193.17 183.564L192.463 184.271C192.467 184.275 192.471 184.279 192.475 184.283L193.17 183.564ZM195.896 186.199L195.201 186.918C195.596 187.299 196.225 187.291 196.609 186.9C196.994 186.508 196.992 185.88 196.603 185.492L195.896 186.199ZM186.734 175.622L184.007 172.987L182.617 174.425L185.344 177.06L186.734 175.622ZM182.605 174.413L192.463 184.271L193.877 182.857L184.019 172.999L182.605 174.413ZM192.475 184.283L195.201 186.918L196.591 185.48L193.865 182.845L192.475 184.283ZM196.603 185.492L186.746 175.634L185.332 177.048L195.189 186.906L196.603 185.492Z" fill="#003831" mask="url(#path-113-inside-18)"/>
<path d="M242.701 168.963L223.035 141.137L228.717 146.819L248.383 174.645L242.701 168.963Z" fill="#898990" fill-opacity="0.2" stroke="#003831" stroke-linejoin="round"/>
<path d="M221.529 163.632L239.698 189.341L231.599 182.153L221.632 168.136L214.468 156.913L221.529 163.632Z" fill="#898990" fill-opacity="0.2" stroke="#003831" stroke-linejoin="round"/>
<path d="M106.438 146.338L106.2 146.583L106.342 146.894C111.188 157.525 119.044 166.479 128.794 172.722L100.434 192.765C80.4841 175.637 67.8525 150.243 67.8525 121.895C67.8525 104.961 72.3598 89.0852 80.2386 75.3921L104.482 106.486L122.052 130.22L106.438 146.338ZM136.803 67.0847L136.558 66.8479L136.248 66.9892C125.622 71.833 116.727 79.2852 110.483 89.0276L90.3792 61.0792C107.507 41.1305 132.901 28.5 161.247 28.5C178.219 28.5 195.41 31.6726 208.571 40.0264L175.702 63.492L175.702 63.4919L175.695 63.4972L151.581 81.367L136.803 67.0847ZM219.651 136.351L219.645 136.342L201.775 112.228L216.057 97.4506L216.294 97.2057L216.153 96.8957C211.307 86.2641 203.451 77.31 193.7 71.0672L222.06 51.0245C242.01 68.1522 254.642 93.5469 254.642 121.895C254.642 138.814 250.142 154.678 242.275 168.364L219.651 136.351L219.651 136.351ZM185.691 176.705L185.936 176.941L186.246 176.8C196.88 171.953 205.836 164.095 212.079 154.342L221.745 167.764L221.75 167.771L232.12 182.705C214.992 202.657 189.596 215.289 161.247 215.289C144.313 215.289 127.499 211.305 113.796 203.463L146.789 180.3L146.789 180.3L146.8 180.292L170.914 162.422L185.691 176.705Z" fill="#F3F6F4" stroke="#003831"/>
</g>
<g opacity="0.08">
<path d="M486.815 530.909L486.598 531.134L486.704 531.427C486.914 532.008 487.113 532.574 487.309 533.132C488.502 536.535 489.592 539.64 492.612 543.84C496.114 548.709 502.205 555.047 514.063 565.141C516.288 567.366 518.322 569.75 520.364 572.144C521.349 573.3 522.337 574.458 523.349 575.602C526.284 578.918 529.398 582.078 533.173 584.554L474.112 626.294C432.962 591.117 406.888 538.847 406.888 480.481C406.888 445.441 416.286 412.604 432.696 384.337L479.505 450.57L479.505 450.57L479.511 450.579L516.375 500.324L486.815 530.909ZM548.266 368.601L548.021 368.365L547.711 368.506C525.776 378.505 505.27 397.378 492.483 417.625L474.994 394.514L450.876 358.972C468.473 338.413 496.409 317.515 527.257 301.731C558.253 285.871 592.131 275.205 621.352 275.205C655.847 275.205 675.158 290.957 698.523 310.017C698.839 310.275 699.155 310.533 699.472 310.791L628.604 361.293L628.596 361.298L578.851 398.162L578.749 398.063L577.606 396.958L573.572 393.06L563.711 383.529L553.85 373.998L549.816 370.1L548.673 368.995L548.37 368.702L548.292 368.627L548.273 368.608L548.268 368.603L548.267 368.602L548.266 368.602L548.266 368.601ZM790.5 480.481C790.5 515.521 781.102 548.358 764.693 576.625L717.884 510.392L717.877 510.383L681.014 460.638L710.574 430.053L710.811 429.808L710.669 429.498C704.532 416.035 696.028 403.89 685.702 393.569C682.998 390.866 680.894 387.569 678.763 384.23C678.317 383.531 677.871 382.831 677.417 382.134C674.949 378.342 672.285 374.665 668.524 372.115L723.272 334.664C764.425 369.842 790.5 422.114 790.5 480.481ZM499.661 648.391L568.783 599.671L568.792 599.664L618.538 562.801L618.64 562.899L619.783 564.004L623.817 567.903L633.678 577.433L643.539 586.964L647.572 590.863L648.716 591.968L649.018 592.26L649.096 592.335L649.116 592.354L649.121 592.359L649.122 592.36L649.122 592.361L649.47 592.001L649.123 592.361L649.367 592.598L649.677 592.456C671.597 582.465 690.022 566.198 702.771 546.008L744.507 605.063C709.33 646.214 657.06 672.287 598.694 672.287C563.628 672.287 527.951 664.759 499.661 648.391Z" fill="#898990" fill-opacity="0.2" stroke="#003831"/>
<path d="M452.217 355.132L432.737 335.651C467.872 294.582 520.039 268.545 578.295 268.483L597.488 287.676C539.358 288.032 487.333 314.118 452.217 355.132Z" fill="#898990" fill-opacity="0.2" stroke="#003831" stroke-linejoin="round"/>
<path d="M405.891 479.268L386.698 460.075C386.735 425.067 396.153 392.263 412.57 364.027L432.028 383.485C415.599 411.654 406.104 444.358 405.891 479.268Z" fill="#898990" fill-opacity="0.2" stroke="#003831" stroke-linejoin="round"/>
<path d="M476.119 445.773L460.105 429.759L416.255 367.714L432.27 383.728L476.119 445.773Z" fill="#898990" fill-opacity="0.2" stroke="#003831" stroke-linejoin="round"/>
<mask id="path-122-inside-19" fill="white">
<path d="M533.311 354.159L527.728 348.762L547.917 368.952L553.501 374.349L533.311 354.159Z"/>
</mask>
<path d="M533.311 354.159L527.728 348.762L547.917 368.952L553.501 374.349L533.311 354.159Z" fill="#898990" fill-opacity="0.2"/>
<path d="M527.728 348.762L528.422 348.043C528.028 347.662 527.399 347.67 527.014 348.061C526.63 348.453 526.632 349.081 527.02 349.469L527.728 348.762ZM533.311 354.159L534.018 353.452C534.014 353.448 534.01 353.444 534.006 353.44L533.311 354.159ZM553.501 374.349L552.806 375.068C553.201 375.449 553.829 375.441 554.214 375.05C554.599 374.658 554.596 374.03 554.208 373.641L553.501 374.349ZM547.917 368.952L547.21 369.659C547.214 369.663 547.218 369.667 547.222 369.671L547.917 368.952ZM527.033 349.481L532.616 354.878L534.006 353.44L528.422 348.043L527.033 349.481ZM532.604 354.866L552.794 375.056L554.208 373.641L534.018 353.452L532.604 354.866ZM554.196 373.63L548.612 368.233L547.222 369.671L552.806 375.068L554.196 373.63ZM548.624 368.245L528.435 348.055L527.02 349.469L547.21 369.659L548.624 368.245Z" fill="#003831" mask="url(#path-122-inside-19)"/>
<mask id="path-124-inside-20" fill="white">
<path d="M553.033 373.235L533.311 354.174L553.501 374.363L573.223 393.425L553.033 373.235Z"/>
</mask>
<path d="M553.033 373.235L533.311 354.174L553.501 374.363L573.223 393.425L553.033 373.235Z" fill="#898990" fill-opacity="0.2"/>
<path d="M533.311 354.174L534.006 353.455C533.611 353.073 532.983 353.081 532.598 353.473C532.213 353.864 532.216 354.493 532.604 354.881L533.311 354.174ZM553.033 373.235L553.74 372.528C553.736 372.524 553.732 372.52 553.728 372.516L553.033 373.235ZM573.223 393.425L572.528 394.144C572.922 394.525 573.551 394.517 573.936 394.126C574.321 393.734 574.318 393.106 573.93 392.718L573.223 393.425ZM553.501 374.363L552.794 375.071C552.798 375.075 552.802 375.079 552.806 375.082L553.501 374.363ZM532.616 354.893L552.338 373.954L553.728 372.516L534.006 353.455L532.616 354.893ZM552.326 373.942L572.516 394.132L573.93 392.718L553.74 372.528L552.326 373.942ZM573.918 392.706L554.196 373.644L552.806 375.082L572.528 394.144L573.918 392.706ZM554.208 373.656L534.018 353.467L532.604 354.881L552.794 375.071L554.208 373.656Z" fill="#003831" mask="url(#path-124-inside-20)"/>
<mask id="path-126-inside-21" fill="white">
<path d="M558.618 378.623L553.034 373.227L573.224 393.416L578.807 398.813L558.618 378.623Z"/>
</mask>
<path d="M558.618 378.623L553.034 373.227L573.224 393.416L578.807 398.813L558.618 378.623Z" fill="#898990" fill-opacity="0.2"/>
<path d="M553.034 373.227L553.729 372.508C553.334 372.126 552.706 372.134 552.321 372.526C551.936 372.917 551.939 373.545 552.327 373.934L553.034 373.227ZM558.618 378.623L559.325 377.916C559.321 377.912 559.317 377.908 559.313 377.904L558.618 378.623ZM578.807 398.813L578.112 399.532C578.507 399.913 579.136 399.905 579.52 399.514C579.905 399.123 579.903 398.494 579.514 398.106L578.807 398.813ZM573.224 393.416L572.516 394.123C572.52 394.127 572.524 394.131 572.529 394.135L573.224 393.416ZM552.339 373.946L557.923 379.342L559.313 377.904L553.729 372.508L552.339 373.946ZM557.911 379.33L578.1 399.52L579.514 398.106L559.325 377.916L557.911 379.33ZM579.502 398.094L573.918 392.697L572.529 394.135L578.112 399.532L579.502 398.094ZM573.931 392.709L553.741 372.519L552.327 373.934L572.516 394.123L573.931 392.709Z" fill="#003831" mask="url(#path-126-inside-21)"/>
<path d="M512.601 495.236L497.218 479.853L464.149 435.229L479.532 450.612L512.601 495.236Z" fill="#898990" fill-opacity="0.2" stroke="#003831" stroke-linejoin="round"/>
<path d="M405.887 480.683C405.935 526.243 421.789 568.1 448.267 601.07C410.672 566.29 387.043 516.658 386.701 461.497L405.887 480.683Z" fill="#898990" fill-opacity="0.2" stroke="#003831" stroke-linejoin="round"/>
<path d="M484.619 533.264L462.095 510.251L496.687 473.188L516.377 500.32L484.619 533.264Z" fill="#898990" fill-opacity="0.2" stroke="#003831" stroke-linejoin="round"/>
<path d="M667.539 372.352L644.004 356.231L703.059 314.495L722.529 333.965L667.539 372.352Z" fill="#898990" fill-opacity="0.2" stroke="#003831" stroke-linejoin="round"/>
<path d="M665.161 373.735L685.348 393.921C678.713 387.29 671.11 379.684 665.161 373.735Z" fill="#898990" fill-opacity="0.2"/>
<path d="M665.161 373.735L685.348 393.921C678.713 387.29 671.11 379.684 665.161 373.735Z" fill="#898990" fill-opacity="0.2"/>
<path d="M665.158 373.732C657.844 367.924 650.745 362.286 643.129 356.238L665.158 373.732ZM665.158 373.732L685.348 393.921C678.712 387.289 671.108 379.681 665.158 373.732Z" stroke="#003831" stroke-linejoin="round"/>
<path d="M512.391 566.686L503.297 557.592C506.592 560.14 510.018 562.526 513.564 564.737L530.341 581.514C523.894 577.143 517.883 572.174 512.391 566.686C512.391 566.686 512.391 566.686 512.391 566.686Z" fill="#898990" fill-opacity="0.2" stroke="#003831" stroke-linejoin="round"/>
<path d="M684.995 394.278C694.573 403.851 702.57 415.005 708.544 427.33L690.442 409.228C686.521 400.643 681.638 392.596 675.933 385.216L684.995 394.278L684.995 394.278Z" fill="#898990" fill-opacity="0.2" stroke="#003831" stroke-linejoin="round"/>
<path d="M680.353 459.884L660.871 440.402L690.03 410.231L709.513 429.714L680.353 459.884Z" fill="#898990" fill-opacity="0.2" stroke="#003831" stroke-linejoin="round"/>
<path d="M568.543 598.61L549.068 579.135L598.342 542.621L617.816 562.096L568.543 598.61Z" fill="#898990" fill-opacity="0.2" stroke="#003831" stroke-linejoin="round"/>
<path d="M697.665 490.16L664.596 445.535L679.979 460.918L713.048 505.543L697.665 490.16Z" fill="#898990" fill-opacity="0.2" stroke="#003831" stroke-linejoin="round"/>
<mask id="path-139-inside-22" fill="white">
<path d="M598.389 541.963L603.973 547.36L624.162 567.549L618.578 562.152L598.389 541.963Z"/>
</mask>
<path d="M598.389 541.963L603.973 547.36L624.162 567.549L618.578 562.152L598.389 541.963Z" fill="#898990" fill-opacity="0.2"/>
<path d="M603.973 547.36L604.68 546.653C604.676 546.649 604.672 546.645 604.668 546.641L603.973 547.36ZM598.389 541.963L599.084 541.244C598.689 540.862 598.06 540.87 597.676 541.262C597.291 541.653 597.293 542.282 597.682 542.67L598.389 541.963ZM618.578 562.152L617.871 562.86C617.875 562.864 617.879 562.868 617.883 562.872L618.578 562.152ZM624.162 567.549L623.467 568.268C623.862 568.65 624.49 568.642 624.875 568.25C625.26 567.859 625.257 567.23 624.869 566.842L624.162 567.549ZM604.668 546.641L599.084 541.244L597.694 542.682L603.278 548.079L604.668 546.641ZM597.682 542.67L617.871 562.86L619.285 561.445L599.096 541.256L597.682 542.67ZM617.883 562.872L623.467 568.268L624.857 566.83L619.273 561.433L617.883 562.872ZM624.869 566.842L604.68 546.653L603.265 548.067L623.455 568.256L624.869 566.842Z" fill="#003831" mask="url(#path-139-inside-22)"/>
<path d="M576.252 647.022L597.613 672.287C562.636 672.13 526.678 664.328 498.579 647.884L481.092 628.541C497.075 634.023 536.471 646.972 576.252 647.022Z" fill="#898990" fill-opacity="0.2" stroke="#003831" stroke-linejoin="round"/>
<mask id="path-142-inside-23" fill="white">
<path d="M603.972 547.354L623.694 566.415L643.884 586.604L624.162 567.543L603.972 547.354Z"/>
</mask>
<path d="M603.972 547.354L623.694 566.415L643.884 586.604L624.162 567.543L603.972 547.354Z" fill="#898990" fill-opacity="0.2"/>
<path d="M623.694 566.415L624.401 565.708C624.397 565.704 624.393 565.7 624.389 565.696L623.694 566.415ZM603.972 547.354L604.667 546.634C604.272 546.253 603.644 546.261 603.259 546.652C602.874 547.044 602.877 547.672 603.265 548.061L603.972 547.354ZM624.162 567.543L623.455 568.25C623.459 568.254 623.463 568.258 623.467 568.262L624.162 567.543ZM643.884 586.604L643.189 587.323C643.583 587.705 644.212 587.697 644.597 587.305C644.982 586.914 644.979 586.285 644.591 585.897L643.884 586.604ZM624.389 565.696L604.667 546.634L603.277 548.073L622.999 567.134L624.389 565.696ZM603.265 548.061L623.455 568.25L624.869 566.836L604.679 546.646L603.265 548.061ZM623.467 568.262L643.189 587.323L644.579 585.885L624.857 566.824L623.467 568.262ZM644.591 585.897L624.401 565.708L622.987 567.122L643.177 587.311L644.591 585.897Z" fill="#003831" mask="url(#path-142-inside-23)"/>
<mask id="path-144-inside-24" fill="white">
<path d="M623.696 566.407L629.28 571.804L649.469 591.993L643.885 586.596L623.696 566.407Z"/>
</mask>
<path d="M623.696 566.407L629.28 571.804L649.469 591.993L643.885 586.596L623.696 566.407Z" fill="#898990" fill-opacity="0.2"/>
<path d="M629.28 571.804L629.987 571.096C629.983 571.092 629.979 571.088 629.975 571.085L629.28 571.804ZM623.696 566.407L624.391 565.688C623.996 565.306 623.368 565.314 622.983 565.706C622.598 566.097 622.601 566.726 622.989 567.114L623.696 566.407ZM643.885 586.596L643.178 587.303C643.182 587.307 643.186 587.311 643.19 587.315L643.885 586.596ZM649.469 591.993L648.774 592.712C649.169 593.094 649.798 593.086 650.182 592.694C650.567 592.303 650.565 591.674 650.176 591.286L649.469 591.993ZM629.975 571.085L624.391 565.688L623.001 567.126L628.585 572.523L629.975 571.085ZM622.989 567.114L643.178 587.303L644.593 585.889L624.403 565.7L622.989 567.114ZM643.19 587.315L648.774 592.712L650.164 591.274L644.58 585.877L643.19 587.315ZM650.176 591.286L629.987 571.096L628.573 572.511L648.762 592.7L650.176 591.286Z" fill="#003831" mask="url(#path-144-inside-24)"/>
<path d="M744.927 557.03L701.078 494.985L717.092 510.999L760.941 573.044L744.927 557.03Z" fill="#898990" fill-opacity="0.2" stroke="#003831" stroke-linejoin="round"/>
<path d="M702.365 545.428L742.228 601.834L722.198 584.056L701.742 555.29L684.745 528.662L702.365 545.428Z" fill="#898990" fill-opacity="0.2" stroke="#003831" stroke-linejoin="round"/>
<path d="M466.624 510.717L466.387 510.962L466.529 511.272C476.52 533.192 492.786 551.617 512.977 564.366L453.922 606.102C412.771 570.924 386.698 518.654 386.698 460.289C386.698 425.235 396.103 392.386 412.525 364.112L462.657 428.408L462.665 428.418L498.914 477.386L466.624 510.717ZM528.075 348.409L527.831 348.172L527.521 348.314C505.606 358.303 487.31 373.726 474.56 393.908L432.693 335.704C467.87 294.555 520.139 268.483 578.504 268.483C613.596 268.483 649.207 275.094 676.362 292.59L608.413 341.101L608.406 341.106L558.66 377.969L528.075 348.409ZM770.31 460.289C770.31 495.329 760.912 528.165 744.502 556.433L697.693 490.2L697.687 490.191L660.823 440.446L690.383 409.861L690.62 409.616L690.479 409.306C680.487 387.386 664.221 368.961 644.03 356.212L703.086 314.476C744.236 349.653 770.31 401.923 770.31 460.289ZM480.345 627.393L548.591 579.479L548.602 579.472L598.347 542.608L628.932 572.168L629.177 572.405L629.487 572.264C651.409 562.271 669.835 546.003 682.584 525.809L702.839 553.935L702.844 553.942L724.319 584.868C689.141 626.02 636.87 652.095 578.504 652.095C543.449 652.095 508.63 643.777 480.345 627.393Z" fill="#F3F6F4" stroke="#003831"/>
</g>
</svg>
