<svg width="1420" height="453" viewBox="0 0 1420 453" fill="none" xmlns="http://www.w3.org/2000/svg">
<circle cx="95" cy="208" r="66" fill="#003831"/>
<rect opacity="0.2" x="527" y="17" width="863" height="418" fill="#00AE99"/>
<rect opacity="0.3" x="255" y="17" width="249" height="418" fill="#A2F5EB"/>
<rect x="281.5" y="148.5" width="195" height="154" fill="#F3F6F4" stroke="#00AE99" stroke-width="3"/>
<path d="M335.403 231.36H343.863V233H333.603V218.72H343.543V220.36H335.403V224.78H341.963V226.42H335.403V231.36ZM353.21 233L350.71 228.78H349.99L347.43 233H345.57L348.71 227.84L345.89 222.92H347.69L350.01 226.92H350.73L353.09 222.92H354.87L352.01 227.78L355.13 233H353.21ZM359.845 222.92H362.385V224.4H359.845V229.94C359.845 230.473 359.979 230.867 360.245 231.12C360.525 231.36 360.992 231.48 361.645 231.48H362.385V233H361.605C360.459 233 359.592 232.787 359.005 232.36C358.432 231.933 358.145 231.207 358.145 230.18V224.4H356.405V222.92H358.145V219.88H359.845V222.92ZM373.765 227.36V227.94H366.085C366.111 229.153 366.398 230.1 366.945 230.78C367.491 231.447 368.278 231.78 369.305 231.78C370.691 231.78 371.545 231.26 371.865 230.22H373.585C373.411 231.127 372.951 231.86 372.205 232.42C371.471 232.98 370.505 233.26 369.305 233.26C367.771 233.26 366.571 232.76 365.705 231.76C364.838 230.76 364.405 229.46 364.405 227.86C364.405 226.287 364.838 225.027 365.705 224.08C366.571 223.133 367.758 222.66 369.265 222.66C370.691 222.66 371.791 223.113 372.565 224.02C373.338 224.913 373.738 226.027 373.765 227.36ZM369.225 224.14C368.358 224.14 367.665 224.367 367.145 224.82C366.625 225.26 366.305 225.827 366.185 226.52H372.005C371.951 225.84 371.678 225.273 371.185 224.82C370.691 224.367 370.038 224.14 369.225 224.14ZM385.371 233H383.671V226.96C383.671 225.107 382.818 224.18 381.111 224.18C380.231 224.18 379.511 224.513 378.951 225.18C378.391 225.833 378.111 226.62 378.111 227.54V233H376.411V222.92H378.051V224H378.491C378.785 223.6 379.198 223.28 379.731 223.04C380.265 222.787 380.865 222.66 381.531 222.66C382.758 222.66 383.705 223.013 384.371 223.72C385.038 224.413 385.371 225.373 385.371 226.6V233ZM391.282 226.72L392.242 226.88L393.382 227.06C395.302 227.393 396.262 228.407 396.262 230.1C396.262 230.98 395.895 231.727 395.162 232.34C394.428 232.953 393.415 233.26 392.122 233.26C390.735 233.26 389.668 232.98 388.922 232.42C388.188 231.86 387.762 231.08 387.642 230.08H389.362C389.522 231.213 390.415 231.78 392.042 231.78C392.828 231.78 393.442 231.64 393.882 231.36C394.335 231.08 394.562 230.673 394.562 230.14C394.562 229.7 394.415 229.353 394.122 229.1C393.828 228.847 393.362 228.667 392.722 228.56L390.462 228.18C388.848 227.887 388.042 227.04 388.042 225.64C388.042 224.76 388.375 224.047 389.042 223.5C389.722 222.94 390.715 222.66 392.022 222.66C393.195 222.66 394.122 222.92 394.802 223.44C395.495 223.947 395.895 224.647 396.002 225.54H394.302C394.235 225.073 393.988 224.727 393.562 224.5C393.135 224.26 392.595 224.14 391.942 224.14C391.275 224.14 390.742 224.26 390.342 224.5C389.955 224.727 389.762 225.053 389.762 225.48C389.762 225.853 389.882 226.133 390.122 226.32C390.362 226.507 390.748 226.64 391.282 226.72ZM400.555 220.3H398.755V218.46H400.555V220.3ZM400.495 222.92V233H398.795V222.92H400.495ZM404.533 224.16C405.427 223.16 406.64 222.66 408.173 222.66C409.707 222.66 410.913 223.16 411.793 224.16C412.687 225.16 413.133 226.427 413.133 227.96C413.133 229.493 412.687 230.76 411.793 231.76C410.913 232.76 409.707 233.26 408.173 233.26C406.64 233.26 405.427 232.76 404.533 231.76C403.653 230.76 403.213 229.493 403.213 227.96C403.213 226.427 403.653 225.16 404.533 224.16ZM405.753 230.68C406.313 231.413 407.12 231.78 408.173 231.78C409.227 231.78 410.033 231.413 410.593 230.68C411.153 229.933 411.433 229.027 411.433 227.96C411.433 226.893 411.153 225.993 410.593 225.26C410.033 224.513 409.227 224.14 408.173 224.14C407.12 224.14 406.313 224.513 405.753 225.26C405.193 225.993 404.913 226.893 404.913 227.96C404.913 229.027 405.193 229.933 405.753 230.68ZM424.746 233H423.046V226.96C423.046 225.107 422.193 224.18 420.486 224.18C419.606 224.18 418.886 224.513 418.326 225.18C417.766 225.833 417.486 226.62 417.486 227.54V233H415.786V222.92H417.426V224H417.866C418.16 223.6 418.573 223.28 419.106 223.04C419.64 222.787 420.24 222.66 420.906 222.66C422.133 222.66 423.08 223.013 423.746 223.72C424.413 224.413 424.746 225.373 424.746 226.6V233Z" fill="#003831"/>
<path d="M282 192L476 192" stroke="#00AE99" stroke-width="2" stroke-dasharray="8 8"/>
<path d="M282 259L476 259" stroke="#00AE99" stroke-width="2" stroke-dasharray="8 8"/>
<rect x="578.5" y="148.5" width="195" height="154" fill="#F3F6F4" stroke="#00AE99" stroke-width="3"/>
<rect x="866.5" y="148.5" width="195" height="154" fill="#F3F6F4" stroke="#00AE99" stroke-width="3"/>
<rect x="1146.5" y="89.5" width="195" height="112" fill="#F3F6F4" stroke="#00AE99" stroke-width="3"/>
<path d="M629.706 229.36H638.166V231H627.906V216.72H637.846V218.36H629.706V222.78H636.266V224.42H629.706V229.36ZM647.513 231L645.013 226.78H644.293L641.733 231H639.873L643.013 225.84L640.193 220.92H641.993L644.313 224.92H645.033L647.393 220.92H649.173L646.313 225.78L649.433 231H647.513ZM658.355 227.96H660.055C659.855 228.973 659.381 229.78 658.635 230.38C657.901 230.967 656.961 231.26 655.815 231.26C654.295 231.26 653.095 230.767 652.215 229.78C651.348 228.78 650.915 227.507 650.915 225.96C650.915 224.4 651.348 223.127 652.215 222.14C653.081 221.153 654.281 220.66 655.815 220.66C656.975 220.66 657.915 220.953 658.635 221.54C659.368 222.113 659.821 222.88 659.995 223.84H658.295C657.935 222.707 657.108 222.14 655.815 222.14C654.735 222.14 653.928 222.5 653.395 223.22C652.875 223.927 652.615 224.827 652.615 225.92C652.615 227.027 652.881 227.947 653.415 228.68C653.948 229.413 654.748 229.78 655.815 229.78C657.228 229.78 658.075 229.173 658.355 227.96ZM671.549 231H669.849V224.96C669.849 223.107 668.996 222.18 667.289 222.18C666.409 222.18 665.689 222.513 665.129 223.18C664.569 223.833 664.289 224.62 664.289 225.54V231H662.589V216.46H664.289V222H664.729C665.009 221.6 665.409 221.28 665.929 221.04C666.463 220.787 667.063 220.66 667.729 220.66C668.943 220.66 669.883 221.013 670.549 221.72C671.216 222.413 671.549 223.373 671.549 224.6V231ZM681.08 231V229.94H680.64C679.946 230.82 678.9 231.26 677.5 231.26C676.393 231.26 675.513 230.94 674.86 230.3C674.206 229.66 673.88 228.887 673.88 227.98C673.88 227.06 674.2 226.273 674.84 225.62C675.48 224.967 676.446 224.64 677.74 224.64H681.02V224.24C681.02 223.6 680.82 223.093 680.42 222.72C680.02 222.333 679.4 222.14 678.56 222.14C677.093 222.14 676.313 222.627 676.22 223.6H674.52C674.586 222.68 674.98 221.96 675.7 221.44C676.433 220.92 677.373 220.66 678.52 220.66C679.813 220.66 680.826 220.96 681.56 221.56C682.306 222.16 682.68 223.02 682.68 224.14V231H681.08ZM677.92 229.78C678.76 229.78 679.486 229.507 680.1 228.96C680.713 228.4 681.02 227.72 681.02 226.92V226H678C676.386 226 675.58 226.64 675.58 227.92C675.58 228.493 675.78 228.947 676.18 229.28C676.593 229.613 677.173 229.78 677.92 229.78ZM694.752 231H693.052V224.96C693.052 223.107 692.199 222.18 690.492 222.18C689.612 222.18 688.892 222.513 688.332 223.18C687.772 223.833 687.492 224.62 687.492 225.54V231H685.792V220.92H687.432V222H687.872C688.166 221.6 688.579 221.28 689.112 221.04C689.646 220.787 690.246 220.66 690.912 220.66C692.139 220.66 693.086 221.013 693.752 221.72C694.419 222.413 694.752 223.373 694.752 224.6V231ZM705.243 220.92H706.883V230.5C706.883 231.927 706.463 233.053 705.623 233.88C704.796 234.72 703.649 235.14 702.183 235.14C700.876 235.14 699.823 234.873 699.023 234.34C698.236 233.807 697.769 233.047 697.623 232.06H699.303C699.569 233.153 700.523 233.7 702.163 233.7C703.176 233.7 703.929 233.413 704.423 232.84C704.929 232.267 705.183 231.46 705.183 230.42V229.62H704.743C704.049 230.513 703.043 230.96 701.723 230.96C700.363 230.96 699.276 230.48 698.463 229.52C697.649 228.56 697.243 227.327 697.243 225.82C697.243 224.313 697.649 223.08 698.463 222.12C699.276 221.147 700.363 220.66 701.723 220.66C703.083 220.66 704.109 221.107 704.803 222H705.243V220.92ZM702.043 229.48C703.069 229.48 703.856 229.127 704.403 228.42C704.949 227.713 705.223 226.847 705.223 225.82C705.223 224.78 704.949 223.907 704.403 223.2C703.856 222.493 703.069 222.14 702.043 222.14C701.069 222.14 700.309 222.473 699.763 223.14C699.216 223.807 698.943 224.7 698.943 225.82C698.943 226.927 699.216 227.813 699.763 228.48C700.309 229.147 701.069 229.48 702.043 229.48ZM718.907 225.36V225.94H711.227C711.254 227.153 711.541 228.1 712.087 228.78C712.634 229.447 713.421 229.78 714.447 229.78C715.834 229.78 716.687 229.26 717.007 228.22H718.727C718.554 229.127 718.094 229.86 717.347 230.42C716.614 230.98 715.647 231.26 714.447 231.26C712.914 231.26 711.714 230.76 710.847 229.76C709.981 228.76 709.547 227.46 709.547 225.86C709.547 224.287 709.981 223.027 710.847 222.08C711.714 221.133 712.901 220.66 714.407 220.66C715.834 220.66 716.934 221.113 717.707 222.02C718.481 222.913 718.881 224.027 718.907 225.36ZM714.367 222.14C713.501 222.14 712.807 222.367 712.287 222.82C711.767 223.26 711.447 223.827 711.327 224.52H717.147C717.094 223.84 716.821 223.273 716.327 222.82C715.834 222.367 715.181 222.14 714.367 222.14Z" fill="#003831"/>
<path d="M927.737 102.36H936.197V104H925.937V89.72H935.877V91.36H927.737V95.78H934.297V97.42H927.737V102.36ZM938.984 89.72H945.304C946.811 89.72 947.971 90.0867 948.784 90.82C949.597 91.54 950.004 92.56 950.004 93.88C950.004 95.68 949.277 96.9 947.824 97.54L950.104 104H948.244L946.104 97.96C945.731 98 945.344 98.02 944.944 98.02H940.784V104H938.984V89.72ZM940.784 96.42H945.044C947.137 96.42 948.184 95.5733 948.184 93.88C948.184 93.04 947.937 92.4067 947.444 91.98C946.951 91.54 946.151 91.32 945.044 91.32H940.784V96.42ZM962.804 99.94H964.704C964.397 101.26 963.757 102.313 962.784 103.1C961.81 103.873 960.564 104.26 959.044 104.26C956.964 104.26 955.344 103.573 954.184 102.2C953.024 100.827 952.444 99.0467 952.444 96.86C952.444 94.6733 953.03 92.8933 954.204 91.52C955.377 90.1467 956.997 89.46 959.064 89.46C960.504 89.46 961.704 89.82 962.664 90.54C963.624 91.2467 964.25 92.22 964.544 93.46H962.644C962.084 91.8867 960.89 91.1 959.064 91.1C957.49 91.1 956.297 91.6533 955.484 92.76C954.67 93.8667 954.264 95.2333 954.264 96.86C954.264 98.5 954.664 99.8733 955.464 100.98C956.277 102.073 957.47 102.62 959.044 102.62C960.03 102.62 960.844 102.387 961.484 101.92C962.124 101.44 962.564 100.78 962.804 99.94ZM972.139 99.2H966.679V97.7H972.139V99.2ZM976.381 93.86H974.621C974.701 92.5133 975.168 91.4867 976.021 90.78C976.888 90.0733 977.974 89.72 979.281 89.72C980.641 89.72 981.734 90.0933 982.561 90.84C983.401 91.5733 983.821 92.62 983.821 93.98C983.821 95.6333 982.788 97.32 980.721 99.04L977.201 102V102.44H984.261V104H974.641V102.02L976.701 100.34C977.981 99.3133 979.041 98.4133 979.881 97.64C980.201 97.36 980.454 97.12 980.641 96.92C980.841 96.72 981.061 96.46 981.301 96.14C981.554 95.8067 981.741 95.46 981.861 95.1C981.994 94.74 982.061 94.3667 982.061 93.98C982.061 93.1133 981.808 92.4467 981.301 91.98C980.794 91.5133 980.108 91.28 979.241 91.28C978.428 91.28 977.768 91.5 977.261 91.94C976.768 92.3667 976.474 93.0067 976.381 93.86ZM988.279 91.54C989.212 90.3267 990.459 89.72 992.019 89.72C993.579 89.72 994.825 90.3333 995.759 91.56C996.705 92.7733 997.179 94.5867 997.179 97C997.179 99.4133 996.705 101.227 995.759 102.44C994.825 103.653 993.579 104.26 992.019 104.26C990.459 104.26 989.212 103.653 988.279 102.44C987.345 101.227 986.879 99.4133 986.879 97C986.879 94.5733 987.345 92.7533 988.279 91.54ZM988.639 97C988.639 98.6933 988.879 100.013 989.359 100.96L993.799 91.88C993.305 91.48 992.712 91.28 992.019 91.28C990.885 91.28 990.039 91.7867 989.479 92.8C988.919 93.8 988.639 95.2 988.639 97ZM992.019 102.7C993.152 102.7 993.999 102.2 994.559 101.2C995.132 100.187 995.419 98.7867 995.419 97C995.419 95.3467 995.179 94.0333 994.699 93.06L990.279 102.14C990.745 102.513 991.325 102.7 992.019 102.7ZM921.261 132L919.781 127.62H913.521L912.041 132H910.201L915.141 117.72H918.181L923.141 132H921.261ZM916.241 119.56L914.061 125.98H919.221L917.041 119.56H916.241ZM927.971 125.72L928.931 125.88L930.071 126.06C931.991 126.393 932.951 127.407 932.951 129.1C932.951 129.98 932.585 130.727 931.851 131.34C931.118 131.953 930.105 132.26 928.811 132.26C927.425 132.26 926.358 131.98 925.611 131.42C924.878 130.86 924.451 130.08 924.331 129.08H926.051C926.211 130.213 927.105 130.78 928.731 130.78C929.518 130.78 930.131 130.64 930.571 130.36C931.025 130.08 931.251 129.673 931.251 129.14C931.251 128.7 931.105 128.353 930.811 128.1C930.518 127.847 930.051 127.667 929.411 127.56L927.151 127.18C925.538 126.887 924.731 126.04 924.731 124.64C924.731 123.76 925.065 123.047 925.731 122.5C926.411 121.94 927.405 121.66 928.711 121.66C929.885 121.66 930.811 121.92 931.491 122.44C932.185 122.947 932.585 123.647 932.691 124.54H930.991C930.925 124.073 930.678 123.727 930.251 123.5C929.825 123.26 929.285 123.14 928.631 123.14C927.965 123.14 927.431 123.26 927.031 123.5C926.645 123.727 926.451 124.053 926.451 124.48C926.451 124.853 926.571 125.133 926.811 125.32C927.051 125.507 927.438 125.64 927.971 125.72ZM938.245 125.72L939.205 125.88L940.345 126.06C942.265 126.393 943.225 127.407 943.225 129.1C943.225 129.98 942.858 130.727 942.125 131.34C941.391 131.953 940.378 132.26 939.085 132.26C937.698 132.26 936.631 131.98 935.885 131.42C935.151 130.86 934.725 130.08 934.605 129.08H936.325C936.485 130.213 937.378 130.78 939.005 130.78C939.791 130.78 940.405 130.64 940.845 130.36C941.298 130.08 941.525 129.673 941.525 129.14C941.525 128.7 941.378 128.353 941.085 128.1C940.791 127.847 940.325 127.667 939.685 127.56L937.425 127.18C935.811 126.887 935.005 126.04 935.005 124.64C935.005 123.76 935.338 123.047 936.005 122.5C936.685 121.94 937.678 121.66 938.985 121.66C940.158 121.66 941.085 121.92 941.765 122.44C942.458 122.947 942.858 123.647 942.965 124.54H941.265C941.198 124.073 940.951 123.727 940.525 123.5C940.098 123.26 939.558 123.14 938.905 123.14C938.238 123.14 937.705 123.26 937.305 123.5C936.918 123.727 936.725 124.053 936.725 124.48C936.725 124.853 936.845 125.133 937.085 125.32C937.325 125.507 937.711 125.64 938.245 125.72ZM954.458 126.36V126.94H946.778C946.805 128.153 947.091 129.1 947.638 129.78C948.185 130.447 948.971 130.78 949.998 130.78C951.385 130.78 952.238 130.26 952.558 129.22H954.278C954.105 130.127 953.645 130.86 952.898 131.42C952.165 131.98 951.198 132.26 949.998 132.26C948.465 132.26 947.265 131.76 946.398 130.76C945.531 129.76 945.098 128.46 945.098 126.86C945.098 125.287 945.531 124.027 946.398 123.08C947.265 122.133 948.451 121.66 949.958 121.66C951.385 121.66 952.485 122.113 953.258 123.02C954.031 123.913 954.431 125.027 954.458 126.36ZM949.918 123.14C949.051 123.14 948.358 123.367 947.838 123.82C947.318 124.26 946.998 124.827 946.878 125.52H952.698C952.645 124.84 952.371 124.273 951.878 123.82C951.385 123.367 950.731 123.14 949.918 123.14ZM959.445 121.92H961.985V123.4H959.445V128.94C959.445 129.473 959.578 129.867 959.845 130.12C960.125 130.36 960.592 130.48 961.245 130.48H961.985V132H961.205C960.058 132 959.192 131.787 958.605 131.36C958.032 130.933 957.745 130.207 957.745 129.18V123.4H956.005V121.92H957.745V118.88H959.445V121.92ZM964.961 117.72H971.001C972.547 117.72 973.741 118.093 974.581 118.84C975.421 119.587 975.841 120.633 975.841 121.98C975.841 123.34 975.421 124.4 974.581 125.16C973.741 125.907 972.547 126.28 971.001 126.28H966.761V132H964.961V117.72ZM966.761 124.68H970.701C972.914 124.68 974.021 123.787 974.021 122C974.021 120.213 972.914 119.32 970.701 119.32H966.761V124.68ZM984.115 121.92V123.52H983.275C982.262 123.52 981.468 123.82 980.895 124.42C980.335 125.02 980.055 125.867 980.055 126.96V132H978.355V121.92H979.995V123.12H980.435C981.075 122.32 982.048 121.92 983.355 121.92H984.115ZM987.043 123.16C987.936 122.16 989.15 121.66 990.683 121.66C992.216 121.66 993.423 122.16 994.303 123.16C995.196 124.16 995.643 125.427 995.643 126.96C995.643 128.493 995.196 129.76 994.303 130.76C993.423 131.76 992.216 132.26 990.683 132.26C989.15 132.26 987.936 131.76 987.043 130.76C986.163 129.76 985.723 128.493 985.723 126.96C985.723 125.427 986.163 124.16 987.043 123.16ZM988.263 129.68C988.823 130.413 989.63 130.78 990.683 130.78C991.736 130.78 992.543 130.413 993.103 129.68C993.663 128.933 993.943 128.027 993.943 126.96C993.943 125.893 993.663 124.993 993.103 124.26C992.543 123.513 991.736 123.14 990.683 123.14C989.63 123.14 988.823 123.513 988.263 124.26C987.703 124.993 987.423 125.893 987.423 126.96C987.423 128.027 987.703 128.933 988.263 129.68ZM1004.78 132L1002.28 127.78H1001.56L999.002 132H997.142L1000.28 126.84L997.462 121.92H999.262L1001.58 125.92H1002.3L1004.66 121.92H1006.44L1003.58 126.78L1006.7 132H1004.78ZM1011.8 136H1010.08L1012.16 131.06L1007.86 121.92H1009.68L1012.76 128.56H1013.26L1016.06 121.92H1017.84L1011.8 136Z" fill="#003831"/>
<path d="M905.678 379.31C907.078 377.49 908.948 376.58 911.288 376.58C913.628 376.58 915.498 377.5 916.898 379.34C918.318 381.16 919.028 383.88 919.028 387.5C919.028 391.12 918.318 393.84 916.898 395.66C915.498 397.48 913.628 398.39 911.288 398.39C908.948 398.39 907.078 397.48 905.678 395.66C904.278 393.84 903.578 391.12 903.578 387.5C903.578 383.86 904.278 381.13 905.678 379.31ZM906.218 387.5C906.218 390.04 906.578 392.02 907.298 393.44L913.958 379.82C913.218 379.22 912.328 378.92 911.288 378.92C909.588 378.92 908.318 379.68 907.478 381.2C906.638 382.7 906.218 384.8 906.218 387.5ZM911.288 396.05C912.988 396.05 914.258 395.3 915.098 393.8C915.958 392.28 916.388 390.18 916.388 387.5C916.388 385.02 916.028 383.05 915.308 381.59L908.678 395.21C909.378 395.77 910.248 396.05 911.288 396.05ZM933.304 398L929.554 391.67H928.474L924.634 398H921.844L926.554 390.26L922.324 382.88H925.024L928.504 388.88H929.584L933.124 382.88H935.794L931.504 390.17L936.184 398H933.304ZM962.827 391.91H965.677C965.217 393.89 964.257 395.47 962.797 396.65C961.337 397.81 959.467 398.39 957.187 398.39C954.067 398.39 951.637 397.36 949.897 395.3C948.157 393.24 947.287 390.57 947.287 387.29C947.287 384.01 948.167 381.34 949.927 379.28C951.687 377.22 954.117 376.19 957.217 376.19C959.377 376.19 961.177 376.73 962.617 377.81C964.057 378.87 964.997 380.33 965.437 382.19H962.587C961.747 379.83 959.957 378.65 957.217 378.65C954.857 378.65 953.067 379.48 951.847 381.14C950.627 382.8 950.017 384.85 950.017 387.29C950.017 389.75 950.617 391.81 951.817 393.47C953.037 395.11 954.827 395.93 957.187 395.93C958.667 395.93 959.887 395.58 960.847 394.88C961.807 394.16 962.467 393.17 962.827 391.91ZM970.68 384.74C972.02 383.24 973.84 382.49 976.14 382.49C978.44 382.49 980.25 383.24 981.57 384.74C982.91 386.24 983.58 388.14 983.58 390.44C983.58 392.74 982.91 394.64 981.57 396.14C980.25 397.64 978.44 398.39 976.14 398.39C973.84 398.39 972.02 397.64 970.68 396.14C969.36 394.64 968.7 392.74 968.7 390.44C968.7 388.14 969.36 386.24 970.68 384.74ZM972.51 394.52C973.35 395.62 974.56 396.17 976.14 396.17C977.72 396.17 978.93 395.62 979.77 394.52C980.61 393.4 981.03 392.04 981.03 390.44C981.03 388.84 980.61 387.49 979.77 386.39C978.93 385.27 977.72 384.71 976.14 384.71C974.56 384.71 973.35 385.27 972.51 386.39C971.67 387.49 971.25 388.84 971.25 390.44C971.25 392.04 971.67 393.4 972.51 394.52ZM996.2 382.88V385.28H994.94C993.42 385.28 992.23 385.73 991.37 386.63C990.53 387.53 990.11 388.8 990.11 390.44V398H987.56V382.88H990.02V384.68H990.68C991.64 383.48 993.1 382.88 995.06 382.88H996.2ZM1012.65 389.54V390.41H1001.13C1001.17 392.23 1001.6 393.65 1002.42 394.67C1003.24 395.67 1004.42 396.17 1005.96 396.17C1008.04 396.17 1009.32 395.39 1009.8 393.83H1012.38C1012.12 395.19 1011.43 396.29 1010.31 397.13C1009.21 397.97 1007.76 398.39 1005.96 398.39C1003.66 398.39 1001.86 397.64 1000.56 396.14C999.262 394.64 998.612 392.69 998.612 390.29C998.612 387.93 999.262 386.04 1000.56 384.62C1001.86 383.2 1003.64 382.49 1005.9 382.49C1008.04 382.49 1009.69 383.17 1010.85 384.53C1012.01 385.87 1012.61 387.54 1012.65 389.54ZM1005.84 384.71C1004.54 384.71 1003.5 385.05 1002.72 385.73C1001.94 386.39 1001.46 387.24 1001.28 388.28H1010.01C1009.93 387.26 1009.52 386.41 1008.78 385.73C1008.04 385.05 1007.06 384.71 1005.84 384.71Z" fill="#003831"/>
<path d="M1210.52 151.36H1218.98V153H1208.72V138.72H1218.66V140.36H1210.52V144.78H1217.08V146.42H1210.52V151.36ZM1221.77 138.72H1228.09C1229.59 138.72 1230.75 139.087 1231.57 139.82C1232.38 140.54 1232.79 141.56 1232.79 142.88C1232.79 144.68 1232.06 145.9 1230.61 146.54L1232.89 153H1231.03L1228.89 146.96C1228.51 147 1228.13 147.02 1227.73 147.02H1223.57V153H1221.77V138.72ZM1223.57 145.42H1227.83C1229.92 145.42 1230.97 144.573 1230.97 142.88C1230.97 142.04 1230.72 141.407 1230.23 140.98C1229.73 140.54 1228.93 140.32 1227.83 140.32H1223.57V145.42ZM1245.59 148.94H1247.49C1247.18 150.26 1246.54 151.313 1245.57 152.1C1244.59 152.873 1243.35 153.26 1241.83 153.26C1239.75 153.26 1238.13 152.573 1236.97 151.2C1235.81 149.827 1235.23 148.047 1235.23 145.86C1235.23 143.673 1235.81 141.893 1236.99 140.52C1238.16 139.147 1239.78 138.46 1241.85 138.46C1243.29 138.46 1244.49 138.82 1245.45 139.54C1246.41 140.247 1247.03 141.22 1247.33 142.46H1245.43C1244.87 140.887 1243.67 140.1 1241.85 140.1C1240.27 140.1 1239.08 140.653 1238.27 141.76C1237.45 142.867 1237.05 144.233 1237.05 145.86C1237.05 147.5 1237.45 148.873 1238.25 149.98C1239.06 151.073 1240.25 151.62 1241.83 151.62C1242.81 151.62 1243.63 151.387 1244.27 150.92C1244.91 150.44 1245.35 149.78 1245.59 148.94ZM1254.92 148.2H1249.46V146.7H1254.92V148.2ZM1259.16 142.86H1257.4C1257.48 141.513 1257.95 140.487 1258.8 139.78C1259.67 139.073 1260.76 138.72 1262.06 138.72C1263.42 138.72 1264.52 139.093 1265.34 139.84C1266.18 140.573 1266.6 141.62 1266.6 142.98C1266.6 144.633 1265.57 146.32 1263.5 148.04L1259.98 151V151.44H1267.04V153H1257.42V151.02L1259.48 149.34C1260.76 148.313 1261.82 147.413 1262.66 146.64C1262.98 146.36 1263.24 146.12 1263.42 145.92C1263.62 145.72 1263.84 145.46 1264.08 145.14C1264.34 144.807 1264.52 144.46 1264.64 144.1C1264.78 143.74 1264.84 143.367 1264.84 142.98C1264.84 142.113 1264.59 141.447 1264.08 140.98C1263.58 140.513 1262.89 140.28 1262.02 140.28C1261.21 140.28 1260.55 140.5 1260.04 140.94C1259.55 141.367 1259.26 142.007 1259.16 142.86ZM1271.06 140.54C1272 139.327 1273.24 138.72 1274.8 138.72C1276.36 138.72 1277.61 139.333 1278.54 140.56C1279.49 141.773 1279.96 143.587 1279.96 146C1279.96 148.413 1279.49 150.227 1278.54 151.44C1277.61 152.653 1276.36 153.26 1274.8 153.26C1273.24 153.26 1272 152.653 1271.06 151.44C1270.13 150.227 1269.66 148.413 1269.66 146C1269.66 143.573 1270.13 141.753 1271.06 140.54ZM1271.42 146C1271.42 147.693 1271.66 149.013 1272.14 149.96L1276.58 140.88C1276.09 140.48 1275.5 140.28 1274.8 140.28C1273.67 140.28 1272.82 140.787 1272.26 141.8C1271.7 142.8 1271.42 144.2 1271.42 146ZM1274.8 151.7C1275.94 151.7 1276.78 151.2 1277.34 150.2C1277.92 149.187 1278.2 147.787 1278.2 146C1278.2 144.347 1277.96 143.033 1277.48 142.06L1273.06 151.14C1273.53 151.513 1274.11 151.7 1274.8 151.7Z" fill="#003831"/>
<path d="M579 192L775 192" stroke="#00AE99" stroke-width="2" stroke-dasharray="8 8"/>
<path d="M866 192L1063 192" stroke="#00AE99" stroke-width="2" stroke-dasharray="8 8"/>
<path d="M866 213L1063 213" stroke="#00AE99" stroke-width="2" stroke-dasharray="8 8"/>
<path d="M866 259L1063 259" stroke="#00AE99" stroke-width="2" stroke-dasharray="8 8"/>
<path d="M866 238L1063 238" stroke="#00AE99" stroke-width="2" stroke-dasharray="8 8"/>
<path d="M579 259L775 259" stroke="#00AE99" stroke-width="2" stroke-dasharray="8 8"/>
<path d="M166 190.75L164.75 190.75L164.75 193.25L166 193.25L166 190.75ZM277 192L264.5 184.783L264.5 199.217L277 192ZM166 193.25L265.75 193.25L265.75 190.75L166 190.75L166 193.25Z" fill="#00AE99"/>
<path d="M476 190.75H474.75L474.75 193.25H476L476 190.75ZM578 192L565.5 184.783L565.5 199.217L578 192ZM476 193.25H566.75L566.75 190.75H476L476 193.25Z" fill="#00AE99"/>
<path d="M775 190.75H773.75L773.75 193.25H775L775 190.75ZM866 192L853.5 184.783L853.5 199.217L866 192ZM775 193.25H820.5L820.5 190.75H775L775 193.25ZM820.5 193.25H854.75L854.75 190.75H820.5L820.5 193.25Z" fill="#00AE99"/>
<path d="M775 236.75H773.75L773.75 239.25H775L775 236.75ZM866 238L853.5 230.783L853.5 245.217L866 238ZM775 239.25H820.5L820.5 236.75H775L775 239.25ZM820.5 239.25H854.75L854.75 236.75H820.5L820.5 239.25Z" fill="#00AE99"/>
<path d="M1063 190.75H1061.75L1061.75 193.25H1063L1063 190.75ZM1105.5 182.001L1106.75 182.001L1106.75 182.001L1105.5 182.001ZM1105.5 137.999L1104.25 137.999L1104.25 137.999L1105.5 137.999ZM1144 128L1131.5 120.783L1131.5 135.217L1144 128ZM1063 193.25H1095.5L1095.5 190.75H1063L1063 193.25ZM1106.75 182.001L1106.75 137.999L1104.25 137.999L1104.25 182.001L1106.75 182.001ZM1115.5 129.25H1132.75L1132.75 126.75H1115.5L1115.5 129.25ZM1106.75 137.999C1106.75 133.167 1110.67 129.25 1115.5 129.25L1115.5 126.75C1109.29 126.75 1104.25 131.786 1104.25 137.999L1106.75 137.999ZM1095.5 193.25C1101.71 193.25 1106.75 188.214 1106.75 182.001L1104.25 182.001C1104.25 186.833 1100.33 190.75 1095.5 190.75L1095.5 193.25Z" fill="#00AE99"/>
<path d="M1061.5 213L1074 220.217L1074 205.783L1061.5 213ZM1124.96 203.001L1123.71 203.001L1123.71 203.001L1124.96 203.001ZM1124.96 179.999L1126.21 179.999L1126.21 179.999L1124.96 179.999ZM1072.75 214.25H1114.96L1114.96 211.75H1072.75L1072.75 214.25ZM1126.21 203.001L1126.21 179.999L1123.71 179.999L1123.71 203.001L1126.21 203.001ZM1134.96 171.25H1144L1144 168.75H1134.96L1134.96 171.25ZM1126.21 179.999C1126.21 175.167 1130.12 171.25 1134.96 171.25L1134.96 168.75C1128.74 168.75 1123.71 173.786 1123.71 179.999L1126.21 179.999ZM1114.96 214.25C1121.17 214.25 1126.21 209.214 1126.21 203.001L1123.71 203.001C1123.71 207.833 1119.79 211.75 1114.96 211.75L1114.96 214.25Z" fill="#00AE99"/>
<path d="M866 260.25L867.25 260.25L867.25 257.75L866 257.75L866 260.25ZM775 259L787.5 266.217L787.5 251.783L775 259ZM866 257.75L786.25 257.75L786.25 260.25L866 260.25L866 257.75Z" fill="#00AE99"/>
<path d="M866 214.25L867.25 214.25L867.25 211.75L866 211.75L866 214.25ZM775 213L787.5 220.217L787.5 205.783L775 213ZM866 211.75L786.25 211.75L786.25 214.25L866 214.25L866 211.75Z" fill="#00AE99"/>
<path d="M578 260.25L579.25 260.25L579.25 257.75L578 257.75L578 260.25ZM476 259L488.5 266.217L488.5 251.783L476 259ZM578 257.75L487.25 257.75L487.25 260.25L578 260.25L578 257.75Z" fill="#00AE99"/>
<path d="M277 260.25L278.25 260.25L278.25 257.75L277 257.75L277 260.25ZM166 259L178.5 266.217L178.5 251.783L166 259ZM277 257.75L177.25 257.75L177.25 260.25L277 260.25L277 257.75Z" fill="#00AE99"/>
<path d="M77.8993 199.864V201.784H72.2833V217H70.1233V201.784H64.4593V199.864H77.8993ZM85.7697 217V215.728H85.2417C84.4097 216.784 83.1537 217.312 81.4737 217.312C80.1457 217.312 79.0897 216.928 78.3057 216.16C77.5217 215.392 77.1297 214.464 77.1297 213.376C77.1297 212.272 77.5137 211.328 78.2817 210.544C79.0497 209.76 80.2097 209.368 81.7617 209.368H85.6977V208.888C85.6977 208.12 85.4577 207.512 84.9777 207.064C84.4977 206.6 83.7537 206.368 82.7457 206.368C80.9857 206.368 80.0497 206.952 79.9377 208.12H77.8977C77.9777 207.016 78.4497 206.152 79.3137 205.528C80.1937 204.904 81.3217 204.592 82.6977 204.592C84.2497 204.592 85.4657 204.952 86.3457 205.672C87.2417 206.392 87.6897 207.424 87.6897 208.768V217H85.7697ZM81.9777 215.536C82.9857 215.536 83.8577 215.208 84.5937 214.552C85.3297 213.88 85.6977 213.064 85.6977 212.104V211H82.0737C80.1377 211 79.1697 211.768 79.1697 213.304C79.1697 213.992 79.4097 214.536 79.8897 214.936C80.3857 215.336 81.0817 215.536 81.9777 215.536ZM102.417 217H100.233L96.777 210.424H96.249L93.465 213.496V217H91.425V199.552H93.465V210.976L99.177 204.904H101.601L98.121 208.624L102.417 217ZM115.179 210.232V210.928H105.963C105.995 212.384 106.339 213.52 106.995 214.336C107.651 215.136 108.595 215.536 109.827 215.536C111.491 215.536 112.515 214.912 112.899 213.664H114.963C114.755 214.752 114.203 215.632 113.307 216.304C112.427 216.976 111.267 217.312 109.827 217.312C107.987 217.312 106.547 216.712 105.507 215.512C104.467 214.312 103.947 212.752 103.947 210.832C103.947 208.944 104.467 207.432 105.507 206.296C106.547 205.16 107.971 204.592 109.779 204.592C111.491 204.592 112.811 205.136 113.739 206.224C114.667 207.296 115.147 208.632 115.179 210.232ZM109.731 206.368C108.691 206.368 107.859 206.64 107.235 207.184C106.611 207.712 106.227 208.392 106.083 209.224H113.067C113.003 208.408 112.675 207.728 112.083 207.184C111.491 206.64 110.707 206.368 109.731 206.368ZM125.267 204.904V206.824H124.259C123.043 206.824 122.091 207.184 121.403 207.904C120.731 208.624 120.395 209.64 120.395 210.952V217H118.355V204.904H120.323V206.344H120.851C121.619 205.384 122.787 204.904 124.355 204.904H125.267Z" fill="white"/>
<path d="M103.695 317.552C106.207 317.552 108.167 318.392 109.575 320.072C110.983 321.752 111.687 323.872 111.687 326.432C111.687 328.992 110.983 331.112 109.575 332.792C108.167 334.472 106.207 335.312 103.695 335.312C101.167 335.312 99.1988 334.48 97.7908 332.816C96.3988 331.136 95.7028 329.008 95.7028 326.432C95.7028 323.856 96.3988 321.736 97.7908 320.072C99.1988 318.392 101.167 317.552 103.695 317.552ZM99.3508 331.352C100.327 332.68 101.775 333.344 103.695 333.344C105.615 333.344 107.063 332.68 108.039 331.352C109.015 330.024 109.503 328.384 109.503 326.432C109.503 324.48 109.015 322.84 108.039 321.512C107.063 320.184 105.615 319.52 103.695 319.52C101.775 319.52 100.327 320.184 99.3508 321.512C98.3748 322.84 97.8868 324.48 97.8868 326.432C97.8868 328.384 98.3748 330.024 99.3508 331.352ZM121.896 322.904V324.824H120.888C119.672 324.824 118.72 325.184 118.032 325.904C117.36 326.624 117.024 327.64 117.024 328.952V335H114.984V322.904H116.952V324.344H117.48C118.248 323.384 119.416 322.904 120.984 322.904H121.896ZM133.354 317.552H135.394V335H133.426V333.704H132.898C132.034 334.776 130.778 335.312 129.13 335.312C127.498 335.312 126.202 334.712 125.242 333.512C124.298 332.312 123.826 330.792 123.826 328.952C123.826 327.08 124.298 325.552 125.242 324.368C126.202 323.184 127.498 322.592 129.13 322.592C130.762 322.592 131.994 323.128 132.826 324.2H133.354V317.552ZM129.586 333.536C130.85 333.536 131.794 333.096 132.418 332.216C133.058 331.336 133.378 330.248 133.378 328.952C133.378 327.656 133.058 326.568 132.418 325.688C131.794 324.808 130.85 324.368 129.586 324.368C128.402 324.368 127.482 324.792 126.826 325.64C126.186 326.472 125.866 327.576 125.866 328.952C125.866 330.328 126.186 331.44 126.826 332.288C127.482 333.12 128.402 333.536 129.586 333.536ZM149.823 328.232V328.928H140.607C140.639 330.384 140.983 331.52 141.639 332.336C142.295 333.136 143.239 333.536 144.471 333.536C146.135 333.536 147.159 332.912 147.543 331.664H149.607C149.399 332.752 148.847 333.632 147.951 334.304C147.071 334.976 145.911 335.312 144.471 335.312C142.631 335.312 141.191 334.712 140.151 333.512C139.111 332.312 138.591 330.752 138.591 328.832C138.591 326.944 139.111 325.432 140.151 324.296C141.191 323.16 142.615 322.592 144.423 322.592C146.135 322.592 147.455 323.136 148.383 324.224C149.311 325.296 149.791 326.632 149.823 328.232ZM144.375 324.368C143.335 324.368 142.503 324.64 141.879 325.184C141.255 325.712 140.871 326.392 140.727 327.224H147.711C147.647 326.408 147.319 325.728 146.727 325.184C146.135 324.64 145.351 324.368 144.375 324.368ZM159.911 322.904V324.824H158.903C157.687 324.824 156.735 325.184 156.047 325.904C155.375 326.624 155.039 327.64 155.039 328.952V335H152.999V322.904H154.967V324.344H155.495C156.263 323.384 157.431 322.904 158.999 322.904H159.911Z" fill="#003831"/>
<path d="M99 232H141.646L156.169 246.523V303H99V232Z" fill="white" stroke="#00AE99" stroke-width="2.76623"/>
<path d="M121.52 257.203V257.501C121.825 257.638 122.077 257.863 122.275 258.176C122.481 258.489 122.584 258.84 122.584 259.229C122.584 259.946 122.348 260.522 121.875 260.957C121.402 261.384 120.7 261.598 119.769 261.598H115.832V253.426H119.666C120.528 253.426 121.192 253.632 121.657 254.044C122.123 254.456 122.356 254.971 122.356 255.589C122.356 255.956 122.279 256.284 122.127 256.574C121.982 256.856 121.78 257.066 121.52 257.203ZM117.537 256.665H119.46C120.223 256.665 120.605 256.36 120.605 255.75C120.605 255.147 120.219 254.845 119.449 254.845H117.537V256.665ZM117.537 260.144H119.517C120.395 260.144 120.833 259.809 120.833 259.137C120.833 258.443 120.402 258.096 119.54 258.096H117.537V260.144ZM129.23 253.426H130.935V258.588C130.935 259.603 130.637 260.385 130.042 260.934C129.455 261.476 128.608 261.747 127.502 261.747C126.411 261.747 125.567 261.476 124.972 260.934C124.385 260.385 124.091 259.603 124.091 258.588V253.426H125.796V258.554C125.796 259.065 125.945 259.473 126.243 259.778C126.548 260.076 126.971 260.225 127.513 260.225C128.062 260.225 128.486 260.076 128.783 259.778C129.081 259.473 129.23 259.065 129.23 258.554V253.426ZM135.579 256.688H135.899L137.651 253.426H139.459L136.598 258.691V261.598H134.881V258.691L132.031 253.426H133.828L135.579 256.688Z" fill="#00AE99"/>
<line x1="109.604" y1="270.958" x2="145.565" y2="270.958" stroke="#00AE99" stroke-width="2.30519"/>
<line x1="109.604" y1="283.406" x2="145.565" y2="283.406" stroke="#00AE99" stroke-width="2.30519"/>
<line x1="109.604" y1="277.412" x2="137.727" y2="277.412" stroke="#00AE99" stroke-width="2.30519"/>
<line x1="109.604" y1="289.86" x2="137.727" y2="289.86" stroke="#00AE99" stroke-width="2.30519"/>
<path d="M1143.5 128H1168C1172.97 128 1177 132.029 1177 137V161C1177 165.971 1172.97 170 1168 170H1143.5" stroke="#00AE99" stroke-width="2" stroke-dasharray="8 8"/>
<path d="M775 213H766C761.029 213 757 217.029 757 222V229C757 233.971 761.029 238 766 238H775" stroke="#00AE99" stroke-width="2" stroke-dasharray="8 8"/>
<rect x="1.5" y="-1.5" width="195" height="112" transform="matrix(1 0 0 -1 1145 360)" fill="#F3F6F4" stroke="#00AE99" stroke-width="3"/>
<path d="M1063 259L1075.5 251.783L1075.5 266.217L1063 259ZM1105.5 268.999L1106.75 268.999L1106.75 268.999L1105.5 268.999ZM1105.5 313.001L1104.25 313.001L1104.25 313.001L1105.5 313.001ZM1074.25 257.75H1095.5L1095.5 260.25H1074.25L1074.25 257.75ZM1106.75 268.999L1106.75 313.001L1104.25 313.001L1104.25 268.999L1106.75 268.999ZM1115.5 321.75H1144L1144 324.25H1115.5L1115.5 321.75ZM1106.75 313.001C1106.75 317.833 1110.67 321.75 1115.5 321.75L1115.5 324.25C1109.29 324.25 1104.25 319.214 1104.25 313.001L1106.75 313.001ZM1095.5 257.75C1101.71 257.75 1106.75 262.786 1106.75 268.999L1104.25 268.999C1104.25 264.167 1100.33 260.25 1095.5 260.25L1095.5 257.75Z" fill="#00AE99"/>
<path d="M1061.5 239.25H1060.25L1060.25 236.75H1061.5L1061.5 239.25ZM1124.96 247.999L1123.71 247.999L1123.71 247.999L1124.96 247.999ZM1124.96 271.001L1126.21 271.001L1126.21 271.001L1124.96 271.001ZM1144 281L1131.5 288.217L1131.5 273.783L1144 281ZM1061.5 236.75H1114.96L1114.96 239.25H1061.5L1061.5 236.75ZM1126.21 247.999L1126.21 271.001L1123.71 271.001L1123.71 247.999L1126.21 247.999ZM1126.21 271.001C1126.21 275.833 1130.12 279.75 1134.96 279.75L1134.96 282.25C1128.74 282.25 1123.71 277.214 1123.71 271.001L1126.21 271.001ZM1114.96 236.75C1121.17 236.75 1126.21 241.786 1126.21 247.999L1123.71 247.999C1123.71 243.167 1119.79 239.25 1114.96 239.25L1114.96 236.75Z" fill="#00AE99"/>
<path d="M1143.5 323H1168C1172.97 323 1177 318.971 1177 314V290C1177 285.029 1172.97 281 1168 281H1143.5" stroke="#00AE99" stroke-width="2" stroke-dasharray="8 8"/>
<path d="M1210.52 311.36H1218.98V313H1208.72V298.72H1218.66V300.36H1210.52V304.78H1217.08V306.42H1210.52V311.36ZM1221.77 298.72H1228.09C1229.59 298.72 1230.75 299.087 1231.57 299.82C1232.38 300.54 1232.79 301.56 1232.79 302.88C1232.79 304.68 1232.06 305.9 1230.61 306.54L1232.89 313H1231.03L1228.89 306.96C1228.51 307 1228.13 307.02 1227.73 307.02H1223.57V313H1221.77V298.72ZM1223.57 305.42H1227.83C1229.92 305.42 1230.97 304.573 1230.97 302.88C1230.97 302.04 1230.72 301.407 1230.23 300.98C1229.73 300.54 1228.93 300.32 1227.83 300.32H1223.57V305.42ZM1245.59 308.94H1247.49C1247.18 310.26 1246.54 311.313 1245.57 312.1C1244.59 312.873 1243.35 313.26 1241.83 313.26C1239.75 313.26 1238.13 312.573 1236.97 311.2C1235.81 309.827 1235.23 308.047 1235.23 305.86C1235.23 303.673 1235.81 301.893 1236.99 300.52C1238.16 299.147 1239.78 298.46 1241.85 298.46C1243.29 298.46 1244.49 298.82 1245.45 299.54C1246.41 300.247 1247.03 301.22 1247.33 302.46H1245.43C1244.87 300.887 1243.67 300.1 1241.85 300.1C1240.27 300.1 1239.08 300.653 1238.27 301.76C1237.45 302.867 1237.05 304.233 1237.05 305.86C1237.05 307.5 1237.45 308.873 1238.25 309.98C1239.06 311.073 1240.25 311.62 1241.83 311.62C1242.81 311.62 1243.63 311.387 1244.27 310.92C1244.91 310.44 1245.35 309.78 1245.59 308.94ZM1254.92 308.2H1249.46V306.7H1254.92V308.2ZM1259.16 302.86H1257.4C1257.48 301.513 1257.95 300.487 1258.8 299.78C1259.67 299.073 1260.76 298.72 1262.06 298.72C1263.42 298.72 1264.52 299.093 1265.34 299.84C1266.18 300.573 1266.6 301.62 1266.6 302.98C1266.6 304.633 1265.57 306.32 1263.5 308.04L1259.98 311V311.44H1267.04V313H1257.42V311.02L1259.48 309.34C1260.76 308.313 1261.82 307.413 1262.66 306.64C1262.98 306.36 1263.24 306.12 1263.42 305.92C1263.62 305.72 1263.84 305.46 1264.08 305.14C1264.34 304.807 1264.52 304.46 1264.64 304.1C1264.78 303.74 1264.84 303.367 1264.84 302.98C1264.84 302.113 1264.59 301.447 1264.08 300.98C1263.58 300.513 1262.89 300.28 1262.02 300.28C1261.21 300.28 1260.55 300.5 1260.04 300.94C1259.55 301.367 1259.26 302.007 1259.16 302.86ZM1271.06 300.54C1272 299.327 1273.24 298.72 1274.8 298.72C1276.36 298.72 1277.61 299.333 1278.54 300.56C1279.49 301.773 1279.96 303.587 1279.96 306C1279.96 308.413 1279.49 310.227 1278.54 311.44C1277.61 312.653 1276.36 313.26 1274.8 313.26C1273.24 313.26 1272 312.653 1271.06 311.44C1270.13 310.227 1269.66 308.413 1269.66 306C1269.66 303.573 1270.13 301.753 1271.06 300.54ZM1271.42 306C1271.42 307.693 1271.66 309.013 1272.14 309.96L1276.58 300.88C1276.09 300.48 1275.5 300.28 1274.8 300.28C1273.67 300.28 1272.82 300.787 1272.26 301.8C1271.7 302.8 1271.42 304.2 1271.42 306ZM1274.8 311.7C1275.94 311.7 1276.78 311.2 1277.34 310.2C1277.92 309.187 1278.2 307.787 1278.2 306C1278.2 304.347 1277.96 303.033 1277.48 302.06L1273.06 311.14C1273.53 311.513 1274.11 311.7 1274.8 311.7Z" fill="#003831"/>
<path d="M141 233V247.523H155.523" stroke="#00AE99" stroke-width="2.76623"/>
</svg>
