<svg width="135" height="27" viewBox="0 0 135 27" fill="none" xmlns="http://www.w3.org/2000/svg">
<path d="M62.04 13.24V13.68C62.64 13.96 63.12 14.4 63.48 15C63.8533 15.6 64.04 16.26 64.04 16.98C64.04 18.18 63.6267 19.1533 62.8 19.9C61.9733 20.6333 60.7733 21 59.2 21H52.82V6.72H59.04C60.4933 6.72 61.6133 7.06667 62.4 7.76C63.2 8.44 63.6 9.3 63.6 10.34C63.6 11.7133 63.08 12.68 62.04 13.24ZM54.62 8.32V12.78H59C60.8533 12.78 61.78 12.02 61.78 10.5C61.78 9.75333 61.5133 9.20667 60.98 8.86C60.4467 8.5 59.7733 8.32 58.96 8.32H54.62ZM54.62 19.4H59.08C60 19.4 60.7533 19.2067 61.34 18.82C61.9267 18.42 62.22 17.76 62.22 16.84C62.22 15.9733 61.9267 15.3467 61.34 14.96C60.7667 14.56 60.02 14.36 59.1 14.36H54.62V19.4ZM73.0834 21V19.94H72.6434C71.9501 20.82 70.9034 21.26 69.5034 21.26C68.3968 21.26 67.5168 20.94 66.8634 20.3C66.2101 19.66 65.8834 18.8867 65.8834 17.98C65.8834 17.06 66.2034 16.2733 66.8434 15.62C67.4834 14.9667 68.4501 14.64 69.7434 14.64H73.0234V14.24C73.0234 13.6 72.8234 13.0933 72.4234 12.72C72.0234 12.3333 71.4034 12.14 70.5634 12.14C69.0968 12.14 68.3168 12.6267 68.2234 13.6H66.5234C66.5901 12.68 66.9834 11.96 67.7034 11.44C68.4368 10.92 69.3768 10.66 70.5234 10.66C71.8168 10.66 72.8301 10.96 73.5634 11.56C74.3101 12.16 74.6834 13.02 74.6834 14.14V21H73.0834ZM69.9234 19.78C70.7634 19.78 71.4901 19.5067 72.1034 18.96C72.7168 18.4 73.0234 17.72 73.0234 16.92V16H70.0034C68.3901 16 67.5834 16.64 67.5834 17.92C67.5834 18.4933 67.7834 18.9467 68.1834 19.28C68.5968 19.6133 69.1768 19.78 69.9234 19.78ZM77.7963 6.46H79.4963V21H77.7963V6.46ZM89.1967 21V19.94H88.7567C88.0634 20.82 87.0167 21.26 85.6167 21.26C84.5101 21.26 83.6301 20.94 82.9767 20.3C82.3234 19.66 81.9967 18.8867 81.9967 17.98C81.9967 17.06 82.3167 16.2733 82.9567 15.62C83.5967 14.9667 84.5634 14.64 85.8567 14.64H89.1367V14.24C89.1367 13.6 88.9367 13.0933 88.5367 12.72C88.1367 12.3333 87.5167 12.14 86.6767 12.14C85.2101 12.14 84.4301 12.6267 84.3367 13.6H82.6367C82.7034 12.68 83.0967 11.96 83.8167 11.44C84.5501 10.92 85.4901 10.66 86.6367 10.66C87.9301 10.66 88.9434 10.96 89.6767 11.56C90.4234 12.16 90.7967 13.02 90.7967 14.14V21H89.1967ZM86.0367 19.78C86.8767 19.78 87.6034 19.5067 88.2167 18.96C88.8301 18.4 89.1367 17.72 89.1367 16.92V16H86.1167C84.5034 16 83.6967 16.64 83.6967 17.92C83.6967 18.4933 83.8967 18.9467 84.2967 19.28C84.7101 19.6133 85.2901 19.78 86.0367 19.78ZM102.87 21H101.17V14.96C101.17 13.1067 100.316 12.18 98.6095 12.18C97.7295 12.18 97.0095 12.5133 96.4495 13.18C95.8895 13.8333 95.6095 14.62 95.6095 15.54V21H93.9095V10.92H95.5495V12H95.9895C96.2829 11.6 96.6962 11.28 97.2295 11.04C97.7629 10.7867 98.3629 10.66 99.0295 10.66C100.256 10.66 101.203 11.0133 101.87 11.72C102.536 12.4133 102.87 13.3733 102.87 14.6V21ZM112.8 17.96H114.5C114.3 18.9733 113.827 19.78 113.08 20.38C112.347 20.9667 111.407 21.26 110.26 21.26C108.74 21.26 107.54 20.7667 106.66 19.78C105.793 18.78 105.36 17.5067 105.36 15.96C105.36 14.4 105.793 13.1267 106.66 12.14C107.527 11.1533 108.727 10.66 110.26 10.66C111.42 10.66 112.36 10.9533 113.08 11.54C113.813 12.1133 114.267 12.88 114.44 13.84H112.74C112.38 12.7067 111.553 12.14 110.26 12.14C109.18 12.14 108.373 12.5 107.84 13.22C107.32 13.9267 107.06 14.8267 107.06 15.92C107.06 17.0267 107.327 17.9467 107.86 18.68C108.393 19.4133 109.193 19.78 110.26 19.78C111.673 19.78 112.52 19.1733 112.8 17.96ZM125.775 15.36V15.94H118.095C118.121 17.1533 118.408 18.1 118.955 18.78C119.501 19.4467 120.288 19.78 121.315 19.78C122.701 19.78 123.555 19.26 123.875 18.22H125.595C125.421 19.1267 124.961 19.86 124.215 20.42C123.481 20.98 122.515 21.26 121.315 21.26C119.781 21.26 118.581 20.76 117.715 19.76C116.848 18.76 116.415 17.46 116.415 15.86C116.415 14.2867 116.848 13.0267 117.715 12.08C118.581 11.1333 119.768 10.66 121.275 10.66C122.701 10.66 123.801 11.1133 124.575 12.02C125.348 12.9133 125.748 14.0267 125.775 15.36ZM121.235 12.14C120.368 12.14 119.675 12.3667 119.155 12.82C118.635 13.26 118.315 13.8267 118.195 14.52H124.015C123.961 13.84 123.688 13.2733 123.195 12.82C122.701 12.3667 122.048 12.14 121.235 12.14ZM134.181 10.92V12.52H133.341C132.328 12.52 131.535 12.82 130.961 13.42C130.401 14.02 130.121 14.8667 130.121 15.96V21H128.421V10.92H130.061V12.12H130.501C131.141 11.32 132.115 10.92 133.421 10.92H134.181Z" fill="white"/>
<path fill-rule="evenodd" clip-rule="evenodd" d="M9.29341 16.3528C3.81936 17.1623 3.05176e-05 18.9932 3.05176e-05 21.1222C3.05176e-05 24.0013 6.98489 26.3352 15.6012 26.3352C24.2174 26.3352 31.2023 24.0013 31.2023 21.1222C31.2023 18.9932 27.3829 17.1623 21.9089 16.3528C20.0287 16.7351 17.8814 16.9517 15.6012 16.9517C13.3782 16.9517 11.2814 16.7459 9.43528 16.3815L9.29341 16.3528Z" fill="white"/>
<path fill-rule="evenodd" clip-rule="evenodd" d="M11.6527 7.78131C6.69479 8.33336 3.12024 9.89656 3.12024 11.7387C3.12024 14.042 8.70812 15.9092 15.6011 15.9092C22.4941 15.9092 28.082 14.042 28.082 11.7387C28.082 9.89656 24.5075 8.33336 19.5496 7.78131C18.3352 7.9799 17.0011 8.08961 15.6011 8.08961C14.2501 8.08961 12.9605 7.98744 11.7806 7.80189L11.6527 7.78131Z" fill="white"/>
<path d="M15.6019 7.25566C10.4322 7.25566 6.24125 5.85528 6.24125 4.12783C6.24125 2.40038 10.4322 1 15.6019 1C20.7717 1 24.9626 2.40038 24.9626 4.12783C24.9626 5.85528 20.7717 7.25566 15.6019 7.25566Z" fill="white"/>
</svg>
