<svg width="117" height="38" viewBox="0 0 117 38" fill="none" xmlns="http://www.w3.org/2000/svg">
<path d="M59.04 17.9148V18.3548C59.64 18.6348 60.12 19.0748 60.48 19.6748C60.8533 20.2748 61.04 20.9348 61.04 21.6548C61.04 22.8548 60.6267 23.8281 59.8 24.5748C58.9733 25.3081 57.7733 25.6748 56.2 25.6748H49.82V11.3948H56.04C57.4933 11.3948 58.6133 11.7415 59.4 12.4348C60.2 13.1148 60.6 13.9748 60.6 15.0148C60.6 16.3881 60.08 17.3548 59.04 17.9148ZM51.62 12.9948V17.4548H56C57.8533 17.4548 58.78 16.6948 58.78 15.1748C58.78 14.4281 58.5133 13.8815 57.98 13.5348C57.4467 13.1748 56.7733 12.9948 55.96 12.9948H51.62ZM51.62 24.0748H56.08C57 24.0748 57.7533 23.8815 58.34 23.4948C58.9267 23.0948 59.22 22.4348 59.22 21.5148C59.22 20.6481 58.9267 20.0215 58.34 19.6348C57.7667 19.2348 57.02 19.0348 56.1 19.0348H51.62V24.0748ZM70.0834 25.6748V24.6148H69.6434C68.9501 25.4948 67.9034 25.9348 66.5034 25.9348C65.3968 25.9348 64.5168 25.6148 63.8634 24.9748C63.2101 24.3348 62.8834 23.5615 62.8834 22.6548C62.8834 21.7348 63.2034 20.9481 63.8434 20.2948C64.4834 19.6415 65.4501 19.3148 66.7434 19.3148H70.0234V18.9148C70.0234 18.2748 69.8234 17.7681 69.4234 17.3948C69.0234 17.0081 68.4034 16.8148 67.5634 16.8148C66.0968 16.8148 65.3168 17.3015 65.2234 18.2748H63.5234C63.5901 17.3548 63.9834 16.6348 64.7034 16.1148C65.4368 15.5948 66.3768 15.3348 67.5234 15.3348C68.8168 15.3348 69.8301 15.6348 70.5634 16.2348C71.3101 16.8348 71.6834 17.6948 71.6834 18.8148V25.6748H70.0834ZM66.9234 24.4548C67.7634 24.4548 68.4901 24.1815 69.1034 23.6348C69.7168 23.0748 70.0234 22.3948 70.0234 21.5948V20.6748H67.0034C65.3901 20.6748 64.5834 21.3148 64.5834 22.5948C64.5834 23.1681 64.7834 23.6215 65.1834 23.9548C65.5968 24.2881 66.1768 24.4548 66.9234 24.4548ZM83.7563 25.6748H82.0563V19.6348C82.0563 17.7815 81.2029 16.8548 79.4963 16.8548C78.6163 16.8548 77.8963 17.1881 77.3363 17.8548C76.7763 18.5081 76.4963 19.2948 76.4963 20.2148V25.6748H74.7963V15.5948H76.4363V16.6748H76.8763C77.1696 16.2748 77.5829 15.9548 78.1163 15.7148C78.6496 15.4615 79.2496 15.3348 79.9163 15.3348C81.1429 15.3348 82.0896 15.6881 82.7563 16.3948C83.4229 17.0881 83.7563 18.0481 83.7563 19.2748V25.6748ZM93.6866 22.6348H95.3866C95.1866 23.6481 94.7132 24.4548 93.9666 25.0548C93.2332 25.6415 92.2932 25.9348 91.1466 25.9348C89.6266 25.9348 88.4266 25.4415 87.5466 24.4548C86.6799 23.4548 86.2466 22.1815 86.2466 20.6348C86.2466 19.0748 86.6799 17.8015 87.5466 16.8148C88.4132 15.8281 89.6132 15.3348 91.1466 15.3348C92.3066 15.3348 93.2466 15.6281 93.9666 16.2148C94.6999 16.7881 95.1532 17.5548 95.3266 18.5148H93.6266C93.2666 17.3815 92.4399 16.8148 91.1466 16.8148C90.0666 16.8148 89.2599 17.1748 88.7266 17.8948C88.2066 18.6015 87.9466 19.5015 87.9466 20.5948C87.9466 21.7015 88.2132 22.6215 88.7466 23.3548C89.2799 24.0881 90.0799 24.4548 91.1466 24.4548C92.5599 24.4548 93.4066 23.8481 93.6866 22.6348ZM98.6213 16.8348C99.5146 15.8348 100.728 15.3348 102.261 15.3348C103.795 15.3348 105.001 15.8348 105.881 16.8348C106.775 17.8348 107.221 19.1015 107.221 20.6348C107.221 22.1681 106.775 23.4348 105.881 24.4348C105.001 25.4348 103.795 25.9348 102.261 25.9348C100.728 25.9348 99.5146 25.4348 98.6213 24.4348C97.7413 23.4348 97.3013 22.1681 97.3013 20.6348C97.3013 19.1015 97.7413 17.8348 98.6213 16.8348ZM99.8413 23.3548C100.401 24.0881 101.208 24.4548 102.261 24.4548C103.315 24.4548 104.121 24.0881 104.681 23.3548C105.241 22.6081 105.521 21.7015 105.521 20.6348C105.521 19.5681 105.241 18.6681 104.681 17.9348C104.121 17.1881 103.315 16.8148 102.261 16.8148C101.208 16.8148 100.401 17.1881 99.8413 17.9348C99.2813 18.6681 99.0013 19.5681 99.0013 20.6348C99.0013 21.7015 99.2813 22.6081 99.8413 23.3548ZM115.634 15.5948V17.1948H114.794C113.781 17.1948 112.988 17.4948 112.414 18.0948C111.854 18.6948 111.574 19.5415 111.574 20.6348V25.6748H109.874V15.5948H111.514V16.7948H111.954C112.594 15.9948 113.568 15.5948 114.874 15.5948H115.634Z" fill="white"/>
<path d="M1.7998 5.13036L10.538 10.2607L19.441 5.13036L10.538 0L1.7998 5.13036Z" fill="white"/>
<path d="M21.421 8.28027V18.481L12.4204 23.5813V13.3806L21.421 8.28027Z" fill="white"/>
<path d="M12.4204 27.2581V37.4436L24.3012 30.708V20.5225L12.4204 27.2581Z" fill="white"/>
<path d="M0 18.481L8.82062 23.5813V13.3806L0 8.28027V18.481Z" fill="white"/>
<path d="M0 32.3423L8.82062 37.4427V27.242L0 22.1416V32.3423Z" fill="white"/>
</svg>
