<svg width="106" height="36" viewBox="0 0 106 36" fill="none" xmlns="http://www.w3.org/2000/svg">
<path d="M59.0441 19.94H60.9441C60.6374 21.26 59.9974 22.3133 59.0241 23.1C58.0507 23.8733 56.8041 24.26 55.2841 24.26C53.2041 24.26 51.5841 23.5733 50.4241 22.2C49.2641 20.8267 48.6841 19.0467 48.6841 16.86C48.6841 14.6733 49.2707 12.8933 50.4441 11.52C51.6174 10.1467 53.2374 9.46 55.3041 9.46C56.7441 9.46 57.9441 9.82 58.9041 10.54C59.8641 11.2467 60.4907 12.22 60.7841 13.46H58.8841C58.3241 11.8867 57.1307 11.1 55.3041 11.1C53.7307 11.1 52.5374 11.6533 51.7241 12.76C50.9107 13.8667 50.5041 15.2333 50.5041 16.86C50.5041 18.5 50.9041 19.8733 51.7041 20.98C52.5174 22.0733 53.7107 22.62 55.2841 22.62C56.2707 22.62 57.0841 22.3867 57.7241 21.92C58.3641 21.44 58.8041 20.78 59.0441 19.94ZM63.4195 13.92H65.1195V19.96C65.1195 21.8133 65.9729 22.74 67.6795 22.74C68.5462 22.74 69.2595 22.4133 69.8195 21.76C70.3929 21.1067 70.6795 20.3133 70.6795 19.38V13.92H72.3795V24H70.7395V22.92H70.2995C70.0062 23.32 69.5929 23.6467 69.0595 23.9C68.5262 24.14 67.9262 24.26 67.2595 24.26C66.0329 24.26 65.0862 23.9133 64.4195 23.22C63.7529 22.5133 63.4195 21.5467 63.4195 20.32V13.92ZM81.4098 13.92V15.52H80.5698C79.5565 15.52 78.7632 15.82 78.1898 16.42C77.6298 17.02 77.3498 17.8667 77.3498 18.96V24H75.6498V13.92H77.2898V15.12H77.7298C78.3698 14.32 79.3432 13.92 80.6498 13.92H81.4098ZM86.5398 24L83.1998 13.92H84.9598L87.7798 22.4H88.5998L91.3198 13.92H93.0998L89.7198 24H86.5398ZM103.765 18.36V18.94H96.0848C96.1115 20.1533 96.3982 21.1 96.9448 21.78C97.4915 22.4467 98.2782 22.78 99.3048 22.78C100.692 22.78 101.545 22.26 101.865 21.22H103.585C103.412 22.1267 102.952 22.86 102.205 23.42C101.472 23.98 100.505 24.26 99.3048 24.26C97.7715 24.26 96.5715 23.76 95.7048 22.76C94.8382 21.76 94.4048 20.46 94.4048 18.86C94.4048 17.2867 94.8382 16.0267 95.7048 15.08C96.5715 14.1333 97.7582 13.66 99.2648 13.66C100.692 13.66 101.792 14.1133 102.565 15.02C103.338 15.9133 103.738 17.0267 103.765 18.36ZM99.2248 15.14C98.3582 15.14 97.6648 15.3667 97.1448 15.82C96.6248 16.26 96.3048 16.8267 96.1848 17.52H102.005C101.952 16.84 101.678 16.2733 101.185 15.82C100.692 15.3667 100.038 15.14 99.2248 15.14Z" fill="white"/>
<path d="M17.1141 17.8658C16.953 14.9295 15.8462 11.9441 14.7556 9.4928C14.4966 8.91065 14.4131 7.09086 16.641 7.48831C19.3949 8.45258 26.5402 11.2182 26.9365 14.6795C27.0953 16.0675 26.0987 17.0604 23.572 17.3946C21.0453 17.7288 18.2931 17.8184 17.1141 17.8658ZM17.1141 17.8658C17.2752 20.8022 17.1187 23.2931 16.3512 26.1442M16.3512 26.1442C15.6187 29.978 13.3497 32.0327 11.563 32.5409C2.42544 35.1403 2.05181 21.3616 3.03591 14.0379C3.6356 9.57505 5.7756 5.20709 8.38777 3.57612C9.47619 2.89655 11.843 2.00635 15.5525 3.17215C20.0919 4.59874 24.6902 7.03096 25.896 7.73671C27.1017 8.44246 29.9626 10.6348 30.8779 11.9475C32.643 14.4791 33.3493 15.7442 32.512 18.945C31.6747 22.1457 28.4905 22.6228 27.4765 22.8064C23.0213 23.613 20.632 24.6811 16.3512 26.1442Z" stroke="white" stroke-width="2.2262"/>
<path d="M11.6438 22.0408C11.6844 23.3477 11.428 24.4847 11.036 25.2592C10.6225 26.0763 10.2044 26.2511 10.0073 26.2572C9.81019 26.2633 9.38212 26.1148 8.91868 25.3249C8.47944 24.5763 8.15294 23.4573 8.11237 22.1504C8.07179 20.8436 8.32824 19.7065 8.72019 18.9321C9.13373 18.115 9.55177 17.9401 9.74889 17.934C9.94601 17.9279 10.3741 18.0765 10.8375 18.8663C11.2768 19.615 11.6033 20.7339 11.6438 22.0408Z" stroke="white" stroke-width="2.2262"/>
</svg>
