<svg width="101" height="29" viewBox="0 0 101 29" fill="none" xmlns="http://www.w3.org/2000/svg">
<path d="M50.82 8.72H56.16C58.3067 8.72 59.94 9.36 61.06 10.64C62.1933 11.92 62.76 13.66 62.76 15.86C62.76 18.06 62.1933 19.8 61.06 21.08C59.9267 22.36 58.2933 23 56.16 23H50.82V8.72ZM52.62 21.36H56.16C57.7867 21.36 58.9867 20.8533 59.76 19.84C60.5467 18.8133 60.94 17.4867 60.94 15.86C60.94 14.2333 60.5467 12.9133 59.76 11.9C58.9867 10.8733 57.7867 10.36 56.16 10.36H52.62V21.36ZM66.2033 14.16C67.0966 13.16 68.31 12.66 69.8433 12.66C71.3766 12.66 72.5833 13.16 73.4633 14.16C74.3566 15.16 74.8033 16.4267 74.8033 17.96C74.8033 19.4933 74.3566 20.76 73.4633 21.76C72.5833 22.76 71.3766 23.26 69.8433 23.26C68.31 23.26 67.0966 22.76 66.2033 21.76C65.3233 20.76 64.8833 19.4933 64.8833 17.96C64.8833 16.4267 65.3233 15.16 66.2033 14.16ZM67.4233 20.68C67.9833 21.4133 68.79 21.78 69.8433 21.78C70.8966 21.78 71.7033 21.4133 72.2633 20.68C72.8233 19.9333 73.1033 19.0267 73.1033 17.96C73.1033 16.8933 72.8233 15.9933 72.2633 15.26C71.7033 14.5133 70.8966 14.14 69.8433 14.14C68.79 14.14 67.9833 14.5133 67.4233 15.26C66.8633 15.9933 66.5833 16.8933 66.5833 17.96C66.5833 19.0267 66.8633 19.9333 67.4233 20.68ZM84.7764 8.46H86.4764V23H84.8364V21.92H84.3964C83.6764 22.8133 82.6298 23.26 81.2564 23.26C79.8964 23.26 78.8164 22.76 78.0164 21.76C77.2298 20.76 76.8364 19.4933 76.8364 17.96C76.8364 16.4 77.2298 15.1267 78.0164 14.14C78.8164 13.1533 79.8964 12.66 81.2564 12.66C82.6164 12.66 83.6431 13.1067 84.3364 14H84.7764V8.46ZM81.6364 21.78C82.6898 21.78 83.4764 21.4133 83.9964 20.68C84.5298 19.9467 84.7964 19.04 84.7964 17.96C84.7964 16.88 84.5298 15.9733 83.9964 15.24C83.4764 14.5067 82.6898 14.14 81.6364 14.14C80.6498 14.14 79.8831 14.4933 79.3364 15.2C78.8031 15.8933 78.5364 16.8133 78.5364 17.96C78.5364 19.1067 78.8031 20.0333 79.3364 20.74C79.8831 21.4333 80.6498 21.78 81.6364 21.78ZM90.4611 14.16C91.3544 13.16 92.5678 12.66 94.1011 12.66C95.6344 12.66 96.8411 13.16 97.7211 14.16C98.6144 15.16 99.0611 16.4267 99.0611 17.96C99.0611 19.4933 98.6144 20.76 97.7211 21.76C96.8411 22.76 95.6344 23.26 94.1011 23.26C92.5678 23.26 91.3544 22.76 90.4611 21.76C89.5811 20.76 89.1411 19.4933 89.1411 17.96C89.1411 16.4267 89.5811 15.16 90.4611 14.16ZM91.6811 20.68C92.2411 21.4133 93.0478 21.78 94.1011 21.78C95.1544 21.78 95.9611 21.4133 96.5211 20.68C97.0811 19.9333 97.3611 19.0267 97.3611 17.96C97.3611 16.8933 97.0811 15.9933 96.5211 15.26C95.9611 14.5133 95.1544 14.14 94.1011 14.14C93.0478 14.14 92.2411 14.5133 91.6811 15.26C91.1211 15.9933 90.8411 16.8933 90.8411 17.96C90.8411 19.0267 91.1211 19.9333 91.6811 20.68Z" fill="white"/>
<mask id="mask0" mask-type="alpha" maskUnits="userSpaceOnUse" x="0" y="0" width="35" height="27">
<path fill-rule="evenodd" clip-rule="evenodd" d="M34.3225 0H0V26.1578H34.3225V0Z" fill="white"/>
</mask>
<g mask="url(#mask0)">
<path fill-rule="evenodd" clip-rule="evenodd" d="M13.0962 6.89863C12.9476 6.66513 12.8129 6.406 12.6996 6.12576C12.5041 5.64247 12.3962 5.16004 12.3701 4.72072C12.2636 3.79362 12.4874 3.04064 13.0136 2.8163C13.5309 2.59578 14.209 2.94128 14.79 3.63817C14.789 3.59195 14.7881 3.54574 14.7881 3.499C14.7881 1.56671 15.6654 0 16.7476 0C17.8298 0 18.7071 1.56671 18.7071 3.499C18.7071 3.6361 18.7023 3.77111 18.6937 3.90405C19.3519 3.00065 20.2173 2.53778 20.8355 2.83604C21.6086 3.20923 21.7021 4.63036 21.0442 6.01048C20.934 6.24208 20.6866 6.64003 20.5524 6.83684C28.944 8.17524 33.7211 14.9837 34.3225 26.1579H29.6285C29.1336 16.9589 24.8583 11.7629 17.1348 11.9222C10.0422 12.0687 4.62182 16.7258 4.69464 26.1579H0.00102615C-0.0847054 15.0301 5.38437 8.62806 13.0962 6.89863Z" fill="white"/>
<path fill-rule="evenodd" clip-rule="evenodd" d="M21.0343 17.3521C21.6001 17.3521 22.0587 17.8667 22.0587 18.5013V21.3241C22.0587 21.9588 21.6001 22.4733 21.0343 22.4733C20.4687 22.4733 20.0102 21.9588 20.0102 21.3241V18.5013C20.0102 17.8667 20.4687 17.3521 21.0343 17.3521Z" fill="white"/>
<path fill-rule="evenodd" clip-rule="evenodd" d="M12.8401 17.3521C13.4057 17.3521 13.8643 17.8667 13.8643 18.5013V21.3241C13.8643 21.9588 13.4057 22.4733 12.8401 22.4733C12.2743 22.4733 11.8158 21.9588 11.8158 21.3241V18.5013C11.8158 17.8667 12.2743 17.3521 12.8401 17.3521Z" fill="white"/>
</g>
</svg>
