<svg width="102" height="35" viewBox="0 0 102 35" fill="none" xmlns="http://www.w3.org/2000/svg">
<path d="M46.6896 25V10.72H48.4896V17.8L55.8296 10.72H58.0296L53.5496 15.2L58.5696 25H56.6496L52.3696 16.76H51.9296L48.4896 20.06V25H46.6896ZM62.9796 29H61.2596L63.3396 24.06L59.0396 14.92H60.8596L63.9396 21.56H64.4396L67.2396 14.92H69.0196L62.9796 29ZM76.2413 14.66C77.6013 14.66 78.6747 15.1533 79.4613 16.14C80.2613 17.1267 80.6613 18.4 80.6613 19.96C80.6613 21.4933 80.2613 22.76 79.4613 23.76C78.6747 24.76 77.6013 25.26 76.2413 25.26C74.868 25.26 73.8213 24.8133 73.1013 23.92H72.6613V25H71.0213V10.46H72.7213V16H73.1613C73.828 15.1067 74.8547 14.66 76.2413 14.66ZM75.8613 23.78C76.848 23.78 77.608 23.4333 78.1413 22.74C78.688 22.0333 78.9613 21.1067 78.9613 19.96C78.9613 18.8133 78.688 17.8933 78.1413 17.2C77.608 16.4933 76.848 16.14 75.8613 16.14C74.808 16.14 74.0147 16.5067 73.4813 17.24C72.9613 17.9733 72.7013 18.88 72.7013 19.96C72.7013 21.04 72.9613 21.9467 73.4813 22.68C74.0147 23.4133 74.808 23.78 75.8613 23.78ZM92.066 19.36V19.94H84.386C84.4127 21.1533 84.6994 22.1 85.246 22.78C85.7927 23.4467 86.5794 23.78 87.606 23.78C88.9927 23.78 89.846 23.26 90.166 22.22H91.886C91.7127 23.1267 91.2527 23.86 90.506 24.42C89.7727 24.98 88.806 25.26 87.606 25.26C86.0727 25.26 84.8727 24.76 84.006 23.76C83.1394 22.76 82.706 21.46 82.706 19.86C82.706 18.2867 83.1394 17.0267 84.006 16.08C84.8727 15.1333 86.0594 14.66 87.566 14.66C88.9927 14.66 90.0927 15.1133 90.866 16.02C91.6394 16.9133 92.0394 18.0267 92.066 19.36ZM87.526 16.14C86.6594 16.14 85.966 16.3667 85.446 16.82C84.926 17.26 84.606 17.8267 84.486 18.52H90.306C90.2527 17.84 89.9794 17.2733 89.486 16.82C88.9927 16.3667 88.3394 16.14 87.526 16.14ZM100.473 14.92V16.52H99.6328C98.6194 16.52 97.8261 16.82 97.2528 17.42C96.6928 18.02 96.4128 18.8667 96.4128 19.96V25H94.7128V14.92H96.3528V16.12H96.7928C97.4328 15.32 98.4061 14.92 99.7128 14.92H100.473Z" fill="white"/>
<path d="M12.2526 17.1612L25.2842 24.1217C25.7533 24.365 26.3267 24.073 26.3267 23.5862V10.7362C26.3267 10.2494 25.7533 9.95739 25.2842 10.2008L12.2526 17.1612Z" fill="white"/>
<path d="M25.0536 6.16426L16.4693 0.135954C16.0677 -0.153404 15.5156 0.0395015 15.4152 0.521767L12.2526 13.9769L24.9532 7.22524C25.4049 6.98412 25.4049 6.45362 25.0536 6.16426Z" fill="white"/>
<path d="M16.4613 34.1844L25.029 28.094C25.4299 27.804 25.3797 27.2723 24.979 27.0307L12.2526 20.3119L15.359 33.8461C15.4592 34.2812 16.0605 34.4745 16.4613 34.1844Z" fill="white"/>
<path d="M8.44387 17.1477L12.2281 2.89701C12.4027 2.33448 11.5876 1.91259 11.0055 2.28761L1.3413 8.24103C0.875561 8.56917 0.584473 9.03795 0.584473 9.5536V24.7419C0.584473 25.2576 0.875561 25.7263 1.3413 26.0544L11.0055 32.0548C11.5876 32.3829 12.3445 32.0079 12.2281 31.4453L8.44387 17.1477Z" fill="white"/>
</svg>
