<svg width="159" height="36" viewBox="0 0 159 36" fill="none" xmlns="http://www.w3.org/2000/svg">
<path d="M54.522 24V9.72H57.522L61.122 16.42H61.562L65.102 9.72H68.122V24H66.362V11.76H65.922L62.262 18.54H60.382L56.722 11.76H56.282V24H54.522ZM72.2881 15.16C73.1815 14.16 74.3948 13.66 75.9281 13.66C77.4615 13.66 78.6681 14.16 79.5481 15.16C80.4415 16.16 80.8881 17.4267 80.8881 18.96C80.8881 20.4933 80.4415 21.76 79.5481 22.76C78.6681 23.76 77.4615 24.26 75.9281 24.26C74.3948 24.26 73.1815 23.76 72.2881 22.76C71.4081 21.76 70.9681 20.4933 70.9681 18.96C70.9681 17.4267 71.4081 16.16 72.2881 15.16ZM73.5081 21.68C74.0681 22.4133 74.8748 22.78 75.9281 22.78C76.9815 22.78 77.7881 22.4133 78.3481 21.68C78.9081 20.9333 79.1881 20.0267 79.1881 18.96C79.1881 17.8933 78.9081 16.9933 78.3481 16.26C77.7881 15.5133 76.9815 15.14 75.9281 15.14C74.8748 15.14 74.0681 15.5133 73.5081 16.26C72.9481 16.9933 72.6681 17.8933 72.6681 18.96C72.6681 20.0267 72.9481 20.9333 73.5081 21.68ZM84.2412 15.16C85.1346 14.16 86.3479 13.66 87.8812 13.66C89.4146 13.66 90.6212 14.16 91.5012 15.16C92.3946 16.16 92.8412 17.4267 92.8412 18.96C92.8412 20.4933 92.3946 21.76 91.5012 22.76C90.6212 23.76 89.4146 24.26 87.8812 24.26C86.3479 24.26 85.1346 23.76 84.2412 22.76C83.3612 21.76 82.9212 20.4933 82.9212 18.96C82.9212 17.4267 83.3612 16.16 84.2412 15.16ZM85.4612 21.68C86.0212 22.4133 86.8279 22.78 87.8812 22.78C88.9346 22.78 89.7412 22.4133 90.3012 21.68C90.8612 20.9333 91.1412 20.0267 91.1412 18.96C91.1412 17.8933 90.8612 16.9933 90.3012 16.26C89.7412 15.5133 88.9346 15.14 87.8812 15.14C86.8279 15.14 86.0212 15.5133 85.4612 16.26C84.9012 16.9933 84.6212 17.8933 84.6212 18.96C84.6212 20.0267 84.9012 20.9333 85.4612 21.68ZM104.454 24H102.754V17.96C102.754 16.1067 101.901 15.18 100.194 15.18C99.3144 15.18 98.5944 15.5133 98.0344 16.18C97.4744 16.8333 97.1944 17.62 97.1944 18.54V24H95.4944V13.92H97.1344V15H97.5744C97.8677 14.6 98.281 14.28 98.8144 14.04C99.3477 13.7867 99.9477 13.66 100.614 13.66C101.841 13.66 102.788 14.0133 103.454 14.72C104.121 15.4133 104.454 16.3733 104.454 17.6V24ZM109.365 11.3H107.565V9.46H109.365V11.3ZM109.305 13.92V24H107.605V13.92H109.305ZM115.443 17.72L116.403 17.88L117.543 18.06C119.463 18.3933 120.423 19.4067 120.423 21.1C120.423 21.98 120.056 22.7267 119.323 23.34C118.589 23.9533 117.576 24.26 116.283 24.26C114.896 24.26 113.829 23.98 113.083 23.42C112.349 22.86 111.923 22.08 111.803 21.08H113.523C113.683 22.2133 114.576 22.78 116.203 22.78C116.989 22.78 117.603 22.64 118.043 22.36C118.496 22.08 118.723 21.6733 118.723 21.14C118.723 20.7 118.576 20.3533 118.283 20.1C117.989 19.8467 117.523 19.6667 116.883 19.56L114.623 19.18C113.009 18.8867 112.203 18.04 112.203 16.64C112.203 15.76 112.536 15.0467 113.203 14.5C113.883 13.94 114.876 13.66 116.183 13.66C117.356 13.66 118.283 13.92 118.963 14.44C119.656 14.9467 120.056 15.6467 120.163 16.54H118.463C118.396 16.0733 118.149 15.7267 117.723 15.5C117.296 15.26 116.756 15.14 116.103 15.14C115.436 15.14 114.903 15.26 114.503 15.5C114.116 15.7267 113.923 16.0533 113.923 16.48C113.923 16.8533 114.043 17.1333 114.283 17.32C114.523 17.5067 114.909 17.64 115.443 17.72ZM127.156 17.22H129.316L130.996 22.2H131.436L132.596 13.92H134.236L132.776 24H130.176L128.416 18.9H127.996L126.236 24H123.596L122.156 13.92H123.796L124.996 22.2H125.436L127.156 17.22ZM143.164 24V22.94H142.724C142.031 23.82 140.984 24.26 139.584 24.26C138.478 24.26 137.598 23.94 136.944 23.3C136.291 22.66 135.964 21.8867 135.964 20.98C135.964 20.06 136.284 19.2733 136.924 18.62C137.564 17.9667 138.531 17.64 139.824 17.64H143.104V17.24C143.104 16.6 142.904 16.0933 142.504 15.72C142.104 15.3333 141.484 15.14 140.644 15.14C139.178 15.14 138.398 15.6267 138.304 16.6H136.604C136.671 15.68 137.064 14.96 137.784 14.44C138.518 13.92 139.458 13.66 140.604 13.66C141.898 13.66 142.911 13.96 143.644 14.56C144.391 15.16 144.764 16.02 144.764 17.14V24H143.164ZM140.004 22.78C140.844 22.78 141.571 22.5067 142.184 21.96C142.798 21.4 143.104 20.72 143.104 19.92V19H140.084C138.471 19 137.664 19.64 137.664 20.92C137.664 21.4933 137.864 21.9467 138.264 22.28C138.678 22.6133 139.258 22.78 140.004 22.78ZM152.717 15.14C151.664 15.14 150.871 15.5067 150.337 16.24C149.817 16.9733 149.557 17.88 149.557 18.96C149.557 20.04 149.817 20.9467 150.337 21.68C150.871 22.4133 151.664 22.78 152.717 22.78C153.704 22.78 154.464 22.4333 154.997 21.74C155.544 21.0333 155.817 20.1067 155.817 18.96C155.817 17.8133 155.544 16.8933 154.997 16.2C154.464 15.4933 153.704 15.14 152.717 15.14ZM147.877 13.92H149.517V15H149.957C150.677 14.1067 151.724 13.66 153.097 13.66C154.457 13.66 155.531 14.16 156.317 15.16C157.117 16.16 157.517 17.4267 157.517 18.96C157.517 20.52 157.117 21.7933 156.317 22.78C155.531 23.7667 154.457 24.26 153.097 24.26C151.711 24.26 150.684 23.8133 150.017 22.92H149.577V28H147.877V13.92Z" fill="white"/>
<path d="M18.9217 19.3609C18.7016 18.9209 18.2617 18.3709 17.8216 17.9308C17.7116 18.0409 17.6016 18.3709 17.6016 18.4808C17.4916 18.9209 17.7116 18.9209 18.1516 19.0309C18.3716 19.0309 18.5917 19.141 18.9217 19.3609Z" fill="white"/>
<path fill-rule="evenodd" clip-rule="evenodd" d="M19.0314 0.110008C12.1008 0.770054 6.49045 6.05043 5.39038 12.8709C5.83041 12.8709 6.16043 12.7609 6.27043 12.7609C6.27043 12.1008 6.49045 10.8908 7.26051 10.1207C9.46067 5.17036 14.301 1.76012 20.0214 1.76012C27.722 1.76012 33.9923 8.03056 33.9923 15.8411C33.9923 21.6716 30.4722 26.6218 25.5218 28.822C29.262 26.5119 31.7923 22.2216 31.7923 17.3812C31.7923 10.0107 25.8518 3.96028 18.4813 3.96028C13.751 3.96028 9.68067 6.38044 7.37052 10.1207C7.59054 9.90069 7.92055 9.79068 8.25057 9.79068C8.14057 11.0008 9.02063 11.3308 9.79068 10.6707C10.1207 10.0107 10.5607 9.35066 11.2208 8.91062C11.9908 8.47059 12.9809 8.36058 13.751 8.36058C14.411 8.36058 15.0711 8.5806 15.6211 8.80062C15.5111 8.36058 14.8511 7.81055 14.741 7.81055C16.3911 6.93048 19.1413 8.03056 19.4713 9.90069C19.5814 9.02063 19.4713 8.14056 19.4713 8.14056C21.1214 8.80062 21.2315 11.1108 21.1214 11.8808L23.3216 9.90069L21.2315 14.631C21.3415 14.7411 21.3415 14.9611 21.4514 15.181L21.5615 15.2911C21.6715 15.6211 21.7816 15.8411 21.8915 16.1711C22.0015 16.3912 22.1116 16.6111 22.2215 16.9412C22.2215 17.1611 22.1116 17.4913 22.0015 17.9312C21.8915 18.3713 21.7816 18.8113 21.7816 19.0313C21.8915 19.4714 21.8915 19.9114 22.0015 20.3514C22.1116 21.0114 22.3316 21.6716 22.5515 22.1115C22.6616 22.3316 22.6616 22.5516 22.7716 22.6616C23.4317 23.2116 23.4317 24.2017 23.4317 24.6417C23.4317 25.4118 22.3316 26.1819 21.8915 26.5119C21.7816 26.5119 21.7816 26.6218 21.6715 26.6218C21.3415 26.8419 21.0115 26.9518 20.7914 27.0619C20.5714 27.1719 20.3515 27.1719 20.1314 27.1719C19.4713 27.1719 17.8212 26.1819 17.6013 25.8519C17.4912 25.7418 17.3812 25.1917 17.2713 24.6417C17.1612 24.2017 17.0512 23.7617 16.9411 23.4317C16.7212 22.8816 16.5012 22.7717 16.2811 22.5516C15.9511 22.3316 15.6211 22.1115 15.0711 21.3414C14.8511 21.7815 14.301 23.1017 13.971 24.8617C13.8609 25.4118 13.8609 26.2918 13.8609 27.3919C13.8609 27.942 13.8609 28.492 13.751 29.042C15.8411 30.0322 18.0412 30.6922 20.4614 30.6922C26.6219 30.6922 31.9023 26.9518 34.3225 21.6716C32.4523 29.372 25.6317 35.0925 17.3812 35.0925C7.81055 35.2025 0 27.282 0 17.6012C0 7.92056 7.81055 0 17.3812 0C17.9313 0 18.4813 0 19.0314 0.110008ZM5.28037 13.641C5.28037 14.0809 5.17036 14.631 5.17036 15.0711C5.50039 14.9611 5.94042 14.9611 6.27043 14.9611H6.16043C5.83041 15.0711 5.50039 15.181 5.17036 15.2911V15.4011C5.17036 16.7212 5.28037 17.9312 5.6104 19.1414C5.6104 19.0313 5.6104 18.9214 5.6104 18.7013C5.6104 18.5914 5.83041 17.4913 6.82048 16.0611C6.82048 16.1711 6.82048 16.3912 6.71047 16.5011C6.60046 17.0512 6.49045 17.6012 6.71047 18.2612C6.71047 17.7112 7.04049 16.0611 8.14057 15.5111C7.81055 16.0611 7.59054 17.7112 7.92056 18.1513C7.92056 17.2712 8.47059 16.3912 9.24065 15.8411C9.79068 15.4011 12.5409 13.861 12.5409 13.861C12.5409 13.861 11.9908 16.1711 13.2009 16.3912C12.9809 15.8411 13.3109 14.851 13.8609 14.191C14.081 13.971 14.411 13.7509 14.631 13.641V13.5309C14.5211 12.9809 14.5211 12.3209 14.741 11.8808C14.961 12.1008 15.4011 12.3209 15.8411 12.4309C16.2811 12.5409 16.7212 12.7609 17.1612 12.9809C17.4912 13.2009 17.7112 13.641 17.9313 14.0809L18.1513 14.4111L18.2613 14.631V14.521L20.0214 12.7609C20.4614 11.9908 20.5714 10.0107 19.6914 9.13064C19.6914 9.68068 19.6914 12.1008 18.8113 12.5409C19.4713 11.0008 18.8113 8.14056 15.5111 8.14056C16.0611 8.5806 16.5012 9.35066 16.7212 9.79068C17.3812 9.90069 17.4912 10.2307 17.7112 10.4507L17.6013 10.3407C17.2713 10.0107 16.2811 9.02063 13.971 9.02063C13.2009 9.02063 12.4308 9.13064 11.7708 9.46067C12.8709 9.13064 14.081 9.79068 15.0711 10.4507C14.961 10.4507 14.741 10.3407 14.631 10.2307C13.971 10.0107 13.2009 9.57068 12.1008 9.79068C11.5508 9.90069 11.2208 10.2307 10.7808 10.6707C10.5607 10.8908 10.3407 11.1108 10.0107 11.3308C9.35066 11.6608 8.47059 11.6608 8.14057 11.0008C7.92056 10.8908 7.81055 10.6707 7.81055 10.4507C7.59054 10.6707 7.48053 10.8908 7.37052 11.1108C7.04049 11.5508 6.93049 12.2109 7.04049 12.7609C7.37052 12.7609 7.70054 12.7609 8.03056 12.7609C8.36058 12.7609 8.69061 12.8709 9.02063 12.7609C9.46067 12.6509 10.0107 12.5409 10.3407 12.3209C10.4507 12.2109 10.6707 12.1008 10.7808 11.9908C10.6707 12.1008 10.6707 12.2109 10.5607 12.3209C10.2307 12.7609 9.79068 12.9809 9.24065 13.0909C8.80062 13.2009 8.36058 13.2009 7.92056 13.0909C7.59054 13.0909 7.1505 12.9809 6.82048 13.0909C6.60046 13.0909 6.38044 13.2009 6.16043 13.311C5.94042 13.4209 5.6104 13.5309 5.28037 13.641ZM21.1214 12.6509L22.2215 11.5508L20.2414 15.6211C20.0214 15.7311 19.6914 15.6211 19.3614 15.4011C19.1413 15.181 18.9213 14.9611 19.0314 14.7411L19.4713 14.301C19.4713 14.4111 19.5814 14.521 19.6914 14.631C19.9114 14.851 20.1314 14.9611 20.4614 14.851C20.3515 14.851 20.2414 14.851 20.2414 14.7411C19.9114 14.631 19.8014 14.301 19.6914 14.0809L20.3515 13.4209C20.4614 13.641 20.6815 13.861 21.0115 13.7509C20.7914 13.7509 20.5714 13.4209 20.4614 13.2009L20.9015 12.6509C21.0115 12.7609 21.1214 12.7609 21.2315 12.7609C21.2315 12.8709 21.1214 12.7609 21.1214 12.6509ZM17.4912 19.0313C17.2713 18.8113 17.2713 18.5914 17.2713 18.2612C17.2713 18.0413 17.3812 17.7112 17.6013 17.4913C17.3812 17.2712 17.0512 17.1611 16.7212 17.1611C17.4912 16.9412 18.0412 17.2712 18.5913 17.8213C18.9213 18.1513 19.3614 19.0313 19.4713 19.3613C19.5814 19.6913 20.2414 19.4714 20.2414 19.4714C20.1314 19.6913 19.8014 19.9114 19.4713 19.9114C19.2514 19.9114 19.2514 19.8014 19.1413 19.6913V19.5814C18.8113 19.4714 18.4813 19.3613 18.1513 19.2514C17.8212 19.2514 17.6013 19.1414 17.4912 19.0313ZM21.5615 24.4217C21.4514 23.7617 21.3415 23.3216 21.0115 23.3216C21.0115 23.3216 21.1214 23.1017 21.3415 23.2116C21.6715 23.4317 21.5615 23.9817 21.5615 24.4217ZM21.7816 24.5317C21.8915 23.9817 21.6715 22.7717 21.1214 22.7717C20.7914 22.7717 20.5714 22.8816 20.4614 22.9916L20.3515 23.1017C20.3515 22.9916 20.3515 22.9916 20.3515 22.8816C20.3515 22.3316 20.1314 21.8915 19.9114 21.3414C19.8014 21.1215 19.8014 21.0114 19.6914 20.7914C20.1314 21.2315 20.4614 21.7815 20.6815 22.3316C20.7914 22.2216 21.0115 22.2216 21.2315 22.4415C22.1116 22.8816 22.1116 24.0917 21.7816 24.5317ZM20.5714 25.7418C19.9114 25.5217 18.5913 24.9717 18.5913 24.6417C18.5913 24.4217 18.5913 24.0917 18.8113 23.9817C18.9213 24.3117 19.2514 24.5317 19.6914 24.7518C19.6914 24.7518 19.1413 24.2017 19.1413 23.7617H19.2514C19.4713 23.7617 19.5814 24.0917 19.6914 24.4217C19.8014 24.8617 20.1314 25.4118 20.5714 25.7418ZM18.7014 19.8014C18.2613 20.0214 17.6013 19.9114 17.2713 19.6913C16.8312 19.4714 16.6111 18.9214 16.6111 18.4813C16.7212 18.5914 16.7212 18.7013 16.7212 18.8113C16.8312 19.1414 17.0512 19.3613 17.3812 19.5814C17.6013 19.6913 18.0412 19.8014 18.3712 19.8014C18.4813 19.8014 18.5913 19.8014 18.7014 19.8014ZM9.46067 23.6517C9.46067 23.9817 9.46067 24.2017 9.46067 24.4217C9.13064 23.9817 9.02063 23.4317 9.13064 22.8816C9.35066 19.9114 11.7708 17.9312 11.8808 17.8213C10.3407 19.9114 9.79068 21.5615 9.57068 22.6616C9.46067 22.8816 9.46067 23.3216 9.46067 23.6517Z" fill="white"/>
<path d="M27.8314 17.3816C27.8314 22.4419 24.9712 26.9522 20.901 29.1524C26.1813 27.9423 30.0316 23.212 30.0316 17.6016C30.0316 12.4312 26.7313 8.03091 22.221 6.3808C25.6312 8.80097 27.8314 12.8712 27.8314 17.3816Z" fill="white"/>
<path d="M24.4215 17.1608C24.4215 17.1608 24.3116 16.1707 23.9814 15.8407C23.6514 15.5107 22.6614 15.4006 22.6614 15.4006C22.6614 15.4006 23.5415 15.2906 23.9814 14.9606C24.3116 14.6306 24.4215 13.6405 24.4215 13.6405C24.4215 13.6405 24.5315 14.6306 24.8616 14.9606C25.1916 15.2906 26.1816 15.4006 26.1816 15.4006C26.1816 15.4006 25.3016 15.5107 24.8616 15.8407C24.4215 16.1707 24.4215 17.1608 24.4215 17.1608Z" fill="white"/>
<path d="M15.2919 27.1728C15.6219 27.5028 15.6219 28.1629 15.6219 28.1629C15.6219 28.1629 15.6219 27.5028 15.9519 27.1728C16.2819 26.8428 16.942 26.8428 16.942 26.8428C16.942 26.8428 16.2819 26.8428 15.9519 26.5128C15.6219 26.1828 15.6219 25.5226 15.6219 25.5226C15.6219 25.5226 15.6219 26.1828 15.2919 26.5128C14.9619 26.8428 14.3018 26.8428 14.3018 26.8428C14.3018 26.8428 15.0718 26.8428 15.2919 27.1728Z" fill="white"/>
<path d="M25.6325 19.8021C25.6325 19.8021 25.6325 19.362 25.4125 19.1421C25.1926 18.922 24.7525 18.922 24.7525 18.922C24.7525 18.922 25.1926 18.922 25.4125 18.702C25.6325 18.4819 25.6325 18.042 25.6325 18.042C25.6325 18.042 25.6325 18.4819 25.8526 18.702C26.0726 18.922 26.5126 18.922 26.5126 18.922C26.5126 18.922 26.0726 18.922 25.8526 19.1421C25.7426 19.362 25.6325 19.8021 25.6325 19.8021Z" fill="white"/>
</svg>
