<svg width="142" height="49" viewBox="0 0 142 49" fill="none" xmlns="http://www.w3.org/2000/svg">
<path d="M53.2541 31V30.046H52.8581C52.2341 30.838 51.2921 31.234 50.0321 31.234C49.0361 31.234 48.2441 30.946 47.6561 30.37C47.0681 29.794 46.7741 29.098 46.7741 28.282C46.7741 27.454 47.0621 26.746 47.6381 26.158C48.2141 25.57 49.0841 25.276 50.2481 25.276H53.2001V24.916C53.2001 24.34 53.0201 23.884 52.6601 23.548C52.3001 23.2 51.7421 23.026 50.9861 23.026C49.6661 23.026 48.9641 23.464 48.8801 24.34H47.3501C47.4101 23.512 47.7641 22.864 48.4121 22.396C49.0721 21.928 49.9181 21.694 50.9501 21.694C52.1141 21.694 53.0261 21.964 53.6861 22.504C54.3581 23.044 54.6941 23.818 54.6941 24.826V31H53.2541ZM50.4101 29.902C51.1661 29.902 51.8201 29.656 52.3721 29.164C52.9241 28.66 53.2001 28.048 53.2001 27.328V26.5H50.4821C49.0301 26.5 48.3041 27.076 48.3041 28.228C48.3041 28.744 48.4841 29.152 48.8441 29.452C49.2161 29.752 49.7381 29.902 50.4101 29.902ZM65.5596 31H64.0296V25.564C64.0296 23.896 63.2616 23.062 61.7256 23.062C60.9336 23.062 60.2856 23.362 59.7816 23.962C59.2776 24.55 59.0256 25.258 59.0256 26.086V31H57.4956V21.928H58.9716V22.9H59.3676C59.6316 22.54 60.0036 22.252 60.4836 22.036C60.9636 21.808 61.5036 21.694 62.1036 21.694C63.2076 21.694 64.0596 22.012 64.6596 22.648C65.2596 23.272 65.5596 24.136 65.5596 25.24V31ZM74.9469 17.914H76.4769V31H75.0009V30.028H74.6049C73.9569 30.832 73.0149 31.234 71.7789 31.234C70.5549 31.234 69.5829 30.784 68.8629 29.884C68.1549 28.984 67.8009 27.844 67.8009 26.464C67.8009 25.06 68.1549 23.914 68.8629 23.026C69.5829 22.138 70.5549 21.694 71.7789 21.694C73.0029 21.694 73.9269 22.096 74.5509 22.9H74.9469V17.914ZM72.1209 29.902C73.0689 29.902 73.7769 29.572 74.2449 28.912C74.7249 28.252 74.9649 27.436 74.9649 26.464C74.9649 25.492 74.7249 24.676 74.2449 24.016C73.7769 23.356 73.0689 23.026 72.1209 23.026C71.2329 23.026 70.5429 23.344 70.0509 23.98C69.5709 24.604 69.3309 25.432 69.3309 26.464C69.3309 27.496 69.5709 28.33 70.0509 28.966C70.5429 29.59 71.2329 29.902 72.1209 29.902ZM93.9649 21.694C94.9729 21.694 95.7229 22 96.2149 22.612C96.7069 23.212 96.9529 24.052 96.9529 25.132V31H95.4229V25.294C95.4229 23.806 94.8409 23.062 93.6769 23.062C92.9809 23.062 92.4349 23.308 92.0389 23.8C91.6549 24.28 91.4629 24.91 91.4629 25.69V31H89.9329V25.33C89.9329 23.818 89.3569 23.062 88.2049 23.062C87.4729 23.062 86.9149 23.332 86.5309 23.872C86.1589 24.412 85.9729 25.114 85.9729 25.978V31H84.4429V21.928H85.9189V22.81H86.3149C86.7949 22.066 87.5629 21.694 88.6189 21.694C89.7349 21.694 90.5329 22.096 91.0129 22.9H91.4089C91.9609 22.096 92.8129 21.694 93.9649 21.694ZM100.383 23.044C101.187 22.144 102.279 21.694 103.659 21.694C105.039 21.694 106.125 22.144 106.917 23.044C107.721 23.944 108.123 25.084 108.123 26.464C108.123 27.844 107.721 28.984 106.917 29.884C106.125 30.784 105.039 31.234 103.659 31.234C102.279 31.234 101.187 30.784 100.383 29.884C99.5914 28.984 99.1954 27.844 99.1954 26.464C99.1954 25.084 99.5914 23.944 100.383 23.044ZM101.481 28.912C101.985 29.572 102.711 29.902 103.659 29.902C104.607 29.902 105.333 29.572 105.837 28.912C106.341 28.24 106.593 27.424 106.593 26.464C106.593 25.504 106.341 24.694 105.837 24.034C105.333 23.362 104.607 23.026 103.659 23.026C102.711 23.026 101.985 23.362 101.481 24.034C100.977 24.694 100.725 25.504 100.725 26.464C100.725 27.424 100.977 28.24 101.481 28.912ZM115.695 21.928V23.368H114.939C114.027 23.368 113.313 23.638 112.797 24.178C112.293 24.718 112.041 25.48 112.041 26.464V31H110.511V21.928H111.987V23.008H112.383C112.959 22.288 113.835 21.928 115.011 21.928H115.695ZM125.567 25.924V26.446H118.655C118.679 27.538 118.937 28.39 119.429 29.002C119.921 29.602 120.629 29.902 121.553 29.902C122.801 29.902 123.569 29.434 123.857 28.498H125.405C125.249 29.314 124.835 29.974 124.163 30.478C123.503 30.982 122.633 31.234 121.553 31.234C120.173 31.234 119.093 30.784 118.313 29.884C117.533 28.984 117.143 27.814 117.143 26.374C117.143 24.958 117.533 23.824 118.313 22.972C119.093 22.12 120.161 21.694 121.517 21.694C122.801 21.694 123.791 22.102 124.487 22.918C125.183 23.722 125.543 24.724 125.567 25.924ZM121.481 23.026C120.701 23.026 120.077 23.23 119.609 23.638C119.141 24.034 118.853 24.544 118.745 25.168H123.983C123.935 24.556 123.689 24.046 123.245 23.638C122.801 23.23 122.213 23.026 121.481 23.026ZM129.731 31H127.859V28.912H129.731V31ZM134.371 31H132.499V28.912H134.371V31ZM139.012 31H137.14V28.912H139.012V31Z" fill="white"/>
<path fill-rule="evenodd" clip-rule="evenodd" d="M30.92 25C30.92 33.2843 24.2043 40 15.92 40C7.63571 40 0.919983 33.2843 0.919983 25C0.919983 16.7157 7.63571 10 15.92 10C24.2043 10 30.92 16.7157 30.92 25ZM14.5349 18.0769H17.3041V23.6154H22.8428V26.3846H17.3041V31.9231H14.5349V26.3846H8.99668V23.6154H14.5349V18.0769Z" fill="white"/>
</svg>
