<svg width="128" height="49" viewBox="0 0 128 49" fill="none" xmlns="http://www.w3.org/2000/svg">
<path d="M55.314 31L53.982 27.058H48.348L47.016 31H45.36L49.806 18.148H52.542L57.006 31H55.314ZM50.796 19.804L48.834 25.582H53.478L51.516 19.804H50.796ZM66.8974 31H65.3674V25.564C65.3674 23.896 64.5994 23.062 63.0634 23.062C62.2714 23.062 61.6234 23.362 61.1194 23.962C60.6154 24.55 60.3634 25.258 60.3634 26.086V31H58.8334V21.928H60.3094V22.9H60.7054C60.9694 22.54 61.3414 22.252 61.8214 22.036C62.3014 21.808 62.8414 21.694 63.4414 21.694C64.5454 21.694 65.3974 22.012 65.9974 22.648C66.5974 23.272 66.8974 24.136 66.8974 25.24V31ZM76.2847 17.914H77.8147V31H76.3387V30.028H75.9427C75.2947 30.832 74.3527 31.234 73.1167 31.234C71.8927 31.234 70.9207 30.784 70.2007 29.884C69.4927 28.984 69.1387 27.844 69.1387 26.464C69.1387 25.06 69.4927 23.914 70.2007 23.026C70.9207 22.138 71.8927 21.694 73.1167 21.694C74.3407 21.694 75.2647 22.096 75.8887 22.9H76.2847V17.914ZM73.4587 29.902C74.4067 29.902 75.1147 29.572 75.5827 28.912C76.0627 28.252 76.3027 27.436 76.3027 26.464C76.3027 25.492 76.0627 24.676 75.5827 24.016C75.1147 23.356 74.4067 23.026 73.4587 23.026C72.5707 23.026 71.8807 23.344 71.3887 23.98C70.9087 24.604 70.6687 25.432 70.6687 26.464C70.6687 27.496 70.9087 28.33 71.3887 28.966C71.8807 29.59 72.5707 29.902 73.4587 29.902ZM95.3027 21.694C96.3107 21.694 97.0607 22 97.5527 22.612C98.0447 23.212 98.2907 24.052 98.2907 25.132V31H96.7607V25.294C96.7607 23.806 96.1787 23.062 95.0147 23.062C94.3187 23.062 93.7727 23.308 93.3767 23.8C92.9927 24.28 92.8007 24.91 92.8007 25.69V31H91.2707V25.33C91.2707 23.818 90.6947 23.062 89.5427 23.062C88.8107 23.062 88.2527 23.332 87.8687 23.872C87.4967 24.412 87.3107 25.114 87.3107 25.978V31H85.7807V21.928H87.2567V22.81H87.6527C88.1327 22.066 88.9007 21.694 89.9567 21.694C91.0727 21.694 91.8707 22.096 92.3507 22.9H92.7467C93.2987 22.096 94.1507 21.694 95.3027 21.694ZM101.721 23.044C102.525 22.144 103.617 21.694 104.997 21.694C106.377 21.694 107.463 22.144 108.255 23.044C109.059 23.944 109.461 25.084 109.461 26.464C109.461 27.844 109.059 28.984 108.255 29.884C107.463 30.784 106.377 31.234 104.997 31.234C103.617 31.234 102.525 30.784 101.721 29.884C100.929 28.984 100.533 27.844 100.533 26.464C100.533 25.084 100.929 23.944 101.721 23.044ZM102.819 28.912C103.323 29.572 104.049 29.902 104.997 29.902C105.945 29.902 106.671 29.572 107.175 28.912C107.679 28.24 107.931 27.424 107.931 26.464C107.931 25.504 107.679 24.694 107.175 24.034C106.671 23.362 105.945 23.026 104.997 23.026C104.049 23.026 103.323 23.362 102.819 24.034C102.315 24.694 102.063 25.504 102.063 26.464C102.063 27.424 102.315 28.24 102.819 28.912ZM117.033 21.928V23.368H116.277C115.365 23.368 114.651 23.638 114.135 24.178C113.631 24.718 113.379 25.48 113.379 26.464V31H111.849V21.928H113.325V23.008H113.721C114.297 22.288 115.173 21.928 116.349 21.928H117.033ZM126.905 25.924V26.446H119.993C120.017 27.538 120.275 28.39 120.767 29.002C121.259 29.602 121.967 29.902 122.891 29.902C124.139 29.902 124.907 29.434 125.195 28.498H126.743C126.587 29.314 126.173 29.974 125.501 30.478C124.841 30.982 123.971 31.234 122.891 31.234C121.511 31.234 120.431 30.784 119.651 29.884C118.871 28.984 118.481 27.814 118.481 26.374C118.481 24.958 118.871 23.824 119.651 22.972C120.431 22.12 121.499 21.694 122.854 21.694C124.139 21.694 125.129 22.102 125.825 22.918C126.521 23.722 126.881 24.724 126.905 25.924ZM122.819 23.026C122.039 23.026 121.415 23.23 120.947 23.638C120.479 24.034 120.191 24.544 120.083 25.168H125.321C125.273 24.556 125.027 24.046 124.583 23.638C124.139 23.23 123.551 23.026 122.819 23.026Z" fill="white"/>
<path fill-rule="evenodd" clip-rule="evenodd" d="M30 25C30 33.2843 23.2843 40 15 40C6.71573 40 0 33.2843 0 25C0 16.7157 6.71573 10 15 10C23.2843 10 30 16.7157 30 25ZM13.6149 18.0769H16.3842V23.6154H21.9229V26.3846H16.3842V31.9231H13.6149V26.3846H8.0767V23.6154H13.6149V18.0769Z" fill="white"/>
</svg>
