<svg width="131" height="30" viewBox="0 0 131 30" fill="none" xmlns="http://www.w3.org/2000/svg">
<path d="M64.8045 10.66C65.9245 10.66 66.7578 11 67.3045 11.68C67.8511 12.3467 68.1245 13.28 68.1245 14.48V21H66.4245V14.66C66.4245 13.0067 65.7778 12.18 64.4845 12.18C63.7111 12.18 63.1045 12.4533 62.6645 13C62.2378 13.5333 62.0245 14.2333 62.0245 15.1V21H60.3245V14.7C60.3245 13.02 59.6845 12.18 58.4045 12.18C57.5911 12.18 56.9711 12.48 56.5445 13.08C56.1311 13.68 55.9245 14.46 55.9245 15.42V21H54.2245V10.92H55.8645V11.9H56.3045C56.8378 11.0733 57.6911 10.66 58.8645 10.66C60.1045 10.66 60.9911 11.1067 61.5245 12H61.9645C62.5778 11.1067 63.5245 10.66 64.8045 10.66ZM75.4162 12.46C75.9495 12.54 76.8495 12.72 78.1162 13C79.2629 13.2533 80.1429 13.7 80.7562 14.34C81.3829 14.9667 81.6962 15.86 81.6962 17.02C81.6962 18.22 81.2229 19.2267 80.2762 20.04C79.3429 20.8533 78.0162 21.26 76.2962 21.26C74.6562 21.26 73.3162 20.8667 72.2762 20.08C71.2362 19.2933 70.6629 18.2733 70.5562 17.02H72.3762C72.5229 17.9267 72.9562 18.5867 73.6762 19C74.3962 19.4133 75.2962 19.62 76.3762 19.62C77.4029 19.62 78.2429 19.3933 78.8962 18.94C79.5495 18.4867 79.8762 17.86 79.8762 17.06C79.8762 16.34 79.6695 15.8 79.2562 15.44C78.8429 15.0667 78.2429 14.7933 77.4562 14.62C77.2295 14.5667 76.7629 14.4733 76.0562 14.34C75.3495 14.1933 74.8762 14.0933 74.6362 14.04C72.3295 13.5733 71.1762 12.3667 71.1762 10.42C71.1762 9.27333 71.6229 8.32667 72.5162 7.58C73.4095 6.83333 74.6362 6.46 76.1962 6.46C77.6495 6.46 78.8362 6.81333 79.7562 7.52C80.6762 8.21333 81.2162 9.14667 81.3762 10.32H79.5562C79.2095 8.84 78.0762 8.1 76.1562 8.1C75.2495 8.1 74.4962 8.3 73.8962 8.7C73.2962 9.1 72.9962 9.66 72.9962 10.38C72.9962 11.0067 73.2095 11.4733 73.6362 11.78C74.0762 12.0733 74.6695 12.3 75.4162 12.46ZM86.8574 10.92H89.3974V12.4H86.8574V17.94C86.8574 18.4733 86.9908 18.8667 87.2574 19.12C87.5374 19.36 88.0041 19.48 88.6574 19.48H89.3974V21H88.6174C87.4708 21 86.6041 20.7867 86.0174 20.36C85.4441 19.9333 85.1574 19.2067 85.1574 18.18V12.4H83.4174V10.92H85.1574V7.88H86.8574V10.92ZM98.6132 21V19.94H98.1732C97.4799 20.82 96.4332 21.26 95.0332 21.26C93.9266 21.26 93.0466 20.94 92.3932 20.3C91.7399 19.66 91.4132 18.8867 91.4132 17.98C91.4132 17.06 91.7332 16.2733 92.3732 15.62C93.0132 14.9667 93.9799 14.64 95.2732 14.64H98.5532V14.24C98.5532 13.6 98.3532 13.0933 97.9532 12.72C97.5532 12.3333 96.9332 12.14 96.0932 12.14C94.6266 12.14 93.8466 12.6267 93.7532 13.6H92.0532C92.1199 12.68 92.5132 11.96 93.2332 11.44C93.9666 10.92 94.9066 10.66 96.0532 10.66C97.3466 10.66 98.3599 10.96 99.0932 11.56C99.8399 12.16 100.213 13.02 100.213 14.14V21H98.6132ZM95.4532 19.78C96.2932 19.78 97.0199 19.5067 97.6332 18.96C98.2466 18.4 98.5532 17.72 98.5532 16.92V16H95.5332C93.9199 16 93.1132 16.64 93.1132 17.92C93.1132 18.4933 93.3132 18.9467 93.7132 19.28C94.1266 19.6133 94.7066 19.78 95.4532 19.78ZM108.546 10.66C109.906 10.66 110.979 11.1533 111.766 12.14C112.566 13.1267 112.966 14.4 112.966 15.96C112.966 17.4933 112.566 18.76 111.766 19.76C110.979 20.76 109.906 21.26 108.546 21.26C107.173 21.26 106.126 20.8133 105.406 19.92H104.966V21H103.326V6.46H105.026V12H105.466C106.133 11.1067 107.159 10.66 108.546 10.66ZM108.166 19.78C109.153 19.78 109.913 19.4333 110.446 18.74C110.993 18.0333 111.266 17.1067 111.266 15.96C111.266 14.8133 110.993 13.8933 110.446 13.2C109.913 12.4933 109.153 12.14 108.166 12.14C107.113 12.14 106.319 12.5067 105.786 13.24C105.266 13.9733 105.006 14.88 105.006 15.96C105.006 17.04 105.266 17.9467 105.786 18.68C106.319 19.4133 107.113 19.78 108.166 19.78ZM115.631 6.46H117.331V21H115.631V6.46ZM129.351 15.36V15.94H121.671C121.698 17.1533 121.985 18.1 122.531 18.78C123.078 19.4467 123.865 19.78 124.891 19.78C126.278 19.78 127.131 19.26 127.451 18.22H129.171C128.998 19.1267 128.538 19.86 127.791 20.42C127.058 20.98 126.091 21.26 124.891 21.26C123.358 21.26 122.158 20.76 121.291 19.76C120.425 18.76 119.991 17.46 119.991 15.86C119.991 14.2867 120.425 13.0267 121.291 12.08C122.158 11.1333 123.345 10.66 124.851 10.66C126.278 10.66 127.378 11.1133 128.151 12.02C128.925 12.9133 129.325 14.0267 129.351 15.36ZM124.811 12.14C123.945 12.14 123.251 12.3667 122.731 12.82C122.211 13.26 121.891 13.8267 121.771 14.52H127.591C127.538 13.84 127.265 13.2733 126.771 12.82C126.278 12.3667 125.625 12.14 124.811 12.14Z" fill="white"/>
<path d="M0.0449219 1.43636H5.55501C5.62449 2.22065 5.69279 3.00613 5.76816 3.82339C6.09082 3.47011 6.36992 3.15215 6.67257 2.85304C7.79484 1.74254 9.18325 1.21732 10.7295 1.06188C11.9112 0.923428 13.1086 1.01785 14.2541 1.33979C15.9145 1.82851 17.111 2.84832 17.8423 4.41927C17.8588 4.4546 17.8764 4.48993 17.8941 4.52408C17.9118 4.55823 17.9177 4.55587 17.9495 4.60062C18.1073 4.35568 18.2533 4.1178 18.4087 3.88699C19.5251 2.22419 21.089 1.31977 23.0721 1.11487C24.457 0.972376 25.823 1.02419 27.1255 1.55059C29.4112 2.47384 30.7019 4.20965 31.0175 6.62966C31.1453 7.7693 31.2032 8.91571 31.1906 10.0624C31.2118 13.4281 31.1977 16.7949 31.1977 20.1605V20.5621H25.3685V20.1523C25.3685 16.4039 25.3802 12.6555 25.3484 8.90718C25.3309 8.23223 25.2203 7.56293 25.0199 6.91818C24.7408 5.96902 24.0495 5.39905 23.0733 5.20003C21.9333 4.96451 20.8358 5.0281 19.8937 5.80651C19.213 6.37412 18.8939 7.17843 18.7985 8.02632C18.6768 9.13591 18.6119 10.251 18.6042 11.3672C18.5783 14.2913 18.596 17.2153 18.5948 20.1393C18.5948 20.2747 18.583 20.409 18.576 20.5644H12.7679V20.1393C12.7679 16.4004 12.7773 12.6614 12.7573 8.92249C12.752 8.31575 12.6729 7.71191 12.5218 7.12426C12.2286 5.97373 11.4502 5.31191 10.2702 5.13526C9.61786 5.0328 8.95121 5.06972 8.31417 5.2436C6.91162 5.62986 6.26511 6.67912 6.07669 8.01219C6.01772 8.52734 5.99333 9.04587 6.00368 9.56429C5.99818 13.0862 5.99818 16.6088 6.00368 20.1323V20.5633H0.187414C0.0826057 14.1935 0.308709 7.83437 0.0449219 1.43636Z" fill="white"/>
<path d="M0 29.6038V24.8756H31.1787V29.6038H0Z" fill="white"/>
</svg>
