<svg width="106" height="27" viewBox="0 0 106 27" fill="none" xmlns="http://www.w3.org/2000/svg">
<path d="M60.76 6.46C62.8533 6.46 64.4867 7.16 65.66 8.56C66.8333 9.96 67.42 11.7267 67.42 13.86C67.42 15.9933 66.8333 17.76 65.66 19.16C64.4867 20.56 62.8533 21.26 60.76 21.26C58.6533 21.26 57.0133 20.5667 55.84 19.18C54.68 17.78 54.1 16.0067 54.1 13.86C54.1 11.7133 54.68 9.94667 55.84 8.56C57.0133 7.16 58.6533 6.46 60.76 6.46ZM57.14 17.96C57.9533 19.0667 59.16 19.62 60.76 19.62C62.36 19.62 63.5667 19.0667 64.38 17.96C65.1933 16.8533 65.6 15.4867 65.6 13.86C65.6 12.2333 65.1933 10.8667 64.38 9.76C63.5667 8.65333 62.36 8.1 60.76 8.1C59.16 8.1 57.9533 8.65333 57.14 9.76C56.3267 10.8667 55.92 12.2333 55.92 13.86C55.92 15.4867 56.3267 16.8533 57.14 17.96ZM76.5873 21V19.94H76.1473C75.454 20.82 74.4073 21.26 73.0073 21.26C71.9007 21.26 71.0207 20.94 70.3673 20.3C69.714 19.66 69.3873 18.8867 69.3873 17.98C69.3873 17.06 69.7073 16.2733 70.3473 15.62C70.9873 14.9667 71.954 14.64 73.2473 14.64H76.5273V14.24C76.5273 13.6 76.3273 13.0933 75.9273 12.72C75.5273 12.3333 74.9073 12.14 74.0673 12.14C72.6007 12.14 71.8207 12.6267 71.7273 13.6H70.0273C70.094 12.68 70.4873 11.96 71.2073 11.44C71.9407 10.92 72.8807 10.66 74.0273 10.66C75.3207 10.66 76.334 10.96 77.0673 11.56C77.814 12.16 78.1873 13.02 78.1873 14.14V21H76.5873ZM73.4273 19.78C74.2673 19.78 74.994 19.5067 75.6073 18.96C76.2207 18.4 76.5273 17.72 76.5273 16.92V16H73.5073C71.894 16 71.0873 16.64 71.0873 17.92C71.0873 18.4933 71.2873 18.9467 71.6873 19.28C72.1007 19.6133 72.6807 19.78 73.4273 19.78ZM84.1002 14.72L85.0602 14.88L86.2002 15.06C88.1202 15.3933 89.0802 16.4067 89.0802 18.1C89.0802 18.98 88.7135 19.7267 87.9802 20.34C87.2468 20.9533 86.2335 21.26 84.9402 21.26C83.5535 21.26 82.4868 20.98 81.7402 20.42C81.0068 19.86 80.5802 19.08 80.4602 18.08H82.1802C82.3402 19.2133 83.2335 19.78 84.8602 19.78C85.6468 19.78 86.2602 19.64 86.7002 19.36C87.1535 19.08 87.3802 18.6733 87.3802 18.14C87.3802 17.7 87.2335 17.3533 86.9402 17.1C86.6468 16.8467 86.1802 16.6667 85.5402 16.56L83.2802 16.18C81.6668 15.8867 80.8602 15.04 80.8602 13.64C80.8602 12.76 81.1935 12.0467 81.8602 11.5C82.5402 10.94 83.5335 10.66 84.8402 10.66C86.0135 10.66 86.9402 10.92 87.6202 11.44C88.3135 11.9467 88.7135 12.6467 88.8202 13.54H87.1202C87.0535 13.0733 86.8068 12.7267 86.3802 12.5C85.9535 12.26 85.4135 12.14 84.7602 12.14C84.0935 12.14 83.5602 12.26 83.1602 12.5C82.7735 12.7267 82.5802 13.0533 82.5802 13.48C82.5802 13.8533 82.7002 14.1333 82.9402 14.32C83.1802 14.5067 83.5668 14.64 84.1002 14.72ZM93.3736 8.3H91.5736V6.46H93.3736V8.3ZM93.3136 10.92V21H91.6136V10.92H93.3136ZM99.4517 14.72L100.412 14.88L101.552 15.06C103.472 15.3933 104.432 16.4067 104.432 18.1C104.432 18.98 104.065 19.7267 103.332 20.34C102.598 20.9533 101.585 21.26 100.292 21.26C98.9051 21.26 97.8384 20.98 97.0917 20.42C96.3584 19.86 95.9317 19.08 95.8117 18.08H97.5317C97.6917 19.2133 98.5851 19.78 100.212 19.78C100.998 19.78 101.612 19.64 102.052 19.36C102.505 19.08 102.732 18.6733 102.732 18.14C102.732 17.7 102.585 17.3533 102.292 17.1C101.998 16.8467 101.532 16.6667 100.892 16.56L98.6317 16.18C97.0184 15.8867 96.2117 15.04 96.2117 13.64C96.2117 12.76 96.5451 12.0467 97.2117 11.5C97.8917 10.94 98.8851 10.66 100.192 10.66C101.365 10.66 102.292 10.92 102.972 11.44C103.665 11.9467 104.065 12.6467 104.172 13.54H102.472C102.405 13.0733 102.158 12.7267 101.732 12.5C101.305 12.26 100.765 12.14 100.112 12.14C99.4451 12.14 98.9117 12.26 98.5117 12.5C98.1251 12.7267 97.9317 13.0533 97.9317 13.48C97.9317 13.8533 98.0517 14.1333 98.2917 14.32C98.5317 14.5067 98.9184 14.64 99.4517 14.72Z" fill="white"/>
<path fill-rule="evenodd" clip-rule="evenodd" d="M30.4101 3.48699C32.0279 2.28697 34.3223 3.44177 34.3223 5.45605V22.3663C34.3223 23.1787 33.6637 23.8373 32.8513 23.8373C32.0389 23.8373 31.3803 23.1787 31.3803 22.3663V6.43025L22.1187 13.3002V23.1206C22.1187 23.933 21.4602 24.5916 20.6478 24.5916C19.8354 24.5916 19.1768 23.933 19.1768 23.1206V13.0534C19.1768 12.2771 19.5444 11.5468 20.1678 11.0843L30.4101 3.48699Z" fill="white"/>
<path fill-rule="evenodd" clip-rule="evenodd" d="M3.9122 3.48699C2.29441 2.28697 1.90735e-06 3.44177 1.90735e-06 5.45605V22.3663C1.90735e-06 23.1787 0.65858 23.8373 1.47098 23.8373C2.28337 23.8373 2.94195 23.1787 2.94195 22.3663V6.43025L12.2035 13.3002V23.1206C12.2035 23.933 12.8621 24.5916 13.6745 24.5916C14.4869 24.5916 15.1455 23.933 15.1455 23.1206V13.0534C15.1455 12.2771 14.7779 11.5468 14.1544 11.0843L3.9122 3.48699Z" fill="white"/>
</svg>
