<svg width="131" height="27" viewBox="0 0 131 27" fill="none" xmlns="http://www.w3.org/2000/svg">
<path d="M62.22 6.72H64.02V15.9C64.02 17.6067 63.5333 18.9267 62.56 19.86C61.6 20.7933 60.2133 21.26 58.4 21.26C56.5867 21.26 55.1933 20.7933 54.22 19.86C53.26 18.9267 52.78 17.6067 52.78 15.9V6.72H54.58V15.88C54.58 17.0267 54.9067 17.94 55.56 18.62C56.2267 19.2867 57.1733 19.62 58.4 19.62C59.6267 19.62 60.5667 19.2867 61.22 18.62C61.8867 17.94 62.22 17.0267 62.22 15.88V6.72ZM76.4047 21H74.7047V14.96C74.7047 13.1067 73.8514 12.18 72.1447 12.18C71.2647 12.18 70.5447 12.5133 69.9847 13.18C69.4247 13.8333 69.1447 14.62 69.1447 15.54V21H67.4447V10.92H69.0847V12H69.5247C69.818 11.6 70.2314 11.28 70.7647 11.04C71.298 10.7867 71.898 10.66 72.5647 10.66C73.7914 10.66 74.738 11.0133 75.4047 11.72C76.0714 12.4133 76.4047 13.3733 76.4047 14.6V21ZM81.315 8.3H79.515V6.46H81.315V8.3ZM81.255 10.92V21H79.555V10.92H81.255ZM87.3931 14.72L88.3531 14.88L89.4931 15.06C91.4131 15.3933 92.3731 16.4067 92.3731 18.1C92.3731 18.98 92.0065 19.7267 91.2731 20.34C90.5398 20.9533 89.5265 21.26 88.2331 21.26C86.8465 21.26 85.7798 20.98 85.0331 20.42C84.2998 19.86 83.8731 19.08 83.7531 18.08H85.4731C85.6331 19.2133 86.5265 19.78 88.1531 19.78C88.9398 19.78 89.5531 19.64 89.9931 19.36C90.4465 19.08 90.6731 18.6733 90.6731 18.14C90.6731 17.7 90.5265 17.3533 90.2331 17.1C89.9398 16.8467 89.4731 16.6667 88.8331 16.56L86.5731 16.18C84.9598 15.8867 84.1531 15.04 84.1531 13.64C84.1531 12.76 84.4865 12.0467 85.1531 11.5C85.8331 10.94 86.8265 10.66 88.1331 10.66C89.3065 10.66 90.2331 10.92 90.9131 11.44C91.6065 11.9467 92.0065 12.6467 92.1131 13.54H90.4131C90.3465 13.0733 90.0998 12.7267 89.6731 12.5C89.2465 12.26 88.7065 12.14 88.0531 12.14C87.3865 12.14 86.8531 12.26 86.4531 12.5C86.0665 12.7267 85.8731 13.0533 85.8731 13.48C85.8731 13.8533 85.9931 14.1333 86.2331 14.32C86.4731 14.5067 86.8598 14.64 87.3931 14.72ZM99.1066 14.22H101.267L102.947 19.2H103.387L104.547 10.92H106.187L104.727 21H102.127L100.367 15.9H99.9466L98.1866 21H95.5466L94.1066 10.92H95.7466L96.9466 19.2H97.3866L99.1066 14.22ZM115.115 21V19.94H114.675C113.981 20.82 112.935 21.26 111.535 21.26C110.428 21.26 109.548 20.94 108.895 20.3C108.241 19.66 107.915 18.8867 107.915 17.98C107.915 17.06 108.235 16.2733 108.875 15.62C109.515 14.9667 110.481 14.64 111.775 14.64H115.055V14.24C115.055 13.6 114.855 13.0933 114.455 12.72C114.055 12.3333 113.435 12.14 112.595 12.14C111.128 12.14 110.348 12.6267 110.255 13.6H108.555C108.621 12.68 109.015 11.96 109.735 11.44C110.468 10.92 111.408 10.66 112.555 10.66C113.848 10.66 114.861 10.96 115.595 11.56C116.341 12.16 116.715 13.02 116.715 14.14V21H115.115ZM111.955 19.78C112.795 19.78 113.521 19.5067 114.135 18.96C114.748 18.4 115.055 17.72 115.055 16.92V16H112.035C110.421 16 109.615 16.64 109.615 17.92C109.615 18.4933 109.815 18.9467 110.215 19.28C110.628 19.6133 111.208 19.78 111.955 19.78ZM124.668 12.14C123.614 12.14 122.821 12.5067 122.288 13.24C121.768 13.9733 121.508 14.88 121.508 15.96C121.508 17.04 121.768 17.9467 122.288 18.68C122.821 19.4133 123.614 19.78 124.668 19.78C125.654 19.78 126.414 19.4333 126.948 18.74C127.494 18.0333 127.768 17.1067 127.768 15.96C127.768 14.8133 127.494 13.8933 126.948 13.2C126.414 12.4933 125.654 12.14 124.668 12.14ZM119.828 10.92H121.468V12H121.908C122.628 11.1067 123.674 10.66 125.048 10.66C126.408 10.66 127.481 11.16 128.268 12.16C129.068 13.16 129.468 14.4267 129.468 15.96C129.468 17.52 129.068 18.7933 128.268 19.78C127.481 20.7667 126.408 21.26 125.048 21.26C123.661 21.26 122.634 20.8133 121.968 19.92H121.528V25H119.828V10.92Z" fill="white"/>
<path fill-rule="evenodd" clip-rule="evenodd" d="M26.7039 6.30339C26.126 6.85361 25.2115 6.83107 24.6614 6.25324L23.1672 4.6837C20.9666 2.37208 17.3087 2.28212 14.9972 4.48273L4.96693 14.0314L14.4786 14.2654C15.2762 14.285 15.9069 14.9475 15.8874 15.7451C15.8678 16.5428 15.2052 17.1735 14.4075 17.1539L1.40921 16.8342C0.611525 16.8147 -0.0191815 16.1521 0.000445949 15.3544L0.320119 2.35612C0.339746 1.55844 1.0022 0.92773 1.79988 0.947358C2.59756 0.966985 3.22826 1.62943 3.20864 2.42711L2.9747 11.9387L13.005 2.39002C16.4723 -0.91086 21.959 -0.77591 25.2599 2.69138L26.7541 4.26092C27.3042 4.83884 27.2818 5.75326 26.7039 6.30339Z" fill="white"/>
<path fill-rule="evenodd" clip-rule="evenodd" d="M4.49814 19.7333C5.07598 19.1831 5.99048 19.2056 6.54062 19.7835L8.03483 21.353C10.2355 23.6647 13.8933 23.7545 16.2048 21.554L26.2351 12.0052L16.7234 11.7713C15.9258 11.7518 15.2951 11.0892 15.3146 10.2915C15.3343 9.49394 15.9968 8.86314 16.7945 8.88277L29.7928 9.20244C30.5905 9.22207 31.2212 9.88461 31.2016 10.6822L30.8819 23.6806C30.8623 24.4783 30.1998 25.109 29.4021 25.0894C28.6045 25.0698 27.9738 24.4072 27.9934 23.6096L28.2273 14.0979L18.197 23.6467C14.7298 26.9476 9.243 26.8127 5.94212 23.3454L4.4479 21.7757C3.89777 21.1979 3.92021 20.2834 4.49814 19.7333Z" fill="white"/>
</svg>
