<svg width="29" height="13" viewBox="0 0 29 13" fill="none" xmlns="http://www.w3.org/2000/svg">
<path fill-rule="evenodd" clip-rule="evenodd" d="M1.95627 2.21689L1.9559 2.21756C1.6057 2.84292 1.42381 3.73212 1.42381 4.89829C1.42381 5.84425 1.5397 6.59812 1.76389 7.16738L4.49116 1.58997C4.21257 1.3929 3.88351 1.29298 3.49847 1.29298C3.14872 1.29298 2.84985 1.37094 2.59707 1.52221C2.34414 1.67357 2.12982 1.90285 1.95627 2.21689ZM4.66281 1.54918L1.7585 7.48862C1.73263 7.4376 1.70782 7.38492 1.68409 7.33058C1.41972 6.72544 1.28753 5.91467 1.28753 4.89829C1.28753 3.72087 1.47069 2.8051 1.837 2.15097C2.2033 1.48813 2.75713 1.15671 3.49847 1.15671C3.95199 1.15671 4.34011 1.28753 4.66281 1.54918ZM5.04104 7.57902L5.04133 7.5785C5.40019 6.94424 5.58621 6.05499 5.58621 4.89829C5.58621 3.97474 5.47029 3.22592 5.24509 2.64561L2.53231 8.21847C2.79441 8.39807 3.11423 8.49052 3.49847 8.49052C3.84854 8.49052 4.14765 8.4135 4.40054 8.26415C4.65351 8.11476 4.86768 7.8886 5.04104 7.57902ZM2.36029 8.26048L5.25152 2.32105C5.27711 2.37293 5.30165 2.4263 5.32515 2.48114C5.59004 3.09922 5.72249 3.90494 5.72249 4.89829C5.72249 6.06699 5.53497 6.98276 5.15994 7.64561C4.79363 8.29973 4.23981 8.62679 3.49847 8.62679C3.04494 8.62679 2.66555 8.50469 2.36029 8.26048ZM0.944032 1.24369C1.58092 0.415742 2.43667 0 3.49847 0C4.56057 0 5.41623 0.420378 6.05283 1.25668C6.69839 2.08451 7.01002 3.3059 7.01002 4.89829C7.01002 6.49085 6.69833 7.71233 6.05263 8.54016C5.41578 9.36788 4.56011 9.7835 3.49847 9.7835C2.43667 9.7835 1.58092 9.36776 0.944032 8.53981C0.307305 7.71206 0 6.49077 0 4.89829C0 3.2973 0.307225 2.07154 0.944032 1.24369ZM5.94489 1.33986C5.33437 0.537471 4.5189 0.136276 3.49847 0.136276C2.47804 0.136276 1.66256 0.53311 1.05205 1.32678C0.441533 2.12045 0.136276 3.31095 0.136276 4.89829C0.136276 6.47691 0.441533 7.66305 1.05205 8.45672C1.66256 9.25039 2.47804 9.64722 3.49847 9.64722C4.5189 9.64722 5.33437 9.25039 5.94489 8.45672C6.56412 7.66305 6.87374 6.47691 6.87374 4.89829C6.87374 3.31967 6.56412 2.13353 5.94489 1.33986ZM12.6293 9.61343L10.994 6.85303H10.6774L9.00288 9.61343H7.46703L9.60517 6.0998L7.68362 2.74732H9.17473L10.6923 5.36381H11.0069L12.5507 2.74732H14.0311L12.0805 6.06209L14.2031 9.61343H12.6293ZM23.136 3.60468L23.1366 3.60391C23.7507 2.91655 24.5836 2.57724 25.6193 2.57724C26.6547 2.57724 27.4837 2.91647 28.0892 3.60437C28.6988 4.28698 29 5.14926 29 6.18037C29 7.21149 28.6988 8.07376 28.0892 8.75637C27.4837 9.44427 26.6547 9.7835 25.6193 9.7835C24.5836 9.7835 23.7507 9.44419 23.1366 8.75683L23.136 8.75607C22.5352 8.07334 22.2385 7.21118 22.2385 6.18037C22.2385 5.14957 22.5352 4.28741 23.136 3.60468ZM27.9872 3.6947C27.4116 3.04058 26.6223 2.71352 25.6193 2.71352C24.6163 2.71352 23.8226 3.04058 23.2383 3.6947C22.6626 4.34883 22.3748 5.17738 22.3748 6.18037C22.3748 7.18336 22.6626 8.01192 23.2383 8.66604C23.8226 9.32016 24.6163 9.64722 25.6193 9.64722C26.6223 9.64722 27.4116 9.32016 27.9872 8.66604C28.5715 8.01192 28.8637 7.18336 28.8637 6.18037C28.8637 5.17738 28.5715 4.34883 27.9872 3.6947ZM27.0939 4.49695L27.0932 4.49601C26.7562 4.04667 26.2717 3.8179 25.6193 3.8179C24.9668 3.8179 24.4823 4.04667 24.1453 4.49601L24.1446 4.49695C23.7992 4.94929 23.6231 5.50767 23.6231 6.18037C23.6231 6.8528 23.7991 7.41592 24.145 7.87737C24.4816 8.31789 24.9661 8.54285 25.6193 8.54285C26.2724 8.54285 26.7569 8.31789 27.0936 7.87737C27.4395 7.41592 27.6154 6.8528 27.6154 6.18037C27.6154 5.50767 27.4394 4.94929 27.0939 4.49695ZM27.2023 7.95959C26.8359 8.43928 26.3083 8.67912 25.6193 8.67912C24.9303 8.67912 24.4026 8.43928 24.0363 7.95959C23.67 7.47118 23.4868 6.8781 23.4868 6.18037C23.4868 5.48264 23.67 4.89393 24.0363 4.41424C24.4026 3.92583 24.9303 3.68162 25.6193 3.68162C26.3083 3.68162 26.8359 3.92583 27.2023 4.41424C27.5686 4.89393 27.7517 5.48264 27.7517 6.18037C27.7517 6.8781 27.5686 7.47118 27.2023 7.95959ZM19.6747 7.91488L19.6745 7.91517C19.355 8.33056 18.9004 8.54228 18.2911 8.54228C17.638 8.54228 17.1638 8.31748 16.845 7.87952C16.5245 7.4273 16.3603 6.86348 16.3603 6.1798C16.3603 5.49612 16.5245 4.9323 16.845 4.48009C17.1638 4.04213 17.638 3.81733 18.2911 3.81733C18.8994 3.81733 19.3538 4.03264 19.6737 4.45652L19.6746 4.45767L19.6755 4.4588C20.0091 4.88193 20.1826 5.45113 20.1826 6.1798C20.1826 6.90832 20.0092 7.48254 19.6747 7.91488ZM18.2911 3.68105C17.6021 3.68105 17.0832 3.9209 16.7343 4.40059C16.3941 4.88028 16.2241 5.47335 16.2241 6.1798C16.2241 6.88625 16.3941 7.47933 16.7343 7.95902C17.0832 8.43871 17.6021 8.67855 18.2911 8.67855C18.9365 8.67855 19.4336 8.45179 19.7825 7.99826C20.1401 7.53602 20.3189 6.92986 20.3189 6.1798C20.3189 5.42974 20.1401 4.82795 19.7825 4.37442C19.4336 3.91217 18.9365 3.68105 18.2911 3.68105ZM16.3342 2.74675H14.9889V12.2293H16.3734V8.9064H16.4579C16.9264 9.49655 17.629 9.78293 18.5397 9.78293C19.4668 9.78293 20.2095 9.44427 20.7521 8.76395C21.2991 8.08918 21.5672 7.22391 21.5672 6.1798C21.5672 5.15241 21.2987 4.29216 20.7527 3.60942C20.2103 2.92023 19.4675 2.57667 18.5397 2.57667C17.6348 2.57667 16.9219 2.86455 16.4216 3.4532H16.3342V2.74675ZM16.525 8.77013H16.2372V12.0931H15.1251V2.88302H16.1979V3.58947H16.4857C16.9567 3.00512 17.6413 2.71295 18.5397 2.71295C19.4293 2.71295 20.1314 3.04001 20.6459 3.69413C21.1692 4.34826 21.4309 5.17681 21.4309 6.1798C21.4309 7.20023 21.1692 8.03315 20.6459 8.67855C20.1314 9.32395 19.4293 9.64665 18.5397 9.64665C17.6326 9.64665 16.9611 9.35448 16.525 8.77013Z" fill="white"/>
</svg>
