<svg width="61" height="50" viewBox="0 0 61 50" fill="none" xmlns="http://www.w3.org/2000/svg">
<g opacity="0.5">
<path fill-rule="evenodd" clip-rule="evenodd" d="M16.0072 0.585178C15.8153 0.555187 15.6195 0.513422 15.4197 0.45988L13.3415 -0.0969569L12.5411 2.89037L11.6419 2.64943L13.5533 -4.48419L16.7105 -3.63823C17.4632 -3.43655 17.9936 -3.09811 18.3017 -2.6229C18.6117 -2.15435 18.6783 -1.59038 18.5016 -0.930966C18.2607 -0.0317694 17.7343 0.480418 16.9227 0.605596L17.1969 4.1379L16.2678 3.88893L16.0072 0.585178ZM16.3665 -2.87374C16.9193 -2.72561 17.2895 -2.50862 17.4771 -2.22279C17.6664 -1.94361 17.7048 -1.59421 17.5924 -1.17458C17.3657 -0.328671 16.7295 -0.0458173 15.6838 -0.32602L13.5557 -0.896242L14.2384 -3.44396L16.3665 -2.87374Z" fill="white"/>
<path d="M54.0797 11.8896C54.0316 12.3622 54.1597 12.7499 54.4641 13.0528C54.7684 13.3556 55.1904 13.5793 55.7299 13.7239C56.2427 13.8613 56.6927 13.8605 57.0798 13.7215C57.4668 13.5825 57.7139 13.3132 57.821 12.9135C57.9174 12.5538 57.8864 12.2564 57.7281 12.0213C57.5716 11.7794 57.3084 11.5626 56.9387 11.3707C56.8326 11.3137 56.6119 11.2046 56.2768 11.0434C55.9434 10.8756 55.7203 10.7622 55.6076 10.7035C54.5177 10.1616 54.1031 9.40442 54.3637 8.43195C54.5171 7.85913 54.867 7.44601 55.4132 7.19259C55.9594 6.93917 56.6222 6.91686 57.4015 7.12567C58.1275 7.32021 58.673 7.65556 59.038 8.13172C59.3828 8.57309 59.5315 9.07547 59.484 9.63885C59.4809 9.67476 59.4771 9.71091 59.4725 9.74732L58.5633 9.5037C58.5882 8.71796 58.1211 8.19659 57.162 7.93959C56.709 7.81823 56.3059 7.8173 55.9527 7.93681C55.5994 8.05632 55.3746 8.29591 55.2782 8.65559C55.1943 8.96864 55.2384 9.23032 55.4105 9.44063C55.5911 9.64606 55.8571 9.83871 56.2087 10.0186C56.4644 10.1299 56.8899 10.3403 57.4852 10.6498C58.0241 10.9298 58.4039 11.2707 58.6247 11.6725C58.8538 12.0695 58.8908 12.5577 58.7355 13.1372C58.5749 13.7366 58.2037 14.1762 57.6219 14.4557C57.0468 14.7371 56.3296 14.7627 55.4704 14.5324C54.6511 14.3129 54.0344 13.9371 53.6201 13.4049C53.2291 12.9025 53.0736 12.3519 53.1537 11.7531C53.1585 11.7176 53.1641 11.6819 53.1705 11.646L54.0797 11.8896Z" fill="white"/>
<path fill-rule="evenodd" clip-rule="evenodd" d="M22.4779 4.64963L22.4783 4.65064C22.8946 5.53381 23.6497 6.11768 24.7273 6.40641C25.7988 6.69352 26.7423 6.56079 27.5459 5.99739C28.3436 5.43817 28.8859 4.61085 29.1768 3.525C29.4678 2.43916 29.4118 1.45155 29.0006 0.568421C28.5864 -0.321308 27.8356 -0.908021 26.7641 -1.19513C25.6862 -1.48395 24.7392 -1.35225 23.9354 -0.788723C23.1459 -0.234138 22.6072 0.59428 22.3146 1.68628C22.022 2.77832 22.0735 3.76819 22.4779 4.64963ZM25.0026 5.379C24.2302 5.17203 23.7324 4.7543 23.4889 4.13009C23.2405 3.4935 23.219 2.78032 23.4319 1.98567C23.6449 1.19102 24.0201 0.584139 24.5535 0.157022C25.0765 -0.261789 25.7164 -0.374674 26.4888 -0.167712C27.2612 0.0392506 27.759 0.45698 28.0025 1.08119C28.2509 1.71778 28.2724 2.43097 28.0595 3.22561C27.8466 4.02026 27.4713 4.62714 26.9379 5.05426C26.4149 5.47307 25.775 5.58596 25.0026 5.379ZM37.1489 7.25041L37.3019 9.63656L38.4621 9.94743L37.8792 1.92236L36.2124 1.47575L31.7054 8.13698L32.8454 8.44244L34.171 6.4525L37.1489 7.25041ZM37.2514 7.16635L34.1242 6.32842L32.7986 8.31836L31.8794 8.07206L36.2587 1.59968L37.7773 2.0066L38.3437 9.80415L37.4045 9.5525L37.2514 7.16635ZM37.1912 6.27212L34.6135 5.58143L36.5619 2.6661L36.9615 2.77319L37.1912 6.27212ZM34.7866 5.51628L36.6086 2.79016L36.8591 2.85728L37.0738 6.12913L34.7866 5.51628ZM47.1521 4.40702L44.3804 3.66435L42.4132 11.0061L45.1849 11.7488C46.2724 12.0402 47.2076 11.9401 47.977 11.4313C48.7421 10.9253 49.2703 10.1062 49.5696 8.98923C49.8688 7.87254 49.8211 6.89926 49.4117 6.07858C49.0064 5.25435 48.246 4.70013 47.1521 4.40702ZM47.1242 4.51109C48.1966 4.79843 48.9268 5.33678 49.315 6.12612C49.7098 6.91725 49.76 7.86233 49.4655 8.96135C49.171 10.0604 48.6551 10.8537 47.9176 11.3415C47.1801 11.8292 46.2785 11.9303 45.2127 11.6447L42.5451 10.9299L44.4566 3.79631L47.1242 4.51109ZM47.3685 10.4626L47.3683 10.4627C46.8801 10.8394 46.2501 10.9331 45.4602 10.7214L43.7958 10.2754L45.2124 4.98847L46.8768 5.43443C47.6663 5.64598 48.1641 6.04505 48.397 6.62189L48.3973 6.62262L48.3976 6.62334C48.6434 7.20747 48.6655 7.89406 48.4523 8.68984C48.2391 9.48555 47.8757 10.0728 47.3685 10.4626ZM45.1363 4.85651L43.6638 10.3516L45.4323 10.8254C46.2449 11.0432 46.9122 10.9507 47.4341 10.548C47.9645 10.1404 48.3386 9.53034 48.5563 8.71773C48.7741 7.90512 48.7543 7.19306 48.4969 6.58155C48.248 5.96516 47.7173 5.5481 46.9047 5.33036L45.1363 4.85651ZM26.7362 -1.09105C27.782 -0.81085 28.5042 -0.242533 28.903 0.613898C29.3017 1.47033 29.3583 2.4314 29.0727 3.49712C28.7872 4.56283 28.2576 5.36685 27.4841 5.90916C26.7106 6.45148 25.8009 6.58254 24.7552 6.30234C23.7028 6.02035 22.9763 5.45447 22.5758 4.6047C22.1837 3.75005 22.1313 2.78654 22.4187 1.71417C22.706 0.641794 23.2322 -0.163114 23.9973 -0.700557C24.7709 -1.24288 25.6838 -1.37304 26.7362 -1.09105ZM23.3885 4.16926C23.6467 4.83096 24.1754 5.2689 24.9747 5.48307C25.774 5.69724 26.4509 5.58234 27.0053 5.13837C27.5597 4.6944 27.9458 4.06611 28.1636 3.2535C28.3813 2.44089 28.3611 1.70374 28.1029 1.04203C27.8447 0.380321 27.316 -0.0576173 26.5167 -0.271785C25.7174 -0.485953 25.0406 -0.371052 24.4861 0.0729185C23.9317 0.516889 23.5456 1.14518 23.3279 1.95778C23.1101 2.77039 23.1304 3.50755 23.3885 4.16926Z" fill="white"/>
<path fill-rule="evenodd" clip-rule="evenodd" d="M24.087 8.79589C25.1328 9.0761 25.855 9.64441 26.2538 10.5008C26.6525 11.3573 26.7091 12.3183 26.4235 13.3841C26.138 14.4498 25.6084 15.2538 24.8349 15.7961C24.0614 16.3384 23.1517 16.4695 22.106 16.1893C21.0536 15.9073 20.3271 15.3414 19.9266 14.4916C19.5345 13.637 19.4821 12.6735 19.7695 11.6011C20.0568 10.5287 20.583 9.72383 21.3481 9.18639C22.1217 8.64407 23.0346 8.51391 24.087 8.79589ZM22.3255 15.37C21.5262 15.1558 20.9975 14.7179 20.7393 14.0562C20.4812 13.3945 20.4609 12.6573 20.6787 11.8447C20.8964 11.0321 21.2825 10.4038 21.8369 9.95987C22.3914 9.5159 23.0682 9.40099 23.8675 9.61516C24.6668 9.82933 25.1955 10.2673 25.4537 10.929C25.7119 11.5907 25.7321 12.3278 25.5143 13.1404C25.2966 13.9531 24.9105 14.5813 24.3561 15.0253C23.8017 15.4693 23.1248 15.5842 22.3255 15.37Z" fill="white"/>
<path fill-rule="evenodd" clip-rule="evenodd" d="M44.5628 14.4216C45.6352 14.7089 46.3654 15.2473 46.7536 16.0366C47.1484 16.8277 47.1986 17.7728 46.9041 18.8718C46.6097 19.9708 46.0937 20.7642 45.3562 21.2519C44.6187 21.7397 43.7171 21.8407 42.6514 21.5552L39.9837 20.8404L41.8952 13.7068L44.5628 14.4216ZM44.3433 15.2408C45.1559 15.4586 45.6866 15.8756 45.9355 16.492C46.1929 17.1035 46.2127 17.8156 45.9949 18.6282C45.7772 19.4408 45.4031 20.0509 44.8727 20.4585C44.3508 20.8612 43.6835 20.9537 42.8709 20.7359L41.1025 20.2621L42.5749 14.767L44.3433 15.2408Z" fill="white"/>
<path fill-rule="evenodd" clip-rule="evenodd" d="M10.828 5.2708L14.0892 6.14465C14.8577 6.35056 15.4153 6.70045 15.7427 7.20501C16.073 7.70467 16.1392 8.30181 15.9565 8.98387C15.8323 9.44727 15.6324 9.81893 15.3521 10.0917C15.093 10.3439 14.7704 10.5065 14.3884 10.5817L14.6669 14.1683L13.5171 13.8602L13.2572 10.5647C13.0884 10.5356 12.9169 10.4976 12.7426 10.4509L10.7685 9.92195L9.96808 12.9093L8.86074 12.6126L10.828 5.2708ZM10.6923 9.78999L12.7705 10.3468C12.9703 10.4004 13.1661 10.4421 13.358 10.4721L13.6186 13.7759L14.5477 14.0248L14.2735 10.4925C15.0851 10.3674 15.6115 9.85518 15.8524 8.95598C16.0291 8.29657 15.9625 7.73259 15.6525 7.26405C15.3444 6.78884 14.814 6.4504 14.0613 6.24872L10.9041 5.40276L8.9927 12.5364L9.8919 12.7773L10.6923 9.78999ZM14.7382 7.72396L14.7378 7.72327C14.5718 7.4703 14.2327 7.26285 13.6894 7.11728L11.6654 6.57494L11.0385 8.91452L13.0625 9.45685C13.574 9.59392 13.9662 9.58766 14.2523 9.46049C14.5332 9.33559 14.7318 9.08486 14.8391 8.68448C14.946 8.28576 14.9057 7.97089 14.7387 7.72464L14.7382 7.72396ZM10.9065 8.99071L11.5892 6.44298L13.7173 7.01321C14.2701 7.16134 14.6403 7.37832 14.8279 7.66416C15.0172 7.94334 15.0556 8.29274 14.9432 8.71237C14.7165 9.55828 14.0803 9.84113 13.0346 9.56093L10.9065 8.99071ZM34.7405 19.547L34.5875 17.1609L31.6096 16.363L30.284 18.3529L29.144 18.0475L33.651 11.3862L35.3178 11.8328L35.9007 19.8579L34.7405 19.547ZM31.5628 16.2389L34.69 17.0768L34.8431 19.463L35.7823 19.7146L35.2159 11.9171L33.6973 11.5102L29.318 17.9825L30.2372 18.2288L31.5628 16.2389ZM32.0521 15.4919L34.6298 16.1826L34.4001 12.6837L34.0005 12.5766L32.0521 15.4919ZM34.0472 12.7006L32.2253 15.4268L34.5125 16.0396L34.2977 12.7678L34.0472 12.7006ZM51.5183 21.8001C51.4702 22.2727 51.5983 22.6604 51.9027 22.9632C52.207 23.2661 52.629 23.4898 53.1685 23.6344C53.6814 23.7718 54.1313 23.771 54.5184 23.632C54.9054 23.493 55.1525 23.2236 55.2596 22.824C55.356 22.4643 55.325 22.1669 55.1667 21.9317C55.0102 21.6899 54.7471 21.4731 54.3773 21.2812C54.2712 21.2242 54.0505 21.1151 53.7154 20.9539C53.382 20.786 53.1589 20.6727 53.0462 20.614C51.9563 20.0721 51.5417 19.3149 51.8023 18.3424C51.9558 17.7696 52.3056 17.3565 52.8518 17.1031C53.398 16.8496 54.0608 16.8273 54.8401 17.0361C55.5661 17.2307 56.1116 17.566 56.4766 18.0422C56.8214 18.4836 56.9701 18.9859 56.9226 19.5493C56.9195 19.5852 56.9157 19.6214 56.9111 19.6578L56.0019 19.4142C56.0268 18.6284 55.5597 18.1071 54.6006 17.8501C54.1477 17.7287 53.7446 17.7278 53.3913 17.8473C53.038 17.9668 52.8132 18.2064 52.7168 18.5661C52.6329 18.8791 52.677 19.1408 52.8491 19.3511C53.0297 19.5565 53.2957 19.7492 53.6473 19.9291C53.903 20.0404 54.3285 20.2508 54.9238 20.5602C55.4627 20.8403 55.8425 21.1812 56.0633 21.583C56.2924 21.9799 56.3294 22.4682 56.1741 23.0476C56.0135 23.6471 55.6423 24.0866 55.0605 24.3662C54.4854 24.6476 53.7682 24.6732 52.909 24.4429C52.0897 24.2234 51.473 23.8475 51.0587 23.3154C50.6677 22.813 50.5122 22.2624 50.5924 21.6636C50.5971 21.628 50.6027 21.5923 50.6091 21.5565L51.5183 21.8001ZM55.1075 24.4632C54.5014 24.7596 53.7556 24.7813 52.8811 24.547C52.0451 24.323 51.4057 23.9366 50.9737 23.3815C50.5415 22.8262 50.383 22.2092 50.503 21.5375L50.5237 21.4221L51.6348 21.7198L51.6255 21.811C51.5803 22.2552 51.7 22.6095 51.9787 22.8869C52.2662 23.173 52.6697 23.3892 53.1964 23.5303C53.6942 23.6637 54.1208 23.6603 54.482 23.5306C54.8355 23.4036 55.0575 23.1619 55.1555 22.7961C55.2465 22.4565 55.2132 22.1937 55.0773 21.9919L55.0768 21.9911L55.0763 21.9903C54.9334 21.7696 54.6878 21.5637 54.3276 21.3768L54.327 21.3764L54.3263 21.3761C54.2227 21.3204 54.0043 21.2124 53.6687 21.051L53.6678 21.0506L53.6669 21.0501C53.3345 20.8828 53.1111 20.7693 52.9973 20.71C52.4409 20.4332 52.0446 20.0955 51.8233 19.6914C51.6005 19.2845 51.562 18.8228 51.6982 18.3145C51.8601 17.7103 52.2318 17.2719 52.8065 17.0053C53.3824 16.7381 54.0726 16.719 54.868 16.9321C55.6109 17.1311 56.1792 17.4772 56.5619 17.9764C56.9466 18.4691 57.0986 19.0364 57.018 19.6714L57.0024 19.7938L55.8915 19.4961L55.8942 19.4108C55.9059 19.0419 55.8028 18.7432 55.59 18.5057C55.3751 18.2659 55.0402 18.0794 54.5727 17.9541C54.135 17.8369 53.7543 17.8382 53.4258 17.9493C53.1066 18.0573 52.9079 18.2691 52.8209 18.594C52.7442 18.8801 52.7866 19.1036 52.9314 19.2815C53.0994 19.4722 53.3514 19.6563 53.6934 19.8316C53.9532 19.945 54.3806 20.1564 54.9735 20.4646C55.5248 20.7511 55.9232 21.1049 56.1571 21.5301C56.4041 21.9585 56.4384 22.4777 56.2782 23.0755C56.1091 23.7066 55.7161 24.1706 55.1075 24.4632Z" fill="white"/>
<path fill-rule="evenodd" clip-rule="evenodd" d="M32.0408 26.9639L28.9136 26.126L27.588 28.1159L26.6688 27.8696L31.0481 21.3972L32.5667 21.8041L33.133 29.6017L32.1939 29.35L32.0408 26.9639ZM31.3513 22.4636L31.7509 22.5707L31.9806 26.0697L29.4029 25.379L31.3513 22.4636Z" fill="white"/>
<path fill-rule="evenodd" clip-rule="evenodd" d="M8.17873 15.1579L11.44 16.0317C12.2084 16.2376 12.7661 16.5875 13.0934 17.0921C13.4238 17.5917 13.49 18.1889 13.3072 18.8709C13.1831 19.3343 12.9832 19.706 12.7029 19.9788C12.4438 20.2309 12.1211 20.3935 11.7392 20.4688L12.0177 24.0554L10.8679 23.7473L10.608 20.4518C10.4392 20.4226 10.2676 20.3847 10.0934 20.338L8.1193 19.809L7.31885 22.7963L6.21151 22.4996L8.17873 15.1579ZM8.04312 19.6771L10.1213 20.2339C10.3211 20.2874 10.5169 20.3292 10.7088 20.3592L10.9693 23.6629L11.8985 23.9119L11.6242 20.3796C12.4359 20.2544 12.9622 19.7422 13.2032 18.843C13.3798 18.1836 13.3132 17.6197 13.0033 17.1511C12.6952 16.6759 12.1648 16.3375 11.4121 16.1358L8.25492 15.2898L6.34347 22.4234L7.24266 22.6644L8.04312 19.6771ZM12.089 17.611L12.0885 17.6103C11.9226 17.3574 11.5834 17.1499 11.0402 17.0043L9.01613 16.462L8.38924 18.8016L10.4133 19.3439C10.9248 19.481 11.317 19.4747 11.6031 19.3475C11.884 19.2227 12.0826 18.9719 12.1899 18.5715C12.2967 18.1728 12.2565 17.8579 12.0895 17.6117L12.089 17.611ZM8.25728 18.8778L8.93994 16.33L11.068 16.9003C11.6209 17.0484 11.9911 17.2654 12.1786 17.5512C12.368 17.8304 12.4064 18.1798 12.294 18.5994C12.0673 19.4453 11.4311 19.7282 10.3854 19.448L8.25728 18.8778ZM17.1799 24.4246L17.1794 24.4236C16.7751 23.5422 16.7236 22.5523 17.0162 21.4603C17.3088 20.3683 17.8475 19.5399 18.637 18.9853C19.4408 18.4218 20.3878 18.2901 21.4657 18.5789C22.5372 18.866 23.2879 19.4527 23.7022 20.3424C24.1134 21.2256 24.1693 22.2132 23.8784 23.299C23.5874 24.3849 23.0452 25.2122 22.2475 25.7714C21.4439 26.3348 20.5004 26.4675 19.4289 26.1804C18.3513 25.8917 17.5962 25.3078 17.1799 24.4246ZM18.1905 23.9041C18.434 24.5283 18.9318 24.946 19.7042 25.153C20.4766 25.36 21.1165 25.2471 21.6395 24.8283C22.1729 24.4012 22.5481 23.7943 22.761 22.9996C22.974 22.205 22.9525 21.4918 22.7041 20.8552C22.4606 20.231 21.9628 19.8133 21.1904 19.6063C20.418 19.3993 19.7781 19.5122 19.255 19.931C18.7217 20.3581 18.3464 20.965 18.1335 21.7597C17.9206 22.5543 17.9421 23.2675 18.1905 23.9041ZM39.1698 23.4619L41.9415 24.2046C43.0354 24.4977 43.7958 25.0519 44.2011 25.8761C44.6104 26.6968 44.6582 27.6701 44.359 28.7868C44.0597 29.9037 43.5315 30.7229 42.7664 31.2289C41.997 31.7377 41.0618 31.8377 39.9742 31.5463L37.2025 30.8037L39.1698 23.4619ZM44.1044 25.9237C43.7162 25.1343 42.9859 24.596 41.9136 24.3086L39.246 23.5938L37.3345 30.7275L40.0021 31.4423C41.0678 31.7278 41.9694 31.6267 42.7069 31.139C43.4444 30.6513 43.9604 29.8579 44.2549 28.7589C44.5494 27.6599 44.4992 26.7148 44.1044 25.9237ZM42.1577 30.2602L42.1578 30.2601C42.6651 29.8703 43.0284 29.2831 43.2416 28.4874C43.4549 27.6916 43.4328 27.005 43.187 26.4209L43.1867 26.4202L43.1864 26.4194C42.9535 25.8426 42.4557 25.4435 41.6662 25.232L40.0018 24.786L38.5852 30.073L40.2495 30.5189C41.0395 30.7306 41.6695 30.6369 42.1577 30.2602ZM38.4532 30.1491L39.9256 24.6541L41.6941 25.1279C42.5067 25.3456 43.0374 25.7627 43.2863 26.3791C43.5436 26.9906 43.5635 27.7027 43.3457 28.5153C43.128 29.3279 42.7539 29.938 42.2235 30.3455C41.7015 30.7482 41.0343 30.8407 40.2216 30.623L38.4532 30.1491ZM48.8691 31.6872C48.821 32.1597 48.9491 32.5474 49.2534 32.8503C49.5578 33.1532 49.9797 33.3769 50.5192 33.5214C51.0321 33.6589 51.4821 33.6581 51.8691 33.519C52.2562 33.38 52.5033 33.1107 52.6104 32.7111C52.7067 32.3514 52.6758 32.054 52.5175 31.8188C52.361 31.577 52.0978 31.3601 51.728 31.1682C51.6219 31.1112 51.4013 31.0022 51.0661 30.841C50.7328 30.6731 50.5097 30.5598 50.3969 30.501C49.3071 29.9591 48.8925 29.202 49.153 28.2295C49.3065 27.6567 49.6564 27.2435 50.2026 26.9901C50.7488 26.7367 51.4116 26.7144 52.1909 26.9232C52.9169 27.1177 53.4624 27.4531 53.8274 27.9293C54.1722 28.3706 54.3208 28.873 54.2733 29.4364C54.2703 29.4723 54.2665 29.5085 54.2619 29.5449L53.3527 29.3012C53.3776 28.5155 52.9105 27.9941 51.9514 27.7371C51.4984 27.6158 51.0953 27.6148 50.7421 27.7343C50.3888 27.8539 50.164 28.0934 50.0676 28.4531C49.9837 28.7662 50.0278 29.0279 50.1999 29.2382C50.3804 29.4436 50.6465 29.6363 50.9981 29.8161C51.2538 29.9275 51.6793 30.1379 52.2746 30.4473C52.8135 30.7273 53.1933 31.0683 53.414 31.4701C53.6432 31.867 53.6802 32.3552 53.5249 32.9347C53.3643 33.5342 52.9931 33.9737 52.4113 34.2533C51.8362 34.5346 51.119 34.5602 50.2598 34.33C49.4405 34.1105 48.8237 33.7346 48.4095 33.2024C48.0185 32.7 47.863 32.1494 47.9431 31.5506C47.9479 31.5151 47.9535 31.4794 47.9599 31.4436L48.8691 31.6872ZM52.4583 34.3502C51.8522 34.6466 51.1063 34.6684 50.2319 34.4341C49.3959 34.2101 48.7565 33.8236 48.3245 33.2686C47.8923 32.7133 47.7337 32.0963 47.8538 31.4246L47.8745 31.3091L48.9855 31.6068L48.9762 31.6981C48.931 32.1422 49.0508 32.4966 49.3294 32.7739C49.617 33.0601 50.0205 33.2762 50.5471 33.4174C51.0449 33.5507 51.4716 33.5473 51.8327 33.4176C52.1863 33.2907 52.4083 33.049 52.5063 32.6832C52.5973 32.3436 52.5639 32.0808 52.4281 31.879L52.4275 31.8782L52.427 31.8773C52.2842 31.6567 52.0385 31.4507 51.6784 31.2639L51.6777 31.2635L51.6771 31.2631C51.5735 31.2075 51.355 31.0994 51.0194 30.9381L51.0186 30.9376L51.0177 30.9372C50.6853 30.7698 50.4618 30.6563 50.348 30.597C49.7917 30.3202 49.3954 29.9826 49.1741 29.5785C48.9512 29.1715 48.9128 28.7099 49.049 28.2016C49.2109 27.5974 49.5826 27.159 50.1572 26.8924C50.7331 26.6252 51.4234 26.606 52.2187 26.8191C52.9617 27.0182 53.5299 27.3643 53.9127 27.8634C54.2974 28.3562 54.4494 28.9235 54.3687 29.5584L54.3532 29.6809L53.2423 29.3832L53.245 29.2978C53.2567 28.929 53.1535 28.6302 52.9408 28.3928C52.7259 28.1529 52.3909 27.9665 51.9235 27.8412C51.4858 27.7239 51.1051 27.7253 50.7766 27.8364C50.4574 27.9444 50.2587 28.1562 50.1717 28.481C50.095 28.7671 50.1373 28.9907 50.2821 29.1685C50.4502 29.3592 50.7022 29.5434 51.0442 29.7187C51.304 29.832 51.7314 30.0435 52.3243 30.3517C52.8756 30.6382 53.274 30.9919 53.5079 31.4171C53.7549 31.8456 53.7891 32.3648 53.629 32.9626C53.4599 33.5936 53.0669 34.0576 52.4583 34.3502ZM23.6045 20.3879C23.2058 19.5315 22.4835 18.9632 21.4378 18.683C20.3854 18.401 19.4724 18.5311 18.6989 19.0735C17.9338 19.6109 17.4076 20.4158 17.1203 21.4882C16.8329 22.5606 16.8853 23.5241 17.2774 24.3787C17.6779 25.2285 18.4044 25.7944 19.4568 26.0763C20.5025 26.3565 21.4121 26.2255 22.1857 25.6832C22.9592 25.1409 23.4887 24.3368 23.7743 23.2711C24.0599 22.2054 24.0033 21.2443 23.6045 20.3879ZM19.6763 25.2571C18.877 25.0429 18.3483 24.605 18.0901 23.9433C17.8319 23.2816 17.8117 22.5444 18.0294 21.7318C18.2472 20.9192 18.6333 20.2909 19.1877 19.8469C19.7421 19.403 20.419 19.2881 21.2183 19.5022C22.0176 19.7164 22.5463 20.1543 22.8045 20.816C23.0626 21.4777 23.0829 22.2149 22.8651 23.0275C22.6474 23.8401 22.2613 24.4684 21.7069 24.9124C21.1524 25.3563 20.4756 25.4712 19.6763 25.2571Z" fill="white"/>
<path fill-rule="evenodd" clip-rule="evenodd" d="M39.2644 34.1956C40.3367 34.483 41.067 35.0213 41.4552 35.8107C41.85 36.6018 41.9002 37.5469 41.6057 38.6459C41.3112 39.7449 40.7952 40.5383 40.0577 41.026C39.3202 41.5137 38.4186 41.6148 37.3529 41.3293L34.6853 40.6145L36.5967 33.4808L39.2644 34.1956ZM39.0448 35.0149C39.8574 35.2326 40.3882 35.6497 40.6371 36.2661C40.8944 36.8776 40.9142 37.5897 40.6965 38.4023C40.4788 39.2149 40.1047 39.825 39.5743 40.2325C39.0523 40.6352 38.385 40.7277 37.5724 40.51L35.804 40.0361L37.2764 34.5411L39.0448 35.0149Z" fill="white"/>
<path fill-rule="evenodd" clip-rule="evenodd" d="M18.7886 28.57C19.8343 28.8502 20.5566 29.4185 20.9553 30.2749C21.3541 31.1313 21.4106 32.0924 21.1251 33.1581C20.8395 34.2238 20.31 35.0279 19.5364 35.5702C18.7629 36.1125 17.8533 36.2436 16.8075 35.9633C15.7551 35.6814 15.0287 35.1155 14.6282 34.2657C14.2361 33.4111 14.1837 32.4476 14.471 31.3752C14.7584 30.3028 15.2846 29.4979 16.0497 28.9605C16.8232 28.4181 17.7362 28.288 18.7886 28.57ZM17.0271 35.1441C16.2278 34.9299 15.699 34.492 15.4409 33.8303C15.1827 33.1686 15.1625 32.4314 15.3802 31.6188C15.598 30.8062 15.9841 30.1779 16.5385 29.7339C17.0929 29.29 17.7698 29.1751 18.5691 29.3892C19.3684 29.6034 19.8971 30.0413 20.1553 30.703C20.4134 31.3647 20.4336 32.1019 20.2159 32.9145C19.9982 33.7271 19.6121 34.3554 19.0576 34.7994C18.5032 35.2433 17.8263 35.3582 17.0271 35.1441Z" fill="white"/>
<path fill-rule="evenodd" clip-rule="evenodd" d="M5.52951 25.0449L8.79076 25.9187C9.55922 26.1246 10.1169 26.4745 10.4442 26.9791C10.7745 27.4787 10.8408 28.0759 10.658 28.7579C10.5338 29.2213 10.334 29.593 10.0536 29.8658C9.79456 30.1179 9.47193 30.2805 9.09 30.3558L9.3685 33.9424L8.21869 33.6343L7.95878 30.3388C7.78996 30.3096 7.61842 30.2717 7.44416 30.225L5.47009 29.696L4.66964 32.6833L3.56229 32.3866L5.52951 25.0449ZM5.3939 29.5641L7.47204 30.1209C7.67186 30.1744 7.8677 30.2162 8.05956 30.2462L8.32012 33.5499L9.24929 33.7989L8.97501 30.2666C9.78669 30.1414 10.313 29.6292 10.5539 28.73C10.7306 28.0706 10.664 27.5067 10.3541 27.0381C10.0459 26.5629 9.51554 26.2245 8.76288 26.0228L5.6057 25.1768L3.69425 32.3104L4.59345 32.5514L5.3939 29.5641ZM9.43978 27.498L9.43933 27.4973C9.27334 27.2444 8.93422 27.0369 8.39094 26.8913L6.36692 26.349L5.74003 28.6886L7.76405 29.2309C8.27559 29.368 8.66779 29.3617 8.95384 29.2345C9.23475 29.1097 9.4334 28.8589 9.54068 28.4585C9.64752 28.0598 9.60724 27.7449 9.44024 27.4987L9.43978 27.498ZM5.60807 28.7648L6.29073 26.217L8.41883 26.7873C8.97167 26.9354 9.34186 27.1524 9.52941 27.4382C9.71874 27.7174 9.75719 28.0668 9.64476 28.4864C9.41809 29.3323 8.7819 29.6152 7.73617 29.335L5.60807 28.7648ZM29.4421 39.3211L29.289 36.935L26.3112 36.137L24.9856 38.127L23.8456 37.8215L28.3526 31.1603L30.0194 31.6069L30.6023 39.632L29.4421 39.3211ZM26.2644 36.013L29.3916 36.8509L29.5447 39.237L30.4838 39.4887L29.9175 31.6911L28.3988 31.2842L24.0196 37.7566L24.9388 38.0029L26.2644 36.013ZM26.7537 35.266L29.3314 35.9567L29.1017 32.4577L28.7021 32.3506L26.7537 35.266ZM28.7487 32.4747L26.9268 35.2008L29.214 35.8137L28.9992 32.5418L28.7487 32.4747ZM46.2198 41.5742C46.1717 42.0467 46.2999 42.4344 46.6042 42.7373C46.9086 43.0402 47.3305 43.2639 47.87 43.4084C48.3829 43.5459 48.8329 43.5451 49.2199 43.406C49.607 43.267 49.8541 42.9977 49.9611 42.5981C50.0575 42.2384 50.0266 41.941 49.8683 41.7058C49.7117 41.464 49.4486 41.2471 49.0788 41.0552C48.9727 40.9982 48.7521 40.8892 48.4169 40.728C48.0835 40.5601 47.8605 40.4468 47.7477 40.388C46.6579 39.8461 46.2433 39.089 46.5038 38.1165C46.6573 37.5437 47.0072 37.1306 47.5534 36.8771C48.0996 36.6237 48.7623 36.6014 49.5416 36.8102C50.2677 37.0047 50.8132 37.3401 51.1782 37.8163C51.523 38.2576 51.6716 38.76 51.6241 39.3234C51.6211 39.3593 51.6173 39.3955 51.6126 39.4319L50.7035 39.1882C50.7284 38.4025 50.2613 37.8811 49.3021 37.6241C48.8492 37.5028 48.4461 37.5018 48.0928 37.6213C47.7396 37.7409 47.5147 37.9804 47.4184 38.3401C47.3345 38.6532 47.3786 38.9149 47.5507 39.1252C47.7312 39.3306 47.9973 39.5233 48.3489 39.7031C48.6046 39.8145 49.0301 40.0249 49.6254 40.3343C50.1643 40.6143 50.5441 40.9553 50.7648 41.3571C50.994 41.754 51.0309 42.2422 50.8757 42.8217C50.715 43.4212 50.3438 43.8607 49.7621 44.1403C49.187 44.4216 48.4698 44.4472 47.6105 44.217C46.7913 43.9975 46.1745 43.6216 45.7603 43.0894C45.3692 42.587 45.2138 42.0364 45.2939 41.4376C45.2987 41.4021 45.3042 41.3664 45.3107 41.3306L46.2198 41.5742ZM49.8091 44.2372C49.203 44.5336 48.4571 44.5554 47.5827 44.3211C46.7466 44.0971 46.1073 43.7106 45.6753 43.1556C45.243 42.6003 45.0845 41.9833 45.2046 41.3116L45.2252 41.1961L46.3363 41.4938L46.327 41.5851C46.2818 42.0292 46.4015 42.3836 46.6802 42.6609C46.9678 42.9471 47.3713 43.1632 47.8979 43.3044C48.3957 43.4377 48.8224 43.4343 49.1835 43.3046C49.5371 43.1777 49.7591 42.936 49.8571 42.5702C49.9481 42.2306 49.9147 41.9678 49.7789 41.766L49.7783 41.7652L49.7778 41.7643C49.635 41.5437 49.3893 41.3377 49.0292 41.1509L49.0285 41.1505L49.0278 41.1501C48.9242 41.0945 48.7058 40.9864 48.3702 40.8251L48.3693 40.8246L48.3685 40.8242C48.0361 40.6568 47.8126 40.5433 47.6988 40.484C47.1425 40.2072 46.7462 39.8696 46.5249 39.4655C46.302 39.0585 46.2636 38.5969 46.3997 38.0886C46.5616 37.4844 46.9334 37.046 47.508 36.7794C48.0839 36.5122 48.7742 36.493 49.5695 36.7061C50.3124 36.9052 50.8807 37.2513 51.2635 37.7504C51.6482 38.2432 51.8001 38.8105 51.7195 39.4454L51.704 39.5679L50.5931 39.2702L50.5958 39.1848C50.6075 38.816 50.5043 38.5172 50.2916 38.2798C50.0767 38.0399 49.7417 37.8535 49.2743 37.7282C48.8366 37.6109 48.4559 37.6123 48.1274 37.7234C47.8081 37.8314 47.6095 38.0432 47.5224 38.368C47.4458 38.6541 47.4881 38.8777 47.6329 39.0555C47.801 39.2462 48.053 39.4304 48.395 39.6057C48.6548 39.719 49.0821 39.9305 49.6751 40.2387C50.2264 40.5252 50.6248 40.8789 50.8587 41.3041C51.1057 41.7326 51.1399 42.2518 50.9797 42.8496C50.8107 43.4806 50.4177 43.9446 49.8091 44.2372Z" fill="white"/>
<path d="M43.4828 51.4377C43.4347 51.9103 43.5628 52.298 43.8672 52.6008C44.1715 52.9037 44.5935 53.1274 45.133 53.272C45.6459 53.4094 46.0958 53.4086 46.4829 53.2696C46.8699 53.1306 47.117 52.8612 47.2241 52.4616C47.3205 52.1019 47.2895 51.8045 47.1312 51.5693C46.9747 51.3275 46.7116 51.1106 46.3418 50.9188C46.2357 50.8618 46.0151 50.7527 45.6799 50.5915C45.3465 50.4236 45.1234 50.3103 45.0107 50.2515C43.9208 49.7097 43.5062 48.9525 43.7668 47.98C43.9203 47.4072 44.2701 46.9941 44.8163 46.7407C45.3625 46.4872 46.0253 46.4649 46.8046 46.6737C47.5306 46.8683 48.0761 47.2036 48.4411 47.6798C48.7859 48.1212 48.9346 48.6235 48.8871 49.1869C48.8841 49.2228 48.8802 49.259 48.8756 49.2954L47.9664 49.0518C47.9913 48.266 47.5242 47.7447 46.5651 47.4877C46.1122 47.3663 45.7091 47.3654 45.3558 47.4849C45.0025 47.6044 44.7777 47.844 44.6813 48.2037C44.5974 48.5167 44.6415 48.7784 44.8136 48.9887C44.9942 49.1941 45.2602 49.3868 45.6118 49.5667C45.8675 49.678 46.293 49.8884 46.8883 50.1978C47.4272 50.4779 47.8071 50.8188 48.0278 51.2206C48.257 51.6175 48.2939 52.1058 48.1386 52.6852C47.978 53.2847 47.6068 53.7242 47.025 54.0038C46.4499 54.2852 45.7327 54.3108 44.8735 54.0805C44.0542 53.861 43.4375 53.4851 43.0233 52.953C42.6322 52.4506 42.4767 51.9 42.5569 51.3011C42.5616 51.2656 42.5672 51.2299 42.5736 51.1941L43.4828 51.4377Z" fill="white"/>
<path fill-rule="evenodd" clip-rule="evenodd" d="M5.41033 40.1333C5.21847 40.1033 5.02263 40.0615 4.82281 40.008L2.74467 39.4511L1.94422 42.4384L1.04502 42.1975L2.95647 35.0639L6.11365 35.9098C6.86631 36.1115 7.39671 36.45 7.70485 36.9252C8.01478 37.3937 8.0814 37.9577 7.90471 38.6171C7.66377 39.5163 7.13746 40.0285 6.32578 40.1537L6.60005 43.686L5.67089 43.437L5.41033 40.1333ZM5.7696 36.6743C6.32243 36.8225 6.69263 37.0394 6.88018 37.3253C7.06951 37.6045 7.10796 37.9539 6.99552 38.3735C6.76886 39.2194 6.13267 39.5023 5.08694 39.2221L2.95884 38.6518L3.6415 36.1041L5.7696 36.6743Z" fill="white"/>
<path fill-rule="evenodd" clip-rule="evenodd" d="M11.881 44.1977L11.8815 44.1987C12.2977 45.0819 13.0529 45.6658 14.1304 45.9545C15.2019 46.2416 16.1455 46.1089 16.9491 45.5455C17.7467 44.9862 18.289 44.1589 18.5799 43.0731C18.8709 41.9872 18.8149 40.9996 18.4038 40.1165C17.9895 39.2268 17.2387 38.6401 16.1672 38.3529C15.0893 38.0641 14.1423 38.1958 13.3385 38.7593C12.549 39.3139 12.0103 40.1424 11.7177 41.2344C11.4251 42.3264 11.4766 43.3163 11.881 44.1977ZM14.4057 44.9271C13.6333 44.7201 13.1356 44.3024 12.892 43.6782C12.6437 43.0416 12.6221 42.3284 12.8351 41.5337C13.048 40.7391 13.4232 40.1322 13.9566 39.7051C14.4796 39.2863 15.1196 39.1734 15.892 39.3804C16.6643 39.5873 17.1621 40.0051 17.4056 40.6293C17.654 41.2659 17.6755 41.979 17.4626 42.7737C17.2497 43.5683 16.8745 44.1752 16.3411 44.6023C15.818 45.0211 15.1781 45.134 14.4057 44.9271ZM26.552 46.7985L26.705 49.1846L27.8652 49.4955L27.2823 41.4704L25.6156 41.0238L21.1085 47.6851L22.2485 47.9905L23.5742 46.0006L26.552 46.7985ZM26.6546 46.7144L23.5274 45.8765L22.2017 47.8664L21.2826 47.6201L25.6618 41.1478L27.1804 41.5547L27.7468 49.3522L26.8076 49.1006L26.6546 46.7144ZM26.5943 45.8202L24.0166 45.1295L25.965 42.2142L26.3647 42.3213L26.5943 45.8202ZM24.1898 45.0644L26.0117 42.3382L26.2622 42.4054L26.477 45.6772L24.1898 45.0644ZM36.5552 43.9551L33.7835 43.2124L31.8163 50.5542L34.588 51.2969C35.6755 51.5883 36.6107 51.4882 37.3801 50.9794C38.1453 50.4734 38.6734 49.6543 38.9727 48.5373C39.2719 47.4206 39.2242 46.4473 38.8148 45.6267C38.4095 44.8024 37.6491 44.2482 36.5552 43.9551ZM36.5273 44.0592C37.5997 44.3465 38.33 44.8849 38.7181 45.6742C39.113 46.4653 39.1631 47.4104 38.8686 48.5094C38.5742 49.6084 38.0582 50.4018 37.3207 50.8895C36.5832 51.3773 35.6816 51.4783 34.6159 51.1928L31.9483 50.478L33.8597 43.3444L36.5273 44.0592ZM36.7716 50.0106L36.7714 50.0108C36.2832 50.3874 35.6533 50.4811 34.8633 50.2694L33.1989 49.8235L34.6156 44.5365L36.2799 44.9825C37.0694 45.1941 37.5672 45.5931 37.8001 46.17L37.8004 46.1707L37.8007 46.1714C38.0466 46.7555 38.0686 47.4421 37.8554 48.2379C37.6422 49.0336 37.2788 49.6209 36.7716 50.0106ZM34.5394 44.4046L33.067 49.8997L34.8354 50.3735C35.648 50.5913 36.3153 50.4988 36.8372 50.0961C37.3676 49.6885 37.7417 49.0784 37.9595 48.2658C38.1772 47.4532 38.1574 46.7411 37.9 46.1296C37.6512 45.5132 37.1204 45.0962 36.3078 44.8784L34.5394 44.4046ZM16.1394 38.457C17.1851 38.7372 17.9073 39.3055 18.3061 40.162C18.7048 41.0184 18.7614 41.9795 18.4759 43.0452C18.1903 44.1109 17.6608 44.9149 16.8872 45.4572C16.1137 45.9996 15.204 46.1306 14.1583 45.8504C13.1059 45.5684 12.3795 45.0025 11.9789 44.1528C11.5868 43.2981 11.5345 42.3346 11.8218 41.2622C12.1092 40.1899 12.6354 39.385 13.4005 38.8475C14.174 38.3052 15.087 38.175 16.1394 38.457ZM12.7916 43.7173C13.0498 44.379 13.5785 44.817 14.3778 45.0311C15.1771 45.2453 15.854 45.1304 16.4084 44.6864C16.9628 44.2425 17.3489 43.6142 17.5667 42.8016C17.7844 41.989 17.7642 41.2518 17.506 40.5901C17.2479 39.9284 16.7191 39.4905 15.9198 39.2763C15.1206 39.0621 14.4437 39.177 13.8893 39.621C13.3348 40.065 12.9487 40.6933 12.731 41.5059C12.5133 42.3185 12.5335 43.0556 12.7916 43.7173Z" fill="white"/>
</g>
</svg>
