<svg width="128" height="28" viewBox="0 0 128 28" fill="none" xmlns="http://www.w3.org/2000/svg">
<path d="M25.3285 5.30258C25.0897 4.99976 24.6407 4.98513 24.3675 5.25751L19.6787 9.93006C19.4476 10.1602 19.4217 10.5214 19.5856 10.8031C20.1032 11.6937 20.3759 12.7048 20.3759 13.7341C20.3759 14.7634 20.1032 15.7744 19.5856 16.6651C19.4217 16.9468 19.4476 17.308 19.6787 17.5381L24.3675 22.2107C24.6407 22.483 25.0897 22.4684 25.3285 22.1654C29.2254 17.2215 29.2254 10.2465 25.3285 5.30258ZM6.00861 2.91267C5.70458 3.15047 5.68989 3.59795 5.96322 3.8705L10.6522 8.54288C10.8832 8.77303 11.2456 8.79897 11.5281 8.63567C12.4219 8.11974 13.4365 7.84804 14.4694 7.84804C15.5024 7.84804 16.517 8.11974 17.4108 8.63567C17.6934 8.79897 18.0557 8.77303 18.2868 8.54288L22.9757 3.87033C23.2488 3.59795 23.2343 3.15047 22.9303 2.91251C17.9691 -0.970672 10.9698 -0.970672 6.00861 2.91251V2.91267ZM18.2868 18.9253C18.0557 18.6952 17.6934 18.6692 17.4108 18.8325C16.517 19.3484 15.5024 19.6201 14.4694 19.6201C13.4365 19.6201 12.4219 19.3484 11.5281 18.8325C11.2455 18.6692 10.8832 18.6952 10.6521 18.9253L5.96322 23.5978C5.69006 23.8702 5.70458 24.3177 6.00861 24.5555C10.9696 28.4389 17.9691 28.4389 22.9303 24.5555C23.2343 24.3177 23.2488 23.8702 22.9757 23.5978L18.2868 18.9253ZM9.35316 10.8029C9.51703 10.5214 9.491 10.1602 9.26005 9.9299L4.5712 5.25768C4.29787 4.9853 3.84883 4.99993 3.61004 5.30274C-0.28668 10.2465 -0.28668 17.2217 3.61004 22.1656C3.84883 22.4686 4.29787 22.4832 4.5712 22.2108L9.26022 17.5383C9.491 17.3081 9.51703 16.947 9.35316 16.6653C8.83543 15.7746 8.56279 14.7635 8.56279 13.7342C8.56279 12.7048 8.83543 11.6938 9.35316 10.8031V10.8029Z" fill="white"/>
<path d="M34.7371 20.1214H39.7188C44.3088 20.1214 47.3687 17.481 47.3687 13.5021C47.3687 9.52312 44.3088 6.88279 39.7188 6.88279H34.7371V20.1214ZM37.7597 17.7042V9.29996H39.7188C42.4429 9.29996 44.2901 10.9362 44.2901 13.5021C44.2901 16.0865 42.4429 17.7042 39.7188 17.7042H37.7597ZM53.4347 20.4189C55.7484 20.4189 57.5956 19.3776 58.1926 17.667L55.8416 17.072C55.4313 17.853 54.6103 18.3735 53.5467 18.3735C52.1847 18.3735 51.233 17.4997 51.0091 16.1609H58.5099C58.5472 15.9563 58.5472 15.5659 58.5472 15.3243C58.5472 12.3307 56.4574 10.304 53.4162 10.304C50.3375 10.304 48.1545 12.3121 48.1545 15.287C48.1545 18.3551 50.3375 20.4189 53.4347 20.4189ZM50.9906 14.4503C51.2144 13.186 52.0914 12.3492 53.3414 12.3492C54.6288 12.3492 55.5618 13.2418 55.7298 14.4503H50.9906ZM59.9651 20.1214H63.0812V14.8593H68.6787V12.4423H63.0812V9.52295H69.481V6.88279H59.9651V20.1214ZM71.9695 9.28134C72.9398 9.28134 73.6302 8.61202 73.6302 7.66368C73.6302 6.73412 72.9398 6.04602 71.9695 6.04602C70.9993 6.04602 70.309 6.73396 70.309 7.66368C70.309 8.61202 70.9993 9.28134 71.9695 9.28134ZM70.5888 20.1214H73.3503V10.6013H70.5888V20.1214ZM84.6849 20.5862C87.9128 20.5862 89.7973 19.043 89.7973 16.5886C89.7973 13.6137 87.0918 13.093 84.7036 12.7024C82.7631 12.4051 81.0093 12.089 81.0093 10.3597C81.0093 8.9466 82.166 8.0355 84.2931 8.0355C86.5508 8.0355 87.8569 9.13251 87.8569 10.992H89.4987C89.4802 8.22158 87.521 6.54805 84.2931 6.54805C81.1213 6.54805 79.3114 8.09121 79.3114 10.4527C79.3114 13.2975 81.9236 13.9112 84.2931 14.283C86.2708 14.5991 88.0994 14.8966 88.0994 16.7002C88.0994 18.169 86.8494 19.0987 84.7036 19.0987C82.2408 19.0987 80.804 17.8901 80.7854 15.8634H79.1061C79.1061 18.7826 81.2332 20.5862 84.6849 20.5862ZM94.3598 20.4189C95.8711 20.4189 96.972 19.8239 97.6436 18.7455H97.8116V20.1214H99.3602V13.8925C99.3602 11.7542 97.8116 10.3783 95.3674 10.3783C92.9977 10.3783 91.4491 11.6426 91.4491 13.6323H93.0163C92.9976 12.4608 93.9306 11.7728 95.3487 11.7728C96.8974 11.7728 97.8116 12.591 97.8116 13.8553V14.2273L95.1993 14.5432C92.4006 14.8593 90.9825 16.0865 90.9825 17.7415C90.9825 19.3591 92.326 20.4189 94.3598 20.4189ZM94.5837 19.1359C93.3149 19.1359 92.5312 18.5967 92.5312 17.7042C92.5312 16.8304 93.2777 16.0865 95.1993 15.8449L97.8116 15.5473V16.384C97.8116 17.9644 96.5054 19.1359 94.5837 19.1359ZM103.834 20.1214H106.035L109.618 10.7317H108.032L105.009 18.8942H104.841L101.837 10.7315H100.251L103.834 20.1214ZM115.133 20.4932C117.223 20.4932 118.921 19.5264 119.686 17.9274L118.398 17.2765C117.801 18.3921 116.57 19.0987 115.171 19.0987C113.249 19.0987 111.868 17.8344 111.644 15.9379H119.985C120.003 15.7333 120.003 15.5102 120.003 15.3243C120.003 12.4422 117.932 10.3597 115.059 10.3597C112.148 10.3597 110.058 12.4422 110.058 15.3057C110.058 18.3178 112.185 20.4932 115.133 20.4932ZM111.663 14.5805C111.924 12.8885 113.249 11.7542 114.984 11.7542C116.775 11.7542 118.1 12.8885 118.38 14.5805H111.663ZM121.827 20.1214H123.376V15.0639C123.376 13.2046 124.365 11.9403 125.783 11.9403C126.137 11.9403 126.697 12.0146 127.182 12.2192V10.7874C126.902 10.6386 126.455 10.5456 126.025 10.5456C124.981 10.5456 123.936 11.1406 123.506 11.996H123.339V10.7317H121.827V20.1214Z" fill="white"/>
</svg>
