<svg width="142" height="31" viewBox="0 0 142 31" fill="none" xmlns="http://www.w3.org/2000/svg">
<path d="M28.322 5.90863C28.0559 5.5712 27.5555 5.55489 27.2511 5.85841L22.0262 11.0651C21.7687 11.3216 21.7399 11.724 21.9225 12.0379C22.4994 13.0304 22.8031 14.1571 22.8031 15.304C22.8031 16.451 22.4994 17.5776 21.9225 18.5701C21.7399 18.884 21.7687 19.2865 22.0262 19.5429L27.2511 24.7496C27.5555 25.0532 28.0559 25.0368 28.322 24.6992C32.6644 19.1901 32.6644 11.4177 28.322 5.90863ZM6.79343 3.24551C6.45464 3.51049 6.43828 4.00913 6.74285 4.31283L11.9679 9.51936C12.2253 9.77581 12.6291 9.80472 12.9439 9.62276C13.9399 9.04784 15.0705 8.74509 16.2215 8.74509C17.3725 8.74509 18.5031 9.04784 19.4991 9.62276C19.8141 9.80472 20.2177 9.77581 20.4753 9.51936L25.7001 4.31265C26.0045 4.00913 25.9884 3.51049 25.6496 3.24533C20.1212 -1.08177 12.3218 -1.08177 6.79343 3.24533V3.24551ZM20.4753 21.0887C20.2177 20.8322 19.8141 20.8033 19.4991 20.9853C18.5031 21.5602 17.3725 21.8629 16.2215 21.8629C15.0705 21.8629 13.9399 21.5602 12.9439 20.9853C12.6289 20.8033 12.2253 20.8322 11.9677 21.0887L6.74285 26.2954C6.43846 26.5989 6.45464 27.0976 6.79343 27.3625C12.3216 31.6898 20.1212 31.6898 25.6496 27.3625C25.9884 27.0976 26.0045 26.5989 25.7001 26.2954L20.4753 21.0887ZM10.5203 12.0378C10.7029 11.724 10.6739 11.3216 10.4166 11.0649L5.1917 5.8586C4.88712 5.55508 4.38674 5.57138 4.12066 5.90881C-0.221534 11.4177 -0.221534 19.1903 4.12066 24.6994C4.38674 25.037 4.88712 25.0533 5.1917 24.7498L10.4168 19.5431C10.6739 19.2867 10.7029 18.8842 10.5203 18.5703C9.94341 17.5778 9.6396 16.4511 9.6396 15.3041C9.6396 14.1571 9.94341 13.0304 10.5203 12.0379V12.0378Z" fill="white"/>
<path d="M38.806 22.4212H44.3572C49.472 22.4212 52.8817 19.479 52.8817 15.0452C52.8817 10.6114 49.472 7.66918 44.3572 7.66918H38.806V22.4212ZM42.1742 19.7277V10.3627H44.3572C47.3928 10.3627 49.4512 12.186 49.4512 15.0452C49.4512 17.9251 47.3928 19.7277 44.3572 19.7277H42.1742ZM59.6412 22.7527C62.2193 22.7527 64.2777 21.5924 64.943 19.6862L62.3233 19.0232C61.866 19.8935 60.9512 20.4735 59.766 20.4735C58.2483 20.4735 57.1878 19.4998 56.9383 18.0079H65.2965C65.3382 17.78 65.3382 17.3449 65.3382 17.0757C65.3382 13.7399 63.0094 11.4815 59.6205 11.4815C56.1899 11.4815 53.7573 13.7192 53.7573 17.0342C53.7573 20.453 56.1899 22.7527 59.6412 22.7527ZM56.9176 16.1018C57.167 14.6929 58.1443 13.7605 59.5372 13.7605C60.9718 13.7605 62.0114 14.7552 62.1987 16.1018H56.9176ZM66.9181 22.4212H70.3905V16.5576H76.6278V13.8643H70.3905V10.6112H77.5219V7.66918H66.9181V22.4212ZM80.2949 10.3419C81.3761 10.3419 82.1454 9.5961 82.1454 8.53934C82.1454 7.50352 81.3761 6.73676 80.2949 6.73676C79.2138 6.73676 78.4445 7.50334 78.4445 8.53934C78.4445 9.5961 79.2138 10.3419 80.2949 10.3419ZM78.7563 22.4212H81.8336V11.8128H78.7563V22.4212ZM94.4639 22.9391C98.0608 22.9391 100.161 21.2195 100.161 18.4845C100.161 15.1695 97.1459 14.5894 94.4847 14.1541C92.3223 13.8228 90.3681 13.4705 90.3681 11.5436C90.3681 9.96892 91.657 8.95367 94.0273 8.95367C96.5431 8.95367 97.9985 10.1761 97.9985 12.2481H99.828C99.8074 9.16102 97.6242 7.29617 94.0273 7.29617C90.4928 7.29617 88.4761 9.01575 88.4761 11.6472C88.4761 14.8173 91.3869 15.501 94.0273 15.9154C96.2311 16.2676 98.2687 16.5991 98.2687 18.6089C98.2687 20.2456 96.8758 21.2816 94.4847 21.2816C91.7403 21.2816 90.1394 19.9349 90.1185 17.6764H88.2474C88.2474 20.9294 90.6176 22.9391 94.4639 22.9391ZM105.245 22.7527C106.929 22.7527 108.156 22.0897 108.904 20.888H109.091V22.4212H110.817V15.4803C110.817 13.0975 109.091 11.5643 106.368 11.5643C103.727 11.5643 102.001 12.9732 102.001 15.1903H103.748C103.727 13.8848 104.767 13.1183 106.347 13.1183C108.072 13.1183 109.091 14.0299 109.091 15.4388V15.8533L106.18 16.2053C103.062 16.5576 101.481 17.9251 101.481 19.7692C101.481 21.5718 102.978 22.7527 105.245 22.7527ZM105.494 21.3231C104.08 21.3231 103.207 20.7222 103.207 19.7277C103.207 18.7539 104.039 17.9251 106.18 17.6559L109.091 17.3242V18.2566C109.091 20.0177 107.636 21.3231 105.494 21.3231ZM115.802 22.4212H118.255L122.247 11.9581H120.48L117.112 21.0537H116.925L113.577 11.9579H111.81L115.802 22.4212ZM128.393 22.8355C130.722 22.8355 132.614 21.7582 133.466 19.9764L132.031 19.2511C131.366 20.4943 129.994 21.2816 128.435 21.2816C126.293 21.2816 124.755 19.8728 124.505 17.7594H133.799C133.82 17.5315 133.82 17.2829 133.82 17.0757C133.82 13.8641 131.512 11.5436 128.31 11.5436C125.066 11.5436 122.738 13.8641 122.738 17.0549C122.738 20.4114 125.108 22.8355 128.393 22.8355ZM124.526 16.2469C124.817 14.3614 126.293 13.0975 128.227 13.0975C130.223 13.0975 131.699 14.3614 132.011 16.2469H124.526ZM135.852 22.4212H137.578V16.7855C137.578 14.7137 138.68 13.3049 140.26 13.3049C140.655 13.3049 141.279 13.3877 141.819 13.6156V12.0202C141.508 11.8543 141.009 11.7508 140.53 11.7508C139.366 11.7508 138.202 12.4138 137.723 13.3669H137.536V11.9581H135.852V22.4212Z" fill="white"/>
</svg>
