<svg width="177" height="39" viewBox="0 0 177 39" fill="none" xmlns="http://www.w3.org/2000/svg">
<g opacity="0.4">
<path d="M34.6596 7.38692C34.327 6.96512 33.7015 6.94474 33.321 7.32415L26.7898 13.8327C26.4679 14.1533 26.4318 14.6564 26.6601 15.0487C27.3812 16.2894 27.7609 17.6977 27.7609 19.1314C27.7609 20.5651 27.3812 21.9735 26.6601 23.2141C26.4318 23.6065 26.4679 24.1096 26.7898 24.4302L33.321 30.9387C33.7015 31.3181 34.327 31.2977 34.6596 30.8757C40.0877 23.9891 40.0877 14.2735 34.6596 7.38692ZM7.74836 4.05795C7.32486 4.38918 7.3044 5.01249 7.68514 5.39213L14.2166 11.9004C14.5383 12.221 15.0431 12.2571 15.4367 12.0297C16.6816 11.311 18.0949 10.9326 19.5337 10.9326C20.9725 10.9326 22.3858 11.311 23.6307 12.0297C24.0245 12.2571 24.5291 12.221 24.851 11.9004L31.3823 5.3919C31.7628 5.01249 31.7425 4.38918 31.319 4.05772C24.4085 -1.35127 14.6589 -1.35127 7.74836 4.05772V4.05795ZM24.851 26.3624C24.5291 26.0418 24.0245 26.0057 23.6307 26.2332C22.3857 26.9518 20.9725 27.3302 19.5337 27.3302C18.0949 27.3302 16.6817 26.9518 15.4367 26.2332C15.0429 26.0057 14.5383 26.0418 14.2164 26.3624L7.68514 32.8709C7.30464 33.2503 7.32486 33.8737 7.74836 34.2049C14.6587 39.6141 24.4085 39.6141 31.319 34.2049C31.7425 33.8737 31.7628 33.2503 31.3823 32.8709L24.851 26.3624ZM12.4071 15.0485C12.6353 14.6564 12.5991 14.1533 12.2774 13.8324L5.74615 7.32438C5.36542 6.94497 4.73993 6.96535 4.40732 7.38715C-1.02054 14.2735 -1.02054 23.9894 4.40732 30.8759C4.73993 31.2979 5.36542 31.3183 5.74615 30.9389L12.2776 24.4304C12.5991 24.1098 12.6353 23.6067 12.4071 23.2143C11.6859 21.9737 11.3061 20.5653 11.3061 19.1315C11.3061 17.6978 11.6859 16.2894 12.4071 15.0487V15.0485Z" fill="white"/>
<path d="M47.765 28.0281H54.7042C61.0978 28.0281 65.36 24.3503 65.36 18.8079C65.36 13.2655 61.0978 9.58767 54.7042 9.58767H47.765V28.0281ZM51.9753 24.6611V12.9546H54.7042C58.4987 12.9546 61.0717 15.2339 61.0717 18.8079C61.0717 22.4079 58.4987 24.6611 54.7042 24.6611H51.9753ZM73.8095 28.4425C77.0322 28.4425 79.6053 26.992 80.437 24.6093L77.1622 23.7805C76.5906 24.8684 75.447 25.5934 73.9655 25.5934C72.0683 25.5934 70.7427 24.3762 70.4308 22.5114H80.8788C80.9309 22.2265 80.9309 21.6826 80.9309 21.3461C80.9309 17.1763 78.0198 14.3532 73.7837 14.3532C69.4952 14.3532 66.4545 17.1503 66.4545 21.2942C66.4545 25.5677 69.4952 28.4425 73.8095 28.4425ZM70.405 20.1286C70.7167 18.3676 71.9384 17.202 73.6796 17.202C75.4728 17.202 76.7724 18.4454 77.0064 20.1286H70.405ZM82.9059 28.0281H87.2464V20.6984H95.0433V17.3317H87.2464V13.2652H96.1608V9.58767H82.9059V28.0281ZM99.6271 12.9287C100.979 12.9287 101.94 11.9964 101.94 10.6754C101.94 9.3806 100.979 8.42212 99.6271 8.42212C98.2758 8.42212 97.3142 9.38037 97.3142 10.6754C97.3142 11.9964 98.2758 12.9287 99.6271 12.9287ZM97.704 28.0281H101.551V14.7674H97.704V28.0281ZM117.339 28.6755C121.835 28.6755 124.46 26.526 124.46 23.1071C124.46 18.9633 120.691 18.2381 117.365 17.694C114.662 17.2798 112.219 16.8395 112.219 14.4308C112.219 12.4624 113.83 11.1933 116.793 11.1933C119.938 11.1933 121.757 12.7214 121.757 15.3114H124.044C124.018 11.4525 121.289 9.12141 116.793 9.12141C112.375 9.12141 109.854 11.2709 109.854 14.5603C109.854 18.523 113.492 19.3777 116.793 19.8956C119.548 20.3359 122.095 20.7503 122.095 23.2626C122.095 25.3085 120.354 26.6036 117.365 26.6036C113.934 26.6036 111.933 24.9201 111.907 22.097H109.568C109.568 26.1632 112.531 28.6755 117.339 28.6755ZM130.815 28.4425C132.92 28.4425 134.454 27.6137 135.389 26.1116H135.623V28.0281H137.78V19.3517C137.78 16.3732 135.623 14.4567 132.219 14.4567C128.918 14.4567 126.761 16.2178 126.761 18.9892H128.944C128.918 17.3574 130.217 16.3992 132.193 16.3992C134.35 16.3992 135.623 17.5388 135.623 19.2999V19.818L131.985 20.2581C128.086 20.6984 126.111 22.4079 126.111 24.713C126.111 26.9663 127.982 28.4425 130.815 28.4425ZM131.127 26.6555C129.36 26.6555 128.268 25.9043 128.268 24.6611C128.268 23.4439 129.308 22.4079 131.985 22.0713L135.623 21.6567V22.8222C135.623 25.0236 133.804 26.6555 131.127 26.6555ZM144.012 28.0281H147.079L152.069 14.9489H149.859L145.649 26.3187H145.415L141.231 14.9487H139.022L144.012 28.0281ZM159.751 28.546C162.662 28.546 165.027 27.1993 166.093 24.972L164.299 24.0654C163.468 25.6194 161.752 26.6036 159.803 26.6036C157.126 26.6036 155.203 24.8425 154.891 22.2008H166.509C166.534 21.9159 166.534 21.605 166.534 21.3461C166.534 17.3315 163.65 14.4308 159.647 14.4308C155.593 14.4308 152.682 17.3315 152.682 21.3201C152.682 25.5158 155.645 28.546 159.751 28.546ZM154.917 20.31C155.281 17.9532 157.126 16.3732 159.543 16.3732C162.038 16.3732 163.884 17.9532 164.273 20.31H154.917ZM169.075 28.0281H171.233V20.9833C171.233 18.3935 172.61 16.6324 174.585 16.6324C175.079 16.6324 175.859 16.736 176.535 17.0209V15.0265C176.145 14.8192 175.521 14.6898 174.923 14.6898C173.468 14.6898 172.012 15.5185 171.414 16.71H171.181V14.9489H169.075V28.0281Z" fill="white"/>
</g>
</svg>
