<svg width="104" height="21" viewBox="0 0 104 21" fill="none" xmlns="http://www.w3.org/2000/svg">
<path d="M20.4745 0.000244141V20.6174H16.9603V5.9203L10.4512 16.2878H10.0234L3.51429 5.89085V20.6174H0V0.000244141H3.78932L10.2373 10.3088L16.7158 0.000244141H20.4745Z" fill="white"/>
<path d="M36.6271 5.89085H39.9275V20.6174H36.6271V18.4967C35.3844 20.1657 33.6018 21.0002 31.2793 21.0002C29.1809 21.0002 27.3881 20.2541 25.9009 18.7618C24.4137 17.2499 23.6701 15.414 23.6701 13.2541C23.6701 11.0746 24.4137 9.23867 25.9009 7.74639C27.3881 6.2541 29.1809 5.50796 31.2793 5.50796C33.6018 5.50796 35.3844 6.33264 36.6271 7.98201V5.89085ZM28.3456 16.6412C29.2624 17.5248 30.4135 17.9666 31.7988 17.9666C33.1842 17.9666 34.3352 17.5248 35.252 16.6412C36.1688 15.738 36.6271 14.6089 36.6271 13.2541C36.6271 11.8993 36.1688 10.78 35.252 9.89646C34.3352 8.99323 33.1842 8.54162 31.7988 8.54162C30.4135 8.54162 29.2624 8.99323 28.3456 9.89646C27.4289 10.78 26.9705 11.8993 26.9705 13.2541C26.9705 14.6089 27.4289 15.738 28.3456 16.6412Z" fill="white"/>
<path d="M52.3003 8.95396H48.511V16.0227C48.511 16.6314 48.6536 17.0732 48.9388 17.3481C49.2241 17.6033 49.6417 17.7506 50.1918 17.7899C50.7622 17.8095 51.4651 17.7997 52.3003 17.7604V20.6174C49.7741 20.9119 47.961 20.7057 46.8608 19.9988C45.7607 19.2723 45.2106 17.947 45.2106 16.0227V8.95396H42.3992V5.89085H45.2106V2.70992L48.511 1.76742V5.89085H52.3003V8.95396Z" fill="white"/>
<path d="M61.8789 21.0002C59.5768 21.0002 57.6516 20.2541 56.1033 18.7618C54.5753 17.2695 53.8113 15.4336 53.8113 13.2541C53.8113 11.0549 54.5753 9.21904 56.1033 7.74639C57.6516 6.2541 59.5768 5.50796 61.8789 5.50796C63.3661 5.50796 64.7209 5.85158 65.9433 6.53882C67.1656 7.22605 68.0824 8.14891 68.6936 9.3074L65.8516 10.8979C65.5053 10.191 64.9756 9.6412 64.2625 9.24849C63.5699 8.83615 62.7651 8.62998 61.8484 8.62998C60.5038 8.62998 59.3731 9.07177 58.4563 9.95536C57.5599 10.839 57.1117 11.9385 57.1117 13.2541C57.1117 14.5697 57.5599 15.6693 58.4563 16.5528C59.3731 17.4364 60.5038 17.8782 61.8484 17.8782C62.7448 17.8782 63.5495 17.6721 64.2625 17.2597C64.9959 16.8474 65.546 16.2976 65.9127 15.6103L68.7547 17.1714C68.1028 18.3495 67.1656 19.2822 65.9433 19.9694C64.7209 20.6566 63.3661 21.0002 61.8789 21.0002Z" fill="white"/>
<path d="M79.1772 5.50796C80.9293 5.50796 82.3452 6.04793 83.4249 7.12787C84.5047 8.20782 85.0446 9.69029 85.0446 11.5753V20.6174H81.7442V11.8993C81.7442 10.7997 81.4386 9.95536 80.8274 9.3663C80.2162 8.77724 79.381 8.48271 78.3216 8.48271C77.1603 8.48271 76.2232 8.83615 75.5102 9.54302C74.7971 10.2303 74.4406 11.2906 74.4406 12.7239V20.6174H71.1402V0.000244141H74.4406V7.77584C75.4389 6.26392 77.0177 5.50796 79.1772 5.50796Z" fill="white"/>
<path d="M100.7 5.89085H104V20.6174H100.7V18.4967C99.4569 20.1657 97.6743 21.0002 95.3518 21.0002C93.2534 21.0002 91.4606 20.2541 89.9734 18.7618C88.4862 17.2499 87.7426 15.414 87.7426 13.2541C87.7426 11.0746 88.4862 9.23867 89.9734 7.74639C91.4606 6.2541 93.2534 5.50796 95.3518 5.50796C97.6743 5.50796 99.4569 6.33264 100.7 7.98201V5.89085ZM92.4181 16.6412C93.3349 17.5248 94.486 17.9666 95.8713 17.9666C97.2566 17.9666 98.4077 17.5248 99.3245 16.6412C100.241 15.738 100.7 14.6089 100.7 13.2541C100.7 11.8993 100.241 10.78 99.3245 9.89646C98.4077 8.99323 97.2566 8.54162 95.8713 8.54162C94.486 8.54162 93.3349 8.99323 92.4181 9.89646C91.5014 10.78 91.043 11.8993 91.043 13.2541C91.043 14.6089 91.5014 15.738 92.4181 16.6412Z" fill="white"/>
</svg>
