<svg width="116" height="24" viewBox="0 0 116 24" fill="none" xmlns="http://www.w3.org/2000/svg">
<path d="M22.837 0V23.5624H18.9172V6.76578L11.6571 18.6143H11.1799L3.91978 6.73212V23.5624H0V0H4.22655L11.4185 11.7812L18.6445 0H22.837Z" fill="white"/>
<path d="M40.8533 6.73212H44.5345V23.5624H40.8533V21.1389C39.4672 23.0463 37.4789 24 34.8885 24C32.548 24 30.5483 23.1473 28.8895 21.4418C27.2307 19.7139 26.4013 17.6157 26.4013 15.1473C26.4013 12.6564 27.2307 10.5582 28.8895 8.85274C30.5483 7.14727 32.548 6.29453 34.8885 6.29453C37.4789 6.29453 39.4672 7.23703 40.8533 9.12202V6.73212ZM31.6163 19.0182C32.6388 20.0281 33.9227 20.533 35.4679 20.533C37.0131 20.533 38.297 20.0281 39.3195 19.0182C40.3421 17.986 40.8533 16.6957 40.8533 15.1473C40.8533 13.5989 40.3421 12.3198 39.3195 11.31C38.297 10.2777 37.0131 9.76157 35.4679 9.76157C33.9227 9.76157 32.6388 10.2777 31.6163 11.31C30.5937 12.3198 30.0825 13.5989 30.0825 15.1473C30.0825 16.6957 30.5937 17.986 31.6163 19.0182Z" fill="white"/>
<path d="M58.335 10.2328H54.1084V18.3114C54.1084 19.007 54.2675 19.5119 54.5856 19.8261C54.9038 20.1178 55.3696 20.2861 55.9831 20.331C56.6194 20.3534 57.4033 20.3422 58.335 20.2973V23.5624C55.5173 23.899 53.4949 23.6634 52.2678 22.8555C51.0408 22.0252 50.4273 20.5105 50.4273 18.3114V10.2328H47.2914V6.73212H50.4273V3.09677L54.1084 2.01964V6.73212H58.335V10.2328Z" fill="white"/>
<path d="M69.0188 24C66.451 24 64.3037 23.1473 62.5767 21.4418C60.8725 19.7363 60.0203 17.6381 60.0203 15.1473C60.0203 12.6339 60.8725 10.5358 62.5767 8.85274C64.3037 7.14727 66.451 6.29453 69.0188 6.29453C70.6776 6.29453 72.1887 6.68724 73.5521 7.47265C74.9155 8.25807 75.9381 9.31277 76.6198 10.6367L73.4499 12.4544C73.0636 11.6466 72.4727 11.0182 71.6774 10.5694C70.9048 10.0982 70.0073 9.86255 68.9847 9.86255C67.485 9.86255 66.2238 10.3675 65.2013 11.3773C64.2014 12.3871 63.7015 13.6438 63.7015 15.1473C63.7015 16.6508 64.2014 17.9074 65.2013 18.9173C66.2238 19.9271 67.485 20.432 68.9847 20.432C69.9845 20.432 70.8821 20.1964 71.6774 19.7251C72.4955 19.2539 73.109 18.6255 73.518 17.8401L76.6879 19.6241C75.9608 20.9706 74.9155 22.0365 73.5521 22.8219C72.1887 23.6073 70.6776 24 69.0188 24Z" fill="white"/>
<path d="M88.3131 6.29453C90.2673 6.29453 91.8466 6.91164 93.0509 8.14586C94.2552 9.38008 94.8574 11.0743 94.8574 13.2286V23.5624H91.1762V13.5989C91.1762 12.3422 90.8354 11.3773 90.1537 10.7041C89.472 10.0309 88.5403 9.69425 87.3587 9.69425C86.0635 9.69425 85.0182 10.0982 84.2229 10.906C83.4275 11.6914 83.0299 12.9032 83.0299 14.5414V23.5624H79.3487V0H83.0299V8.8864C84.1433 7.15849 85.9044 6.29453 88.3131 6.29453Z" fill="white"/>
<path d="M112.319 6.73212H116V23.5624H112.319V21.1389C110.933 23.0463 108.944 24 106.354 24C104.013 24 102.014 23.1473 100.355 21.4418C98.6961 19.7139 97.8667 17.6157 97.8667 15.1473C97.8667 12.6564 98.6961 10.5582 100.355 8.85274C102.014 7.14727 104.013 6.29453 106.354 6.29453C108.944 6.29453 110.933 7.23703 112.319 9.12202V6.73212ZM103.082 19.0182C104.104 20.0281 105.388 20.533 106.933 20.533C108.479 20.533 109.762 20.0281 110.785 19.0182C111.808 17.986 112.319 16.6957 112.319 15.1473C112.319 13.5989 111.808 12.3198 110.785 11.31C109.762 10.2777 108.479 9.76157 106.933 9.76157C105.388 9.76157 104.104 10.2777 103.082 11.31C102.059 12.3198 101.548 13.5989 101.548 15.1473C101.548 16.6957 102.059 17.986 103.082 19.0182Z" fill="white"/>
</svg>
