<svg width="145" height="30" viewBox="0 0 145 30" fill="none" xmlns="http://www.w3.org/2000/svg">
<path d="M28.5462 0.000976562V29.454H23.6465V8.4582L14.5714 23.2689H13.9749L4.89973 8.41613V29.454H0V0.000976562H5.28319L14.2731 14.7275L23.3057 0.000976562H28.5462Z" fill="white"/>
<path d="M51.0667 8.41613H55.6682V29.454H51.0667V26.4245C49.334 28.8088 46.8487 30.001 43.6106 30.001C40.6849 30.001 38.1854 28.9351 36.1119 26.8032C34.0383 24.6433 33.0016 22.0206 33.0016 18.9351C33.0016 15.8215 34.0383 13.1987 36.1119 11.0669C38.1854 8.93506 40.6849 7.86914 43.6106 7.86914C46.8487 7.86914 49.334 9.04726 51.0667 11.4035V8.41613ZM39.5204 23.7738C40.7986 25.036 42.4034 25.6672 44.3349 25.6672C46.2664 25.6672 47.8712 25.036 49.1494 23.7738C50.4276 22.4834 51.0667 20.8705 51.0667 18.9351C51.0667 16.9996 50.4276 15.4007 49.1494 14.1384C47.8712 12.8481 46.2664 12.2029 44.3349 12.2029C42.4034 12.2029 40.7986 12.8481 39.5204 14.1384C38.2422 15.4007 37.6031 16.9996 37.6031 18.9351C37.6031 20.8705 38.2422 22.4834 39.5204 23.7738Z" fill="white"/>
<path d="M72.9187 12.792H67.6355V22.8902C67.6355 23.7597 67.8344 24.3909 68.232 24.7836C68.6297 25.1482 69.212 25.3586 69.9789 25.4147C70.7742 25.4428 71.7542 25.4287 72.9187 25.3726V29.454C69.3966 29.8748 66.8686 29.5802 65.3348 28.5704C63.801 27.5325 63.0341 25.6391 63.0341 22.8902V12.792H59.1143V8.41613H63.0341V3.87194L67.6355 2.52552V8.41613H72.9187V12.792Z" fill="white"/>
<path d="M86.2735 30.001C83.0638 30.001 80.3796 28.9351 78.2209 26.8032C76.0906 24.6714 75.0254 22.0487 75.0254 18.9351C75.0254 15.7934 76.0906 13.1707 78.2209 11.0669C80.3796 8.93506 83.0638 7.86914 86.2735 7.86914C88.347 7.86914 90.2359 8.36002 91.9401 9.34179C93.6444 10.3236 94.9226 11.6419 95.7747 13.2969L91.8123 15.569C91.3294 14.5592 90.5909 13.7738 89.5968 13.2128C88.631 12.6237 87.5091 12.3292 86.2309 12.3292C84.3562 12.3292 82.7798 12.9603 81.5016 14.2226C80.2518 15.4848 79.6269 17.0557 79.6269 18.9351C79.6269 20.8144 80.2518 22.3853 81.5016 23.6475C82.7798 24.9098 84.3562 25.5409 86.2309 25.5409C87.4807 25.5409 88.6026 25.2464 89.5968 24.6574C90.6193 24.0683 91.3862 23.2829 91.8975 22.3011L95.8599 24.5311C94.951 26.2142 93.6444 27.5466 91.9401 28.5283C90.2359 29.5101 88.347 30.001 86.2735 30.001Z" fill="white"/>
<path d="M110.391 7.86914C112.834 7.86914 114.808 8.64053 116.314 10.1833C117.819 11.7261 118.572 13.8439 118.572 16.5367V29.454H113.97V16.9996C113.97 15.4287 113.544 14.2226 112.692 13.3811C111.84 12.5395 110.675 12.1188 109.198 12.1188C107.579 12.1188 106.273 12.6237 105.279 13.6335C104.284 14.6153 103.787 16.13 103.787 18.1777V29.454H99.1859V0.000976562H103.787V11.109C105.179 8.94908 107.38 7.86914 110.391 7.86914Z" fill="white"/>
<path d="M140.399 8.41613H145V29.454H140.399V26.4245C138.666 28.8088 136.18 30.001 132.942 30.001C130.017 30.001 127.517 28.9351 125.444 26.8032C123.37 24.6433 122.333 22.0206 122.333 18.9351C122.333 15.8215 123.37 13.1987 125.444 11.0669C127.517 8.93506 130.017 7.86914 132.942 7.86914C136.18 7.86914 138.666 9.04726 140.399 11.4035V8.41613ZM128.852 23.7738C130.13 25.036 131.735 25.6672 133.667 25.6672C135.598 25.6672 137.203 25.036 138.481 23.7738C139.759 22.4834 140.399 20.8705 140.399 18.9351C140.399 16.9996 139.759 15.4007 138.481 14.1384C137.203 12.8481 135.598 12.2029 133.667 12.2029C131.735 12.2029 130.13 12.8481 128.852 14.1384C127.574 15.4007 126.935 16.9996 126.935 18.9351C126.935 20.8705 127.574 22.4834 128.852 23.7738Z" fill="white"/>
</svg>
