<svg width="151" height="23" viewBox="0 0 151 23" fill="none" xmlns="http://www.w3.org/2000/svg">
<path d="M131.742 12.1104C130.899 11.5538 129.969 11.1581 129.089 10.6634C128.518 10.3418 127.91 10.0573 127.415 9.64914C126.571 8.95655 126.745 7.5961 127.626 7.00239C128.89 6.16138 130.986 6.63128 131.209 8.35053C131.209 8.38757 131.246 8.41239 131.283 8.41239H133.193C133.243 8.41239 133.28 8.37526 133.268 8.32581C133.169 7.13841 132.709 6.14897 131.867 5.51819C131.06 4.91215 130.143 4.59058 129.162 4.59058C124.116 4.59058 123.657 9.92127 126.372 11.6034C126.683 11.8013 129.349 13.137 130.292 13.7183C131.234 14.2996 131.532 15.3633 131.122 16.2043C130.75 16.9711 129.783 17.503 128.816 17.4411C127.761 17.3793 126.943 16.8104 126.658 15.9198C126.608 15.7591 126.583 15.4498 126.583 15.3138C126.583 15.2767 126.546 15.2396 126.509 15.2396H124.439C124.401 15.2396 124.364 15.2767 124.364 15.3138C124.364 16.8104 124.736 17.639 125.753 18.3935C126.708 19.1108 127.749 19.4077 128.828 19.4077C131.656 19.4077 133.119 17.8121 133.416 16.1548C133.676 14.5346 133.193 13.0751 131.742 12.1104Z" fill="white"/>
<path d="M41.8293 4.86279H40.9117H39.9073C39.8701 4.86279 39.8452 4.88752 39.8328 4.91227L38.1341 10.5027C38.1093 10.5769 38.0101 10.5769 37.9853 10.5027L36.2865 4.91227C36.2741 4.87515 36.2492 4.86279 36.212 4.86279H35.2077H34.29H33.05C33.0128 4.86279 32.9756 4.8999 32.9756 4.937V19.2099C32.9756 19.247 33.0128 19.2841 33.05 19.2841H35.1208C35.1581 19.2841 35.1953 19.247 35.1953 19.2099V8.36297C35.1953 8.2764 35.3193 8.26409 35.3441 8.33825L37.0552 13.9658L37.1792 14.3615C37.1916 14.3987 37.2164 14.4111 37.2537 14.4111H38.8409C38.878 14.4111 38.9029 14.3863 38.9153 14.3615L39.0393 13.9658L40.7505 8.33825C40.7753 8.25168 40.8993 8.2764 40.8993 8.36297V19.2099C40.8993 19.247 40.9365 19.2841 40.9736 19.2841H43.0445C43.0817 19.2841 43.1189 19.247 43.1189 19.2099V4.937C43.1189 4.8999 43.0817 4.86279 43.0445 4.86279H41.8293Z" fill="white"/>
<path d="M100.034 4.86279C99.997 4.86279 99.9721 4.88752 99.9597 4.91227L98.2617 10.5027C98.2368 10.5769 98.1376 10.5769 98.1128 10.5027L96.4138 4.91227C96.4013 4.87515 96.3765 4.86279 96.3393 4.86279H93.1894C93.1522 4.86279 93.115 4.8999 93.115 4.937V19.2099C93.115 19.247 93.1522 19.2841 93.1894 19.2841H95.2607C95.2979 19.2841 95.3352 19.247 95.3352 19.2099V8.36297C95.3352 8.2764 95.4592 8.26409 95.4841 8.33825L97.1945 13.9658L97.3186 14.3615C97.331 14.3987 97.3558 14.4111 97.3931 14.4111H98.9804C99.0176 14.4111 99.0425 14.3863 99.0549 14.3615L99.1789 13.9658L100.89 8.33825C100.915 8.25168 101.039 8.2764 101.039 8.36297V19.2099C101.039 19.247 101.076 19.2841 101.114 19.2841H103.184C103.221 19.2841 103.258 19.247 103.258 19.2099V4.937C103.258 4.8999 103.221 4.86279 103.184 4.86279H100.034Z" fill="white"/>
<path d="M73.3254 4.86279H69.469H67.3982H63.5418C63.5046 4.86279 63.4673 4.8999 63.4673 4.937V6.71798C63.4673 6.75511 63.5046 6.79224 63.5418 6.79224H67.3238V19.2099C67.3238 19.247 67.3609 19.2841 67.3982 19.2841H69.469C69.5062 19.2841 69.5434 19.247 69.5434 19.2099V6.79224H73.3254C73.3627 6.79224 73.3998 6.75511 73.3998 6.71798V4.937C73.3998 4.8999 73.3751 4.86279 73.3254 4.86279Z" fill="white"/>
<path d="M85.5386 19.2841H87.4228C87.4724 19.2841 87.5096 19.2347 87.4972 19.1852L83.6038 4.86283C83.5914 4.82572 83.5666 4.81335 83.5294 4.81335H82.8103H81.5455H80.8263C80.7891 4.81335 80.7643 4.83809 80.7518 4.86283L76.8582 19.1852C76.8458 19.2347 76.8831 19.2841 76.9327 19.2841H78.8175C78.8547 19.2841 78.8795 19.2594 78.8919 19.2347L80.0203 15.0666C80.0326 15.0295 80.0574 15.0171 80.0947 15.0171H84.2615C84.2987 15.0171 84.3235 15.0418 84.3359 15.0666L85.4641 19.2347C85.4765 19.2594 85.5138 19.2841 85.5386 19.2841ZM80.5906 12.9764L82.1035 7.39827C82.1282 7.32411 82.2275 7.32411 82.2523 7.39827L83.7651 12.9764C83.7775 13.0258 83.7403 13.0753 83.6907 13.0753H80.6651C80.6155 13.0753 80.5783 13.0258 80.5906 12.9764Z" fill="white"/>
<path d="M117.68 19.2841H119.565C119.614 19.2841 119.651 19.2347 119.639 19.1852L115.746 4.86283C115.733 4.82572 115.708 4.81335 115.671 4.81335H114.952H113.688H112.968C112.931 4.81335 112.906 4.83809 112.894 4.86283L109 19.1852C108.988 19.2347 109.025 19.2841 109.075 19.2841H110.96C110.997 19.2841 111.022 19.2594 111.034 19.2347L112.162 15.0666C112.175 15.0295 112.2 15.0171 112.237 15.0171H116.403C116.44 15.0171 116.465 15.0418 116.478 15.0666L117.606 19.2347C117.618 19.2594 117.643 19.2841 117.68 19.2841ZM112.732 12.9764L114.245 7.39827C114.27 7.32411 114.369 7.32411 114.394 7.39827L115.907 12.9764C115.919 13.0258 115.882 13.0753 115.832 13.0753H112.807C112.757 13.0753 112.72 13.0258 112.732 12.9764Z" fill="white"/>
<path d="M51.5259 17.1691V12.7413C51.5259 12.7042 51.5631 12.6671 51.6003 12.6671H57.1183C57.1555 12.6671 57.1928 12.63 57.1928 12.5928V10.8118C57.1928 10.7748 57.1555 10.7377 57.1183 10.7377H51.6003C51.5631 10.7377 51.5259 10.7005 51.5259 10.6634V6.8788C51.5259 6.84167 51.5631 6.80454 51.6003 6.80454H57.8747C57.912 6.80454 57.9492 6.76741 57.9492 6.73038V4.94933C57.9492 4.91223 57.912 4.87512 57.8747 4.87512H51.5259H49.3807C49.3435 4.87512 49.3063 4.91223 49.3063 4.94933V6.80454V10.75V12.6795V17.2557V19.2098C49.3063 19.247 49.3435 19.2841 49.3807 19.2841H51.5259H58.1351C58.1724 19.2841 58.2096 19.247 58.2096 19.2098V17.3299C58.2096 17.2928 58.1724 17.2557 58.1351 17.2557H51.5879C51.5507 17.2434 51.5259 17.2185 51.5259 17.1691Z" fill="white"/>
<path d="M150.664 19.1604L143.497 11.7765C143.472 11.7518 143.472 11.7024 143.497 11.6777L149.945 4.99881C149.995 4.94934 149.958 4.87512 149.896 4.87512H147.255C147.23 4.87512 147.217 4.88749 147.205 4.89986L141.737 10.5645C141.687 10.614 141.613 10.5768 141.613 10.515V4.94933C141.613 4.91223 141.575 4.87512 141.538 4.87512H139.467C139.43 4.87512 139.392 4.91223 139.392 4.94933V19.2222C139.392 19.2594 139.43 19.2965 139.467 19.2965H141.538C141.575 19.2965 141.613 19.2594 141.613 19.2222V12.9392C141.613 12.8774 141.699 12.8402 141.737 12.8897L147.936 19.2717C147.949 19.2841 147.973 19.2965 147.986 19.2965H150.627C150.677 19.2841 150.714 19.1975 150.664 19.1604Z" fill="white"/>
<path d="M22.7163 1.00024L13.7919 7.60372L15.4515 3.71208L22.7163 1.00024Z" stroke="white" stroke-width="0.75" stroke-linecap="round" stroke-linejoin="round"/>
<path d="M2.13116 1.00024L10.9762 7.66534L9.39609 3.71207L2.13116 1.00024Z" stroke="white" stroke-width="0.75" stroke-linecap="round" stroke-linejoin="round"/>
<path d="M19.5024 16.3115L17.1279 19.939L22.2124 21.339L23.669 16.3908L19.5024 16.3115Z" stroke="white" stroke-width="0.75" stroke-linecap="round" stroke-linejoin="round"/>
<path d="M1.18622 16.3908L2.63389 21.339L7.70964 19.939L5.34389 16.3115L1.18622 16.3908Z" stroke="white" stroke-width="0.75" stroke-linecap="round" stroke-linejoin="round"/>
<path d="M7.4353 10.1837L6.02295 12.3145L11.0545 12.5434L10.8868 7.12854L7.4353 10.1837Z" stroke="white" stroke-width="0.75" stroke-linecap="round" stroke-linejoin="round"/>
<path d="M17.411 10.1836L13.9066 7.06677L13.7919 12.5433L18.8234 12.3143L17.411 10.1836Z" stroke="white" stroke-width="0.75" stroke-linecap="round" stroke-linejoin="round"/>
<path d="M7.7088 19.9395L10.7542 18.4692L8.13253 16.4265L7.7088 19.9395Z" stroke="white" stroke-width="0.75" stroke-linecap="round" stroke-linejoin="round"/>
<path d="M14.0924 18.4692L17.129 19.9395L16.7141 16.4265L14.0924 18.4692Z" stroke="white" stroke-width="0.75" stroke-linecap="round" stroke-linejoin="round"/>
<path d="M17.129 19.9384L14.0924 18.468L14.3395 20.4402L14.313 21.2767L17.129 19.9384Z" stroke="white" stroke-width="0.75" stroke-linecap="round" stroke-linejoin="round"/>
<path d="M7.7088 19.9384L10.5336 21.2767L10.5159 20.4402L10.7542 18.468L7.7088 19.9384Z" stroke="white" stroke-width="0.75" stroke-linecap="round" stroke-linejoin="round"/>
<path d="M10.5867 15.1229L8.06207 14.3833L9.84519 13.5645L10.5867 15.1229Z" fill="white" stroke="#233447" stroke-width="0.75" stroke-linecap="round" stroke-linejoin="round"/>
<path d="M14.2592 15.1229L15.0007 13.5645L16.7926 14.3833L14.2592 15.1229Z" fill="white" stroke="#233447" stroke-width="0.75" stroke-linecap="round" stroke-linejoin="round"/>
<path d="M7.70988 19.939L8.15128 16.3115L5.34418 16.3908L7.70988 19.939Z" stroke="white" stroke-width="0.75" stroke-linecap="round" stroke-linejoin="round"/>
<path d="M16.6954 16.3115L17.128 19.939L19.5025 16.3908L16.6954 16.3115Z" stroke="white" stroke-width="0.75" stroke-linecap="round" stroke-linejoin="round"/>
<path d="M18.8234 12.3143L13.7919 12.5432L14.2597 15.1231L15.0012 13.5646L16.7932 14.3834L18.8234 12.3143Z" stroke="white" stroke-width="0.75" stroke-linecap="round" stroke-linejoin="round"/>
<path d="M8.06206 14.3834L9.84517 13.5646L10.5867 15.1231L11.0545 12.5432L6.02295 12.3143L8.06206 14.3834Z" stroke="white" stroke-width="0.75" stroke-linecap="round" stroke-linejoin="round"/>
<path d="M6.02435 12.3143L8.1341 16.4261L8.06344 14.3834L6.02435 12.3143Z" stroke="white" stroke-width="0.75" stroke-linecap="round" stroke-linejoin="round"/>
<path d="M16.7932 14.3834L16.7138 16.4261L18.8235 12.3143L16.7932 14.3834Z" stroke="white" stroke-width="0.75" stroke-linecap="round" stroke-linejoin="round"/>
<path d="M14.2604 15.1227L13.6689 18.169L14.0927 18.4684L16.7144 16.4257L16.7938 14.3831L14.2604 15.1227Z" stroke="white" stroke-width="0.75" stroke-linecap="round" stroke-linejoin="round"/>
<path d="M8.06207 14.3831L8.13274 16.4257L10.7544 18.4684L11.1781 18.169L10.5867 15.1227L8.06207 14.3831Z" stroke="white" stroke-width="0.75" stroke-linecap="round" stroke-linejoin="round"/>
<path d="M14.3117 21.2769L14.3381 20.4405L14.1086 20.2467H10.7366L10.5159 20.4405L10.5336 21.2769L7.7088 19.9386L8.69746 20.7486L10.7013 22.131H14.1351L16.1477 20.7486L17.1275 19.9386L14.3117 21.2769Z" stroke="white" stroke-width="0.75" stroke-linecap="round" stroke-linejoin="round"/>
<path d="M14.0922 18.4687L13.6685 18.1694H11.1792L10.7555 18.4687L10.5172 20.441L10.7378 20.2473H14.1099L14.3394 20.441L14.0922 18.4687Z" fill="white"/>
<path d="M23.0962 8.03512L23.8466 4.39003L22.7167 1.00024L14.0924 7.38363L17.4114 10.1835L22.0988 11.5482L23.1316 10.342L22.6814 10.0162L23.3964 9.36468L22.8491 8.94204L23.5641 8.39613L23.0962 8.03512Z" stroke="white" stroke-width="0.75" stroke-linecap="round" stroke-linejoin="round"/>
<path d="M1 4.39015L1.75915 8.03524L1.27365 8.39626L1.99749 8.94216L1.45019 9.3648L2.16521 10.0163L1.71501 10.3421L2.74781 11.5483L7.43516 10.1836L10.7542 7.38375L2.1299 1.00037L1 4.39015Z" stroke="white" stroke-width="0.75" stroke-linecap="round" stroke-linejoin="round"/>
<path d="M22.0985 11.5489L17.4112 10.1842L18.8235 12.3149L16.7138 16.4267L19.5032 16.3915H23.6697L22.0985 11.5489Z" stroke="white" stroke-width="0.75" stroke-linecap="round" stroke-linejoin="round"/>
<path d="M7.43594 10.1842L2.74865 11.5489L1.18622 16.3915H5.34389L8.1333 16.4267L6.0236 12.3149L7.43594 10.1842Z" stroke="white" stroke-width="0.75" stroke-linecap="round" stroke-linejoin="round"/>
<path d="M13.7916 12.5426L14.0918 7.38305L15.4512 3.71155H9.39563L10.755 7.38305L11.0551 12.5426L11.1699 14.1626L11.1787 18.1688H13.668L13.6769 14.1626L13.7916 12.5426Z" stroke="white" stroke-width="0.75" stroke-linecap="round" stroke-linejoin="round"/>
</svg>
