<svg width="168" height="25" viewBox="0 0 168 25" fill="none" xmlns="http://www.w3.org/2000/svg">
<path d="M146.689 13.3806C145.749 12.7604 144.713 12.3194 143.732 11.7682C143.096 11.4098 142.419 11.0928 141.866 10.6379C140.926 9.86618 141.12 8.35021 142.102 7.68863C143.511 6.75148 145.846 7.2751 146.094 9.19089C146.094 9.23216 146.136 9.25981 146.177 9.25981H148.306C148.361 9.25981 148.402 9.21844 148.389 9.16334C148.278 7.8402 147.766 6.73765 146.827 6.03476C145.928 5.35943 144.906 5.0011 143.814 5.0011C138.191 5.0011 137.679 10.9412 140.705 12.8156C141.051 13.0361 144.021 14.5245 145.072 15.1723C146.122 15.82 146.454 17.0053 145.998 17.9425C145.583 18.797 144.505 19.3896 143.428 19.3207C142.253 19.2518 141.341 18.6179 141.023 17.6255C140.968 17.4464 140.94 17.1018 140.94 16.9502C140.94 16.9088 140.899 16.8675 140.857 16.8675H138.55C138.509 16.8675 138.467 16.9088 138.467 16.9502C138.467 18.6179 138.882 19.5412 140.015 20.382C141.078 21.1813 142.239 21.5121 143.442 21.5121C146.592 21.5121 148.223 19.7341 148.553 17.8874C148.844 16.0819 148.306 14.4556 146.689 13.3806Z" fill="white"/>
<path d="M46.4964 5.30444H45.474H44.3547C44.3133 5.30444 44.2856 5.332 44.2718 5.35957L42.3788 11.5891C42.3512 11.6718 42.2407 11.6718 42.213 11.5891L40.32 5.35957C40.3062 5.31822 40.2785 5.30444 40.237 5.30444H39.1179H38.0953H36.7136C36.6721 5.30444 36.6306 5.34579 36.6306 5.38713V21.2917C36.6306 21.333 36.6721 21.3744 36.7136 21.3744H39.0211C39.0626 21.3744 39.1041 21.333 39.1041 21.2917V9.20476C39.1041 9.10829 39.2422 9.09457 39.2699 9.17721L41.1766 15.4481L41.3148 15.8891C41.3286 15.9305 41.3563 15.9443 41.3978 15.9443H43.1665C43.2078 15.9443 43.2355 15.9166 43.2493 15.8891L43.3875 15.4481L45.2943 9.17721C45.322 9.08074 45.4602 9.10829 45.4602 9.20476V21.2917C45.4602 21.333 45.5016 21.3744 45.543 21.3744H47.8506C47.892 21.3744 47.9335 21.333 47.9335 21.2917V5.38713C47.9335 5.34579 47.892 5.30444 47.8506 5.30444H46.4964Z" fill="white"/>
<path d="M111.356 5.30444C111.314 5.30444 111.287 5.332 111.273 5.35957L109.381 11.5891C109.353 11.6718 109.242 11.6718 109.215 11.5891L107.322 5.35957C107.308 5.31822 107.28 5.30444 107.239 5.30444H103.729C103.687 5.30444 103.646 5.34579 103.646 5.38713V21.2917C103.646 21.333 103.687 21.3744 103.729 21.3744H106.037C106.078 21.3744 106.12 21.333 106.12 21.2917V9.20476C106.12 9.10829 106.258 9.09457 106.286 9.17721L108.192 15.4481L108.33 15.8891C108.344 15.9305 108.371 15.9443 108.413 15.9443H110.182C110.223 15.9443 110.251 15.9166 110.265 15.8891L110.403 15.4481L112.31 9.17721C112.338 9.08074 112.476 9.10829 112.476 9.20476V21.2917C112.476 21.333 112.517 21.3744 112.559 21.3744H114.866C114.907 21.3744 114.949 21.333 114.949 21.2917V5.38713C114.949 5.34579 114.907 5.30444 114.866 5.30444H111.356Z" fill="white"/>
<path d="M81.5933 5.30444H77.2959H74.9884H70.6912C70.6497 5.30444 70.6082 5.34579 70.6082 5.38713V7.37172C70.6082 7.41309 70.6497 7.45447 70.6912 7.45447H74.9056V21.2917C74.9056 21.333 74.9469 21.3744 74.9884 21.3744H77.2959C77.3374 21.3744 77.3789 21.333 77.3789 21.2917V7.45447H81.5933C81.6348 7.45447 81.6761 7.41309 81.6761 7.37172V5.38713C81.6761 5.34579 81.6486 5.30444 81.5933 5.30444Z" fill="white"/>
<path d="M95.2031 21.374H97.3027C97.358 21.374 97.3995 21.3189 97.3856 21.2638L93.0471 5.30403C93.0333 5.26269 93.0057 5.2489 92.9642 5.2489H92.1629H90.7535H89.9521C89.9106 5.2489 89.883 5.27647 89.8691 5.30403L85.5304 21.2638C85.5166 21.3189 85.5581 21.374 85.6134 21.374H87.7136C87.7551 21.374 87.7827 21.3464 87.7966 21.3189L89.054 16.6742C89.0677 16.633 89.0954 16.6191 89.1368 16.6191H93.78C93.8215 16.6191 93.8491 16.6467 93.8629 16.6742L95.1201 21.3189C95.134 21.3464 95.1754 21.374 95.2031 21.374ZM89.6895 14.3451L91.3753 8.12932C91.4029 8.04668 91.5135 8.04668 91.5412 8.12932L93.2269 14.3451C93.2407 14.4002 93.1992 14.4553 93.1439 14.4553H89.7725C89.7172 14.4553 89.6758 14.4002 89.6895 14.3451Z" fill="white"/>
<path d="M131.019 21.374H133.119C133.174 21.374 133.216 21.3189 133.202 21.2638L128.863 5.30403C128.849 5.26269 128.822 5.2489 128.78 5.2489H127.979H126.57H125.768C125.727 5.2489 125.699 5.27647 125.685 5.30403L121.347 21.2638C121.333 21.3189 121.374 21.374 121.43 21.374H123.53C123.572 21.374 123.599 21.3464 123.613 21.3189L124.87 16.6742C124.884 16.633 124.912 16.6191 124.953 16.6191H129.596C129.638 16.6191 129.665 16.6467 129.679 16.6742L130.936 21.3189C130.95 21.3464 130.978 21.374 131.019 21.374ZM125.505 14.3451L127.191 8.12932C127.219 8.04668 127.329 8.04668 127.357 8.12932L129.043 14.3451C129.057 14.4002 129.015 14.4553 128.96 14.4553H125.588C125.533 14.4553 125.492 14.4002 125.505 14.3451Z" fill="white"/>
<path d="M57.302 19.0175V14.0835C57.302 14.0422 57.3434 14.0009 57.3849 14.0009H63.5337C63.5752 14.0009 63.6167 13.9595 63.6167 13.9181V11.9335C63.6167 11.8922 63.5752 11.8509 63.5337 11.8509H57.3849C57.3434 11.8509 57.302 11.8095 57.302 11.7681V7.55086C57.302 7.50948 57.3434 7.46811 57.3849 7.46811H64.3766C64.4181 7.46811 64.4596 7.42673 64.4596 7.38546V5.40081C64.4596 5.35947 64.4181 5.31812 64.3766 5.31812H57.302H54.9116C54.8701 5.31812 54.8286 5.35947 54.8286 5.40081V7.46811V11.8646V14.0147V19.114V21.2916C54.8286 21.3329 54.8701 21.3743 54.9116 21.3743H57.302H64.6668C64.7083 21.3743 64.7497 21.3329 64.7497 21.2916V19.1968C64.7497 19.1554 64.7083 19.114 64.6668 19.114H57.3711C57.3296 19.1003 57.302 19.0726 57.302 19.0175Z" fill="white"/>
<path d="M167.774 21.2365L159.787 13.0085C159.759 12.981 159.759 12.9259 159.787 12.8983L166.973 5.45594C167.028 5.40081 166.987 5.31812 166.918 5.31812H163.975C163.947 5.31812 163.933 5.3319 163.919 5.34568L157.826 11.6579C157.771 11.713 157.688 11.6716 157.688 11.6027V5.40081C157.688 5.35947 157.646 5.31812 157.605 5.31812H155.297C155.255 5.31812 155.214 5.35947 155.214 5.40081V21.3054C155.214 21.3468 155.255 21.3881 155.297 21.3881H157.605C157.646 21.3881 157.688 21.3468 157.688 21.3054V14.3041C157.688 14.2352 157.784 14.1938 157.826 14.2489L164.734 21.3605C164.748 21.3743 164.776 21.3881 164.789 21.3881H167.732C167.788 21.3743 167.829 21.2778 167.774 21.2365Z" fill="white"/>
<path d="M25.1984 1L15.2537 8.35837L17.103 4.02185L25.1984 1Z" stroke="white" stroke-width="0.75" stroke-linecap="round" stroke-linejoin="round"/>
<path d="M2.26016 1L12.1163 8.42705L10.3556 4.02184L2.26016 1Z" stroke="white" stroke-width="0.75" stroke-linecap="round" stroke-linejoin="round"/>
<path d="M21.617 18.0614L18.971 22.1036L24.6368 23.6636L26.2598 18.1498L21.617 18.0614Z" stroke="white" stroke-width="0.75" stroke-linecap="round" stroke-linejoin="round"/>
<path d="M1.20718 18.1498L2.82036 23.6636L8.47636 22.1036L5.84016 18.0614L1.20718 18.1498Z" stroke="white" stroke-width="0.75" stroke-linecap="round" stroke-linejoin="round"/>
<path d="M8.17067 11.2332L6.59686 13.6075L12.2036 13.8626L12.0168 7.82874L8.17067 11.2332Z" stroke="white" stroke-width="0.75" stroke-linecap="round" stroke-linejoin="round"/>
<path d="M19.2866 11.2331L15.3816 7.76001L15.2537 13.8626L20.8605 13.6075L19.2866 11.2331Z" stroke="white" stroke-width="0.75" stroke-linecap="round" stroke-linejoin="round"/>
<path d="M8.47549 22.1037L11.869 20.4653L8.94766 18.1891L8.47549 22.1037Z" stroke="white" stroke-width="0.75" stroke-linecap="round" stroke-linejoin="round"/>
<path d="M15.5889 20.4653L18.9726 22.1037L18.5103 18.1891L15.5889 20.4653Z" stroke="white" stroke-width="0.75" stroke-linecap="round" stroke-linejoin="round"/>
<path d="M18.9726 22.1038L15.5889 20.4653L15.8643 22.663L15.8348 23.5951L18.9726 22.1038Z" stroke="white" stroke-width="0.75" stroke-linecap="round" stroke-linejoin="round"/>
<path d="M8.47549 22.1038L11.6232 23.5951L11.6035 22.663L11.869 20.4653L8.47549 22.1038Z" stroke="white" stroke-width="0.75" stroke-linecap="round" stroke-linejoin="round"/>
<path d="M11.6826 16.7371L8.86935 15.913L10.8563 15.0005L11.6826 16.7371Z" fill="white" stroke="#233447" stroke-width="0.75" stroke-linecap="round" stroke-linejoin="round"/>
<path d="M15.7745 16.7371L16.6008 15.0005L18.5976 15.913L15.7745 16.7371Z" fill="white" stroke="#233447" stroke-width="0.75" stroke-linecap="round" stroke-linejoin="round"/>
<path d="M8.47648 22.1036L8.96834 18.0614L5.84033 18.1498L8.47648 22.1036Z" stroke="white" stroke-width="0.75" stroke-linecap="round" stroke-linejoin="round"/>
<path d="M18.4893 18.0614L18.9714 22.1036L21.6174 18.1498L18.4893 18.0614Z" stroke="white" stroke-width="0.75" stroke-linecap="round" stroke-linejoin="round"/>
<path d="M20.8605 13.6074L15.2537 13.8625L15.775 16.7372L16.6013 15.0006L18.5981 15.9131L20.8605 13.6074Z" stroke="white" stroke-width="0.75" stroke-linecap="round" stroke-linejoin="round"/>
<path d="M8.86908 15.9131L10.856 15.0006L11.6823 16.7372L12.2036 13.8625L6.59686 13.6074L8.86908 15.9131Z" stroke="white" stroke-width="0.75" stroke-linecap="round" stroke-linejoin="round"/>
<path d="M6.59808 13.6074L8.94902 18.1893L8.87027 15.9131L6.59808 13.6074Z" stroke="white" stroke-width="0.75" stroke-linecap="round" stroke-linejoin="round"/>
<path d="M18.5981 15.9131L18.5096 18.1893L20.8605 13.6074L18.5981 15.9131Z" stroke="white" stroke-width="0.75" stroke-linecap="round" stroke-linejoin="round"/>
<path d="M15.7757 16.7371L15.1166 20.1317L15.5888 20.4654L18.5103 18.1892L18.5988 15.913L15.7757 16.7371Z" stroke="white" stroke-width="0.75" stroke-linecap="round" stroke-linejoin="round"/>
<path d="M8.86935 15.913L8.9481 18.1892L11.8695 20.4654L12.3416 20.1317L11.6826 16.7371L8.86935 15.913Z" stroke="white" stroke-width="0.75" stroke-linecap="round" stroke-linejoin="round"/>
<path d="M15.8332 23.5951L15.8626 22.663L15.6069 22.4471H11.8494L11.6035 22.663L11.6232 23.5951L8.47549 22.1038L9.57717 23.0064L11.8101 24.5468H15.6364L17.8791 23.0064L18.971 22.1038L15.8332 23.5951Z" stroke="white" stroke-width="0.75" stroke-linecap="round" stroke-linejoin="round"/>
<path d="M15.589 20.4652L15.1168 20.1317H12.3429L11.8708 20.4652L11.6052 22.663L11.8511 22.4471H15.6086L15.8644 22.663L15.589 20.4652Z" fill="white"/>
<path d="M25.6221 8.8391L26.4582 4.7773L25.1991 1L15.5889 8.11313L19.2874 11.233L24.5106 12.7538L25.6614 11.4097L25.1598 11.0466L25.9565 10.3206L25.3467 9.84969L26.1435 9.24138L25.6221 8.8391Z" stroke="white" stroke-width="0.75" stroke-linecap="round" stroke-linejoin="round"/>
<path d="M1 4.7773L1.84594 8.8391L1.30493 9.24138L2.11152 9.84969L1.50166 10.3206L2.29841 11.0466L1.79675 11.4097L2.94762 12.7538L8.17082 11.233L11.8693 8.11313L2.25907 1L1 4.7773Z" stroke="white" stroke-width="0.75" stroke-linecap="round" stroke-linejoin="round"/>
<path d="M24.5099 12.7537L19.2867 11.233L20.8605 13.6074L18.5096 18.1891L21.6179 18.1499H26.2607L24.5099 12.7537Z" stroke="white" stroke-width="0.75" stroke-linecap="round" stroke-linejoin="round"/>
<path d="M8.17137 11.233L2.94824 12.7537L1.20718 18.1499H5.84016L8.94845 18.1891L6.59757 13.6074L8.17137 11.233Z" stroke="white" stroke-width="0.75" stroke-linecap="round" stroke-linejoin="round"/>
<path d="M15.2535 13.8623L15.588 8.11295L17.1027 4.02173H10.3549L11.8697 8.11295L12.2042 13.8623L12.3321 15.6676L12.3419 20.1317H15.1158L15.1256 15.6676L15.2535 13.8623Z" stroke="white" stroke-width="0.75" stroke-linecap="round" stroke-linejoin="round"/>
</svg>
