<svg width="210" height="31" viewBox="0 0 210 31" fill="none" xmlns="http://www.w3.org/2000/svg">
<g opacity="0.4">
<path d="M183.114 16.477C181.939 15.7017 180.644 15.1505 179.418 14.4614C178.623 14.0135 177.776 13.6171 177.086 13.0486C175.911 12.0839 176.153 10.1889 177.38 9.36192C179.142 8.19045 182.06 8.84499 182.371 11.2398C182.371 11.2914 182.423 11.3259 182.475 11.3259H185.135C185.205 11.3259 185.256 11.2742 185.239 11.2053C185.101 9.55138 184.461 8.17317 183.287 7.29454C182.164 6.45037 180.886 6.00244 179.521 6.00244C172.491 6.00244 171.852 13.4277 175.634 15.7708C176.067 16.0464 179.78 17.9069 181.094 18.7166C182.406 19.5263 182.821 21.008 182.25 22.1794C181.732 23.2476 180.385 23.9884 179.038 23.9023C177.569 23.8161 176.429 23.0237 176.032 21.7832C175.963 21.5593 175.928 21.1286 175.928 20.9391C175.928 20.8874 175.876 20.8357 175.825 20.8357H172.941C172.889 20.8357 172.837 20.8874 172.837 20.9391C172.837 23.0237 173.356 24.1779 174.772 25.2289C176.101 26.2281 177.552 26.6415 179.055 26.6415C182.993 26.6415 185.032 24.4191 185.445 22.1106C185.808 19.8537 185.135 17.8208 183.114 16.477Z" fill="white"/>
<path d="M57.8716 6.38159H56.5935H55.1944C55.1425 6.38159 55.108 6.41604 55.0907 6.4505L52.7245 14.2375C52.6899 14.341 52.5518 14.341 52.5172 14.2375L50.1509 6.4505C50.1336 6.39881 50.099 6.38159 50.0472 6.38159H48.6482H47.37H45.6428C45.5909 6.38159 45.5391 6.43327 45.5391 6.48495V26.3661C45.5391 26.4177 45.5909 26.4694 45.6428 26.4694H48.5272C48.5791 26.4694 48.6309 26.4177 48.6309 26.3661V11.2571C48.6309 11.1365 48.8036 11.1193 48.8382 11.2226L51.2217 19.0614L51.3944 19.6126C51.4117 19.6643 51.4462 19.6816 51.4981 19.6816H53.709C53.7607 19.6816 53.7953 19.6471 53.8126 19.6126L53.9853 19.0614L56.3689 11.2226C56.4035 11.1021 56.5762 11.1365 56.5762 11.2571V26.3661C56.5762 26.4177 56.628 26.4694 56.6798 26.4694H59.5643C59.6161 26.4694 59.6679 26.4177 59.6679 26.3661V6.48495C59.6679 6.43327 59.6161 6.38159 59.5643 6.38159H57.8716Z" fill="white"/>
<path d="M138.947 6.38159C138.895 6.38159 138.861 6.41604 138.844 6.4505L136.478 14.2375C136.444 14.341 136.305 14.341 136.271 14.2375L133.904 6.4505C133.887 6.39881 133.852 6.38159 133.801 6.38159H129.413C129.361 6.38159 129.309 6.43327 129.309 6.48495V26.3661C129.309 26.4177 129.361 26.4694 129.413 26.4694H132.298C132.35 26.4694 132.402 26.4177 132.402 26.3661V11.2571C132.402 11.1365 132.575 11.1193 132.609 11.2226L134.992 19.0614L135.165 19.6126C135.182 19.6643 135.217 19.6816 135.268 19.6816H137.479C137.531 19.6816 137.566 19.6471 137.583 19.6126L137.756 19.0614L140.14 11.2226C140.174 11.1021 140.347 11.1365 140.347 11.2571V26.3661C140.347 26.4177 140.399 26.4694 140.451 26.4694H143.335C143.387 26.4694 143.439 26.4177 143.439 26.3661V6.48495C143.439 6.43327 143.387 6.38159 143.335 6.38159H138.947Z" fill="white"/>
<path d="M101.743 6.38159H96.3716H93.4872H88.1155C88.0637 6.38159 88.0118 6.43327 88.0118 6.48495V8.96573C88.0118 9.01745 88.0637 9.06917 88.1155 9.06917H93.3836V26.3661C93.3836 26.4177 93.4353 26.4694 93.4872 26.4694H96.3716C96.4235 26.4694 96.4754 26.4177 96.4754 26.3661V9.06917H101.743C101.795 9.06917 101.847 9.01745 101.847 8.96573V6.48495C101.847 6.43327 101.813 6.38159 101.743 6.38159Z" fill="white"/>
<path d="M118.756 26.4689H121.38C121.45 26.4689 121.501 26.4001 121.484 26.3312L116.061 6.38117C116.044 6.32949 116.009 6.31226 115.957 6.31226H114.956H113.194H112.192C112.14 6.31226 112.106 6.34672 112.088 6.38117L106.665 26.3312C106.648 26.4001 106.699 26.4689 106.769 26.4689H109.394C109.446 26.4689 109.48 26.4345 109.498 26.4001L111.069 20.5942C111.087 20.5426 111.121 20.5253 111.173 20.5253H116.977C117.029 20.5253 117.063 20.5597 117.081 20.5942L118.652 26.4001C118.67 26.4345 118.721 26.4689 118.756 26.4689ZM111.864 17.6827L113.971 9.91285C114.006 9.80954 114.144 9.80954 114.178 9.91285L116.286 17.6827C116.303 17.7516 116.251 17.8205 116.182 17.8205H111.968C111.898 17.8205 111.847 17.7516 111.864 17.6827Z" fill="white"/>
<path d="M163.527 26.4689H166.151C166.221 26.4689 166.272 26.4001 166.255 26.3312L160.832 6.38117C160.815 6.32949 160.78 6.31226 160.728 6.31226H159.727H157.965H156.963C156.911 6.31226 156.876 6.34672 156.859 6.38117L151.436 26.3312C151.419 26.4001 151.471 26.4689 151.54 26.4689H154.166C154.217 26.4689 154.252 26.4345 154.269 26.4001L155.841 20.5942C155.858 20.5426 155.893 20.5253 155.944 20.5253H161.748C161.8 20.5253 161.834 20.5597 161.852 20.5942L163.423 26.4001C163.44 26.4345 163.475 26.4689 163.527 26.4689ZM156.635 17.6827L158.742 9.91285C158.776 9.80954 158.915 9.80954 158.949 9.91285L161.057 17.6827C161.074 17.7516 161.022 17.8205 160.953 17.8205H156.738C156.669 17.8205 156.617 17.7516 156.635 17.6827Z" fill="white"/>
<path d="M71.3787 23.5233V17.3556C71.3787 17.304 71.4306 17.2523 71.4824 17.2523H79.1685C79.2204 17.2523 79.2723 17.2006 79.2723 17.1489V14.6681C79.2723 14.6165 79.2204 14.5648 79.1685 14.5648H71.4824C71.4306 14.5648 71.3787 14.513 71.3787 14.4613V9.18966C71.3787 9.13794 71.4306 9.08622 71.4824 9.08622H80.2222C80.2741 9.08622 80.3259 9.0345 80.3259 8.98291V6.50205C80.3259 6.45037 80.2741 6.39868 80.2222 6.39868H71.3787H68.3907C68.3388 6.39868 68.287 6.45037 68.287 6.50205V9.08622V14.5819V17.2696V23.6439V26.3658C68.287 26.4176 68.3388 26.4693 68.3907 26.4693H71.3787H80.5849C80.6368 26.4693 80.6886 26.4176 80.6886 26.3658V23.7473C80.6886 23.6956 80.6368 23.6439 80.5849 23.6439H71.4651C71.4133 23.6267 71.3787 23.5921 71.3787 23.5233Z" fill="white"/>
<path d="M209.471 26.297L199.487 16.0118C199.453 15.9774 199.453 15.9085 199.487 15.8741L208.47 6.57097C208.539 6.50205 208.487 6.39868 208.401 6.39868H204.722C204.687 6.39868 204.67 6.41591 204.653 6.43314L197.036 14.3236C196.967 14.3925 196.863 14.3407 196.863 14.2546V6.50205C196.863 6.45037 196.811 6.39868 196.759 6.39868H193.874C193.822 6.39868 193.77 6.45037 193.77 6.50205V26.3831C193.77 26.4348 193.822 26.4866 193.874 26.4866H196.759C196.811 26.4866 196.863 26.4348 196.863 26.3831V17.6314C196.863 17.5452 196.984 17.4935 197.036 17.5624L205.671 26.452C205.689 26.4693 205.723 26.4866 205.74 26.4866H209.419C209.488 26.4693 209.54 26.3487 209.471 26.297Z" fill="white"/>
<path d="M31.2486 1.00098L18.8175 10.1991L21.1291 4.77835L31.2486 1.00098Z" stroke="white" stroke-width="0.75" stroke-linecap="round" stroke-linejoin="round"/>
<path d="M2.57523 1.00098L14.8956 10.285L12.6947 4.77834L2.57523 1.00098Z" stroke="white" stroke-width="0.75" stroke-linecap="round" stroke-linejoin="round"/>
<path d="M26.7717 22.3281L23.4641 27.381L30.5465 29.331L32.5754 22.4386L26.7717 22.3281Z" stroke="white" stroke-width="0.75" stroke-linecap="round" stroke-linejoin="round"/>
<path d="M1.259 22.4386L3.27551 29.331L10.3456 27.381L7.05032 22.3281L1.259 22.4386Z" stroke="white" stroke-width="0.75" stroke-linecap="round" stroke-linejoin="round"/>
<path d="M9.96351 13.7927L7.99622 16.7607L15.0048 17.0796L14.7712 9.53711L9.96351 13.7927Z" stroke="white" stroke-width="0.75" stroke-linecap="round" stroke-linejoin="round"/>
<path d="M23.8587 13.7927L18.9773 9.45117L18.8175 17.0795L25.826 16.7606L23.8587 13.7927Z" stroke="white" stroke-width="0.75" stroke-linecap="round" stroke-linejoin="round"/>
<path d="M10.3445 27.3812L14.5866 25.3331L10.9348 22.4878L10.3445 27.3812Z" stroke="white" stroke-width="0.75" stroke-linecap="round" stroke-linejoin="round"/>
<path d="M19.2365 25.3331L23.4662 27.3812L22.8883 22.4878L19.2365 25.3331Z" stroke="white" stroke-width="0.75" stroke-linecap="round" stroke-linejoin="round"/>
<path d="M23.4662 27.3811L19.2365 25.333L19.5807 28.0802L19.5438 29.2453L23.4662 27.3811Z" stroke="white" stroke-width="0.75" stroke-linecap="round" stroke-linejoin="round"/>
<path d="M10.3445 27.3811L14.2792 29.2453L14.2546 28.0802L14.5866 25.333L10.3445 27.3811Z" stroke="white" stroke-width="0.75" stroke-linecap="round" stroke-linejoin="round"/>
<path d="M14.3535 20.6726L10.8369 19.6424L13.3206 18.5018L14.3535 20.6726Z" fill="white" stroke="#233447" stroke-width="0.75" stroke-linecap="round" stroke-linejoin="round"/>
<path d="M19.4685 20.6726L20.5014 18.5018L22.9974 19.6424L19.4685 20.6726Z" fill="white" stroke="#233447" stroke-width="0.75" stroke-linecap="round" stroke-linejoin="round"/>
<path d="M10.3458 27.381L10.9606 22.3281L7.05051 22.4386L10.3458 27.381Z" stroke="white" stroke-width="0.75" stroke-linecap="round" stroke-linejoin="round"/>
<path d="M22.8621 22.3281L23.4646 27.381L26.7722 22.4386L22.8621 22.3281Z" stroke="white" stroke-width="0.75" stroke-linecap="round" stroke-linejoin="round"/>
<path d="M25.826 16.7605L18.8175 17.0794L19.4691 20.6728L20.502 18.502L22.9981 19.6426L25.826 16.7605Z" stroke="white" stroke-width="0.75" stroke-linecap="round" stroke-linejoin="round"/>
<path d="M10.8365 19.6426L13.3203 18.502L14.3532 20.6728L15.0048 17.0794L7.99622 16.7605L10.8365 19.6426Z" stroke="white" stroke-width="0.75" stroke-linecap="round" stroke-linejoin="round"/>
<path d="M7.99771 16.7605L10.9364 22.4879L10.838 19.6426L7.99771 16.7605Z" stroke="white" stroke-width="0.75" stroke-linecap="round" stroke-linejoin="round"/>
<path d="M22.998 19.6426L22.8874 22.4879L25.8261 16.7605L22.998 19.6426Z" stroke="white" stroke-width="0.75" stroke-linecap="round" stroke-linejoin="round"/>
<path d="M19.4699 20.6728L18.6461 24.9161L19.2363 25.3332L22.8882 22.4879L22.9989 19.6426L19.4699 20.6728Z" stroke="white" stroke-width="0.75" stroke-linecap="round" stroke-linejoin="round"/>
<path d="M10.8369 19.6426L10.9353 22.4879L14.5871 25.3332L15.1773 24.9161L14.3535 20.6728L10.8369 19.6426Z" stroke="white" stroke-width="0.75" stroke-linecap="round" stroke-linejoin="round"/>
<path d="M19.5418 29.2453L19.5786 28.0802L19.259 27.8103H14.562L14.2546 28.0802L14.2792 29.2453L10.3445 27.3811L11.7217 28.5094L14.5128 30.4349H19.2958L22.0993 28.5094L23.4641 27.3811L19.5418 29.2453Z" stroke="white" stroke-width="0.75" stroke-linecap="round" stroke-linejoin="round"/>
<path d="M19.2365 25.3329L18.6463 24.916H15.1789L14.5888 25.3329L14.2567 28.0802L14.5642 27.8103H19.2611L19.5809 28.0802L19.2365 25.3329Z" fill="white"/>
<path d="M31.7781 10.8L32.8233 5.72269L31.2494 1.00098L19.2365 9.89255L23.8596 13.7925L30.3887 15.6935L31.8274 14.0133L31.2003 13.5595L32.1962 12.652L31.4339 12.0633L32.4299 11.3029L31.7781 10.8Z" stroke="white" stroke-width="0.75" stroke-linecap="round" stroke-linejoin="round"/>
<path d="M1 5.72269L2.05744 10.8L1.38117 11.3029L2.38943 12.0633L1.62709 12.652L2.62304 13.5595L1.99596 14.0133L3.43457 15.6935L9.96369 13.7925L14.5868 9.89255L2.57387 1.00098L1 5.72269Z" stroke="white" stroke-width="0.75" stroke-linecap="round" stroke-linejoin="round"/>
<path d="M30.3878 15.6934L23.8588 13.7925L25.8261 16.7604L22.8874 22.4878L26.7729 22.4387H32.5765L30.3878 15.6934Z" stroke="white" stroke-width="0.75" stroke-linecap="round" stroke-linejoin="round"/>
<path d="M9.96439 13.7925L3.43536 15.6934L1.259 22.4387H7.05032L10.9358 22.4878L7.9971 16.7604L9.96439 13.7925Z" stroke="white" stroke-width="0.75" stroke-linecap="round" stroke-linejoin="round"/>
<path d="M18.8172 17.0792L19.2353 9.89232L21.1288 4.7782H12.6939L14.5874 9.89232L15.0055 17.0792L15.1653 19.3358L15.1776 24.916H18.645L18.6573 19.3358L18.8172 17.0792Z" stroke="white" stroke-width="0.75" stroke-linecap="round" stroke-linejoin="round"/>
</g>
</svg>
