<svg width="82" height="21" viewBox="0 0 82 21" fill="none" xmlns="http://www.w3.org/2000/svg">
<path d="M4.23017 20.9726H0.307129V0.539061H1.24866L2.80361 2.3213C3.15549 1.99893 3.54066 1.69498 3.95912 1.40945C4.37758 1.12393 4.8103 0.87985 5.25729 0.677218C5.71379 0.465376 6.18455 0.299586 6.66958 0.17985C7.15461 0.0601128 7.6444 0.000244141 8.13894 0.000244141C9.21361 0.000244141 10.2217 0.18906 11.1632 0.566692C12.1143 0.935113 12.9417 1.46011 13.6455 2.14169C14.3587 2.82327 14.9198 3.64761 15.3288 4.61472C15.7377 5.57261 15.9422 6.63643 15.9422 7.80616C15.9422 9.02195 15.7377 10.118 15.3288 11.0943C14.9198 12.0614 14.3587 12.8858 13.6455 13.5673C12.9417 14.2397 12.1143 14.7555 11.1632 15.1147C10.2217 15.4739 9.21361 15.6535 8.13894 15.6535C7.79656 15.6535 7.45419 15.6167 7.11181 15.543C6.77895 15.4693 6.44609 15.3726 6.11322 15.2529C5.78987 15.1239 5.46652 14.9812 5.14316 14.8246C4.82932 14.668 4.52499 14.5068 4.23017 14.341V20.9726ZM12.0334 7.80616C12.0334 7.17985 11.9288 6.61801 11.7196 6.12064C11.5199 5.62327 11.2441 5.20419 10.8922 4.8634C10.5403 4.5134 10.1266 4.2463 9.65109 4.06209C9.17557 3.87788 8.67152 3.78577 8.13894 3.78577C7.60635 3.78577 7.1023 3.87788 6.62678 4.06209C6.16077 4.2463 5.75183 4.5134 5.39994 4.8634C5.04806 5.20419 4.7675 5.62327 4.55827 6.12064C4.35856 6.61801 4.2587 7.17985 4.2587 7.80616C4.2587 8.40485 4.35856 8.95288 4.55827 9.45024C4.7675 9.94761 5.04806 10.3713 5.39994 10.7213C5.75183 11.0713 6.16077 11.343 6.62678 11.5364C7.1023 11.7299 7.60635 11.8266 8.13894 11.8266C8.67152 11.8266 9.17557 11.7299 9.65109 11.5364C10.1266 11.343 10.5403 11.0713 10.8922 10.7213C11.2441 10.3713 11.5199 9.94761 11.7196 9.45024C11.9288 8.95288 12.0334 8.40485 12.0334 7.80616Z" fill="white"/>
<path d="M22.0051 15.3358H18.1106V0.539061H19.0521L20.336 2.29366C20.9637 1.74103 21.677 1.31735 22.4759 1.02261C23.2747 0.718665 24.1021 0.566692 24.9581 0.566692H28.3961V4.32459H24.9581C24.5491 4.32459 24.1639 4.39827 23.8026 4.54564C23.4412 4.69301 23.1273 4.89564 22.861 5.15353C22.5947 5.41143 22.3855 5.71538 22.2333 6.06538C22.0812 6.41538 22.0051 6.7884 22.0051 7.18446V15.3358Z" fill="white"/>
<path d="M33.7742 20.9726V17.1733L35.9426 17.2009C36.323 17.2009 36.6891 17.141 37.041 17.0213C37.3929 16.9016 37.7163 16.7358 38.0111 16.5239C38.3154 16.3121 38.5817 16.0588 38.8099 15.7641C39.0382 15.4785 39.2237 15.1654 39.3663 14.8246C38.9383 14.9996 38.5009 15.1746 38.0539 15.3496C37.6164 15.5246 37.1742 15.6121 36.7272 15.6121C35.7856 15.6121 34.9012 15.4509 34.0738 15.1285C33.2464 14.8062 32.5188 14.3502 31.8911 13.7608C31.273 13.1621 30.7832 12.4391 30.4218 11.5917C30.0699 10.7351 29.894 9.77722 29.894 8.71801V0.539061H33.7742V8.71801C33.7742 9.24301 33.8503 9.70353 34.0024 10.0996C34.1641 10.4864 34.3781 10.8134 34.6444 11.0805C34.9107 11.3384 35.2198 11.5318 35.5717 11.6608C35.9331 11.7897 36.3182 11.8542 36.7272 11.8542C37.1266 11.8542 37.5023 11.7667 37.8542 11.5917C38.2156 11.4075 38.5294 11.168 38.7957 10.8733C39.062 10.5785 39.2712 10.247 39.4234 9.87853C39.5755 9.5009 39.6516 9.11406 39.6516 8.71801V0.539061H43.5747V13.4706C43.5651 14.5114 43.3559 15.4877 42.947 16.3996C42.538 17.3114 41.9769 18.1081 41.2636 18.7897C40.5599 19.4713 39.7372 20.0101 38.7957 20.4062C37.8542 20.8022 36.8461 21.0002 35.7714 21.0002L33.7742 20.9726Z" fill="white"/>
<path d="M54.9443 15.3358H46.0426V11.5779H54.9443C55.2106 11.5779 55.4389 11.4858 55.6291 11.3016C55.8193 11.1173 55.9144 10.8963 55.9144 10.6384C55.9144 10.3713 55.8193 10.1963 55.6291 10.1134C55.4389 10.0305 55.2106 9.98906 54.9443 9.98906H50.8929C50.2177 9.98906 49.5852 9.86472 48.9956 9.61603C48.4059 9.36735 47.8924 9.03116 47.4549 8.60748C47.0174 8.17458 46.6703 7.67261 46.4135 7.10156C46.1662 6.53051 46.0426 5.91801 46.0426 5.26406C46.0426 4.61011 46.1662 3.99761 46.4135 3.42656C46.6703 2.85551 47.0174 2.35814 47.4549 1.93446C47.8924 1.51077 48.4059 1.17919 48.9956 0.939718C49.5852 0.691034 50.2177 0.566692 50.8929 0.566692H58.7818V4.32459H50.8929C50.6266 4.32459 50.3984 4.41669 50.2082 4.6009C50.0179 4.78511 49.9228 5.00617 49.9228 5.26406C49.9228 5.53117 50.0179 5.76143 50.2082 5.95485C50.3984 6.13906 50.6266 6.23116 50.8929 6.23116H54.9443C55.6101 6.23116 56.2377 6.34169 56.8274 6.56274C57.417 6.77459 57.9306 7.07393 58.3681 7.46077C58.8055 7.84761 59.1527 8.31274 59.4095 8.85616C59.6662 9.39958 59.7946 9.99366 59.7946 10.6384C59.7946 11.2923 59.6662 11.9048 59.4095 12.4759C59.1527 13.0377 58.8055 13.5351 58.3681 13.968C57.9306 14.3917 57.417 14.7279 56.8274 14.9766C56.2377 15.216 55.6101 15.3358 54.9443 15.3358Z" fill="white"/>
<path d="M81.3071 15.3358H77.4269V5.94103C77.4269 5.68314 77.3746 5.43906 77.27 5.2088C77.1749 4.97853 77.037 4.7759 76.8563 4.6009C76.6756 4.4259 76.4663 4.29235 76.2286 4.20024C75.9908 4.09893 75.7388 4.04827 75.4725 4.04827C75.2062 4.04827 74.9542 4.09893 74.7164 4.20024C74.4882 4.29235 74.2837 4.4259 74.103 4.6009C73.9318 4.7759 73.7939 4.97853 73.6893 5.2088C73.5942 5.43906 73.5467 5.68314 73.5467 5.94103V15.3358H69.6521V5.94103C69.6521 5.68314 69.5998 5.43906 69.4952 5.2088C69.4001 4.97853 69.2622 4.7759 69.0815 4.6009C68.9008 4.4259 68.6916 4.29235 68.4538 4.20024C68.2161 4.09893 67.9641 4.04827 67.6978 4.04827C67.4315 4.04827 67.1794 4.09893 66.9417 4.20024C66.7134 4.29235 66.509 4.4259 66.3283 4.6009C66.1571 4.7759 66.0192 4.97853 65.9146 5.2088C65.8195 5.43906 65.7719 5.68314 65.7719 5.94103V15.3358H61.8774V0.539061H62.8189L63.8746 1.67196C64.4167 1.22985 65.0111 0.889061 65.6578 0.649587C66.314 0.400903 66.994 0.276561 67.6978 0.276561C68.411 0.276561 69.1053 0.405508 69.7805 0.663403C70.4653 0.921298 71.0644 1.36801 71.578 2.00353C71.8158 1.69038 72.0868 1.42327 72.3911 1.20222C72.6955 0.981165 73.0141 0.801561 73.3469 0.663403C73.6893 0.525245 74.0412 0.428534 74.4026 0.373271C74.764 0.308797 75.1206 0.276561 75.4725 0.276561C76.2809 0.276561 77.037 0.423929 77.7407 0.718666C78.454 1.0134 79.0722 1.41867 79.5953 1.93446C80.1278 2.44103 80.5463 3.03972 80.8506 3.73051C81.155 4.4213 81.3071 5.15814 81.3071 5.94103V15.3358Z" fill="white"/>
</svg>
