<svg width="91" height="25" viewBox="0 0 91 25" fill="none" xmlns="http://www.w3.org/2000/svg">
<path d="M4.85023 24.1487H0.475464V0.620423H1.52541L3.25941 2.67259C3.65181 2.30139 4.08134 1.95141 4.54798 1.62264C5.01462 1.29387 5.49717 1.01283 5.99563 0.779505C6.50469 0.535578 7.02966 0.344679 7.57055 0.206808C8.11143 0.068936 8.65761 0 9.2091 0C10.4075 0 11.5317 0.217413 12.5816 0.652238C13.6422 1.07646 14.5649 1.68097 15.3497 2.46578C16.1451 3.25059 16.7708 4.19978 17.2269 5.31336C17.6829 6.41633 17.9109 7.64126 17.9109 8.98816C17.9109 10.3881 17.6829 11.6501 17.2269 12.7743C16.7708 13.8879 16.1451 14.8371 15.3497 15.6219C14.5649 16.3961 13.6422 16.99 12.5816 17.4036C11.5317 17.8172 10.4075 18.0241 9.2091 18.0241C8.8273 18.0241 8.4455 17.9816 8.0637 17.8968C7.69251 17.8119 7.32132 17.7006 6.95012 17.5627C6.58954 17.4142 6.22895 17.2498 5.86836 17.0696C5.51838 16.8893 5.179 16.7037 4.85023 16.5128V24.1487ZM13.552 8.98816C13.552 8.26699 13.4354 7.62005 13.2021 7.04736C12.9794 6.47466 12.6718 5.99211 12.2794 5.59971C11.887 5.1967 11.4256 4.88914 10.8954 4.67703C10.3651 4.46492 9.803 4.35886 9.2091 4.35886C8.61519 4.35886 8.0531 4.46492 7.52282 4.67703C7.00315 4.88914 6.54711 5.1967 6.15471 5.59971C5.76231 5.99211 5.44944 6.47466 5.21612 7.04736C4.99341 7.62005 4.88205 8.26699 4.88205 8.98816C4.88205 9.67752 4.99341 10.3085 5.21612 10.8812C5.44944 11.4539 5.76231 11.9418 6.15471 12.3448C6.54711 12.7478 7.00315 13.0607 7.52282 13.2834C8.0531 13.5061 8.61519 13.6175 9.2091 13.6175C9.803 13.6175 10.3651 13.5061 10.8954 13.2834C11.4256 13.0607 11.887 12.7478 12.2794 12.3448C12.6718 11.9418 12.9794 11.4539 13.2021 10.8812C13.4354 10.3085 13.552 9.67752 13.552 8.98816Z" fill="white"/>
<path d="M24.6719 17.6582H20.329V0.620423H21.3789L22.8107 2.64077C23.5106 2.00444 24.306 1.51659 25.1969 1.17721C26.0878 0.827229 27.0104 0.652238 27.9649 0.652238H31.7988V4.97928H27.9649C27.5089 4.97928 27.0794 5.06413 26.6764 5.23382C26.2733 5.4035 25.9234 5.63683 25.6264 5.93378C25.3295 6.23073 25.0961 6.58071 24.9264 6.98372C24.7568 7.38673 24.6719 7.81626 24.6719 8.27229V17.6582Z" fill="white"/>
<path d="M37.7962 24.1487V19.774L40.2143 19.8058C40.6385 19.8058 41.0468 19.7368 41.4392 19.599C41.8316 19.4611 42.1922 19.2702 42.521 19.0263C42.8604 18.7823 43.1573 18.4907 43.4118 18.1513C43.6664 17.8225 43.8732 17.462 44.0323 17.0696C43.555 17.2711 43.0672 17.4726 42.5687 17.6741C42.0809 17.8756 41.5877 17.9763 41.0892 17.9763C40.0393 17.9763 39.053 17.7907 38.1303 17.4195C37.2076 17.0483 36.3963 16.5234 35.6963 15.8446C35.007 15.1553 34.4608 14.3227 34.0578 13.347C33.6654 12.3607 33.4692 11.2577 33.4692 10.0381V0.620423H37.7962V10.0381C37.7962 10.6426 37.8811 11.1729 38.0508 11.6289C38.2311 12.0744 38.4697 12.4509 38.7666 12.7584C39.0636 13.0554 39.4083 13.2781 39.8007 13.4266C40.2037 13.575 40.6332 13.6493 41.0892 13.6493C41.5347 13.6493 41.9536 13.5485 42.346 13.347C42.749 13.1349 43.099 12.8592 43.3959 12.5198C43.6929 12.1804 43.9262 11.7986 44.0959 11.3744C44.2656 10.9396 44.3504 10.4941 44.3504 10.0381V0.620423H48.7252V15.5105C48.7146 16.709 48.4813 17.8332 48.0252 18.8831C47.5692 19.933 46.9435 20.8504 46.1481 21.6352C45.3633 22.42 44.4459 23.0405 43.3959 23.4965C42.346 23.9525 41.2218 24.1805 40.0234 24.1805L37.7962 24.1487Z" fill="white"/>
<path d="M61.4041 17.6582H51.4773V13.3311H61.4041C61.701 13.3311 61.9556 13.2251 62.1677 13.013C62.3798 12.8008 62.4858 12.5463 62.4858 12.2494C62.4858 11.9418 62.3798 11.7403 62.1677 11.6448C61.9556 11.5494 61.701 11.5017 61.4041 11.5017H56.8861C56.1331 11.5017 55.4279 11.3585 54.7703 11.0721C54.1128 10.7858 53.5401 10.3987 53.0522 9.91084C52.5644 9.41238 52.1773 8.83438 51.8909 8.17684C51.6152 7.5193 51.4773 6.81403 51.4773 6.06104C51.4773 5.30805 51.6152 4.60279 51.8909 3.94525C52.1773 3.28771 52.5644 2.71501 53.0522 2.22716C53.5401 1.7393 54.1128 1.3575 54.7703 1.08176C55.4279 0.795413 56.1331 0.652238 56.8861 0.652238H65.6834V4.97928H56.8861C56.5892 4.97928 56.3346 5.08534 56.1225 5.29745C55.9104 5.50956 55.8044 5.76409 55.8044 6.06104C55.8044 6.3686 55.9104 6.63374 56.1225 6.85646C56.3346 7.06857 56.5892 7.17462 56.8861 7.17462H61.4041C62.1465 7.17462 62.8464 7.30189 63.504 7.55642C64.1615 7.80035 64.7342 8.14503 65.2221 8.59046C65.7099 9.03589 66.097 9.57146 66.3834 10.1972C66.6697 10.8229 66.8129 11.507 66.8129 12.2494C66.8129 13.0023 66.6697 13.7076 66.3834 14.3652C66.097 15.0121 65.7099 15.5848 65.2221 16.0832C64.7342 16.5711 64.1615 16.9582 63.504 17.2445C62.8464 17.5203 62.1465 17.6582 61.4041 17.6582Z" fill="white"/>
<path d="M90.8025 17.6582H86.4755V6.84055C86.4755 6.5436 86.4172 6.26255 86.3005 5.99741C86.1944 5.73227 86.0406 5.49895 85.8391 5.29745C85.6376 5.09594 85.4043 4.94216 85.1392 4.83611C84.874 4.71945 84.593 4.66112 84.296 4.66112C83.9991 4.66112 83.718 4.71945 83.4529 4.83611C83.1984 4.94216 82.9704 5.09594 82.7689 5.29745C82.578 5.49895 82.4242 5.73227 82.3075 5.99741C82.2015 6.26255 82.1484 6.5436 82.1484 6.84055V17.6582H77.8055V6.84055C77.8055 6.5436 77.7471 6.26255 77.6305 5.99741C77.5244 5.73227 77.3707 5.49895 77.1692 5.29745C76.9676 5.09594 76.7343 4.94216 76.4692 4.83611C76.2041 4.71945 75.923 4.66112 75.6261 4.66112C75.3291 4.66112 75.048 4.71945 74.7829 4.83611C74.5284 4.94216 74.3004 5.09594 74.0989 5.29745C73.908 5.49895 73.7542 5.73227 73.6375 5.99741C73.5315 6.26255 73.4784 6.5436 73.4784 6.84055V17.6582H69.1355V0.620423H70.1854L71.3626 1.9249C71.9671 1.41584 72.63 1.02343 73.3512 0.747689C74.0829 0.461341 74.8412 0.318166 75.6261 0.318166C76.4215 0.318166 77.1957 0.466643 77.9487 0.763597C78.7122 1.06055 79.3804 1.57492 79.9531 2.3067C80.2182 1.94611 80.5205 1.63855 80.8599 1.38402C81.1992 1.12949 81.5545 0.92268 81.9257 0.763597C82.3075 0.604515 82.6999 0.493156 83.1029 0.429523C83.5059 0.355285 83.9036 0.318166 84.296 0.318166C85.1975 0.318166 86.0406 0.487854 86.8255 0.82723C87.6209 1.16661 88.3102 1.63325 88.8935 2.22716C89.4874 2.81046 89.9541 3.49982 90.2935 4.29523C90.6328 5.09064 90.8025 5.93908 90.8025 6.84055V17.6582Z" fill="white"/>
</svg>
