<svg width="105" height="28" viewBox="0 0 105 28" fill="none" xmlns="http://www.w3.org/2000/svg">
<path opacity="0.4" d="M5.51369 27.7897H0.497587V0.812198H1.70145L3.68965 3.16521C4.13958 2.7396 4.63208 2.33831 5.16713 1.96134C5.70218 1.58437 6.25547 1.26213 6.827 0.994602C7.41069 0.714916 8.01263 0.496031 8.6328 0.337948C9.25297 0.179865 9.87923 0.100823 10.5116 0.100823C11.8857 0.100823 13.1747 0.350108 14.3785 0.848679C15.5945 1.33509 16.6525 2.02822 17.5524 2.92808C18.4644 3.82794 19.1818 4.91629 19.7047 6.19311C20.2276 7.45778 20.4891 8.86229 20.4891 10.4066C20.4891 12.0118 20.2276 13.4589 19.7047 14.7479C19.1818 16.0247 18.4644 17.113 17.5524 18.0129C16.6525 18.9006 15.5945 19.5816 14.3785 20.0558C13.1747 20.5301 11.8857 20.7672 10.5116 20.7672C10.0738 20.7672 9.63602 20.7185 9.19825 20.6213C8.77264 20.524 8.34703 20.3963 7.92143 20.2382C7.50798 20.068 7.09453 19.8795 6.68108 19.6728C6.27979 19.466 5.89066 19.2532 5.51369 19.0343V27.7897ZM15.4912 10.4066C15.4912 9.57975 15.3574 8.83797 15.0899 8.18132C14.8345 7.52466 14.4819 6.97137 14.032 6.52144C13.582 6.05935 13.0531 5.7067 12.445 5.4635C11.837 5.22029 11.1925 5.09869 10.5116 5.09869C9.83059 5.09869 9.18609 5.22029 8.57808 5.4635C7.98223 5.7067 7.45934 6.05935 7.00941 6.52144C6.55948 6.97137 6.20075 7.52466 5.93322 8.18132C5.67786 8.83797 5.55017 9.57975 5.55017 10.4066C5.55017 11.1971 5.67786 11.9206 5.93322 12.5772C6.20075 13.2339 6.55948 13.7933 7.00941 14.2554C7.45934 14.7175 7.98223 15.0762 8.57808 15.3315C9.18609 15.5869 9.83059 15.7146 10.5116 15.7146C11.1925 15.7146 11.837 15.5869 12.445 15.3315C13.0531 15.0762 13.582 14.7175 14.032 14.2554C14.4819 13.7933 14.8345 13.2339 15.0899 12.5772C15.3574 11.9206 15.4912 11.1971 15.4912 10.4066ZM28.2412 20.3477H23.2616V0.812198H24.4655L26.1071 3.12873C26.9097 2.39911 27.8217 1.83974 28.8432 1.45061C29.8646 1.04932 30.9226 0.848679 32.017 0.848679H36.4129V5.81007H32.017C31.4941 5.81007 31.0016 5.90735 30.5395 6.10191C30.0774 6.29648 29.6761 6.564 29.3356 6.90449C28.9952 7.24498 28.7276 7.64626 28.5331 8.10835C28.3385 8.57044 28.2412 9.06293 28.2412 9.58583V20.3477ZM43.2895 27.7897V22.7736L46.0621 22.8101C46.5485 22.8101 47.0167 22.7311 47.4666 22.573C47.9165 22.4149 48.33 22.196 48.7069 21.9163C49.0961 21.6366 49.4366 21.3022 49.7284 20.9131C50.0202 20.5361 50.2574 20.1227 50.4398 19.6728C49.8926 19.9038 49.3332 20.1349 48.7617 20.3659C48.2023 20.5969 47.6368 20.7125 47.0653 20.7125C45.8614 20.7125 44.7305 20.4997 43.6726 20.0741C42.6147 19.6484 41.6844 19.0465 40.8818 18.2683C40.0914 17.4778 39.4651 16.5233 39.0031 15.4045C38.5531 14.2736 38.3282 13.0089 38.3282 11.6105V0.812198H43.2895V11.6105C43.2895 12.3036 43.3868 12.9117 43.5814 13.4345C43.7881 13.9453 44.0617 14.377 44.4022 14.7296C44.7427 15.0701 45.1379 15.3255 45.5878 15.4957C46.0499 15.666 46.5424 15.7511 47.0653 15.7511C47.576 15.7511 48.0564 15.6356 48.5063 15.4045C48.9684 15.1613 49.3697 14.8451 49.7102 14.456C50.0506 14.0669 50.3182 13.6291 50.5127 13.1427C50.7073 12.6441 50.8046 12.1334 50.8046 11.6105V0.812198H55.8207V17.8852C55.8085 19.2593 55.541 20.5483 55.0181 21.7522C54.4952 22.956 53.7778 24.0079 52.8657 24.9078C51.9659 25.8076 50.914 26.519 49.7102 27.0419C48.5063 27.5648 47.2173 27.8262 45.8432 27.8262L43.2895 27.7897ZM70.3583 20.3477H58.9763V15.3863H70.3583C70.6988 15.3863 70.9906 15.2647 71.2338 15.0215C71.477 14.7783 71.5986 14.4864 71.5986 14.1459C71.5986 13.7933 71.477 13.5622 71.2338 13.4528C70.9906 13.3433 70.6988 13.2886 70.3583 13.2886H65.178C64.3146 13.2886 63.506 13.1245 62.752 12.7961C61.9981 12.4678 61.3414 12.024 60.7821 11.4646C60.2227 10.8931 59.7789 10.2303 59.4505 9.47638C59.1344 8.72245 58.9763 7.91379 58.9763 7.05041C58.9763 6.18703 59.1344 5.37838 59.4505 4.62444C59.7789 3.8705 60.2227 3.21385 60.7821 2.65448C61.3414 2.09511 61.9981 1.65734 62.752 1.34117C63.506 1.01284 64.3146 0.848679 65.178 0.848679H75.2649V5.81007H65.178C64.8375 5.81007 64.5457 5.93167 64.3025 6.17487C64.0593 6.41808 63.9377 6.70992 63.9377 7.05041C63.9377 7.40306 64.0593 7.70707 64.3025 7.96243C64.5457 8.20564 64.8375 8.32724 65.178 8.32724H70.3583C71.2095 8.32724 72.0121 8.47316 72.766 8.76501C73.5199 9.04469 74.1766 9.4399 74.736 9.95063C75.2953 10.4614 75.7392 11.0755 76.0675 11.7929C76.3959 12.5104 76.56 13.2947 76.56 14.1459C76.56 15.0093 76.3959 15.818 76.0675 16.5719C75.7392 17.3137 75.2953 17.9703 74.736 18.5419C74.1766 19.1012 73.5199 19.5451 72.766 19.8734C72.0121 20.1896 71.2095 20.3477 70.3583 20.3477ZM104.067 20.3477H99.1051V7.94419C99.1051 7.6037 99.0383 7.28146 98.9045 6.97745C98.7829 6.67344 98.6066 6.40592 98.3755 6.17487C98.1445 5.94383 97.877 5.7675 97.5729 5.6459C97.2689 5.51214 96.9467 5.44526 96.6062 5.44526C96.2657 5.44526 95.9435 5.51214 95.6395 5.6459C95.3476 5.7675 95.0862 5.94383 94.8551 6.17487C94.6362 6.40592 94.4599 6.67344 94.3262 6.97745C94.2046 7.28146 94.1438 7.6037 94.1438 7.94419V20.3477H89.1641V7.94419C89.1641 7.6037 89.0972 7.28146 88.9635 6.97745C88.8419 6.67344 88.6656 6.40592 88.4345 6.17487C88.2035 5.94383 87.9359 5.7675 87.6319 5.6459C87.3279 5.51214 87.0057 5.44526 86.6652 5.44526C86.3247 5.44526 86.0025 5.51214 85.6985 5.6459C85.4066 5.7675 85.1452 5.94383 84.9141 6.17487C84.6952 6.40592 84.5189 6.67344 84.3851 6.97745C84.2635 7.28146 84.2027 7.6037 84.2027 7.94419V20.3477H79.2231V0.812198H80.427L81.7768 2.30791C82.4699 1.72422 83.2299 1.27429 84.0568 0.958121C84.8959 0.629794 85.7653 0.465631 86.6652 0.465631C87.5772 0.465631 88.4649 0.635874 89.3283 0.976362C90.2038 1.31685 90.9699 1.90662 91.6266 2.74568C91.9306 2.33223 92.2772 1.97958 92.6663 1.68774C93.0554 1.39589 93.4628 1.15877 93.8884 0.976362C94.3262 0.793958 94.7761 0.666275 95.2382 0.593314C95.7003 0.508192 96.1563 0.465631 96.6062 0.465631C97.6398 0.465631 98.6066 0.660195 99.5064 1.04932C100.418 1.43845 101.209 1.9735 101.878 2.65448C102.559 3.32329 103.094 4.11371 103.483 5.02573C103.872 5.93775 104.067 6.91057 104.067 7.94419V20.3477Z" fill="white"/>
</svg>
