<svg width="160" height="32" viewBox="0 0 160 32" fill="none" xmlns="http://www.w3.org/2000/svg">
<path d="M39.663 9.7323H44.5865C45.2334 9.7323 45.8444 9.79669 46.4193 9.92548C47.0063 10.0426 47.5154 10.2474 47.9467 10.5401C48.3899 10.8212 48.7373 11.2075 48.9889 11.6992C49.2525 12.1792 49.3842 12.7822 49.3842 13.5081C49.3842 14.3862 49.1506 15.1355 48.6834 15.756C48.2163 16.3648 47.5334 16.7511 46.6349 16.915L49.8694 22.1659H46.5092L43.8498 17.196H42.4661V22.1659H39.663V9.7323ZM42.4661 14.8779H44.1193C44.3708 14.8779 44.6344 14.872 44.9099 14.8603C45.1974 14.8369 45.455 14.7842 45.6825 14.7023C45.9102 14.6086 46.0959 14.4681 46.2396 14.2808C46.3953 14.0935 46.4732 13.8301 46.4732 13.4905C46.4732 13.1744 46.4074 12.9227 46.2756 12.7353C46.1438 12.5481 45.9761 12.4075 45.7725 12.3138C45.5688 12.2085 45.3352 12.1383 45.0717 12.1031C44.8081 12.068 44.5506 12.0505 44.2989 12.0505H42.4661V14.8779Z" fill="white"/>
<path d="M55.5017 9.7323H57.8197L63.3541 22.1659H60.1916L59.0955 19.5318H54.154L53.0938 22.1659H50.0032L55.5017 9.7323ZM56.5798 13.35L55.0345 17.2136H58.1431L56.5798 13.35Z" fill="white"/>
<path d="M64.6339 9.7323H69.5575C70.2044 9.7323 70.8153 9.79669 71.3904 9.92548C71.9773 10.0426 72.4864 10.2474 72.9177 10.5401C73.3609 10.8212 73.7083 11.2075 73.9599 11.6992C74.2234 12.1792 74.3552 12.7822 74.3552 13.5081C74.3552 14.3862 74.1216 15.1355 73.6544 15.756C73.1872 16.3648 72.5043 16.7511 71.606 16.915L74.8403 22.1659H71.4802L68.8207 17.196H67.4371V22.1659H64.6339V9.7323ZM67.4371 14.8779H69.0903C69.3418 14.8779 69.6053 14.872 69.8809 14.8603C70.1685 14.8369 70.4259 14.7842 70.6536 14.7023C70.8811 14.6086 71.0668 14.4681 71.2106 14.2808C71.3664 14.0935 71.4443 13.8301 71.4443 13.4905C71.4443 13.1744 71.3783 12.9227 71.2465 12.7353C71.1148 12.5481 70.9471 12.4075 70.7434 12.3138C70.5397 12.2085 70.3062 12.1383 70.0426 12.1031C69.7791 12.068 69.5215 12.0505 69.27 12.0505H67.4371V14.8779Z" fill="white"/>
<path d="M76.2498 9.7323H79.053V22.1659H76.2498V9.7323Z" fill="white"/>
<path d="M95.2393 12.9634C94.9637 12.6356 94.6224 12.384 94.2151 12.2084C93.8197 12.0327 93.3586 11.9449 92.8314 11.9449C92.3043 11.9449 91.8132 12.0444 91.358 12.2434C90.9148 12.4425 90.5255 12.7234 90.19 13.0864C89.8666 13.4377 89.609 13.8591 89.4174 14.3508C89.2377 14.8425 89.1478 15.3753 89.1478 15.949C89.1478 16.5344 89.2377 17.0729 89.4174 17.5647C89.609 18.0447 89.8666 18.4662 90.19 18.829C90.5135 19.1803 90.8908 19.4555 91.322 19.6545C91.7653 19.8535 92.2385 19.9531 92.7416 19.9531C93.3167 19.9531 93.8258 19.836 94.269 19.6018C94.7122 19.3677 95.0776 19.0398 95.3651 18.6184L97.701 20.3218C97.162 21.0594 96.4792 21.6038 95.6526 21.9551C94.826 22.3063 93.9755 22.482 93.101 22.482C92.1067 22.482 91.1903 22.3297 90.3517 22.0253C89.5131 21.7209 88.7884 21.2877 88.1775 20.7257C87.5665 20.1521 87.0873 19.4613 86.74 18.6535C86.4045 17.8456 86.2368 16.9442 86.2368 15.949C86.2368 14.9538 86.4045 14.0523 86.74 13.2445C87.0873 12.4366 87.5665 11.7517 88.1775 11.1897C88.7884 10.616 89.5131 10.177 90.3517 9.87262C91.1903 9.56821 92.1067 9.41602 93.101 9.41602C93.4604 9.41602 93.8318 9.45114 94.2151 9.52139C94.6104 9.57993 94.9938 9.67944 95.3651 9.81993C95.7484 9.96043 96.1138 10.1478 96.4612 10.3819C96.8086 10.616 97.1201 10.9029 97.3956 11.2425L95.2393 12.9634Z" fill="white"/>
<path d="M103.407 9.7323H105.726L111.26 22.1659H108.097L107.001 19.5318H102.06L101 22.1659H97.9091L103.407 9.7323ZM104.485 13.35L102.94 17.2136H106.049L104.485 13.35Z" fill="white"/>
<path d="M112.539 9.7323H117.265C117.925 9.7323 118.547 9.79084 119.135 9.90792C119.721 10.025 120.23 10.2299 120.662 10.5225C121.104 10.8036 121.452 11.1899 121.704 11.6816C121.967 12.1616 122.099 12.7705 122.099 13.5081C122.099 14.234 121.979 14.8427 121.74 15.3345C121.5 15.8262 121.17 16.2184 120.752 16.5111C120.332 16.8038 119.835 17.0146 119.26 17.1433C118.685 17.2605 118.062 17.319 117.391 17.319H115.342V22.1659H112.539V9.7323ZM115.342 15.0008H117.212C117.463 15.0008 117.703 14.9774 117.93 14.9305C118.17 14.8838 118.38 14.8077 118.559 14.7023C118.75 14.5852 118.9 14.4329 119.008 14.2457C119.128 14.0466 119.188 13.8007 119.188 13.5081C119.188 13.192 119.111 12.9403 118.955 12.7529C118.811 12.5538 118.62 12.4016 118.38 12.2963C118.152 12.1909 117.894 12.1266 117.606 12.1031C117.32 12.068 117.043 12.0505 116.781 12.0505H115.342V15.0008Z" fill="white"/>
<path d="M123.822 9.7323H126.626V22.1659H123.822V9.7323Z" fill="white"/>
<path d="M131.637 12.1558H128.007V9.7323H138.07V12.1558H134.44V22.1659H131.637V12.1558Z" fill="white"/>
<path d="M142.031 9.7323H144.348L149.883 22.1659H146.72L145.624 19.5318H140.683L139.622 22.1659H136.531L142.031 9.7323ZM143.109 13.35L141.563 17.2136H144.672L143.109 13.35Z" fill="white"/>
<path d="M151.27 9.7323H154.074V19.6371H159.266V22.1659H151.27V9.7323Z" fill="white"/>
<path fill-rule="evenodd" clip-rule="evenodd" d="M15.7043 30.3348C23.7845 30.3348 30.3348 23.7845 30.3348 15.7043C30.3348 7.6241 23.7845 1.0738 15.7043 1.0738C7.6241 1.0738 1.0738 7.6241 1.0738 15.7043C1.0738 23.7845 7.6241 30.3348 15.7043 30.3348ZM15.7043 31.4086C24.3776 31.4086 31.4086 24.3776 31.4086 15.7043C31.4086 7.03106 24.3776 0 15.7043 0C7.03106 0 0 7.03106 0 15.7043C0 24.3776 7.03106 31.4086 15.7043 31.4086Z" fill="url(#paint0_linear)"/>
<path fill-rule="evenodd" clip-rule="evenodd" d="M15.8385 26.845C9.68569 26.845 4.69784 21.8572 4.69784 15.7043C4.69784 9.55151 9.68569 4.56367 15.8385 4.56367C21.9913 4.56367 26.9792 9.55151 26.9792 15.7043C26.9792 21.8572 21.9913 26.845 15.8385 26.845ZM15.8385 27.9188C9.09265 27.9188 3.62405 22.4502 3.62405 15.7043C3.62405 8.95847 9.09265 3.48987 15.8385 3.48987C22.5844 3.48987 28.053 8.95847 28.053 15.7043C28.053 22.4502 22.5844 27.9188 15.8385 27.9188Z" fill="url(#paint1_linear)"/>
<path fill-rule="evenodd" clip-rule="evenodd" d="M15.8386 24.1606C20.4347 24.1606 24.1606 20.4347 24.1606 15.8386C24.1606 11.2425 20.4347 7.51667 15.8386 7.51667C11.2425 7.51667 7.51667 11.2425 7.51667 15.8386C7.51667 20.4347 11.2425 24.1606 15.8386 24.1606ZM15.8386 25.2344C21.0277 25.2344 25.2344 21.0277 25.2344 15.8386C25.2344 10.6495 21.0277 6.44287 15.8386 6.44287C10.6495 6.44287 6.44287 10.6495 6.44287 15.8386C6.44287 21.0277 10.6495 25.2344 15.8386 25.2344Z" fill="url(#paint2_linear)"/>
<path fill-rule="evenodd" clip-rule="evenodd" d="M15.7043 30.3348C23.7845 30.3348 30.3348 23.7845 30.3348 15.7043C30.3348 7.6241 23.7845 1.0738 15.7043 1.0738C7.6241 1.0738 1.0738 7.6241 1.0738 15.7043C1.0738 23.7845 7.6241 30.3348 15.7043 30.3348ZM15.7043 31.4086C24.3776 31.4086 31.4086 24.3776 31.4086 15.7043C31.4086 7.03106 24.3776 0 15.7043 0C7.03106 0 0 7.03106 0 15.7043C0 24.3776 7.03106 31.4086 15.7043 31.4086Z" fill="url(#paint3_linear)"/>
<defs>
<linearGradient id="paint0_linear" x1="0" y1="15.7043" x2="30.7903" y2="15.7043" gradientUnits="userSpaceOnUse">
<stop stop-color="white"/>
<stop offset="1" stop-color="white" stop-opacity="0"/>
</linearGradient>
<linearGradient id="paint1_linear" x1="33.5351" y1="15.7043" x2="4.10493" y2="15.7043" gradientUnits="userSpaceOnUse">
<stop stop-color="white"/>
<stop offset="1" stop-color="white" stop-opacity="0"/>
</linearGradient>
<linearGradient id="paint2_linear" x1="2.22588" y1="15.8386" x2="24.8644" y2="15.8386" gradientUnits="userSpaceOnUse">
<stop stop-color="white"/>
<stop offset="1" stop-color="white" stop-opacity="0"/>
</linearGradient>
<linearGradient id="paint3_linear" x1="0" y1="15.7043" x2="30.7903" y2="15.7043" gradientUnits="userSpaceOnUse">
<stop stop-color="white"/>
<stop offset="1" stop-color="white" stop-opacity="0"/>
</linearGradient>
</defs>
</svg>
