<svg width="154" height="30" viewBox="0 0 154 30" fill="none" xmlns="http://www.w3.org/2000/svg">
<path d="M39.7311 9.30201H44.435C45.0531 9.30201 45.6368 9.36353 46.1861 9.48657C46.7469 9.59843 47.2333 9.79418 47.6454 10.0738C48.0688 10.3423 48.4007 10.7114 48.6411 11.1812C48.8929 11.6398 49.0188 12.2159 49.0188 12.9094C49.0188 13.7483 48.7956 14.4642 48.3492 15.057C47.9029 15.6387 47.2505 16.0078 46.3921 16.1644L49.4823 21.1811H46.272L43.7312 16.4328H42.4092V21.1811H39.7311V9.30201ZM42.4092 14.2181H43.9887C44.229 14.2181 44.4808 14.2125 44.744 14.2013C45.0187 14.1789 45.2648 14.1286 45.4822 14.0503C45.6997 13.9608 45.8771 13.8266 46.0144 13.6476C46.1632 13.4687 46.2376 13.217 46.2376 12.8926C46.2376 12.5906 46.1747 12.3501 46.0488 12.1711C45.9229 11.9922 45.7627 11.8579 45.5681 11.7684C45.3735 11.6678 45.1503 11.6007 44.8986 11.5671C44.6468 11.5335 44.4007 11.5168 44.1603 11.5168H42.4092V14.2181Z" fill="white"/>
<path d="M54.8633 9.30201H57.0779L62.3655 21.1811H59.344L58.2968 18.6644H53.5757L52.5628 21.1811H49.61L54.8633 9.30201ZM55.8933 12.7584L54.4169 16.4496H57.3869L55.8933 12.7584Z" fill="white"/>
<path d="M63.588 9.30201H68.292C68.91 9.30201 69.4937 9.36353 70.0431 9.48657C70.6039 9.59843 71.0903 9.79418 71.5023 10.0738C71.9258 10.3423 72.2577 10.7114 72.498 11.1812C72.7498 11.6398 72.8757 12.2159 72.8757 12.9094C72.8757 13.7483 72.6525 14.4642 72.2062 15.057C71.7598 15.6387 71.1074 16.0078 70.2491 16.1644L73.3392 21.1811H70.1289L67.5881 16.4328H66.2662V21.1811H63.588V9.30201ZM66.2662 14.2181H67.8456C68.0859 14.2181 68.3377 14.2125 68.601 14.2013C68.8757 14.1789 69.1217 14.1286 69.3392 14.0503C69.5566 13.9608 69.734 13.8266 69.8714 13.6476C70.0202 13.4687 70.0946 13.217 70.0946 12.8926C70.0946 12.5906 70.0316 12.3501 69.9057 12.1711C69.7798 11.9922 69.6196 11.8579 69.425 11.7684C69.2304 11.6678 69.0073 11.6007 68.7555 11.5671C68.5037 11.5335 68.2576 11.5168 68.0173 11.5168H66.2662V14.2181Z" fill="white"/>
<path d="M74.6858 9.30201H77.364V21.1811H74.6858V9.30201Z" fill="white"/>
<path d="M92.8285 12.3892C92.5652 12.076 92.2391 11.8356 91.8499 11.6678C91.4722 11.5 91.0316 11.4161 90.528 11.4161C90.0244 11.4161 89.5552 11.5112 89.1203 11.7013C88.6968 11.8915 88.3249 12.1599 88.0044 12.5067C87.6954 12.8423 87.4493 13.2449 87.2662 13.7147C87.0945 14.1845 87.0087 14.6935 87.0087 15.2416C87.0087 15.8009 87.0945 16.3154 87.2662 16.7852C87.4493 17.2438 87.6954 17.6465 88.0044 17.9932C88.3134 18.3288 88.6739 18.5917 89.0859 18.7818C89.5094 18.972 89.9615 19.0671 90.4422 19.0671C90.9916 19.0671 91.478 18.9552 91.9014 18.7315C92.3249 18.5078 92.674 18.1946 92.9487 17.7919L95.1804 19.4194C94.6654 20.1241 94.0131 20.6442 93.2233 20.9798C92.4336 21.3154 91.621 21.4832 90.7855 21.4832C89.8356 21.4832 88.9601 21.3377 88.1589 21.0469C87.3577 20.7561 86.6653 20.3422 86.0816 19.8053C85.4979 19.2572 85.0401 18.5973 84.7082 17.8255C84.3877 17.0536 84.2275 16.1924 84.2275 15.2416C84.2275 14.2908 84.3877 13.4295 84.7082 12.6577C85.0401 11.8859 85.4979 11.2315 86.0816 10.6946C86.6653 10.1465 87.3577 9.72707 88.1589 9.43624C88.9601 9.14541 89.8356 9 90.7855 9C91.1289 9 91.4837 9.03356 91.8499 9.10067C92.2276 9.1566 92.5939 9.25168 92.9487 9.3859C93.3149 9.52013 93.664 9.6991 93.9959 9.92281C94.3278 10.1465 94.6254 10.4206 94.8886 10.745L92.8285 12.3892Z" fill="white"/>
<path d="M100.632 9.30201H102.847L108.135 21.1811H105.113L104.066 18.6644H99.3448L98.3319 21.1811H95.3791L100.632 9.30201ZM101.662 12.7584L100.186 16.4496H103.156L101.662 12.7584Z" fill="white"/>
<path d="M109.357 9.30201H113.872C114.502 9.30201 115.097 9.35794 115.658 9.4698C116.218 9.58165 116.705 9.7774 117.117 10.057C117.54 10.3255 117.872 10.6946 118.113 11.1644C118.364 11.623 118.49 12.2047 118.49 12.9094C118.49 13.6029 118.376 14.1845 118.147 14.6543C117.918 15.1241 117.603 15.4988 117.203 15.7785C116.802 16.0581 116.327 16.2595 115.778 16.3825C115.228 16.4944 114.633 16.5503 113.992 16.5503H112.035V21.1811H109.357V9.30201ZM112.035 14.3355H113.821C114.061 14.3355 114.29 14.3132 114.507 14.2684C114.736 14.2237 114.937 14.151 115.108 14.0503C115.291 13.9385 115.434 13.793 115.537 13.6141C115.652 13.4239 115.709 13.189 115.709 12.9094C115.709 12.6074 115.635 12.3669 115.486 12.1879C115.349 11.9977 115.166 11.8523 114.937 11.7517C114.719 11.651 114.473 11.5895 114.198 11.5671C113.924 11.5335 113.66 11.5168 113.409 11.5168H112.035V14.3355Z" fill="white"/>
<path d="M120.136 9.30201H122.815V21.1811H120.136V9.30201Z" fill="white"/>
<path d="M127.603 11.6174H124.135V9.30201H133.749V11.6174H130.281V21.1811H127.603V11.6174Z" fill="white"/>
<path d="M137.533 9.30201H139.747L145.035 21.1811H142.013L140.966 18.6644H136.245L135.232 21.1811H132.279L137.533 9.30201ZM138.563 12.7584L137.086 16.4496H140.056L138.563 12.7584Z" fill="white"/>
<path d="M146.36 9.30201H149.039V18.765H154V21.1811H146.36V9.30201Z" fill="white"/>
<path fill-rule="evenodd" clip-rule="evenodd" d="M15.1869 28.9841C22.9103 28.9841 29.1713 22.7231 29.1713 14.9998C29.1713 7.2765 22.9103 1.01551 15.1869 1.01551C7.46363 1.01551 1.20264 7.2765 1.20264 14.9998C1.20264 22.7231 7.46363 28.9841 15.1869 28.9841ZM15.1869 29.9999C23.4713 29.9999 30.187 23.2841 30.187 14.9998C30.187 6.71551 23.4713 -0.000244141 15.1869 -0.000244141C6.90264 -0.000244141 0.18689 6.71551 0.18689 14.9998C0.18689 23.2841 6.90264 29.9999 15.1869 29.9999Z" fill="url(#paint0_linear)"/>
<path fill-rule="evenodd" clip-rule="evenodd" d="M15.3051 25.9132C9.34297 25.9132 4.50974 21.0799 4.50974 15.1178C4.50974 9.15574 9.34297 4.32251 15.3051 4.32251C21.2672 4.32251 26.1004 9.15574 26.1004 15.1178C26.1004 21.0799 21.2672 25.9132 15.3051 25.9132ZM15.3051 26.9289C8.78199 26.9289 3.49399 21.6409 3.49399 15.1178C3.49399 8.59476 8.78199 3.30676 15.3051 3.30676C21.8281 3.30676 27.1161 8.59476 27.1161 15.1178C27.1161 21.6409 21.8281 26.9289 15.3051 26.9289Z" fill="url(#paint1_linear)"/>
<path fill-rule="evenodd" clip-rule="evenodd" d="M15.3051 23.0784C19.7016 23.0784 23.2657 19.5143 23.2657 15.1178C23.2657 10.7212 19.7016 7.15711 15.3051 7.15711C10.9085 7.15711 7.3444 10.7212 7.3444 15.1178C7.3444 19.5143 10.9085 23.0784 15.3051 23.0784ZM15.3051 24.0942C20.2626 24.0942 24.2815 20.0753 24.2815 15.1178C24.2815 10.1602 20.2626 6.14136 15.3051 6.14136C10.3475 6.14136 6.32865 10.1602 6.32865 15.1178C6.32865 20.0753 10.3475 24.0942 15.3051 24.0942Z" fill="url(#paint2_linear)"/>
<defs>
<linearGradient id="paint0_linear" x1="0.18689" y1="14.9998" x2="29.5965" y2="14.9998" gradientUnits="userSpaceOnUse">
<stop stop-color="white"/>
<stop offset="1" stop-color="white" stop-opacity="0"/>
</linearGradient>
<linearGradient id="paint1_linear" x1="27.1161" y1="15.1178" x2="3.95899" y2="15.1178" gradientUnits="userSpaceOnUse">
<stop stop-color="white"/>
<stop offset="1" stop-color="white" stop-opacity="0"/>
</linearGradient>
<linearGradient id="paint2_linear" x1="6.32865" y1="15.1178" x2="23.9281" y2="15.1178" gradientUnits="userSpaceOnUse">
<stop stop-color="white"/>
<stop offset="1" stop-color="white" stop-opacity="0"/>
</linearGradient>
</defs>
</svg>
