<svg width="136" height="25" viewBox="0 0 136 25" fill="none" xmlns="http://www.w3.org/2000/svg">
<g clip-path="url(#clip0)">
<path fill-rule="evenodd" clip-rule="evenodd" d="M118.354 18.5691H120.137V7.96484H118.354V18.5691Z" fill="white"/>
<path fill-rule="evenodd" clip-rule="evenodd" d="M118.354 6.58309H120.137V4.7998H118.354V6.58309Z" fill="white"/>
<path fill-rule="evenodd" clip-rule="evenodd" d="M36.0482 4.69844C34.1103 4.69844 32.0416 5.46018 32.0416 7.31118C32.0416 8.96614 33.9361 9.44516 36.1786 9.81536C39.2275 10.2944 42.2323 10.9041 42.2323 14.3444C42.2104 17.7632 38.9442 18.8738 36.0264 18.8738C33.3264 18.8738 30.7569 17.8939 29.5809 15.3462L31.1487 14.4317C32.1286 16.2392 34.1754 17.1097 36.0482 17.1097C37.899 17.1097 40.3597 16.5222 40.3597 14.2791C40.3813 12.3849 38.2473 11.8403 35.961 11.4919C33.0213 11.0348 30.1688 10.3597 30.1688 7.2677C30.1253 4.08847 33.3699 3 36.0045 3C38.2692 3 40.4247 3.45715 41.7749 5.7653L40.3378 6.65799C39.5102 5.32975 37.7464 4.72004 36.0482 4.69844Z" fill="white"/>
<path fill-rule="evenodd" clip-rule="evenodd" d="M45.4518 3.35537V9.60475C46.3667 8.18956 47.8037 7.71054 49.1757 7.68867C52.2021 7.68867 53.6826 9.69197 53.6826 12.6533V18.5762H51.9191V12.6752C51.9191 10.5631 50.8304 9.36524 48.8706 9.36524C46.9108 9.36524 45.4737 10.9114 45.4737 12.8709V18.5762H43.688V3.3335H45.4518V3.35537Z" fill="white"/>
<path fill-rule="evenodd" clip-rule="evenodd" d="M60.786 9.33604C58.652 9.33604 56.9317 10.8606 56.9317 13.2557C56.9317 15.651 58.652 17.1969 60.786 17.1969C65.9682 17.1969 65.9682 9.31444 60.8076 9.31444L60.786 9.33604ZM64.7053 18.6124L64.6619 16.6526C63.8126 18.1333 62.1795 18.8303 60.6987 18.8303C57.6067 18.8303 55.1898 16.6963 55.1898 13.1903C55.1898 9.7065 57.6505 7.616 60.7206 7.63787C62.3321 7.63787 63.9215 8.37826 64.7053 9.77185L64.7272 7.81203H66.4691V18.5686H64.7491L64.7053 18.6124Z" fill="white"/>
<path fill-rule="evenodd" clip-rule="evenodd" d="M77.6085 13.2561C77.6085 10.8392 76.0189 9.40183 73.8198 9.40183C71.577 9.40183 70.0525 11.0571 70.0525 13.2561C70.0525 15.4554 71.6424 17.1101 73.8198 17.132C75.9754 17.132 77.6085 15.6731 77.6085 13.2561ZM68.1146 7.85595H69.8133L69.9002 9.92458C70.7494 8.48753 72.3391 7.65991 74.0375 7.65991C77.1295 7.72526 79.3939 9.90298 79.3939 13.2126C79.3939 16.6095 77.1514 18.8088 73.9284 18.8088C72.4044 18.8088 70.7057 18.1557 69.8567 16.6314V23.6428H68.1146V7.85595Z" fill="white"/>
<path fill-rule="evenodd" clip-rule="evenodd" d="M89.813 12.4072C89.7261 10.3167 88.289 9.18422 86.1769 9.18422C84.3043 9.18422 82.671 10.3167 82.3661 12.3853H89.813V12.4072ZM90.8585 16.8491C89.7696 18.1338 87.897 18.7654 86.2204 18.7654C82.8889 18.7654 80.5588 16.5661 80.5588 13.1473C80.5588 9.90301 82.8889 7.573 86.1332 7.573C89.4212 7.573 91.9254 9.59816 91.5117 13.8877H82.3661C82.5621 15.8692 84.1952 17.1102 86.2639 17.1102C87.4833 17.1102 88.9641 16.6314 89.6826 15.7603L90.8802 16.8491H90.8585Z" fill="white"/>
<path fill-rule="evenodd" clip-rule="evenodd" d="M98.9736 4.69844C97.0357 4.69844 94.9671 5.46018 94.9671 7.31117C94.9671 8.96614 96.8613 9.44516 99.1043 9.81536C102.153 10.2944 105.158 10.9041 105.158 14.3444C105.136 17.7632 101.87 18.8738 98.952 18.8738C96.2516 18.8738 93.6823 17.8939 92.5063 15.3462L94.0741 14.4317C95.0543 16.2392 97.101 17.1097 98.9736 17.1097C100.824 17.1097 103.285 16.5222 103.285 14.2791C103.307 12.3849 101.173 11.8403 98.8864 11.4919C95.9467 11.0348 93.0944 10.3597 93.0944 7.2677C93.051 4.08847 96.2953 3 98.9302 3C101.195 3 103.35 3.45715 104.7 5.7653L103.263 6.65799C102.436 5.32975 100.672 4.72004 98.9736 4.69844Z" fill="white"/>
<path fill-rule="evenodd" clip-rule="evenodd" d="M108.339 3.34853V9.59792C109.254 8.18273 110.691 7.70345 112.063 7.68158C115.09 7.68158 116.57 9.68513 116.57 12.6462V18.5689H114.807V12.6681C114.807 10.556 113.718 9.35814 111.758 9.35814C109.798 9.35814 108.361 10.9043 108.361 12.8641V18.5689H106.576V3.32666H108.339V3.34853Z" fill="white"/>
<path fill-rule="evenodd" clip-rule="evenodd" d="M123.544 18.6219V18.6013H123.523L123.544 18.6219Z" fill="white"/>
<path fill-rule="evenodd" clip-rule="evenodd" d="M125.659 7.09356C125.659 5.48208 126.399 4.76355 127.554 4.76355C127.577 4.76355 127.598 4.76592 127.621 4.76644L128.023 3.2319C127.854 3.21003 127.683 3.1958 127.51 3.1958C125.246 3.1958 123.896 4.63312 123.896 7.09356V7.94252H121.783V9.51079H123.896V18.5687H125.659V9.51079H127.796V7.94252H125.659V7.09356Z" fill="white"/>
<path fill-rule="evenodd" clip-rule="evenodd" d="M134.76 17.0746C134.619 17.097 134.48 17.1097 134.346 17.1097C133.061 17.1097 132.648 16.3042 132.648 15.0413V9.49701H134.939V7.94981H132.669V4.67651L130.884 4.87229V7.94981H128.728V9.49701H130.884V15.0413C130.884 17.4148 131.973 18.7649 134.281 18.7214C134.566 18.7125 134.84 18.679 135.112 18.6226L134.76 17.0746Z" fill="white"/>
<path fill-rule="evenodd" clip-rule="evenodd" d="M21.3228 2.09261L20.2083 8.73356L16.2473 4.09875L21.3228 2.09261ZM20.2327 11.5897L21.2242 15.2294L13.6419 17.3055L20.2327 11.5897ZM3.72695 9.7604L7.79207 4.48088H14.8518L19.3641 9.7604H3.72695ZM18.8413 11.0652L11.491 17.4391L4.00386 11.0652H18.8413ZM6.43073 4.1026L2.79806 8.82027L1.68266 2.11842L6.43073 4.1026ZM9.31373 17.3032L1.65921 15.2312L2.70811 11.6794L9.31373 17.3032ZM10.727 19.0377L9.28207 20.6185C8.05759 19.4622 6.71129 18.4356 5.27411 17.5618L10.727 19.0377ZM17.7359 17.5375C16.2987 18.4258 14.9556 19.4658 13.7386 20.633L12.2632 19.0359L17.7359 17.5375ZM23 0.0255804L15.0294 3.17627H7.60032L0 0L1.72639 10.3721L0.0685454 15.9864L4.39396 18.5571C6.44211 19.7743 8.27667 21.2974 9.8466 23.0835L11.5309 25L13.2985 22.9846C14.8151 21.2555 16.5813 19.771 18.5482 18.5723L22.79 15.9864L21.2625 10.3798L23 0.0255804Z" fill="white"/>
</g>
<defs>
<clipPath id="clip0">
<rect width="135.112" height="25" fill="white"/>
</clipPath>
</defs>
</svg>
