<svg width="113" height="29" viewBox="0 0 113 29" fill="none" xmlns="http://www.w3.org/2000/svg">
<path d="M35.0327 20.925V17.5857L42.6366 8.22188H35.2132V4.9502H47.4651V8.04137L39.6808 17.5857H47.6231V20.925H35.0327Z" fill="white"/>
<path d="M56.2884 16.0288H55.8146C55.4085 16.0288 54.9948 16.0514 54.5736 16.0965C54.1675 16.1266 53.799 16.1943 53.468 16.2995C53.1521 16.4048 52.8889 16.5628 52.6783 16.7734C52.4677 16.9689 52.3624 17.2322 52.3624 17.5631C52.3624 17.7737 52.4075 17.9542 52.4978 18.1046C52.6031 18.255 52.731 18.3754 52.8814 18.4656C53.0318 18.5559 53.2048 18.6236 53.4003 18.6687C53.5959 18.6988 53.7839 18.7138 53.9644 18.7138C54.7165 18.7138 55.2881 18.5108 55.6792 18.1046C56.0854 17.6834 56.2884 17.1193 56.2884 16.4124V16.0288ZM49.4969 11.2228C50.1587 10.591 50.9259 10.1172 51.7983 9.80131C52.6858 9.48542 53.5884 9.32748 54.5059 9.32748C55.4536 9.32748 56.2508 9.44782 56.8976 9.68849C57.5595 9.91413 58.0935 10.2751 58.4996 10.7715C58.9058 11.2529 59.1991 11.8696 59.3796 12.6217C59.5752 13.3588 59.6729 14.2388 59.6729 15.2616V20.925H56.2884V19.7292H56.2207C55.9349 20.1955 55.4987 20.5565 54.9121 20.8122C54.3405 21.0679 53.7162 21.1958 53.0393 21.1958C52.5881 21.1958 52.1217 21.1356 51.6404 21.0153C51.159 20.8949 50.7153 20.6994 50.3092 20.4286C49.9181 20.1579 49.5947 19.7969 49.3389 19.3456C49.0832 18.8943 48.9554 18.3378 48.9554 17.6759C48.9554 16.8636 49.1735 16.2093 49.6097 15.7129C50.061 15.2165 50.6326 14.8329 51.3245 14.5622C52.0315 14.2914 52.8137 14.1109 53.6711 14.0207C54.5285 13.9304 55.3633 13.8853 56.1756 13.8853V13.7048C56.1756 13.1482 55.9801 12.7421 55.589 12.4863C55.1979 12.2156 54.7165 12.0802 54.1449 12.0802C53.6184 12.0802 53.107 12.193 52.6106 12.4187C52.1293 12.6443 51.7156 12.915 51.3696 13.2309L49.4969 11.2228Z" fill="white"/>
<path d="M74.9349 15.2616C74.9349 16.0438 74.8146 16.7959 74.5739 17.518C74.3332 18.24 73.9797 18.8793 73.5134 19.4359C73.0622 19.9774 72.5056 20.4136 71.8437 20.7445C71.1819 21.0755 70.4298 21.2409 69.5874 21.2409C68.8955 21.2409 68.2411 21.1055 67.6244 20.8348C67.0077 20.549 66.5263 20.1654 66.1803 19.684H66.1352V26.3402H62.4348V9.68849H65.9547V11.0649H66.0224C66.3684 10.6136 66.8422 10.2225 67.4439 9.89156C68.0606 9.54559 68.7826 9.37261 69.61 9.37261C70.4222 9.37261 71.1593 9.53055 71.8212 9.84644C72.483 10.1623 73.0396 10.591 73.4909 11.1325C73.9572 11.6741 74.3107 12.3058 74.5513 13.0279C74.8071 13.7349 74.9349 14.4794 74.9349 15.2616ZM71.3473 15.2616C71.3473 14.9006 71.2872 14.5471 71.1668 14.2012C71.0615 13.8552 70.8961 13.5543 70.6704 13.2986C70.4599 13.0279 70.1891 12.8098 69.8582 12.6443C69.5272 12.4788 69.1437 12.3961 68.7074 12.3961C68.2863 12.3961 67.9102 12.4788 67.5793 12.6443C67.2483 12.8098 66.9625 13.0279 66.7219 13.2986C66.4962 13.5694 66.3157 13.8778 66.1803 14.2237C66.06 14.5697 65.9998 14.9232 65.9998 15.2842C65.9998 15.6452 66.06 15.9987 66.1803 16.3447C66.3157 16.6906 66.4962 16.999 66.7219 17.2698C66.9625 17.5405 67.2483 17.7586 67.5793 17.9241C67.9102 18.0896 68.2863 18.1723 68.7074 18.1723C69.1437 18.1723 69.5272 18.0896 69.8582 17.9241C70.1891 17.7586 70.4599 17.5405 70.6704 17.2698C70.8961 16.999 71.0615 16.6906 71.1668 16.3447C71.2872 15.9837 71.3473 15.6226 71.3473 15.2616Z" fill="white"/>
<path d="M89.7641 15.2616C89.7641 16.0438 89.6438 16.7959 89.4031 17.518C89.1624 18.24 88.8089 18.8793 88.3426 19.4359C87.8914 19.9774 87.3348 20.4136 86.673 20.7445C86.0111 21.0755 85.259 21.2409 84.4166 21.2409C83.7247 21.2409 83.0703 21.1055 82.4536 20.8348C81.8369 20.549 81.3555 20.1654 81.0096 19.684H80.9644V26.3402H77.264V9.68849H80.7839V11.0649H80.8516C81.1976 10.6136 81.6714 10.2225 82.2731 9.89156C82.8898 9.54559 83.6119 9.37261 84.4392 9.37261C85.2515 9.37261 85.9885 9.53055 86.6504 9.84644C87.3122 10.1623 87.8688 10.591 88.3201 11.1325C88.7864 11.6741 89.1399 12.3058 89.3806 13.0279C89.6363 13.7349 89.7641 14.4794 89.7641 15.2616ZM86.1766 15.2616C86.1766 14.9006 86.1164 14.5471 85.9961 14.2012C85.8908 13.8552 85.7253 13.5543 85.4997 13.2986C85.2891 13.0279 85.0183 12.8098 84.6874 12.6443C84.3565 12.4788 83.9729 12.3961 83.5367 12.3961C83.1155 12.3961 82.7394 12.4788 82.4085 12.6443C82.0776 12.8098 81.7918 13.0279 81.5511 13.2986C81.3254 13.5694 81.1449 13.8778 81.0096 14.2237C80.8892 14.5697 80.8291 14.9232 80.8291 15.2842C80.8291 15.6452 80.8892 15.9987 81.0096 16.3447C81.1449 16.6906 81.3254 16.999 81.5511 17.2698C81.7918 17.5405 82.0776 17.7586 82.4085 17.9241C82.7394 18.0896 83.1155 18.1723 83.5367 18.1723C83.9729 18.1723 84.3565 18.0896 84.6874 17.9241C85.0183 17.7586 85.2891 17.5405 85.4997 17.2698C85.7253 16.999 85.8908 16.6906 85.9961 16.3447C86.1164 15.9837 86.1766 15.6226 86.1766 15.2616Z" fill="white"/>
<path d="M99.8325 14.0207C99.8325 13.434 99.6445 12.9301 99.2684 12.5089C98.9074 12.0877 98.3583 11.8771 97.6213 11.8771C97.2603 11.8771 96.9293 11.9373 96.6285 12.0576C96.3276 12.1629 96.0644 12.3134 95.8388 12.5089C95.6131 12.7045 95.4326 12.9376 95.2973 13.2084C95.1619 13.4641 95.0867 13.7348 95.0716 14.0207H99.8325ZM103.24 15.4421C103.24 15.5926 103.24 15.743 103.24 15.8934C103.24 16.0438 103.232 16.1867 103.217 16.3221H95.0716C95.1017 16.638 95.192 16.9238 95.3424 17.1795C95.5078 17.4352 95.7109 17.6609 95.9516 17.8564C96.2073 18.0369 96.4856 18.1798 96.7864 18.2851C97.1023 18.3904 97.4257 18.4431 97.7567 18.4431C98.3433 18.4431 98.8397 18.3378 99.2458 18.1272C99.652 17.9015 99.9829 17.6157 100.239 17.2698L102.811 18.8943C102.284 19.6615 101.585 20.2557 100.712 20.6768C99.855 21.083 98.8547 21.286 97.7115 21.286C96.8692 21.286 96.0719 21.1582 95.3198 20.9025C94.5677 20.6317 93.9059 20.2481 93.3342 19.7517C92.7777 19.2403 92.3339 18.616 92.003 17.879C91.6871 17.1419 91.5292 16.2995 91.5292 15.3519C91.5292 14.4343 91.6871 13.607 92.003 12.8699C92.3189 12.1178 92.7476 11.486 93.2891 10.9746C93.8306 10.4481 94.4699 10.042 95.207 9.75618C95.9441 9.47038 96.7413 9.32748 97.5987 9.32748C98.426 9.32748 99.1857 9.47038 99.8776 9.75618C100.57 10.0269 101.164 10.4256 101.66 10.952C102.157 11.4785 102.54 12.1178 102.811 12.8699C103.097 13.622 103.24 14.4794 103.24 15.4421Z" fill="white"/>
<path d="M112.822 12.712C112.657 12.6669 112.491 12.6368 112.326 12.6217C112.175 12.6067 112.025 12.5992 111.875 12.5992C111.378 12.5992 110.957 12.6894 110.611 12.8699C110.28 13.0504 110.009 13.2685 109.799 13.5243C109.603 13.78 109.46 14.0583 109.37 14.3591C109.28 14.6599 109.235 14.9232 109.235 15.1488V20.925H105.534V9.68849H109.099V11.3131H109.144C109.43 10.7414 109.836 10.2751 110.363 9.91413C110.889 9.55311 111.499 9.37261 112.19 9.37261C112.341 9.37261 112.484 9.38013 112.619 9.39517C112.77 9.41021 112.89 9.43278 112.98 9.46286L112.822 12.712Z" fill="white"/>
<path fill-rule="evenodd" clip-rule="evenodd" d="M14.1712 0.000244141C21.9101 0.000244141 28.1837 6.27385 28.1837 14.0127C28.1837 21.7516 21.9101 28.0252 14.1712 28.0252C6.4323 28.0252 0.158691 21.7516 0.158691 14.0127C0.158691 6.27385 6.4323 0.000244141 14.1712 0.000244141ZM18.8252 10.374L8.69349 10.4239L6.25993 14.0318L11.9647 14.034L9.50071 17.6666L19.6981 17.6013L22.1242 14.0044L16.3995 14.0321L18.8252 10.374Z" fill="white"/>
</svg>
