<svg width="185" height="23" viewBox="0 0 185 23" fill="none" xmlns="http://www.w3.org/2000/svg">
<g opacity="0.4">
<path d="M184.116 0.050293C184.238 0.050293 184.336 0.148013 184.336 0.269258V22.9006V22.9288V22.9575L165.3 5.89924C165.254 5.85771 165.227 5.79852 165.227 5.7365V0.542058C165.227 0.3525 165.453 0.252519 165.594 0.379193L180.148 13.4366C180.289 13.5635 180.514 13.4637 180.514 13.274V0.269258C180.514 0.148013 180.612 0.050293 180.734 0.050293H184.116Z" fill="white"/>
<path d="M133.455 6.1205C131.938 7.60994 131.209 9.41371 131.209 11.5042C131.209 13.5939 131.938 15.4265 133.455 16.9159C134.971 18.4051 136.837 19.1205 138.966 19.1205C141.094 19.1205 142.931 18.4051 144.447 16.9159C145.993 15.3978 146.722 13.5939 146.722 11.5042C146.722 9.41371 145.964 7.60994 144.447 6.1205C142.931 4.63146 141.094 3.88729 138.966 3.88729C136.837 3.88729 135 4.60283 133.455 6.1205ZM147.188 3.42888C149.492 5.66227 150.658 8.35408 150.658 11.5042C150.658 14.6825 149.492 17.374 147.188 19.5786C144.914 21.8123 142.202 22.9575 138.966 22.9575C135.729 22.9575 133.018 21.8123 130.743 19.5786C128.469 17.3453 127.303 14.6825 127.303 11.5042C127.303 8.35408 128.469 5.66227 130.743 3.42888C132.988 1.19547 135.729 0.050293 138.966 0.050293C142.202 0.050293 144.914 1.19547 147.188 3.42888Z" fill="white"/>
<path d="M110.475 19.1786L106.693 22.6374C106.538 22.7788 106.273 22.6794 106.273 22.4805V0.224216C106.273 0.0260656 106.537 -0.0734702 106.691 0.0661564L110.473 3.47301C110.52 3.515 110.546 3.57186 110.546 3.63126V19.0216C110.546 19.0805 110.52 19.1368 110.475 19.1786Z" fill="white"/>
<path d="M82.268 14.9529L86.7907 22.6297C86.8769 22.776 86.7677 22.9575 86.5946 22.9575H82.5973C82.5164 22.9575 82.4424 22.9156 82.4018 22.8479L75.8167 11.8072C75.7291 11.6605 75.8391 11.4773 76.014 11.4789L79.1313 11.5042C80.1943 11.5042 81.1094 11.1313 81.8767 10.3871C82.6742 9.64291 83.0575 8.72611 83.0575 7.66667C83.0575 6.63585 82.6742 5.74868 81.8767 5.00347C81.1094 4.25927 80.1943 3.88729 79.1313 3.88729C79.1313 3.88729 71.6538 3.88729 71.3431 3.88729C71.0325 3.88729 70.8282 3.47765 70.8282 3.47765C70.814 3.46438 70.802 3.44918 70.7927 3.43294L68.9663 0.379193C68.8795 0.233065 68.9877 0.050293 69.1618 0.050293H79.1313C81.2867 0.050293 83.1462 0.794502 84.6812 2.28369C86.2164 3.80088 86.9832 5.57689 86.9832 7.66667C86.9832 9.27002 86.5409 10.7017 85.5965 11.9907C84.7327 13.2065 83.6587 14.0905 82.3751 14.6441C82.2525 14.6971 82.2012 14.8394 82.268 14.9529Z" fill="white"/>
<path d="M40.9013 19.1205H52.5343C52.6603 19.1205 52.7624 19.2186 52.7624 19.3396V22.7383C52.7624 22.8594 52.6603 22.9575 52.5343 22.9575H37.0664C36.9404 22.9575 36.8381 22.8594 36.8381 22.7383C36.8381 22.6774 36.8645 22.6191 36.9113 22.5775L40.7459 19.1788C40.7884 19.1412 40.8437 19.1205 40.9013 19.1205ZM40.7058 9.61414H49.5618C49.6879 9.61414 49.7902 9.71222 49.7902 9.8331V13.2033C49.7902 13.3244 49.6879 13.4221 49.5618 13.4221H40.7058H40.8153V9.61414H40.7058ZM52.7624 0.269258V3.66833C52.7624 3.78921 52.6603 3.88729 52.5343 3.88729H40.907C40.8461 3.88729 40.7876 3.86376 40.7446 3.8226L37.2246 0.42353C37.0817 0.285545 37.1834 0.050293 37.3864 0.050293H52.5343C52.6603 0.050293 52.7624 0.148013 52.7624 0.269258Z" fill="white"/>
<path d="M10.0353 15.2934C8.58109 17.4547 7.54627 18.9919 7.53024 19.0149C7.47583 19.0912 7.53024 19.0801 7.53024 19.0801L15.6709 19.0806C15.7267 19.0806 15.7806 19.1012 15.8213 19.1388L19.5363 22.5296C19.5816 22.5706 19.6072 22.6288 19.6072 22.6896C19.6072 22.8103 19.508 22.9081 19.3859 22.9081H1.15751C0.825976 22.9081 0.527367 22.6138 0.527367 22.2864C0.527367 22.2864 0.412131 21.7452 0.692448 21.2886C0.749151 21.2075 2.58379 18.5353 4.79476 15.3142L10.0353 15.2934ZM10.0293 7.68796C11.4949 5.55224 12.5458 4.02135 12.5741 3.98011C12.6693 3.84157 12.5741 3.84932 12.5741 3.84932L7.56774 3.82816H4.15959C4.10059 3.82816 4.04389 3.80487 4.00228 3.76345L0.592302 0.372847C0.453287 0.235199 0.552518 0.000976562 0.749151 0.000976562H7.56774H18.9771C19.3086 0.000976562 19.6072 0.295224 19.6072 0.622412C19.6072 0.622412 19.6584 0.95714 19.4568 1.27129C19.363 1.41814 17.4204 4.30943 15.1299 7.71689L10.0293 7.68796Z" fill="white"/>
</g>
</svg>
