<svg width="133" height="17" viewBox="0 0 133 17" fill="none" xmlns="http://www.w3.org/2000/svg">
<path d="M132.001 0.0354004C132.088 0.0354004 132.159 0.105556 132.159 0.192599V16.44V16.4603V16.4809L118.492 4.23447C118.459 4.20465 118.44 4.16216 118.44 4.11763V0.388447C118.44 0.25236 118.602 0.180582 118.703 0.271524L129.152 9.64567C129.253 9.73677 129.415 9.6651 129.415 9.52896V0.192599C129.415 0.105556 129.485 0.0354004 129.573 0.0354004H132.001Z" fill="white"/>
<path d="M95.6299 4.39331C94.5412 5.46261 94.0181 6.75757 94.0181 8.25834C94.0181 9.75858 94.5412 11.0743 95.6299 12.1435C96.7185 13.2127 98.0583 13.7263 99.5867 13.7263C101.115 13.7263 102.434 13.2127 103.522 12.1435C104.631 11.0537 105.155 9.75858 105.155 8.25834C105.155 6.75757 104.611 5.46261 103.522 4.39331C102.434 3.3243 101.115 2.79005 99.5867 2.79005C98.0583 2.79005 96.7396 3.30375 95.6299 4.39331ZM105.49 2.46095C107.144 4.06434 107.981 5.99684 107.981 8.25834C107.981 10.5401 107.144 12.4724 105.49 14.0551C103.857 15.6588 101.91 16.4809 99.5867 16.4809C97.2629 16.4809 95.3162 15.6588 93.6833 14.0551C92.0505 12.4518 91.2133 10.5401 91.2133 8.25834C91.2133 5.99684 92.0505 4.06434 93.6833 2.46095C95.2953 0.857543 97.2629 0.0354004 99.5867 0.0354004C101.91 0.0354004 103.857 0.857543 105.49 2.46095Z" fill="white"/>
<path d="M79.132 13.7681L76.4172 16.2512C76.306 16.3527 76.1154 16.2813 76.1154 16.1386V0.16039C76.1154 0.018134 76.3048 -0.0533246 76.416 0.0469158L79.1308 2.49276C79.1644 2.5229 79.1834 2.56373 79.1834 2.60637V13.6554C79.1834 13.6977 79.1648 13.7381 79.132 13.7681Z" fill="white"/>
<path d="M58.882 10.7343L62.1289 16.2455C62.1908 16.3506 62.1124 16.4809 61.9882 16.4809H59.1184C59.0603 16.4809 59.0072 16.4508 58.9781 16.4022L54.2505 8.47592C54.1876 8.37061 54.2666 8.23903 54.3922 8.24018L56.6301 8.25834C57.3932 8.25834 58.0502 7.99064 58.6011 7.45639C59.1736 6.92211 59.4488 6.26393 59.4488 5.50333C59.4488 4.76329 59.1736 4.12638 58.6011 3.59137C58.0502 3.0571 57.3932 2.79005 56.6301 2.79005C56.6301 2.79005 51.2618 2.79005 51.0388 2.79005C50.8158 2.79005 50.6691 2.49596 50.6691 2.49596C50.659 2.48643 50.6504 2.47552 50.6436 2.46386L49.3324 0.271524C49.2701 0.166616 49.3478 0.0354004 49.4728 0.0354004H56.6301C58.1775 0.0354004 59.5125 0.569682 60.6145 1.6388C61.7166 2.72802 62.2672 4.00304 62.2672 5.50333C62.2672 6.65441 61.9496 7.68223 61.2716 8.60762C60.6515 9.48048 59.8804 10.1151 58.9589 10.5126C58.8709 10.5506 58.8341 10.6528 58.882 10.7343Z" fill="white"/>
<path d="M29.1845 13.7263H37.5359C37.6265 13.7263 37.6997 13.7967 37.6997 13.8836V16.3235C37.6997 16.4105 37.6265 16.4809 37.5359 16.4809H26.4313C26.3408 16.4809 26.2674 16.4105 26.2674 16.3235C26.2674 16.2798 26.2863 16.2379 26.3199 16.2081L29.0729 13.7681C29.1033 13.7411 29.143 13.7263 29.1845 13.7263ZM29.0441 6.90146H35.402C35.4925 6.90146 35.5659 6.97187 35.5659 7.05866V9.47822C35.5659 9.5651 35.4925 9.63528 35.402 9.63528H29.0441H29.1227V6.90146H29.0441ZM37.6997 0.192599V2.63285C37.6997 2.71964 37.6265 2.79005 37.5359 2.79005H29.1885C29.1448 2.79005 29.1028 2.77316 29.0719 2.74361L26.5448 0.303354C26.4422 0.204292 26.5153 0.0354004 26.661 0.0354004H37.5359C37.6265 0.0354004 37.6997 0.105556 37.6997 0.192599Z" fill="white"/>
<path d="M7.02499 10.9788C5.98101 12.5305 5.23809 13.6341 5.22658 13.6505C5.18753 13.7053 5.22658 13.6974 5.22658 13.6974L11.0709 13.6977C11.1109 13.6977 11.1497 13.7125 11.1789 13.7395L13.846 16.1739C13.8785 16.2033 13.8969 16.245 13.8969 16.2887C13.8969 16.3754 13.8256 16.4456 13.738 16.4456H0.651483C0.413471 16.4456 0.199094 16.2343 0.199094 15.9992C0.199094 15.9992 0.116364 15.6107 0.317608 15.2829C0.358317 15.2247 1.67543 13.3063 3.26274 10.9938L7.02499 10.9788ZM7.02071 5.51875C8.07291 3.98548 8.82733 2.88642 8.84767 2.85682C8.91597 2.75735 8.84767 2.76292 8.84767 2.76292L5.25351 2.74773H2.80674C2.76438 2.74773 2.72367 2.73101 2.69379 2.70127L0.245712 0.267094C0.14591 0.168275 0.21715 0.00012207 0.358317 0.00012207H5.25351H13.4445C13.6825 0.00012207 13.8969 0.211368 13.8969 0.446262C13.8969 0.446262 13.9336 0.686569 13.7888 0.912102C13.7215 1.01753 12.3269 3.09324 10.6825 5.53952L7.02071 5.51875Z" fill="white"/>
</svg>
