<svg width="148" height="19" viewBox="0 0 148 19" fill="none" xmlns="http://www.w3.org/2000/svg">
<path d="M147.688 0.0394287C147.785 0.0394287 147.864 0.117604 147.864 0.214599V18.3194V18.342V18.3649L132.635 4.71853C132.598 4.6853 132.577 4.63795 132.577 4.58834V0.432836C132.577 0.281191 132.757 0.201208 132.87 0.302546L144.513 10.7483C144.626 10.8499 144.807 10.77 144.807 10.6183V0.214599C144.807 0.117604 144.885 0.0394287 144.982 0.0394287H147.688Z" fill="white"/>
<path d="M107.159 4.89553C105.946 6.08707 105.363 7.53007 105.363 9.20241C105.363 10.8741 105.946 12.3402 107.159 13.5317C108.372 14.7231 109.865 15.2954 111.568 15.2954C113.271 15.2954 114.741 14.7231 115.953 13.5317C117.19 12.3173 117.773 10.8741 117.773 9.20241C117.773 7.53007 117.166 6.08707 115.953 4.89553C114.741 3.70432 113.271 3.10899 111.568 3.10899C109.865 3.10899 108.396 3.68141 107.159 4.89553ZM118.146 2.74226C119.989 4.52896 120.922 6.68237 120.922 9.20241C120.922 11.745 119.989 13.8982 118.146 15.6619C116.326 17.4488 114.157 18.3649 111.568 18.3649C108.979 18.3649 106.81 17.4488 104.99 15.6619C103.171 13.8753 102.238 11.745 102.238 9.20241C102.238 6.68237 103.171 4.52896 104.99 2.74226C106.786 0.955558 108.979 0.0394287 111.568 0.0394287C114.157 0.0394287 116.326 0.955558 118.146 2.74226Z" fill="white"/>
<path d="M88.7754 15.3419L85.7503 18.1089C85.6263 18.222 85.4139 18.1425 85.4139 17.9834V0.17859C85.4139 0.020071 85.625 -0.0595567 85.749 0.0521432L88.7741 2.77759C88.8115 2.81118 88.8327 2.85667 88.8327 2.90419V15.2163C88.8327 15.2635 88.8119 15.3085 88.7754 15.3419Z" fill="white"/>
<path d="M66.2105 11.9614L69.8285 18.1027C69.8976 18.2197 69.8102 18.3649 69.6717 18.3649H66.4739C66.4092 18.3649 66.35 18.3314 66.3175 18.2773L61.0494 9.44486C60.9794 9.32751 61.0674 9.18089 61.2074 9.18217L63.7011 9.20241C64.5515 9.20241 65.2835 8.9041 65.8974 8.30877C66.5354 7.71342 66.8421 6.98 66.8421 6.13245C66.8421 5.30781 66.5354 4.59808 65.8974 4.00192C65.2835 3.40657 64.5515 3.10899 63.7011 3.10899C63.7011 3.10899 57.7192 3.10899 57.4707 3.10899C57.2222 3.10899 57.0587 2.78128 57.0587 2.78128C57.0474 2.77066 57.0378 2.7585 57.0303 2.74551L55.5692 0.302546C55.4998 0.185644 55.5863 0.0394287 55.7256 0.0394287H63.7011C65.4254 0.0394287 66.913 0.634789 68.141 1.82613C69.3691 3.03986 69.9826 4.46065 69.9826 6.13245C69.9826 7.41512 69.6288 8.56044 68.8732 9.59161C68.1822 10.5643 67.323 11.2714 66.2961 11.7143C66.1981 11.7568 66.157 11.8706 66.2105 11.9614Z" fill="white"/>
<path d="M33.1175 15.2954H42.4237C42.5246 15.2954 42.6062 15.3739 42.6062 15.4707V18.1896C42.6062 18.2865 42.5246 18.3649 42.4237 18.3649H30.0496C29.9488 18.3649 29.8669 18.2865 29.8669 18.1896C29.8669 18.1409 29.8881 18.0942 29.9255 18.061L32.9932 15.3421C33.0271 15.3119 33.0714 15.2954 33.1175 15.2954ZM32.9611 7.69041H40.0458C40.1467 7.69041 40.2285 7.76887 40.2285 7.86558V10.5617C40.2285 10.6586 40.1467 10.7368 40.0458 10.7368H32.9611H33.0487V7.69041H32.9611ZM42.6062 0.214599V2.93382C42.6062 3.03053 42.5246 3.10899 42.4237 3.10899H33.122C33.0733 3.10899 33.0265 3.09016 32.9921 3.05724L30.1761 0.338015C30.0618 0.227628 30.1432 0.0394287 30.3056 0.0394287H42.4237C42.5246 0.0394287 42.6062 0.117604 42.6062 0.214599Z" fill="white"/>
<path d="M8.42498 12.2338C7.26165 13.9628 6.43381 15.1926 6.42099 15.2109C6.37746 15.272 6.42099 15.2631 6.42099 15.2631L12.9334 15.2635C12.978 15.2635 13.0212 15.28 13.0538 15.3101L16.0257 18.0227C16.0619 18.0555 16.0824 18.102 16.0824 18.1506C16.0824 18.2472 16.003 18.3255 15.9054 18.3255H1.32286C1.05764 18.3255 0.818756 18.09 0.818756 17.8281C0.818756 17.8281 0.726568 17.3952 0.950819 17.0299C0.996181 16.965 2.46387 14.8273 4.23263 12.2504L8.42498 12.2338ZM8.42022 6.14951C9.59269 4.44096 10.4334 3.21626 10.456 3.18327C10.5321 3.07244 10.456 3.07863 10.456 3.07863L6.45098 3.06171H3.7245C3.6773 3.06171 3.63194 3.04308 3.59865 3.00994L0.870703 0.297492C0.759493 0.187376 0.838877 0 0.996181 0H6.45098H15.5783C15.8436 0 16.0824 0.235395 16.0824 0.497142C16.0824 0.497142 16.1234 0.764921 15.9621 1.01624C15.8871 1.13372 14.333 3.44672 12.5006 6.17265L8.42022 6.14951Z" fill="white"/>
</svg>
