<svg width="128" height="103" viewBox="0 0 128 103" fill="none" xmlns="http://www.w3.org/2000/svg">
<path d="M26.2593 54.2587C24.0818 52.0813 24.0818 48.5509 26.2593 46.3734L70.9804 1.65232C73.1579 -0.525139 76.6882 -0.525136 78.8657 1.65232L125.491 48.2781C127.669 50.4556 127.669 53.9859 125.491 56.1634L80.7703 100.884C78.5929 103.062 75.0625 103.062 72.8851 100.884L26.2593 54.2587Z" fill="white"/>
<path d="M23.0067 56.207C20.8292 58.3844 20.8292 61.9148 23.0067 64.0922L42.8391 83.9246L38.7013 88.0624C36.5239 90.2399 32.9935 90.2399 30.8161 88.0624L1.63309 58.8795C-0.544362 56.702 -0.544365 53.1716 1.63309 50.9942L29.123 23.5042C31.3005 21.3268 34.8309 21.3268 37.0083 23.5042L46.3589 32.8548L23.0067 56.207Z" fill="white"/>
</svg>
