<?xml version="1.0" encoding="UTF-8" standalone="no"?>
<svg
   xmlns:dc="http://purl.org/dc/elements/1.1/"
   xmlns:cc="http://creativecommons.org/ns#"
   xmlns:rdf="http://www.w3.org/1999/02/22-rdf-syntax-ns#"
   xmlns:svg="http://www.w3.org/2000/svg"
   xmlns="http://www.w3.org/2000/svg"
   id="svg1567"
   version="1.1"
   viewBox="0 0 41.013519 30.314939"
   height="30.314939mm"
   width="41.013519mm">
  <defs
     id="defs1561" />
  <metadata
     id="metadata1564">
    <rdf:RDF>
      <cc:Work
         rdf:about="">
        <dc:format>image/svg+xml</dc:format>
        <dc:type
           rdf:resource="http://purl.org/dc/dcmitype/StillImage" />
        <dc:title></dc:title>
      </cc:Work>
    </rdf:RDF>
  </metadata>
  <g
     transform="translate(-104.22538,-191.12824)"
     id="layer1">
    <path
       id="rect5881-9-0-2-8-7-9-0-0"
       d="m 112.16185,191.12824 c -2.60373,0.0421 -7.8788,2.20111 -7.91373,8.3628 l -0.0227,3.9765 h 4.49792 l 0.0139,-3.96048 c 0.0157,-4.41658 3.36074,-7.32529 5.20382,-8.37882 z m 4.38268,0 c -1.22132,0.87948 -5.61092,3.05526 -5.66477,8.39019 l -0.0398,3.94911 h 9.186 v -0.87437 h 9.864 v 0.87437 h 2.6634 6.06785 l -0.0398,-3.94911 c -0.0539,-5.33493 -4.44346,-7.51071 -5.66478,-8.39019 h -0.36328 -5.04465 z m 18.97558,0 c 1.84309,1.05353 5.18813,3.96224 5.20382,8.37882 l 0.0139,3.96048 h 4.49792 l -0.0227,-3.9765 c -0.0349,-6.16169 -5.31,-8.3207 -7.91372,-8.3628 z m -13.97382,13.147 v 9.42268 h 6.82284 v -9.42268 z m 3.50418,1.64021 a 1.6335346,1.6335346 0 0 1 1.63401,1.63298 1.6335346,1.6335346 0 0 1 -0.81701,1.41283 v 1.85415 h -1.63401 v -1.85363 a 1.6335346,1.6335346 0 0 1 -0.81648,-1.41335 1.6335346,1.6335346 0 0 1 1.63349,-1.63298 z m -20.82509,0.4625 v 5.29167 h 15.80059 v -5.29167 z m 25.66459,0 v 5.29167 h 15.34583 v -5.29167 z m -25.66149,8.0822 v 2.24172 c 2.56774,0.13054 4.67853,2.14938 4.99195,4.74131 h 30.76143 c 0.32419,-2.68046 2.57103,-4.74854 5.25704,-4.74854 v -2.23449 h -15.34893 v 0.91364 h -9.864 v -0.91364 z m 41.01042,3.6313 c -1.98829,0 -3.60413,1.45425 -3.91656,3.35173 h 3.91656 z m -41.01042,0.0134 v 3.3383 h 3.65146 c -0.29829,-1.81213 -1.78608,-3.21538 -3.65146,-3.3383 z"
       style="display:inline;opacity:1;fill:#dab32c;fill-opacity:1;stroke:none;stroke-width:0.43375894;stroke-linecap:round;stroke-miterlimit:4;stroke-dasharray:none;stroke-opacity:1" />
  </g>
</svg>
