<svg width="1796" height="305" viewBox="0 0 1796 305" fill="none" xmlns="http://www.w3.org/2000/svg">
<path d="M125.174 94.2487L102.75 72.9C86.7315 80.0896 73.2981 91.8448 64.072 106.433L33.2943 63.5376C58.9023 33.9157 97.0262 15.1304 139.609 15.1304C165.312 15.1304 189.387 21.9734 210.077 33.9157L161.536 67.7072L125.174 94.2487Z" fill="#26272B"/>
<path d="M80.3208 166.873L58.6461 188.964C65.9475 204.741 77.8814 217.976 92.6912 227.063L49.1459 257.378C19.0675 232.157 0 194.603 0 152.653C0 127.333 6.9489 103.613 19.0675 83.2384L53.3756 131.057L80.3208 166.873Z" fill="#26272B"/>
<path d="M225.839 174.244L198.894 138.428L220.568 116.337C213.267 100.561 201.333 87.3256 186.523 78.2382L230.069 47.9232C260.147 73.1444 279.214 110.699 279.214 152.648C279.214 177.968 272.266 201.688 260.147 222.063L225.839 174.244Z" fill="#26272B"/>
<path d="M215.133 198.87L245.911 241.765L245.9 241.771C220.297 271.393 182.173 290.178 139.59 290.178C113.887 290.178 89.8124 283.329 69.1279 271.393L117.67 237.596L154.031 211.054L176.455 232.403C192.474 225.213 205.907 213.463 215.133 198.87Z" fill="#26272B"/>
<path d="M346.051 105.446C338.484 120.769 334.7 137.985 334.7 157.092C334.7 176.199 338.295 193.509 345.483 209.022C352.672 224.535 363.077 236.831 376.698 245.912C390.319 254.803 406.588 259.249 425.506 259.249C437.614 259.249 448.208 256.79 457.289 251.871C466.37 246.952 473.653 240.899 479.139 233.71C484.626 226.521 488.504 219.237 490.774 211.859V211.292C491.152 210.535 491.531 209.968 491.909 209.589C492.476 209.211 493.139 209.211 493.895 209.589C494.652 209.968 495.03 210.535 495.03 211.292C495.22 211.859 495.03 212.805 494.463 214.13C493.328 217.535 492.476 220.656 491.909 223.494C491.531 226.143 491.341 229.264 491.341 232.858V256.979H516.313V154.822H432.317V175.253H490.49C489.355 186.036 486.328 196.347 481.41 206.184C476.491 215.832 469.491 223.683 460.41 229.737C451.519 235.791 440.83 238.818 428.344 238.818C413.777 238.818 401.291 235.223 390.887 228.034C380.671 220.846 372.914 211.103 367.617 198.806C362.32 186.32 359.672 172.415 359.672 157.092C359.672 141.957 362.604 128.242 368.469 115.945C374.522 103.459 382.941 93.6217 393.724 86.4329C404.697 79.0548 417.088 75.3658 430.898 75.3658C446.789 75.3658 459.748 79.3386 469.775 87.2842C479.991 95.0406 487.085 106.202 491.058 120.769H516.313C514.232 108.662 509.881 97.6891 503.26 87.8517C496.638 77.8252 487.179 69.8796 474.883 64.015C462.775 57.9613 448.019 54.9344 430.615 54.9344C410.94 54.9344 393.819 59.4747 379.252 68.5553C364.874 77.636 353.807 89.9327 346.051 105.446Z" fill="#26272B"/>
<path fill-rule="evenodd" clip-rule="evenodd" d="M642.737 119.35C632.522 112.729 620.509 109.418 606.698 109.418C592.888 109.418 580.781 112.729 570.376 119.35C560.16 125.972 552.309 135.052 546.823 146.592C541.337 157.943 538.594 170.524 538.594 184.334C538.594 198.144 541.337 210.819 546.823 222.359C552.309 233.71 560.16 242.696 570.376 249.317C580.781 255.938 592.888 259.249 606.698 259.249C620.509 259.249 632.522 255.938 642.737 249.317C653.142 242.696 661.088 233.71 666.574 222.359C672.06 210.819 674.803 198.144 674.803 184.334C674.803 170.524 672.06 157.943 666.574 146.592C661.088 135.052 653.142 125.972 642.737 119.35ZM630.819 231.723C624.008 236.453 615.968 238.818 606.698 238.818C597.428 238.818 589.294 236.453 582.294 231.723C575.484 226.805 570.281 220.278 566.687 212.143C563.092 203.819 561.295 194.549 561.295 184.334C561.295 174.118 563.092 164.943 566.687 156.808C570.281 148.484 575.484 141.957 582.294 137.228C589.294 132.309 597.428 129.85 606.698 129.85C615.968 129.85 624.008 132.309 630.819 137.228C637.819 141.957 643.116 148.484 646.71 156.808C650.304 164.943 652.102 174.118 652.102 184.334C652.102 194.549 650.304 203.819 646.71 212.143C643.116 220.278 637.819 226.805 630.819 231.723Z" fill="#26272B"/>
<path d="M676.597 111.688H701.569L742.715 233.426C742.905 233.615 742.999 233.899 742.999 234.277C742.999 234.656 743.094 234.939 743.283 235.129C744.229 237.588 744.702 239.953 744.702 242.223C744.702 244.493 745.458 245.628 746.972 245.628C748.485 245.628 749.242 244.493 749.242 242.223C749.242 239.953 749.715 237.588 750.661 235.129C750.85 234.939 750.945 234.656 750.945 234.277C750.945 233.899 751.039 233.615 751.228 233.426L792.375 111.688H817.347L765.133 256.979H728.811L676.597 111.688Z" fill="#26272B"/>
<path fill-rule="evenodd" clip-rule="evenodd" d="M841.367 190.009C841.691 198.136 843.565 205.798 846.992 212.995C850.776 220.751 856.167 226.994 863.167 231.723C870.356 236.453 878.774 238.818 888.422 238.818C898.071 238.818 905.732 236.169 911.408 230.872C917.273 225.575 921.624 218.386 924.462 209.305H948.298C946.406 217.819 942.906 225.859 937.799 233.426C932.691 240.993 925.88 247.236 917.367 252.155C908.854 256.884 898.922 259.249 887.571 259.249C873.383 259.249 861.086 255.844 850.681 249.033C840.465 242.223 832.614 233.142 827.128 221.791C821.831 210.441 819.183 197.955 819.183 184.334C819.183 169.578 822.02 156.524 827.696 145.173C833.371 133.823 841.317 125.026 851.532 118.783C861.937 112.54 873.761 109.418 887.004 109.418C897.976 109.418 908.286 111.972 917.935 117.08C927.772 121.999 935.718 129.755 941.772 140.349C947.825 150.943 950.852 164.186 950.852 180.077C950.852 183.293 950.663 186.604 950.285 190.009H841.367ZM928.029 171.848C927.16 158.917 923.417 148.607 916.8 140.917C909.8 132.782 900.436 128.715 888.706 128.715C871.491 128.715 859.289 134.201 852.1 145.173C847.198 152.526 843.968 161.417 842.408 171.848H928.029Z" fill="#26272B"/>
<path d="M991.345 145.173C992.101 145.363 992.669 145.268 993.048 144.89C993.615 144.322 993.994 143.755 994.183 143.187V142.903C997.777 134.201 1001.37 127.58 1004.97 123.039C1008.56 118.499 1013.67 115.094 1020.29 112.824C1026.91 110.553 1036.18 109.418 1048.1 109.418V132.687C1034.1 131.742 1023.13 132.877 1015.18 136.093C1007.43 139.12 1001.84 144.417 998.439 151.984C995.223 159.551 993.615 169.861 993.615 182.915V256.979H970.913V111.688H993.615V123.039C993.615 128.715 992.669 134.39 990.777 140.065V140.349L990.494 140.633C990.115 141.957 989.926 142.998 989.926 143.755C989.926 144.511 990.399 144.984 991.345 145.173Z" fill="#26272B"/>
<path d="M1178.84 124.458C1169.57 114.432 1156.33 109.418 1139.11 109.418C1130.98 109.418 1123.41 111.215 1116.41 114.81C1109.6 118.215 1103.83 122.566 1099.1 127.863C1094.56 132.971 1091.15 138.079 1088.88 143.187L1088.6 143.471C1088.41 144.038 1088.03 144.511 1087.47 144.89C1086.9 145.268 1086.33 145.363 1085.76 145.173C1084.82 144.795 1084.34 144.227 1084.34 143.471C1084.53 142.714 1084.91 141.674 1085.48 140.349V140.065C1085.67 139.876 1085.76 139.687 1085.76 139.498C1086.71 136.471 1087.37 133.728 1087.75 131.269C1088.32 128.809 1088.6 126.35 1088.6 123.891V111.688H1065.9V256.979H1088.6V184.617C1088.6 173.645 1090.87 163.902 1095.41 155.389C1099.95 146.876 1105.72 140.349 1112.72 135.809C1119.91 131.079 1127.29 128.715 1134.86 128.715C1142.04 128.715 1148.19 130.039 1153.3 132.687C1158.6 135.336 1162.76 139.876 1165.79 146.308C1168.81 152.551 1170.33 161.065 1170.33 171.848V256.979H1193.03V170.713C1193.03 149.903 1188.3 134.485 1178.84 124.458Z" fill="#26272B"/>
<path fill-rule="evenodd" clip-rule="evenodd" d="M1212.77 216.4C1212.77 201.644 1217.5 190.955 1226.96 184.334C1236.61 177.523 1248.9 173.456 1263.85 172.132C1266.31 171.942 1268.77 171.848 1271.23 171.848L1278.6 171.28C1287.5 170.713 1294.5 170.145 1299.6 169.578C1304.9 168.821 1309.16 167.402 1312.37 165.321C1315.59 163.24 1317.2 160.119 1317.2 155.957C1317.01 148.579 1314.08 142.241 1308.4 136.944C1302.91 131.458 1292.79 128.715 1278.04 128.715C1266.12 128.715 1256.94 131.269 1250.51 136.376C1244.27 141.295 1240.58 147.444 1239.44 154.822H1217.31C1219.01 144.417 1222.8 135.904 1228.66 129.282C1234.53 122.472 1241.9 117.458 1250.8 114.242C1259.69 111.026 1269.52 109.418 1280.31 109.418C1292.41 109.418 1302.73 111.215 1311.24 114.81C1319.94 118.404 1326.85 125.026 1331.95 134.674C1337.25 144.133 1339.9 157.281 1339.9 174.118V256.979H1317.2V240.804C1317.2 237.399 1317.67 233.521 1318.62 229.169C1318.81 228.413 1318.99 227.751 1319.18 227.183C1319.56 226.426 1319.85 225.67 1320.04 224.913L1320.32 224.062C1320.89 222.926 1321.08 221.981 1320.89 221.224C1320.89 220.278 1320.41 219.71 1319.47 219.521C1318.9 219.332 1318.33 219.521 1317.77 220.089C1317.2 220.467 1316.82 220.94 1316.63 221.508V222.075C1312.85 233.615 1305.85 242.696 1295.63 249.317C1285.6 255.938 1273.88 259.249 1260.44 259.249C1251.93 259.249 1243.98 257.452 1236.61 253.857C1229.42 250.074 1223.65 244.966 1219.3 238.534C1214.95 231.913 1212.77 224.535 1212.77 216.4ZM1317.2 175.821C1314.17 179.415 1309.54 182.064 1303.29 183.766C1297.24 185.28 1288.54 186.888 1277.19 188.59C1275.11 188.969 1272.93 189.347 1270.66 189.725C1268.58 189.915 1266.5 190.198 1264.42 190.577C1254.96 192.09 1247.77 194.739 1242.85 198.522C1237.93 202.306 1235.47 207.792 1235.47 214.981C1235.47 222.548 1238.4 228.886 1244.27 233.994C1250.32 239.101 1258.84 241.088 1269.81 239.953C1279.08 239.007 1287.21 236.075 1294.21 231.156C1301.4 226.048 1306.98 218.859 1310.95 209.589C1315.12 200.13 1317.2 188.874 1317.2 175.821Z" fill="#26272B"/>
<path d="M1481.88 124.458C1472.61 114.432 1459.36 109.418 1442.15 109.418C1434.01 109.418 1426.45 111.215 1419.45 114.81C1412.64 118.215 1406.87 122.566 1402.14 127.863C1397.6 132.971 1394.19 138.079 1391.92 143.187L1391.64 143.471C1391.45 144.038 1391.07 144.511 1390.5 144.89C1389.93 145.268 1389.37 145.363 1388.8 145.173C1387.85 144.795 1387.38 144.227 1387.38 143.471C1387.57 142.714 1387.95 141.674 1388.51 140.349V140.065C1388.7 139.876 1388.8 139.687 1388.8 139.498C1389.74 136.471 1390.41 133.728 1390.79 131.269C1391.35 128.809 1391.64 126.35 1391.64 123.891V111.688H1368.93V256.979H1391.64V184.617C1391.64 173.645 1393.91 163.902 1398.45 155.389C1402.99 146.876 1408.76 140.349 1415.76 135.809C1422.95 131.079 1430.32 128.715 1437.89 128.715C1445.08 128.715 1451.23 130.039 1456.34 132.687C1461.63 135.336 1465.8 139.876 1468.82 146.308C1471.85 152.551 1473.36 161.065 1473.36 171.848V256.979H1496.06V170.713C1496.06 149.903 1491.33 134.485 1481.88 124.458Z" fill="#26272B"/>
<path d="M1515.81 184.334C1515.81 170.524 1518.55 157.943 1524.04 146.592C1529.52 135.052 1537.47 125.972 1547.87 119.35C1558.28 112.729 1570.57 109.418 1584.76 109.418C1596.87 109.418 1607.56 111.972 1616.83 117.08C1626.1 122.188 1633.29 128.904 1638.39 137.228C1643.69 145.552 1646.72 154.443 1647.48 163.902H1625.34C1623.83 153.686 1619.57 145.457 1612.57 139.214C1605.76 132.971 1596.68 129.85 1585.33 129.85C1574.92 129.85 1566.22 132.309 1559.22 137.228C1552.22 141.957 1547.02 148.484 1543.62 156.808C1540.21 164.943 1538.51 174.118 1538.51 184.334C1538.51 194.549 1540.21 203.819 1543.62 212.143C1547.02 220.278 1552.22 226.805 1559.22 231.723C1566.22 236.453 1574.92 238.818 1585.33 238.818C1596.68 238.818 1605.76 235.696 1612.57 229.453C1619.57 223.21 1623.83 214.981 1625.34 204.765H1647.48C1646.72 214.224 1643.69 223.116 1638.39 231.44C1633.29 239.764 1626.1 246.479 1616.83 251.587C1607.75 256.695 1597.06 259.249 1584.76 259.249C1570.95 259.249 1558.75 255.938 1548.16 249.317C1537.75 242.507 1529.71 233.426 1524.04 222.075C1518.55 210.724 1515.81 198.144 1515.81 184.334Z" fill="#26272B"/>
<path fill-rule="evenodd" clip-rule="evenodd" d="M1685.07 190.009C1685.4 198.136 1687.27 205.798 1690.7 212.995C1694.48 220.751 1699.87 226.994 1706.87 231.723C1714.06 236.453 1722.48 238.818 1732.13 238.818C1741.78 238.818 1749.44 236.169 1755.12 230.872C1760.98 225.575 1765.33 218.386 1768.17 209.305H1792.01C1790.11 217.819 1786.61 225.859 1781.51 233.426C1776.4 240.993 1769.59 247.236 1761.07 252.155C1752.56 256.884 1742.63 259.249 1731.28 259.249C1717.09 259.249 1704.79 255.844 1694.39 249.033C1684.17 242.223 1676.32 233.142 1670.84 221.791C1665.54 210.441 1662.89 197.955 1662.89 184.334C1662.89 169.578 1665.73 156.524 1671.4 145.173C1677.08 133.823 1685.02 125.026 1695.24 118.783C1705.64 112.54 1717.47 109.418 1730.71 109.418C1741.68 109.418 1751.99 111.972 1761.64 117.08C1771.48 121.999 1779.42 129.755 1785.48 140.349C1791.53 150.943 1794.56 164.186 1794.56 180.077C1794.56 183.293 1794.37 186.604 1793.99 190.009H1685.07ZM1771.74 171.848C1770.87 158.917 1767.12 148.607 1760.51 140.917C1753.51 132.782 1744.14 128.715 1732.41 128.715C1715.2 128.715 1703 134.201 1695.81 145.173C1690.91 152.526 1687.68 161.417 1686.12 171.848H1771.74Z" fill="#26272B"/>
</svg>
