<svg xmlns="http://www.w3.org/2000/svg" fill="none" viewBox="0 0 3273 305"><path fill="#26272B" d="m102.75 72.9 22.424 21.349 36.362-26.542 48.541-33.791c-20.69-11.943-44.765-18.786-70.468-18.786-42.583 0-80.707 18.786-106.315 48.408l30.778 42.895A88.884 88.884 0 0 1 102.75 72.9ZM58.646 188.964l21.675-22.091-26.945-35.816-34.308-47.819C6.948 103.613 0 127.333 0 152.653c0 41.95 19.067 79.504 49.146 104.725l43.545-30.315c-14.81-9.087-26.743-22.322-34.045-38.099ZM225.839 174.244l-26.945-35.816 21.674-22.091c-7.301-15.776-19.235-29.011-34.045-38.099l43.546-30.315c30.078 25.221 49.145 62.776 49.145 104.725 0 25.32-6.948 49.04-19.067 69.415l-34.308-47.819ZM245.911 241.765l-30.778-42.895a88.853 88.853 0 0 1-38.678 33.533l-22.424-21.349-36.361 26.542-48.542 33.797c20.684 11.936 44.759 18.785 70.462 18.785 42.583 0 80.707-18.785 106.31-48.407l.011-.006Z"/><path fill="#26272B" fill-rule="evenodd" d="M422.913 48.135c18.442 0 34.29 4.55 47.545 13.65 13.255 8.91 23.245 21.233 29.968 36.969 6.724 15.735 10.086 33.745 10.086 54.031 0 20.285-3.362 38.296-10.086 54.031-6.723 15.736-16.713 28.153-29.968 37.253-13.255 8.911-29.103 13.366-47.545 13.366s-34.291-4.455-47.546-13.366c-13.255-9.1-23.245-21.517-29.968-37.253-6.724-15.735-10.086-33.746-10.086-54.031 0-20.286 3.362-38.296 10.086-54.031 6.723-15.736 16.713-28.059 29.968-36.97 13.255-9.1 29.104-13.65 47.546-13.65Zm0 38.675c10.2 0 18.521 3.34 24.961 10.021l-62.368 88.981c-2.725-9.402-4.088-20.412-4.088-33.027 0-20.096 3.458-36.116 10.374-48.06 7.108-11.943 17.481-17.915 31.121-17.915Zm0 131.95c-10.213 0-18.594-3.348-25.145-10.044l62.412-89.045c2.818 9.422 4.227 20.46 4.227 33.114 0 20.096-3.554 36.115-10.662 48.059-6.916 11.944-17.193 17.916-30.832 17.916Z" clip-rule="evenodd"/><path fill="#26272B" d="m565.225 174.397-54.173 78.488h51.868l25.357-44.363c1.921-3.033 3.074-7.014 3.458-11.943.192-1.896.576-3.318 1.153-4.266.576-1.138 1.729-1.706 3.458-1.706 2.689 0 4.226 1.706 4.61 5.118v.854c.384 4.929 1.537 8.91 3.458 11.943l25.358 44.363h51.868l-54.174-78.488 49.563-71.662h-51.868l-20.747 37.253c-2.305 3.981-3.458 7.962-3.458 11.944 0 1.706-.384 3.128-1.152 4.265-.577 1.138-1.729 1.707-3.458 1.707s-2.978-.569-3.746-1.707c-.577-1.137-.865-2.559-.865-4.265 0-3.982-1.153-7.963-3.458-11.944l-20.747-37.253h-51.868l49.563 71.662ZM1750.83 48.364v204.023h-27.58V48.364h27.58Z"/><path fill="#26272B" fill-rule="evenodd" d="M870.817 69.617c-11.871-11.146-31.306-16.719-58.305-16.719h-75.25v199.49h29.87v-74.809h49.976c15.892 0 29.2-2.645 39.923-7.934 10.723-5.29 18.669-12.657 23.839-22.103 5.361-9.445 8.042-20.213 8.042-32.303 0-19.27-6.032-34.477-18.095-45.622Zm-22.977 72.825c-7.276 6.801-17.616 10.201-31.019 10.201h-49.689V77.834h49.689c13.786 0 24.222 3.306 31.306 9.918 7.276 6.423 10.914 15.585 10.914 27.487 0 11.145-3.733 20.213-11.201 27.203Z" clip-rule="evenodd"/><path fill="#26272B" d="M940.618 140.742c-.384.377-.958.472-1.724.283-.957-.189-1.436-.756-1.436-1.7 0-.945.096-1.889.287-2.834h.287v-.567c2.107-6.989 3.16-13.318 3.16-18.985v-9.635h-27.573v145.084h27.573v-69.425c0-13.035 1.627-23.33 4.883-30.887 3.446-7.556 9.095-12.846 16.945-15.868 8.042-3.212 19.148-4.345 33.317-3.401v-27.77c-12.063 0-21.541 1.134-28.434 3.401-6.702 2.267-11.872 5.762-15.51 10.484-3.638 4.534-7.18 11.052-10.627 19.553l-.287.283a6.265 6.265 0 0 1-.861 1.984Z"/><path fill="#26272B" fill-rule="evenodd" d="M1069.27 105.037c14.36 0 26.9 3.306 37.63 9.918 10.91 6.612 19.24 15.68 24.99 27.203 5.74 11.335 8.61 23.898 8.61 37.688 0 13.791-2.87 26.448-8.61 37.971-5.75 11.335-14.08 20.308-24.99 26.92-10.73 6.612-23.27 9.918-37.63 9.918-14.36 0-27-3.306-37.91-9.918-10.72-6.612-18.96-15.585-24.7-26.92-5.75-11.523-8.617-24.18-8.617-37.971 0-13.79 2.867-26.353 8.617-37.688 5.74-11.523 13.98-20.591 24.7-27.203 10.91-6.612 23.55-9.918 37.91-9.918Zm0 124.681c9 0 16.76-2.172 23.27-6.517 6.7-4.534 11.77-10.579 15.22-18.135 3.45-7.557 5.17-15.963 5.17-25.22s-1.72-17.663-5.17-25.22c-3.45-7.556-8.52-13.507-15.22-17.852-6.51-4.533-14.27-6.8-23.27-6.8s-16.85 2.267-23.55 6.8c-6.51 4.345-11.49 10.296-14.93 17.852-3.45 7.557-5.17 15.963-5.17 25.22s1.72 17.663 5.17 25.22c3.44 7.556 8.42 13.601 14.93 18.135 6.7 4.345 14.55 6.517 23.55 6.517Z" clip-rule="evenodd"/><path fill="#26272B" d="M1142.04 107.304v23.803h27.57v78.776c0 10.39 1.63 18.702 4.88 24.936 3.26 6.234 8.14 10.768 14.65 13.602 6.51 2.644 14.94 3.967 25.28 3.967h24.12v-23.803h-21.83c-5.36 0-9.47-.661-12.35-1.984-2.68-1.322-4.59-3.494-5.74-6.517-.96-3.023-1.44-7.368-1.44-13.035v-75.942h41.36v-23.803h-41.36V66.5h-27.57v40.804h-27.57Z"/><path fill="#26272B" fill-rule="evenodd" d="M1320.73 105.037c14.36 0 26.91 3.306 37.63 9.918 10.91 6.612 19.24 15.68 24.99 27.203 5.74 11.335 8.61 23.898 8.61 37.688 0 13.791-2.87 26.448-8.61 37.971-5.75 11.335-14.08 20.308-24.99 26.92-10.72 6.612-23.27 9.918-37.63 9.918-14.36 0-27-3.306-37.91-9.918-10.72-6.612-18.96-15.585-24.7-26.92-5.74-11.523-8.62-24.18-8.62-37.971 0-13.79 2.88-26.353 8.62-37.688 5.74-11.523 13.98-20.591 24.7-27.203 10.91-6.612 23.55-9.918 37.91-9.918Zm0 124.681c9 0 16.76-2.172 23.27-6.517 6.7-4.534 11.77-10.579 15.22-18.135 3.45-7.557 5.17-15.963 5.17-25.22s-1.72-17.663-5.17-25.22c-3.45-7.556-8.52-13.507-15.22-17.852-6.51-4.533-14.27-6.8-23.27-6.8s-16.85 2.267-23.55 6.8c-6.51 4.345-11.49 10.296-14.93 17.852-3.45 7.557-5.17 15.963-5.17 25.22s1.72 17.663 5.17 25.22c3.44 7.556 8.42 13.601 14.93 18.135 6.7 4.345 14.55 6.517 23.55 6.517Z" clip-rule="evenodd"/><path fill="#26272B" d="M1415.96 142.158c-5.74 11.335-8.61 23.898-8.61 37.688 0 13.791 2.87 26.448 8.61 37.971 5.94 11.335 14.37 20.308 25.28 26.92 10.91 6.612 23.65 9.918 38.2 9.918 13.02 0 24.32-2.551 33.89-7.651 9.57-5.29 17.04-12.185 22.4-20.686 5.37-8.69 8.52-18.135 9.48-28.337h-27c-1.34 8.879-5.36 16.436-12.06 22.67-6.7 6.045-15.51 9.067-26.42 9.067-9 0-16.95-2.266-23.84-6.8-6.7-4.534-11.87-10.579-15.51-18.136-3.64-7.556-5.46-15.868-5.46-24.936s1.82-17.38 5.46-24.936c3.64-7.557 8.81-13.602 15.51-18.136 6.89-4.533 14.84-6.8 23.84-6.8 10.91 0 19.72 3.117 26.42 9.351 6.7 6.045 10.72 13.507 12.06 22.386h27c-.96-10.202-4.11-19.553-9.48-28.054-5.36-8.689-12.92-15.585-22.69-20.685-9.57-5.29-20.77-7.935-33.6-7.935-14.94 0-27.86 3.306-38.77 9.918-10.73 6.612-18.96 15.68-24.71 27.203Z"/><path fill="#26272B" fill-rule="evenodd" d="M1631.94 105.037c14.36 0 26.9 3.306 37.62 9.918 10.92 6.612 19.24 15.68 24.99 27.203 5.74 11.335 8.62 23.898 8.62 37.688 0 13.791-2.88 26.448-8.62 37.971-5.75 11.335-14.07 20.308-24.99 26.92-10.72 6.612-23.26 9.918-37.62 9.918-14.37 0-27-3.306-37.92-9.918-10.72-6.612-18.95-15.585-24.7-26.92-5.74-11.523-8.61-24.18-8.61-37.971 0-13.79 2.87-26.353 8.61-37.688 5.75-11.523 13.98-20.591 24.7-27.203 10.92-6.612 23.55-9.918 37.92-9.918Zm0 124.681c9 0 16.75-2.172 23.26-6.517 6.7-4.534 11.78-10.579 15.22-18.135 3.45-7.557 5.17-15.963 5.17-25.22s-1.72-17.663-5.17-25.22c-3.44-7.556-8.52-13.507-15.22-17.852-6.51-4.533-14.26-6.8-23.26-6.8-9 0-16.85 2.267-23.56 6.8-6.51 4.345-11.48 10.296-14.93 17.852-3.45 7.557-5.17 15.963-5.17 25.22s1.72 17.663 5.17 25.22c3.45 7.556 8.42 13.601 14.93 18.135 6.71 4.345 14.56 6.517 23.56 6.517Z" clip-rule="evenodd"/><path fill="#26272B" d="M1824.18 102.175c-7.57 15.324-11.35 32.539-11.35 51.647 0 19.107 3.59 36.417 10.78 51.93 7.19 15.512 17.59 27.809 31.21 36.89 13.62 8.891 29.89 13.337 48.81 13.337 12.11 0 22.7-2.459 31.78-7.378 9.08-4.919 16.37-10.972 21.85-18.161 5.49-7.189 9.37-14.473 11.64-21.851v-.567c.38-.757.76-1.324 1.13-1.703.57-.378 1.23-.378 1.99 0 .76.379 1.14.946 1.14 1.703.18.567 0 1.513-.57 2.838-1.14 3.405-1.99 6.526-2.56 9.364-.37 2.649-.56 5.77-.56 9.364v24.121h24.97V151.552h-84v20.431h58.18c-1.14 10.783-4.17 21.094-9.09 30.931-4.91 9.648-11.91 17.499-20.99 23.553-8.9 6.054-19.58 9.081-32.07 9.081-14.57 0-27.05-3.595-37.46-10.784-10.21-7.189-17.97-16.931-23.27-29.228-5.29-12.486-7.94-26.391-7.94-41.714 0-15.135 2.93-28.85 8.79-41.147 6.06-12.486 14.48-22.323 25.26-29.512 10.97-7.378 23.36-11.067 37.17-11.067 15.89 0 28.85 3.973 38.88 11.918 10.22 7.757 17.31 18.918 21.28 33.485h25.26c-2.08-12.107-6.43-23.08-13.06-32.917-6.62-10.027-16.08-17.972-28.37-23.837-12.11-6.054-26.87-9.08-44.27-9.08-19.68 0-36.8 4.54-51.36 13.62-14.38 9.081-25.45 21.378-33.2 36.89Z"/><path fill="#26272B" fill-rule="evenodd" d="M2084.82 106.148c13.81 0 25.83 3.311 36.04 9.932 10.41 6.622 18.35 15.702 23.84 27.242 5.49 11.351 8.23 23.932 8.23 37.742 0 13.81-2.74 26.485-8.23 38.025-5.49 11.351-13.43 20.337-23.84 26.958-10.21 6.621-22.23 9.932-36.04 9.932-13.81 0-25.91-3.311-36.32-9.932-10.21-6.621-18.07-15.607-23.55-26.958-5.49-11.54-8.23-24.215-8.23-38.025 0-13.81 2.74-26.391 8.23-37.742 5.48-11.54 13.34-20.62 23.55-27.242 10.41-6.621 22.51-9.932 36.32-9.932Zm0 129.4c9.27 0 17.31-2.365 24.12-7.095 7-4.918 12.3-11.445 15.9-19.58 3.59-8.324 5.39-17.594 5.39-27.809 0-10.216-1.8-19.391-5.39-27.526-3.6-8.324-8.9-14.851-15.9-19.58-6.81-4.919-14.85-7.378-24.12-7.378-9.27 0-17.4 2.459-24.4 7.378-6.81 4.729-12.01 11.256-15.61 19.58-3.59 8.135-5.39 17.31-5.39 27.526 0 10.215 1.8 19.485 5.39 27.809 3.6 8.135 8.8 14.662 15.61 19.58 7 4.73 15.13 7.095 24.4 7.095Z" clip-rule="evenodd"/><path fill="#26272B" d="M2154.72 108.418h24.97l41.15 121.738c.19.189.28.473.28.851 0 .379.1.662.29.852.94 2.459 1.42 4.824 1.42 7.094 0 2.27.75 3.405 2.27 3.405 1.51 0 2.27-1.135 2.27-3.405 0-2.27.47-4.635 1.42-7.094.19-.19.28-.473.28-.852 0-.378.09-.662.28-.851l41.15-121.738h24.97l-52.21 145.291h-36.32l-52.22-145.291Z"/><path fill="#26272B" fill-rule="evenodd" d="M2325.12 209.724c-3.43-7.196-5.3-14.858-5.63-22.985h108.92c.38-3.405.57-6.716.57-9.932 0-15.891-3.03-29.134-9.08-39.728-6.06-10.594-14-18.35-23.84-23.269-9.65-5.108-19.96-7.662-30.93-7.662-13.24 0-25.07 3.122-35.47 9.365-10.22 6.243-18.16 15.04-23.84 26.39-5.67 11.351-8.51 24.405-8.51 39.161 0 13.621 2.65 26.107 7.94 37.457 5.49 11.351 13.34 20.432 23.56 27.242 10.4 6.811 22.7 10.216 36.89 10.216 11.35 0 21.28-2.365 29.79-7.094 8.52-4.919 15.33-11.162 20.43-18.729 5.11-7.567 8.61-15.607 10.5-24.121h-23.83c-2.84 9.081-7.19 16.27-13.06 21.567-5.67 5.297-13.33 7.946-22.98 7.946s-18.07-2.365-25.26-7.095c-7-4.729-12.39-10.972-16.17-18.729Zm69.8-72.077c6.62 7.69 10.37 18 11.23 30.931h-85.62c1.56-10.431 4.79-19.322 9.7-26.675 7.18-10.972 19.39-16.458 36.6-16.458 11.73 0 21.1 4.067 28.09 12.202Z" clip-rule="evenodd"/><path fill="#26272B" d="M2469.47 141.903c.76.19 1.32.095 1.7-.283.57-.568.95-1.135 1.14-1.703v-.284c3.59-8.702 7.19-15.323 10.78-19.864 3.6-4.54 8.7-7.945 15.32-10.215 6.63-2.271 15.9-3.406 27.81-3.406v23.269c-14-.945-24.97.19-32.91 3.406-7.76 3.027-13.34 8.324-16.75 15.891-3.21 7.567-4.82 17.877-4.82 30.931v74.064h-22.7V108.418h22.7v11.351c0 5.676-.95 11.351-2.84 17.026v.284l-.28.284c-.38 1.324-.57 2.365-.57 3.122 0 .756.47 1.229 1.42 1.418ZM2617.24 106.148c17.21 0 30.45 5.014 39.72 15.04 9.46 10.027 14.19 25.445 14.19 46.255v86.266h-22.7v-85.131c0-10.784-1.51-19.297-4.54-25.54-3.03-6.432-7.19-10.972-12.48-13.621-5.11-2.648-11.26-3.972-18.45-3.972-7.57 0-14.94 2.364-22.13 7.094-7 4.54-12.77 11.067-17.31 19.58-4.54 8.513-6.81 18.256-6.81 29.228v72.362h-22.71V108.418h22.71v12.203c0 2.459-.29 4.918-.86 7.378-.37 2.459-1.04 5.202-1.98 8.229 0 .189-.1.378-.29.567v.284c-.56 1.325-.94 2.365-1.13 3.122 0 .756.47 1.324 1.42 1.702.57.19 1.13.095 1.7-.283.57-.379.95-.852 1.14-1.419l.28-.284c2.27-5.108 5.67-10.216 10.22-15.324 4.72-5.297 10.49-9.648 17.31-13.053 7-3.595 14.56-5.392 22.7-5.392Z"/><path fill="#26272B" fill-rule="evenodd" d="M2690.9 213.13c0-14.756 4.72-25.445 14.18-32.066 9.65-6.811 21.95-10.878 36.89-12.202a95.8 95.8 0 0 1 7.38-.284l7.38-.568c8.89-.567 15.89-1.135 21-1.702 5.3-.757 9.55-2.176 12.77-4.257 3.21-2.081 4.82-5.202 4.82-9.364-.19-7.378-3.12-13.716-8.79-19.013-5.49-5.486-15.61-8.229-30.37-8.229-11.92 0-21.09 2.554-27.52 7.661-6.25 4.919-9.94 11.068-11.07 18.446h-22.13c1.7-10.405 5.48-18.918 11.35-25.54 5.86-6.81 13.24-11.824 22.13-15.04 8.89-3.216 18.73-4.824 29.51-4.824 12.11 0 22.42 1.797 30.93 5.392 8.71 3.594 15.61 10.216 20.72 19.864 5.3 9.459 7.94 22.607 7.94 39.444v82.861h-22.7v-16.175c0-3.405.48-7.283 1.42-11.635.19-.756.38-1.418.57-1.986.38-.757.66-1.513.85-2.27l.28-.851c.57-1.136.76-2.081.57-2.838 0-.946-.47-1.514-1.42-1.703-.56-.189-1.13 0-1.7.568-.57.378-.95.851-1.13 1.419v.567c-3.79 11.54-10.79 20.621-21 27.242-10.03 6.621-21.76 9.932-35.19 9.932-8.51 0-16.46-1.797-23.84-5.392-7.19-3.783-12.96-8.891-17.31-15.323-4.35-6.621-6.52-14-6.52-22.134Zm104.42-40.579c-3.02 3.594-7.66 6.243-13.9 7.945-6.06 1.514-14.76 3.122-26.11 4.824-2.08.379-4.26.757-6.53 1.135-2.08.189-4.16.473-6.24.852-9.46 1.513-16.65 4.162-21.57 7.945-4.91 3.784-7.37 9.27-7.37 16.459 0 7.567 2.93 13.905 8.79 19.012 6.06 5.108 14.57 7.095 25.54 5.96 9.27-.946 17.41-3.879 24.41-8.797 7.19-5.108 12.77-12.297 16.74-21.567 4.16-9.459 6.24-20.715 6.24-33.768Z" clip-rule="evenodd"/><path fill="#26272B" d="M2920.27 106.148c17.22 0 30.46 5.014 39.73 15.04 9.46 10.027 14.19 25.445 14.19 46.255v86.266h-22.7v-85.131c0-10.784-1.52-19.297-4.54-25.54-3.03-6.432-7.19-10.972-12.49-13.621-5.11-2.648-11.26-3.972-18.44-3.972-7.57 0-14.95 2.364-22.14 7.094-7 4.54-12.77 11.067-17.31 19.58-4.54 8.513-6.81 18.256-6.81 29.228v72.362h-22.7V108.418h22.7v12.203c0 2.459-.28 4.918-.85 7.378-.38 2.459-1.04 5.202-1.99 8.229 0 .189-.09.378-.28.567v.284c-.57 1.325-.95 2.365-1.14 3.122 0 .756.48 1.324 1.42 1.702.57.19 1.14.095 1.71-.283.56-.379.94-.852 1.13-1.419l.29-.284c2.27-5.108 5.67-10.216 10.21-15.324 4.73-5.297 10.5-9.648 17.31-13.053 7-3.595 14.57-5.392 22.7-5.392ZM2993.93 181.064c0-13.81 2.74-26.391 8.23-37.742 5.49-11.54 13.43-20.62 23.84-27.242 10.4-6.621 22.7-9.932 36.89-9.932 12.1 0 22.79 2.554 32.06 7.662 9.27 5.108 16.46 11.824 21.57 20.148 5.3 8.324 8.32 17.215 9.08 26.674h-22.13c-1.52-10.216-5.77-18.445-12.77-24.688-6.81-6.243-15.89-9.364-27.25-9.364-10.4 0-19.1 2.459-26.1 7.378-7 4.729-12.2 11.256-15.61 19.58-3.4 8.135-5.11 17.31-5.11 27.526 0 10.215 1.71 19.485 5.11 27.809 3.41 8.135 8.61 14.662 15.61 19.58 7 4.73 15.7 7.095 26.1 7.095 11.36 0 20.44-3.122 27.25-9.365 7-6.243 11.25-14.472 12.77-24.688h22.13c-.76 9.459-3.78 18.351-9.08 26.675-5.11 8.323-12.3 15.039-21.57 20.147-9.08 5.108-19.77 7.662-32.06 7.662-13.81 0-26.01-3.311-36.61-9.932-10.4-6.81-18.44-15.891-24.12-27.242-5.49-11.351-8.23-23.931-8.23-37.741Z"/><path fill="#26272B" fill-rule="evenodd" d="M3168.82 209.724c-3.42-7.196-5.3-14.858-5.62-22.985h108.92c.38-3.405.56-6.716.56-9.932 0-15.891-3.02-29.134-9.08-39.728-6.05-10.594-14-18.35-23.83-23.269-9.65-5.108-19.96-7.662-30.93-7.662-13.25 0-25.07 3.122-35.48 9.365-10.21 6.243-18.16 15.04-23.83 26.39-5.68 11.351-8.51 24.405-8.51 39.161 0 13.621 2.64 26.107 7.94 37.457 5.49 11.351 13.34 20.432 23.55 27.242 10.41 6.811 22.71 10.216 36.89 10.216 11.35 0 21.29-2.365 29.8-7.094 8.51-4.919 15.32-11.162 20.43-18.729 5.11-7.567 8.61-15.607 10.5-24.121h-23.84c-2.83 9.081-7.19 16.27-13.05 21.567-5.68 5.297-13.34 7.946-22.98 7.946-9.65 0-18.07-2.365-25.26-7.095-7-4.729-12.39-10.972-16.18-18.729Zm69.81-72.077c6.62 7.69 10.36 18 11.23 30.931h-85.62c1.56-10.431 4.79-19.322 9.69-26.675 7.19-10.972 19.39-16.458 36.61-16.458 11.73 0 21.09 4.067 28.09 12.202Z" clip-rule="evenodd"/></svg>