<svg width="30" height="30" viewBox="0 0 30 30" fill="none" xmlns="http://www.w3.org/2000/svg">
<path fill-rule="evenodd" clip-rule="evenodd" d="M6.69643 0L23.3036 0C27.0019 0 30 2.99809 30 6.69643V23.3036C30 27.0019 27.0019 30 23.3036 30H6.69643C2.99809 30 0 27.0019 0 23.3036V6.69643C0 2.99809 2.99809 0 6.69643 0V0Z" fill="url(#paint0_linear)"/>
<path d="M15.1339 26.5179C21.4211 26.5179 26.5179 21.4211 26.5179 15.1339C26.5179 8.84676 21.4211 3.75 15.1339 3.75C8.84676 3.75 3.75 8.84676 3.75 15.1339C3.75 21.4211 8.84676 26.5179 15.1339 26.5179Z" fill="white"/>
<path fill-rule="evenodd" clip-rule="evenodd" d="M15 30C6.71573 30 0 23.2843 0 15C0 6.71573 6.71573 0 15 0C23.2843 0 30 6.71573 30 15C30 23.2843 23.2843 30 15 30ZM14.9327 26.435C21.2481 26.435 26.3677 21.3154 26.3677 15C26.3677 8.68464 21.2481 3.56502 14.9327 3.56502C8.61737 3.56502 3.49776 8.68464 3.49776 15C3.49776 21.3154 8.61737 26.435 14.9327 26.435Z" fill="url(#paint1_linear)"/>
<path fill-rule="evenodd" clip-rule="evenodd" d="M11.4328 11.5486L13.7947 10.185L13.2833 9.29924C12.8126 8.48397 13.0919 7.44149 13.9072 6.97079C14.7225 6.5001 15.765 6.77943 16.2356 7.5947L16.747 8.48041L17.6327 7.96904C18.448 7.49835 19.4905 7.77768 19.9612 8.59295C20.4319 9.40822 20.1525 10.4507 19.3373 10.9214L18.4516 11.4328L19.8152 13.7947L20.7009 13.2833C21.5162 12.8126 22.5587 13.0919 23.0294 13.9072C23.5001 14.7225 23.2207 15.765 22.4054 16.2356L21.5197 16.747L22.0311 17.6327C22.5018 18.448 22.2225 19.4905 21.4072 19.9612C20.5919 20.4319 19.5494 20.1525 19.0787 19.3373L18.5674 18.4516L16.2055 19.8152L16.7169 20.7009C17.1876 21.5162 16.9082 22.5587 16.0929 23.0294C15.2777 23.5001 14.2352 23.2207 13.7645 22.4054L13.2531 21.5197L12.3674 22.0311C11.5522 22.5018 10.5097 22.2225 10.039 21.4072C9.56828 20.5919 9.84761 19.5494 10.6629 19.0787L11.5486 18.5674L10.185 16.2055L9.29924 16.7169C8.48397 17.1876 7.44149 16.9082 6.97079 16.093C6.50009 15.2777 6.77943 14.2352 7.5947 13.7645L8.48041 13.2531L7.96904 12.3674C7.49835 11.5522 7.77768 10.5097 8.59295 10.039C9.40822 9.56828 10.4507 9.84761 10.9214 10.6629L11.4328 11.5486ZM13.1373 14.5009L14.5009 16.8628L16.8628 15.4992L15.4992 13.1373L13.1373 14.5009Z" fill="url(#paint2_linear)"/>
<defs>
<linearGradient id="paint0_linear" x1="15.7637" y1="30" x2="15.7637" y2="4.72912e-08" gradientUnits="userSpaceOnUse">
<stop stop-color="#1E3DA0"/>
<stop offset="1" stop-color="#3750DE"/>
</linearGradient>
<linearGradient id="paint1_linear" x1="15" y1="0" x2="15" y2="30" gradientUnits="userSpaceOnUse">
<stop stop-color="#1D3BA3" stop-opacity="0"/>
<stop offset="1" stop-color="#173793" stop-opacity="0.652938"/>
</linearGradient>
<linearGradient id="paint2_linear" x1="18.7501" y1="21.4953" x2="11.2501" y2="8.50488" gradientUnits="userSpaceOnUse">
<stop stop-color="#1E3DA0"/>
<stop offset="1" stop-color="#3750DE"/>
</linearGradient>
</defs>
</svg>
