<svg width="30" height="30" viewBox="0 0 30 30" fill="none" xmlns="http://www.w3.org/2000/svg">
    <path fill-rule="evenodd" clip-rule="evenodd" d="M30 15C30 23.2843 23.2843 30 15 30C6.71573 30 0 23.2843 0 15C0 6.71573 6.71573 0 15 0C23.2843 0 30 6.71573 30 15ZM23.8863 15C23.8863 19.9077 19.9077 23.8863 15 23.8863C10.0923 23.8863 6.11374 19.9077 6.11374 15C6.11374 10.0923 10.0923 6.11374 15 6.11374C19.9077 6.11374 23.8863 10.0923 23.8863 15ZM12.7962 12.0853C12.4821 12.0853 12.2275 12.3399 12.2275 12.654V17.346C12.2275 17.6601 12.4821 17.9147 12.7962 17.9147H17.2038C17.5179 17.9147 17.7725 17.6601 17.7725 17.346V12.654C17.7725 12.3399 17.5179 12.0853 17.2038 12.0853H12.7962Z" fill="#2F5CE2"/>
</svg>
