<svg width="285" height="284" viewBox="0 0 285 284" fill="none" xmlns="http://www.w3.org/2000/svg">
<path d="M253.205 56.0517C250.77 52.9649 246.193 52.8158 243.408 55.5924L195.607 103.223C193.251 105.569 192.987 109.251 194.658 112.122C199.935 121.202 202.714 131.508 202.714 142C202.714 152.492 199.935 162.799 194.658 171.878C192.987 174.75 193.251 178.431 195.607 180.777L243.408 228.408C246.193 231.185 250.77 231.035 253.205 227.947C292.932 177.55 292.932 106.449 253.205 56.0517V56.0517ZM56.2465 31.6897C53.147 34.1137 52.9973 38.6752 55.7838 41.4535L103.586 89.0825C105.941 91.4285 109.636 91.6929 112.516 90.0284C121.627 84.7691 131.971 81.9995 142.501 81.9995C153.031 81.9995 163.375 84.7691 172.486 90.0284C175.368 91.6929 179.061 91.4285 181.418 89.0825L229.218 41.4518C232.003 38.6752 231.855 34.1137 228.756 31.688C178.179 -7.89601 106.824 -7.89601 56.2465 31.688V31.6897ZM181.418 194.918C179.061 192.572 175.368 192.307 172.486 193.972C163.375 199.231 153.031 202 142.501 202C131.971 202 121.628 199.231 112.516 193.972C109.634 192.307 105.941 192.572 103.585 194.918L55.7838 242.549C52.999 245.325 53.147 249.887 56.2465 252.311C106.822 291.896 178.179 291.896 228.756 252.311C231.855 249.887 232.003 245.325 229.218 242.549L181.418 194.918V194.918ZM90.3428 112.121C92.0133 109.251 91.7479 105.569 89.3935 103.221L41.5927 55.5941C38.8062 52.8175 34.2284 52.9666 31.7941 56.0534C-7.93135 106.449 -7.93135 177.552 31.7941 227.949C34.2284 231.037 38.8062 231.186 41.5927 228.41L89.3952 180.779C91.7479 178.433 92.0133 174.751 90.3428 171.88C85.0647 162.8 82.2852 152.494 82.2852 142.001C82.2852 131.508 85.0647 121.202 90.3428 112.122V112.121Z" stroke="#00AE99" stroke-width="3" stroke-linecap="round" stroke-linejoin="round"/>
</svg>
