<svg width="140" height="140" fill="none" xmlns="http://www.w3.org/2000/svg"><mask id="a" mask-type="alpha" maskUnits="userSpaceOnUse" x="0" y="0" width="140" height="140"><path d="M69.533 139.067c38.403 0 69.534-31.131 69.534-69.534C139.067 31.131 107.936 0 69.533 0 31.131 0 0 31.131 0 69.533c0 38.403 31.131 69.534 69.533 69.534z" fill="#00AE99"/></mask><g mask="url(#a)" stroke="#00AE99" stroke-width="2"><circle cx="69.533" cy="69.533" r="68.133"/><circle cx="69.533" cy="69.533" r="54.133"/><path d="M58.314 58.314l-24.579 47.018 47.018-24.58M58.314 58.315l47.018-24.579-24.58 47.018m-22.438-22.44l22.439 22.44M69.533 1.4v14m0 108.267v14M1.4 69.533h14m108.267 0h14M10.528 35.467l12.125 7M116.414 96.6l12.125 7M35.467 10.528l7 12.124M96.6 116.414l7 12.124M103.6 10.528l-7 12.124m-54.133 93.762l-7 12.124M128.539 35.467l-12.125 7M22.653 96.6l-12.125 7"/></g></svg>