<svg width="24" height="24" viewBox="0 0 24 24" fill="none" xmlns="http://www.w3.org/2000/svg">
    <path d="M11.9978 4.90824C13.6636 4.90722 15.276 5.49588 16.5493 6.56993L20.1159 3.17348C18.7468 1.91103 17.1022 0.98508 15.3128 0.469103C13.5234 -0.0468735 11.6383 -0.13867 9.80721 0.200998C7.97611 0.540665 6.24939 1.30245 4.76408 2.42589C3.27876 3.54933 2.07574 5.0035 1.25049 6.67301L5.27138 9.77225C5.74031 8.35819 6.64226 7.12752 7.84948 6.25455C9.0567 5.38159 10.508 4.91058 11.9978 4.90824Z" fill="#D94F3D"/>
    <path d="M4.90817 11.9979C4.90918 11.2414 5.03181 10.4899 5.27138 9.77234L1.25049 6.6731C0.428018 8.32764 0 10.1502 0 11.9979C0 13.8456 0.428018 15.6682 1.25049 17.3227L5.27138 14.2235C5.03181 13.5059 4.90918 12.7545 4.90817 11.9979Z" fill="#F2C042"/>
    <path d="M23.5047 9.81641H12.0522V14.7246H18.5419C18.1559 16.1124 17.2714 17.3089 16.0579 18.085L20.0477 21.1608C22.5972 18.8725 24.0953 15.1516 23.5047 9.81641Z" fill="#5085ED"/>
    <path d="M16.0563 18.085C14.8233 18.7908 13.4176 19.1379 11.9978 19.0874C10.508 19.0851 9.0567 18.614 7.84948 17.7411C6.64226 16.8681 5.74031 15.6374 5.27138 14.2234L1.25049 17.3226C2.24365 19.3247 3.77572 21.0099 5.67436 22.1888C7.573 23.3676 9.76291 23.9934 11.9978 23.9956C14.9385 24.0755 17.805 23.0655 20.0461 21.1597L16.0563 18.085Z" fill="#57A75C"/>
</svg>
