<svg width="7px" height="13px" viewBox="0 0 7 13" version="1.1" xmlns="http://www.w3.org/2000/svg">
    <g id="Page-1" stroke="none" stroke-width="1" fill="none" fill-rule="evenodd">
        <path d="M3.66667,4.38892 C3.94281,4.38892 4.16667,4.61278 4.16667,4.88892 L4.166,11.49992 L6.33333,11.5 C6.60947,11.5 6.83333,11.7239 6.83333,12 C6.83333,12.2761 6.60947,12.5 6.33333,12.5 L1,12.5 C0.723858,12.5 0.5,12.2761 0.5,12 C0.5,11.7239 0.723858,11.5 1,11.5 L3.166,11.49992 L3.16667,5.38892 L1,5.38892 C0.723858,5.38892 0.5,5.16506 0.5,4.88892 C0.5,4.61278 0.723858,4.38892 1,4.38892 L3.66667,4.38892 Z M3.22238,3.55271368e-15 C3.7133,3.55271368e-15 4.11127,0.397969 4.11127,0.888889 C4.11127,1.37981 3.7133,1.77778 3.22238,1.77778 C2.73146,1.77778 2.3335,1.3798 2.3335,0.888889 C2.3335,0.397977 2.73146,3.55271368e-15 3.22238,3.55271368e-15 Z" id="Combined-Shape" fill="#000000"></path>
    </g>
</svg>