<svg width="40" height="40" viewBox="0 0 40 40" fill="none" xmlns="http://www.w3.org/2000/svg">
<path fill-rule="evenodd" clip-rule="evenodd" d="M40.0006 24.6843V6.03866C40.0006 4.43751 39.3647 2.9019 38.2327 1.7695C37.1007 0.637094 35.5653 0.000609963 33.9642 0H15.2604V24.6843H40.0006ZM0 15.1997H9.4508V24.6838H0V15.1997ZM9.4508 0V9.39501H0V6.03866C0 4.43711 0.636215 2.90115 1.76868 1.76868C2.90115 0.636214 4.43711 0 6.03867 0H9.4508ZM9.4508 30.4905H0V33.9664C0.000150919 34.7591 0.156486 35.5441 0.460075 36.2764C0.763663 37.0086 1.20856 37.6739 1.76934 38.2342C2.33012 38.7945 2.99579 39.2389 3.72834 39.5418C4.46089 39.8448 5.24594 40.0004 6.03867 39.9999H9.4508V30.4905ZM24.7417 30.4905H15.2604V39.9999H24.7417V30.4905ZM39.9978 33.9664V30.4905H30.5442V39.9999H33.9592C34.7519 40.0004 35.537 39.8448 36.2695 39.5418C37.002 39.2389 37.6677 38.7945 38.2285 38.2342C38.7893 37.6739 39.2342 37.0086 39.5378 36.2764C39.8414 35.5441 39.9977 34.7591 39.9978 33.9664Z" fill="black"/>
</svg>
