<svg width="346" height="318" viewBox="0 0 346 318" fill="none" xmlns="http://www.w3.org/2000/svg">
<path d="M6.26424 149.323C-2.1534 96.9095 4.18119 82.173 6.57442 80.2503H340.572C348.679 96.0794 340.512 154.657 334.372 177.143C326.235 206.945 310.739 240.907 300.687 256.289C289.716 273.077 256.16 315.768 173.656 315.768C86.3836 315.768 55.415 271.183 47.278 259.167C39.141 247.15 15.2539 205.297 6.26424 149.323Z" fill="#111A19" stroke="#00AE99" stroke-width="3.87931"/>
<path d="M343.773 95.9515C343.773 121.423 325.166 144.892 294.184 162.104C263.268 179.279 220.427 189.963 173 189.963C125.573 189.963 82.7315 179.279 51.8157 162.104C20.8341 144.892 2.22695 121.423 2.22695 95.9515C2.22695 70.4795 20.8341 47.0111 51.8157 29.7991C82.7315 12.6236 125.573 1.93966 173 1.93966C220.427 1.93966 263.268 12.6236 294.184 29.7991C325.166 47.0111 343.773 70.4795 343.773 95.9515Z" fill="#111A19" stroke="#00AE99" stroke-width="3.87931"/>
<path d="M323.485 92.4626C323.485 114.407 307.096 134.562 279.961 149.306C252.876 164.022 215.371 173.164 173.872 173.164C132.374 173.164 94.8679 164.022 67.7831 149.306C40.6483 134.562 24.2597 114.407 24.2597 92.4626C24.2597 70.518 40.6483 50.3634 67.7831 35.6197C94.8679 20.9031 132.374 11.7608 173.872 11.7608C215.371 11.7608 252.876 20.9031 279.961 35.6197C307.096 50.3634 323.485 70.518 323.485 92.4626Z" fill="#111A19" stroke="#00AE99" stroke-width="2.58621"/>
<path d="M311.273 104.674C311.273 123.203 296.504 140.312 271.867 152.866C247.301 165.384 213.274 173.164 175.617 173.164C137.96 173.164 103.932 165.384 79.3664 152.866C54.7299 140.312 39.961 123.203 39.961 104.674C39.961 86.145 54.7299 69.036 79.3664 56.4824C103.932 43.9647 137.96 36.1844 175.617 36.1844C213.274 36.1844 247.301 43.9647 271.867 56.4824C296.504 69.036 311.273 86.145 311.273 104.674Z" fill="#111A19" stroke="#00AE99" stroke-width="2.58621"/>
</svg>
