<svg width="422" height="322" viewBox="0 0 422 322" fill="none" xmlns="http://www.w3.org/2000/svg">
<path d="M7.30198 182.425C-2.98169 118.393 4.75716 100.389 7.68093 98.0403H415.72C425.624 117.378 415.646 188.942 408.146 216.413C398.205 252.821 379.273 294.312 366.993 313.103C353.59 333.613 312.596 385.768 211.802 385.768C105.182 385.768 67.3486 331.3 57.4078 316.619C47.467 301.939 18.2844 250.808 7.30198 182.425Z" fill="#111A19" stroke="#00AE99" stroke-width="3.87931"/>
<path d="M420.06 117.222C420.06 148.568 397.168 177.354 359.258 198.415C321.413 219.44 269 232.505 211 232.505C153 232.505 100.587 219.44 62.7425 198.415C24.8322 177.354 1.93966 148.568 1.93966 117.222C1.93966 85.8765 24.8322 57.0904 62.7425 36.0292C100.587 15.0044 153 1.93966 211 1.93966C269 1.93966 321.413 15.0044 359.258 36.0292C397.168 57.0904 420.06 85.8765 420.06 117.222Z" fill="#111A19" stroke="#00AE99" stroke-width="3.87931"/>
<path d="M395.131 112.96C395.131 139.924 374.998 164.623 341.809 182.656C308.671 200.662 262.802 211.839 212.065 211.839C161.329 211.839 115.46 200.662 82.3216 182.656C49.133 164.623 28.9999 139.924 28.9999 112.96C28.9999 85.9959 49.133 61.2971 82.3216 43.264C115.46 25.2581 161.329 14.0813 212.065 14.0813C262.802 14.0813 308.671 25.2581 341.809 43.264C374.998 61.2971 395.131 85.9959 395.131 112.96Z" fill="#111A19" stroke="#00AE99" stroke-width="2.58621"/>
<path d="M380.212 127.879C380.212 150.68 362.045 171.656 331.915 187.009C301.855 202.326 260.237 211.838 214.197 211.838C168.157 211.838 126.539 202.326 96.4794 187.009C66.349 171.656 48.182 150.68 48.182 127.879C48.182 105.078 66.349 84.1012 96.4794 68.7481C126.539 53.431 168.157 43.9192 214.197 43.9192C260.237 43.9192 301.855 53.431 331.915 68.7481C362.045 84.1012 380.212 105.078 380.212 127.879Z" fill="#111A19" stroke="#00AE99" stroke-width="2.58621"/>
</svg>
