<svg width="300" height="278" viewBox="0 0 300 278" fill="none" xmlns="http://www.w3.org/2000/svg">
<path d="M283.36 2.14697L170.956 83.7004L189.277 37.2665L283.36 2.14697Z" stroke="#00AE99" stroke-width="2.7" stroke-linecap="round" stroke-linejoin="round"/>
<path d="M16.7793 2.14697L128.948 83.7056L110.864 37.2664L16.7793 2.14697Z" stroke="#00AE99" stroke-width="2.7" stroke-linecap="round" stroke-linejoin="round"/>
<path d="M241.741 200.434L210.989 247.412L276.836 265.542L295.7 201.461L241.741 200.434Z" stroke="#00AE99" stroke-width="2.7" stroke-linecap="round" stroke-linejoin="round"/>
<path d="M4.54004 201.461L23.2881 265.542L89.0214 247.412L58.3839 200.434L4.54004 201.461Z" stroke="#00AE99" stroke-width="2.7" stroke-linecap="round" stroke-linejoin="round"/>
<path d="M85.4683 121.074L67.1777 148.668L132.339 151.632L128.581 83.0934L85.4683 121.074Z" stroke="#00AE99" stroke-width="2.7" stroke-linecap="round" stroke-linejoin="round"/>
<path d="M214.653 121.075L170.855 82.2964L167.783 151.634L232.944 148.669L214.653 121.075Z" stroke="#00AE99" stroke-width="2.7" stroke-linecap="round" stroke-linejoin="round"/>
<path d="M89.0107 247.412L128.45 228.37L94.4982 201.917L89.0107 247.412Z" stroke="#00AE99" stroke-width="2.7" stroke-linecap="round" stroke-linejoin="round"/>
<path d="M171.68 228.37L211.005 247.412L205.632 201.917L171.68 228.37Z" stroke="#00AE99" stroke-width="2.7" stroke-linecap="round" stroke-linejoin="round"/>
<path d="M211.005 247.414L171.68 228.372L174.88 253.914L174.537 264.746L211.005 247.414Z" stroke="#00AE99" stroke-width="2.7" stroke-linecap="round" stroke-linejoin="round"/>
<path d="M89.0107 247.414L125.593 264.746L125.364 253.914L128.45 228.372L89.0107 247.414Z" stroke="#00AE99" stroke-width="2.7" stroke-linecap="round" stroke-linejoin="round"/>
<path d="M126.282 185.042L93.5869 175.464L116.679 164.86L126.282 185.042Z" stroke="#00AE99" stroke-width="2.7" stroke-linecap="round" stroke-linejoin="round"/>
<path d="M173.839 185.042L183.442 164.86L206.649 175.464L173.839 185.042Z" stroke="#00AE99" stroke-width="2.7" stroke-linecap="round" stroke-linejoin="round"/>
<path d="M89.0218 247.412L94.7381 200.434L58.3848 201.461L89.0218 247.412Z" stroke="#00AE99" stroke-width="2.7" stroke-linecap="round" stroke-linejoin="round"/>
<path d="M205.393 200.434L210.994 247.412L241.746 201.461L205.393 200.434Z" stroke="#00AE99" stroke-width="2.7" stroke-linecap="round" stroke-linejoin="round"/>
<path d="M232.944 148.667L167.783 151.632L173.842 185.042L183.445 164.859L206.651 175.463L232.944 148.667Z" stroke="#00AE99" stroke-width="2.7" stroke-linecap="round" stroke-linejoin="round"/>
<path d="M93.5852 175.463L116.677 164.859L126.28 185.042L132.339 151.632L67.1777 148.667L93.5852 175.463Z" stroke="#00AE99" stroke-width="2.7" stroke-linecap="round" stroke-linejoin="round"/>
<path d="M67.1924 148.667L94.5146 201.917L93.5995 175.463L67.1924 148.667Z" stroke="#00AE99" stroke-width="2.7" stroke-linecap="round" stroke-linejoin="round"/>
<path d="M206.653 175.463L205.624 201.917L232.946 148.667L206.653 175.463Z" stroke="#00AE99" stroke-width="2.7" stroke-linecap="round" stroke-linejoin="round"/>
<path d="M173.852 185.042L166.192 224.494L171.68 228.371L205.633 201.917L206.661 175.463L173.852 185.042Z" stroke="#00AE99" stroke-width="2.7" stroke-linecap="round" stroke-linejoin="round"/>
<path d="M93.5869 175.463L94.5021 201.917L128.454 228.371L133.941 224.494L126.282 185.042L93.5869 175.463Z" stroke="#00AE99" stroke-width="2.7" stroke-linecap="round" stroke-linejoin="round"/>
<path d="M174.521 264.745L174.863 253.913L171.892 251.404H128.222L125.364 253.913L125.593 264.745L89.0107 247.413L101.814 257.903L127.765 275.806H172.234L198.299 257.903L210.988 247.413L174.521 264.745Z" stroke="#00AE99" stroke-width="2.7" stroke-linecap="round" stroke-linejoin="round"/>
<path d="M171.682 228.37L166.194 224.494H133.956L128.47 228.37L125.383 253.912L128.241 251.403H171.91L174.883 253.912L171.682 228.37Z" stroke="#00AE99" stroke-width="2.7" stroke-linecap="round" stroke-linejoin="round"/>
<path d="M283.367 2.14697L298.001 46.0463L288.283 93.252L294.342 97.9273L285.083 104.997L292.17 110.47L282.911 118.908L288.741 123.127L275.365 138.748L214.662 121.074" stroke="#00AE99" stroke-width="2.7" stroke-linecap="round" stroke-linejoin="round"/>
<path d="M85.4712 121.074L24.7678 138.748L11.3926 123.127L17.2228 118.908L7.96305 110.47L15.0508 104.997L5.67671 97.9273L11.9642 93.252L2.13281 46.0463L16.7656 2.14697" stroke="#00AE99" stroke-width="2.7" stroke-linecap="round" stroke-linejoin="round"/>
<path d="M275.358 138.747L214.655 121.074L232.946 148.668L205.624 201.917L241.749 201.461H295.707L275.358 138.747Z" stroke="#00AE99" stroke-width="2.7" stroke-linecap="round" stroke-linejoin="round"/>
<path d="M24.7743 138.747L4.54004 201.461" stroke="#00AE99" stroke-width="2.7" stroke-linecap="round" stroke-linejoin="round"/>
<path d="M167.781 151.633L171.668 84.021L189.273 37.2662H110.851L128.455 84.8139L132.342 151.633L133.828 172.613L133.943 224.494H166.18L166.295 172.613L167.781 151.633Z" stroke="#00AE99" stroke-width="2.7" stroke-linecap="round" stroke-linejoin="round"/>
</svg>
