<svg width="29" height="30" viewBox="0 0 29 30" fill="none" xmlns="http://www.w3.org/2000/svg">
<g clip-path="url(#clip0)">
<path d="M27.4345 24.8584L25.6354 25.3055L25.2628 25.5929L9.38982 23.4212H0.000183105L3.35363 14.979L8.8043 15.0109L10.1244 17.4488L14.4785 22.0479L13.9143 19.1841L17.8 19.8867L25.2628 25.5929L19.365 19.8867L18.3962 17.1614L14.9895 8.71925C14.9895 8.71925 12.3707 4.00314 12.3174 3.94991C12.392 3.96056 18.3962 3.92862 18.3962 3.92862L19.4927 8.46375L21.9093 17.1614L22.5694 19.5141L24.9115 22.2714L23.0059 19.3119L24.2514 18.7796L24.8476 21.4623L24.9008 22.2714L27.4345 24.8584Z" fill="#F58C25"/>
<path d="M8.80454 15.0105L3.35386 14.9785L2.05507 13.5839L2.8748 13.0303L1.40567 12.2319L2.66188 11.8912L0.937256 10.8054L1.9699 10.3582L2.2254 8.74006L5.08914 3.39584L8.96423 -0.000183105L12.307 3.94943L14.9898 8.70812L8.80454 15.0105Z" fill="#81491F"/>
<path d="M0.000183105 23.4211C3.13006 23.4211 9.40047 23.4211 9.40047 23.4211L11.9661 26.849C11.9661 26.849 5.57861 28.7759 2.37421 29.7553C1.55448 27.5729 0.77733 25.497 0.000183105 23.4211Z" fill="#E48027"/>
<path d="M25.2733 8.95292L26.0292 9.82588L25.4756 10.4859L26.2421 11.0395L25.6885 11.7741L25.8162 12.9345L24.8688 14.0629L19.4926 8.46321L28.0625 1.36243L25.2733 8.95292Z" fill="#81491F"/>
<path d="M25.2632 25.5929L25.2952 27.7114L22.2398 29.255L11.9559 26.8597C11.9559 26.8597 11.8814 26.913 11.9559 26.8597C16.2675 26.4445 25.2632 25.5929 25.2632 25.5929Z" fill="#D9C6B7"/>
<path d="M28.0623 1.36243L19.4924 8.46321L18.3959 3.92808L28.0623 1.36243Z" fill="#E48027"/>
<path d="M19.4926 8.46338L24.8581 14.0631L24.6346 16.9694L21.9092 17.161L19.4926 8.46338Z" fill="#E57F24"/>
<path d="M11.9554 26.8484L22.2393 29.2437L25.2947 27.7L27.3919 27.519L25.7951 29.6056L21.4622 29.9995L11.9554 26.8484Z" fill="#C7B7AB"/>
<path d="M11.9558 26.849L9.40082 23.421L14.4789 22.0477L11.9558 26.849Z" fill="#D76F21"/>
<path d="M27.3922 27.5193C26.6895 27.5832 25.9976 27.6471 25.2949 27.7003C25.2843 26.9977 25.263 25.5818 25.263 25.5818L25.6356 25.2943L27.4348 24.8578C27.4348 24.8578 28.0416 25.2837 28.5632 25.5818C28.148 26.2631 27.7648 26.8912 27.3922 27.5193Z" fill="#2A2626"/>
<path d="M21.9092 17.1613L24.6346 16.9697L24.262 18.7795L23.2293 17.5445L23.0058 19.3118L24.9114 22.2713L22.5693 19.5034L21.9092 17.1613Z" fill="#D66F21"/>
<path d="M8.80408 15.0105L14.9893 8.70819L18.396 17.161L10.1242 17.4484L8.80408 15.0105Z" fill="#E47E25"/>
<path d="M11.9554 26.849L14.4785 22.0477L25.2628 25.5928L11.9554 26.849Z" fill="#E47F26"/>
<path d="M10.1246 17.4485L18.3964 17.1611L17.8002 19.8864L16.4056 17.7359L13.9145 19.1838L10.1246 17.4485Z" fill="#D66F21"/>
<path d="M17.8 19.8864L18.3962 17.1611L19.3649 19.8864L25.2627 25.5926C25.2627 25.5926 19.5033 21.1958 17.8 19.8864Z" fill="#E47F25"/>
<path d="M17.8003 19.8866L13.9146 19.184L16.4057 17.7361L17.8003 19.8866Z" fill="#32404E"/>
<path d="M13.9145 19.1839L14.4787 22.0476L10.1246 17.4486L13.9145 19.1839Z" fill="#E57F25"/>
<path d="M23.006 19.3111L23.2295 17.5439L24.2622 18.7788L23.006 19.3111Z" fill="#38424D"/>
<path d="M24.2624 18.7795L24.635 16.9697L25.0289 18.8966L24.8586 21.4622L24.2624 18.7795Z" fill="#E57F24"/>
</g>
<defs>
<clipPath id="clip0">
<rect width="28.5628" height="30" fill="white"/>
</clipPath>
</defs>
</svg>
