<svg width="394" height="108" viewBox="0 0 394 108" fill="none" xmlns="http://www.w3.org/2000/svg">
<path d="M20.8887 105.863H2V4.66842H6.53329L14.0201 13.4947C15.7143 11.8982 17.5689 10.393 19.5837 8.97895C21.5985 7.56491 23.6819 6.35614 25.8341 5.35263C28.0321 4.3035 30.2987 3.48246 32.634 2.88947C34.9694 2.29649 37.3276 2 39.7087 2C44.8831 2 49.7369 2.93509 54.2702 4.80526C58.8492 6.62982 62.833 9.22982 66.2216 12.6053C69.6559 15.9807 72.3575 20.0632 74.3265 24.8526C76.2955 29.5965 77.28 34.8649 77.28 40.6579C77.28 46.6789 76.2955 52.107 74.3265 56.9421C72.3575 61.7316 69.6559 65.814 66.2216 69.1895C62.833 72.5193 58.8492 75.0737 54.2702 76.8526C49.7369 78.6316 44.8831 79.5211 39.7087 79.5211C38.0602 79.5211 36.4118 79.3386 34.7633 78.9737C33.1606 78.6088 31.5579 78.1298 29.9553 77.5368C28.3984 76.8982 26.8415 76.1912 25.2846 75.4158C23.7735 74.6403 22.3082 73.8421 20.8887 73.021V105.863ZM58.46 40.6579C58.46 37.5561 57.9563 34.7737 56.9489 32.3105C55.9873 29.8474 54.6594 27.7719 52.9651 26.0842C51.2709 24.3509 49.279 23.0281 46.9894 22.1158C44.6999 21.2035 42.273 20.7474 39.7087 20.7474C37.1444 20.7474 34.7175 21.2035 32.428 22.1158C30.1842 23.0281 28.2152 24.3509 26.521 26.0842C24.8267 27.7719 23.4759 29.8474 22.4685 32.3105C21.5069 34.7737 21.0261 37.5561 21.0261 40.6579C21.0261 43.6228 21.5069 46.3368 22.4685 48.8C23.4759 51.2632 24.8267 53.3614 26.521 55.0947C28.2152 56.8281 30.1842 58.1737 32.428 59.1316C34.7175 60.0895 37.1444 60.5684 39.7087 60.5684C42.273 60.5684 44.6999 60.0895 46.9894 59.1316C49.279 58.1737 51.2709 56.8281 52.9651 55.0947C54.6594 53.3614 55.9873 51.2632 56.9489 48.8C57.9563 46.3368 58.46 43.6228 58.46 40.6579Z" stroke="#00AE99" stroke-width="3"/>
<path d="M106.472 77.9474H87.7203V4.66842H92.2536L98.4354 13.3579C101.458 10.6211 104.892 8.52281 108.738 7.06316C112.585 5.55789 116.569 4.80526 120.69 4.80526H137.243V23.4158H120.69C118.721 23.4158 116.866 23.7807 115.126 24.5105C113.386 25.2404 111.875 26.2439 110.593 27.5211C109.311 28.7982 108.303 30.3035 107.571 32.0368C106.838 33.7702 106.472 35.6175 106.472 37.5789V77.9474Z" stroke="#00AE99" stroke-width="3"/>
<path d="M163.138 105.863V87.0474L173.578 87.1842C175.41 87.1842 177.173 86.8877 178.867 86.2947C180.561 85.7018 182.118 84.8807 183.538 83.8316C185.003 82.7825 186.285 81.5281 187.384 80.0684C188.483 78.6544 189.376 77.1035 190.063 75.4158C188.002 76.2825 185.896 77.1491 183.744 78.0158C181.637 78.8825 179.508 79.3158 177.356 79.3158C172.822 79.3158 168.564 78.5175 164.58 76.9211C160.596 75.3246 157.093 73.0667 154.071 70.1474C151.095 67.1825 148.737 63.6018 146.996 59.4053C145.302 55.1632 144.455 50.4193 144.455 45.1737V4.66842H163.138V45.1737C163.138 47.7737 163.504 50.0544 164.237 52.0158C165.015 53.9316 166.045 55.5509 167.328 56.8737C168.61 58.1509 170.098 59.1088 171.792 59.7474C173.532 60.386 175.387 60.7053 177.356 60.7053C179.279 60.7053 181.088 60.2719 182.782 59.4053C184.522 58.493 186.033 57.307 187.315 55.8474C188.597 54.3877 189.605 52.7456 190.337 50.921C191.07 49.0509 191.436 47.1351 191.436 45.1737V4.66842H210.325V68.7105C210.279 73.8649 209.272 78.7 207.303 83.2158C205.334 87.7316 202.632 91.6772 199.198 95.0526C195.809 98.4281 191.849 101.096 187.315 103.058C182.782 105.019 177.928 106 172.754 106L163.138 105.863Z" stroke="#00AE99" stroke-width="3"/>
<path d="M265.068 77.9474H222.208V59.3368H265.068C266.35 59.3368 267.449 58.8807 268.365 57.9684C269.281 57.0561 269.739 55.9614 269.739 54.6842C269.739 53.3614 269.281 52.4947 268.365 52.0842C267.449 51.6737 266.35 51.4684 265.068 51.4684H245.561C242.31 51.4684 239.265 50.8526 236.426 49.6211C233.587 48.3895 231.114 46.7246 229.008 44.6263C226.901 42.4825 225.23 39.9965 223.994 37.1684C222.803 34.3403 222.208 31.307 222.208 28.0684C222.208 24.8298 222.803 21.7965 223.994 18.9684C225.23 16.1403 226.901 13.6772 229.008 11.5789C231.114 9.4807 233.587 7.83859 236.426 6.65263C239.265 5.42105 242.31 4.80526 245.561 4.80526H283.545V23.4158H245.561C244.279 23.4158 243.18 23.8719 242.264 24.7842C241.348 25.6965 240.89 26.7912 240.89 28.0684C240.89 29.3912 241.348 30.5316 242.264 31.4895C243.18 32.4018 244.279 32.8579 245.561 32.8579H265.068C268.273 32.8579 271.296 33.4053 274.135 34.5C276.974 35.5491 279.446 37.0316 281.553 38.9474C283.659 40.8632 285.33 43.1667 286.567 45.8579C287.803 48.5491 288.421 51.4912 288.421 54.6842C288.421 57.9228 287.803 60.9561 286.567 63.7842C285.33 66.5667 283.659 69.0298 281.553 71.1737C279.446 73.2719 276.974 74.9368 274.135 76.1684C271.296 77.3544 268.273 77.9474 265.068 77.9474Z" stroke="#00AE99" stroke-width="3"/>
<path d="M392 77.9474H373.317V31.4211C373.317 30.1439 373.065 28.9351 372.562 27.7947C372.104 26.6544 371.44 25.6509 370.57 24.7842C369.7 23.9175 368.693 23.2561 367.548 22.8C366.403 22.2982 365.189 22.0474 363.907 22.0474C362.625 22.0474 361.412 22.2982 360.267 22.8C359.168 23.2561 358.184 23.9175 357.313 24.7842C356.489 25.6509 355.825 26.6544 355.322 27.7947C354.864 28.9351 354.635 30.1439 354.635 31.4211V77.9474H335.883V31.4211C335.883 30.1439 335.632 28.9351 335.128 27.7947C334.67 26.6544 334.006 25.6509 333.136 24.7842C332.266 23.9175 331.259 23.2561 330.114 22.8C328.969 22.2982 327.756 22.0474 326.473 22.0474C325.191 22.0474 323.978 22.2982 322.833 22.8C321.734 23.2561 320.75 23.9175 319.88 24.7842C319.055 25.6509 318.391 26.6544 317.888 27.7947C317.43 28.9351 317.201 30.1439 317.201 31.4211V77.9474H298.449V4.66842H302.983L308.066 10.2789C310.676 8.08947 313.538 6.40175 316.651 5.21579C319.811 3.98421 323.085 3.36842 326.473 3.36842C329.908 3.36842 333.25 4.00702 336.502 5.28421C339.799 6.5614 342.683 8.77368 345.156 11.9211C346.301 10.3702 347.606 9.04737 349.071 7.95263C350.536 6.85789 352.07 5.96842 353.673 5.28421C355.322 4.6 357.016 4.12105 358.756 3.84737C360.496 3.52807 362.213 3.36842 363.907 3.36842C367.8 3.36842 371.44 4.09824 374.828 5.55789C378.263 7.01754 381.239 9.02456 383.758 11.5789C386.322 14.0877 388.337 17.0526 389.802 20.4737C391.267 23.8947 392 27.5439 392 31.4211V77.9474Z" stroke="#00AE99" stroke-width="3"/>
</svg>
