<svg width="331" height="335" viewBox="0 0 331 335" fill="none" xmlns="http://www.w3.org/2000/svg">
<path d="M188.53 303.319C242.045 295.277 286.749 256.971 303.959 208.384C290.033 261.14 247.807 302.608 189.734 311.335C110.084 323.304 35.8124 268.437 23.8432 188.787C11.874 109.136 66.74 34.8642 146.39 22.8951C204.463 14.1683 257.011 41.3944 285.828 87.7276C255.098 46.345 201.11 22.8692 147.594 30.9111C72.3716 42.2149 20.5552 112.359 31.8591 187.582C43.163 262.806 113.307 314.623 188.53 303.319Z" stroke="#00AE99" stroke-width="3"/>
<path d="M160.573 271.951C219.473 276.714 271.082 232.802 275.848 173.873C280.613 114.944 236.73 63.3095 177.83 58.5465C135.966 55.1611 93.7328 76.0862 71.1796 109.76C91.4605 71.2954 131.991 46.7026 178.484 50.4623C241.844 55.5859 289.053 111.131 283.926 174.526C278.799 237.922 223.279 285.159 159.919 280.036C113.427 276.276 77.374 245.49 63.5371 204.267C80.3865 241.127 118.709 268.566 160.573 271.951Z" stroke="#00AE99" stroke-width="3"/>
<path d="M181.085 244.176C202.769 240.917 222.919 228.965 236.846 212.464C242.702 205.526 247.472 197.766 250.792 189.491C242.891 221.558 217.605 246.851 182.284 252.158C134.412 259.352 89.8254 226.62 82.6802 179.072C75.5351 131.524 108.532 87.1333 156.404 79.9394C191.726 74.6317 223.328 91.3756 240.305 119.705C234.699 112.771 227.859 106.755 220.223 101.844C202.061 90.1658 179.289 84.6632 157.604 87.9219C114.196 94.4448 84.2467 134.705 90.732 177.862C97.2173 221.019 137.677 250.699 181.085 244.176Z" stroke="#00AE99" stroke-width="3"/>
</svg>
