<svg width="142" height="142" viewBox="0 0 142 142" fill="none" xmlns="http://www.w3.org/2000/svg">
<mask id="mask0" mask-type="alpha" maskUnits="userSpaceOnUse" x="0" y="0" width="142" height="142">
<path d="M71 141C109.66 141 141 109.66 141 71C141 32.3401 109.66 1 71 1C32.3401 1 1 32.3401 1 71C1 109.66 32.3401 141 71 141Z" fill="black" stroke="#00AE99" stroke-width="2"/>
</mask>
<g mask="url(#mask0)">
<path d="M71 141C109.66 141 141 109.66 141 71C141 32.3401 109.66 1 71 1C32.3401 1 1 32.3401 1 71C1 109.66 32.3401 141 71 141Z" stroke="#00AE99" stroke-width="2"/>
<path d="M114.959 17.7988H42.1586V53.6388M114.959 17.7988V89.7588L97.5985 72.3988M114.959 17.7988L17.7574 115M4.5 91.8583L60 36.3583M97.5985 72.3988L43 135.528M97.5985 72.3988V135.528M77.7195 95.6398V140.5M60.3586 140.5V36M114.959 125.5V88.5M42.5 18.1402L60.3598 36" stroke="#00AE99" stroke-width="2"/>
</g>
</svg>
