<?xml version="1.0" encoding="utf-8" ?>	<!-- Generator: Assembly 1.8 - http://assemblyapp.co -->	<svg version="1.1" xmlns="http://www.w3.org/2000/svg" xmlns:xlink="http://www.w3.org/1999/xlink" width="2048.00" height="1638.40" viewBox="0 0 2048.0 1638.4">		<rect x="0" y="0" width="2048.00" height="1638.40" fill="none" />		<g id="document" transform="matrix(1,0,0,1,1024.0,819.2)">			<g>				<defs>					<filter id="SCNgT5P2" x="-4.57%" y="-4.35%" width="112.24%" height="114.31%" filterUnits="objectBoundingBox">						<feOffset dx="0" dy="0" in="SourceAlpha" result="shadowOffsetOuter1" />						<feGaussianBlur stdDeviation="40" in="shadowOffsetOuter1" result="shadowBlurOuter1" />						<feFlood flood-color="#ffffff" flood-opacity="0.96" />						<feComposite in2="shadowBlurOuter1" operator="in" />						<feMerge>							<feMergeNode />							<feMergeNode in="SourceGraphic" />						</feMerge>					</filter>				</defs>				<path d="M9.01614e-06,711.452 C516.194,711.452 934.066,393.171 934.066,2.70484e-05 C934.066,-393.171 516.194,-711.452 9.01614e-06,-711.452 C-516.194,-711.452 -934.066,-393.171 -934.066,2.70484e-05 C-934.066,393.171 -516.194,711.452 9.01614e-06,711.452 Z " fill="#000000" fill-opacity="1.00" stroke-width="75.97" stroke="#000000" stroke-dasharray="0.001000,151.949509" stroke-dashoffset="-75.9748" stroke-linecap="round" stroke-linejoin="round" filter="url(#SCNgT5P2)" />				<g>					<g>						<path d="M-369.709,-386.937 L-861.694,-13.7397 L-881.412,1.21711 L-861.644,16.107 L-369.659,386.686 L-358.357,395.198 L-347.09,386.641 L140.887,16.0626 L160.436,1.21696 L140.938,-13.695 L-347.039,-386.893 L-358.357,-395.548 L-369.709,-386.937 Z M351.421,-386.959 L-140.564,-13.7616 L-160.281,1.19523 L-140.513,16.0852 L351.472,386.664 L362.773,395.176 L374.041,386.619 L862.018,16.0407 L881.567,1.19508 L862.068,-13.7169 L374.091,-386.915 L362.773,-395.57 L351.421,-386.959 Z " fill="#ffffff" fill-opacity="1.00" stroke-width="36.05" stroke="#000000" stroke-linecap="square" stroke-linejoin="miter" />						<path d="M-45.7652,158.926 L-46.0955,88.418 L-140.578,17.2505 L-160.347,2.36055 L-140.629,-12.5963 L-46.902,-83.6933 L-47.2427,-156.398 L-347.104,-385.727 L-358.422,-394.383 L-369.774,-385.772 L-861.759,-12.5744 L-881.477,2.38243 L-861.709,17.2724 L-369.724,387.851 L-358.423,396.364 L-347.155,387.807 L-45.7652,158.926 L-45.7652,158.926 Z M54.0095,83.155 L54.3889,164.106 L351.407,387.829 L362.708,396.342 L373.976,387.785 L861.953,17.2061 L881.501,2.3604 L862.003,-12.5516 L374.026,-385.749 L362.708,-394.405 L351.356,-385.794 L52.8731,-159.378 L53.2472,-79.5443 L140.873,-12.5297 L160.371,2.38228 L140.822,17.2279 L54.0095,83.155 L54.0095,83.155 Z " fill="#ffffff" fill-opacity="1.00" stroke-width="7.74" stroke="#000000" stroke-linecap="square" stroke-linejoin="miter" />						<path d="M-110.876,125.583 L-268.741,-0.760955 L-110.876,-119.967 L-392.063,-337.155 L-840.311,-0.76096 L-392.063,339.123 L-110.876,125.583 Z " fill="#000000" fill-opacity="1.00" />						<path d="M110.572,125.546 L268.437,-0.798273 L110.572,-120.004 L391.758,-337.192 L840.007,-0.798277 L391.758,339.086 L110.572,125.546 Z " fill="#000000" fill-opacity="1.00" />						<path d="M128.641,1.05261 C128.641,-69.9961 71.0442,-127.592 -0.00444839,-127.592 C-71.0531,-127.592 -128.649,-69.9961 -128.649,1.05261 C-128.649,72.1013 -71.0531,129.698 -0.00444839,129.698 C71.0442,129.698 128.641,72.1013 128.641,1.05261 Z " fill="#ffffff" fill-opacity="1.00" stroke-width="99.87" stroke="#000000" stroke-linecap="square" stroke-linejoin="miter" />					</g>					<path d="M395.866,1.0526 C395.866,-217.578 218.631,-394.813 -3.97944e-06,-394.813 C-218.631,-394.813 -395.866,-217.578 -395.866,1.05261 C-395.866,219.683 -218.631,396.918 3.97944e-06,396.918 C218.631,396.918 395.866,219.683 395.866,1.0526 Z " fill="none" stroke-width="4" stroke="#ffffff" stroke-linecap="square" stroke-linejoin="miter" />				</g>			</g>		</g>	</svg>