<svg width="143" height="157" viewBox="0 0 143 157" fill="none" xmlns="http://www.w3.org/2000/svg">
<path d="M25.333 63.5999C25.333 84.7426 42.457 101.867 63.5997 101.867C84.7423 101.867 101.866 84.7426 101.866 63.5999C101.866 42.8156 85.3054 25.8964 64.6491 25.3588C64.2652 25.3588 63.9068 25.3333 63.5229 25.3333C42.4314 25.3588 25.333 42.4829 25.333 63.5999Z" stroke="#00AE99" stroke-width="2.5" stroke-miterlimit="10" stroke-linejoin="round"/>
<path d="M2 63.6C2 97.6345 29.5655 125.2 63.6 125.2C97.6345 125.2 125.2 97.6345 125.2 63.6C125.2 30.1423 98.541 2.90649 65.2894 2.0412C64.6713 2.0412 64.0945 2 63.4764 2C29.5243 2.0412 2 29.6067 2 63.6Z" stroke="#00AE99" stroke-width="2.5" stroke-miterlimit="10" stroke-linejoin="round"/>
<path d="M92.5332 90.6667L142 141.067" stroke="#00AE99" stroke-width="2.5"/>
<path d="M125.2 156C109.985 137.08 88.0217 125.2 63.6 125.2C39.1783 125.2 17.2151 137.08 2 156" stroke="#00AE99" stroke-width="2.5" stroke-miterlimit="10" stroke-linejoin="round"/>
</svg>
