<svg width="261" height="286" viewBox="0 0 261 286" fill="none" xmlns="http://www.w3.org/2000/svg">
<path d="M243.445 24.1876L243.882 21.563L241.411 22.5479L183.815 45.4972L181.877 46.2694L183.226 47.8606L228.178 100.882L230.27 103.351L230.802 100.159L243.445 24.1876ZM231.043 132.196L230.416 129.877L228.607 131.458L153.818 196.845L155.204 199.42L241.246 175.671L242.685 175.274L242.295 173.834L231.043 132.196ZM41.0997 110.751L39.2587 113.161H42.2917H219.74H222.978L220.884 110.691L169.679 50.2907L169.23 49.7607H168.535H88.423H87.6812L87.2309 50.3502L41.0997 110.751ZM214.796 127.714L217.804 125.085H213.809H45.4379H41.3872L44.461 127.723L129.419 200.644L130.405 201.49L131.384 200.635L214.796 127.714ZM74.1675 47.8448L75.3439 46.3045L73.5578 45.552L19.6777 22.8518L17.1725 21.7963L17.6153 24.4785L30.2743 101.149L30.8397 104.573L32.9463 101.815L74.1675 47.8448ZM105.296 199.397L106.668 196.812L31.7086 132.476L29.9454 130.963L29.2922 133.193L17.3898 173.823L16.9602 175.29L18.4344 175.692L105.296 199.397ZM122.841 218.802L124.483 216.991L122.125 216.347L60.2448 199.459L59.0659 202.185C75.2846 212.129 90.4783 223.809 104.297 236.962L105.41 238.021L106.443 236.883L122.841 218.802ZM202.057 201.904L200.864 199.185L138.762 216.324L136.399 216.977L138.055 218.784L154.8 237.055L155.841 238.191L156.949 237.12C170.681 223.841 185.838 212.009 202.057 201.904ZM170.551 37.837H170.839L171.107 37.7304L259.083 2.67339L239.804 118.499L239.75 118.821L239.835 119.137L256.879 182.196L209.697 211.191C209.697 211.192 209.697 211.192 209.697 211.192C187.249 224.982 167.089 242.063 149.777 261.961L130.849 283.716L112.868 263.092C94.9492 242.539 74.0101 225.014 50.635 211.008L49.864 212.295L50.6349 211.008L2.54379 182.196L21.0319 119.079L21.1281 118.751L21.0723 118.413L1.92283 2.43778L85.6669 37.7193L85.9462 37.837H86.2492H170.551Z" stroke="#00AE99" stroke-width="3"/>
</svg>
