<?xml version="1.0" encoding="UTF-8"?>
<svg width="71px" height="71px" viewBox="0 0 71 71" version="1.1" xmlns="http://www.w3.org/2000/svg" xmlns:xlink="http://www.w3.org/1999/xlink">
    <!-- Generator: Sketch 54.1 (76490) - https://sketchapp.com -->
    <title>Group</title>
    <desc>Created with Sketch.</desc>
    <g id="Page-1" stroke="none" stroke-width="1" fill="none" fill-rule="evenodd">
        <g id="Artboard" transform="translate(-1229.000000, -477.000000)" fill="#000000">
            <g id="Group" transform="translate(1229.000000, 477.000000)">
                <g id="Group-2">
                    <path d="M38,25 L49,25 L49,19 L22,19 L22,25 L33,25 L33,37 L38,37 L38,25 Z M35.5,71 C15.8938914,71 0,55.1061086 0,35.5 C0,15.8938914 15.8938914,0 35.5,0 C55.1061086,0 71,15.8938914 71,35.5 C71,55.1061086 55.1061086,71 35.5,71 Z M34.9978851,52.9940659 C35.1374378,52.9979611 35.2795584,53 35.4242424,53 L35.4242424,52.9759499 C37.3337675,52.8673673 38.7479991,52.417097 39.6015802,52.1621718 C41.8411327,51.4933209 43.607461,50.3866414 44.6873821,49.4656923 C47.3338861,47.2087724 48.540075,44.1906733 48.9684709,40.674672 C49.0105097,40.3296438 49.0105097,40.1047532 48.9684709,40 L43.4218654,40 C43.4612172,40.8107007 43.3354256,41.6386757 43.0444905,42.4839251 C42.6080878,43.7517992 41.7637344,44.7187803 41.2750326,45.2097311 C39.9043123,46.5867592 37.8126348,47.365702 35,47.5465593 C32.1873652,47.365702 30.0956877,46.5867592 28.7249674,45.2097311 C28.2362656,44.7187803 27.3919122,43.7517992 26.9555095,42.4839251 C26.6645744,41.6386757 26.5387828,40.8107007 26.5781346,40 L21.0315291,40 C20.9894903,40.1047532 20.9894903,40.3296438 21.0315291,40.674672 C21.459925,44.1906733 22.6661139,47.2087724 25.3126179,49.4656923 C26.392539,50.3866414 28.1588673,51.4933209 30.3984198,52.1621718 C31.2531133,52.4174292 32.6498205,52.8685413 34.5757576,52.9763727 L34.5757576,53 C34.7188423,53 34.8595589,52.9979611 34.9978851,52.9940659 Z" id="Combined-Shape"></path>
                </g>
            </g>
        </g>
    </g>
</svg>