<svg width="28" height="40" viewBox="0 0 28 40" fill="none" xmlns="http://www.w3.org/2000/svg">
<path d="M23.3332 12.2491C23.3332 11.707 23.3595 11.2441 23.3332 10.7852C23.2517 9.55935 23.3161 8.29248 23.0242 7.11553C21.6173 1.43841 15.1347 -1.60182 9.66597 0.86316C5.96184 2.53205 4.01839 5.46781 3.94476 9.58845C3.92898 10.4626 3.94476 11.3367 3.94476 12.2941H0V33.5889L13.6436 40L27.2727 33.5929V12.2491H23.3332ZM9.09924 8.40885C9.47136 6.29299 11.8948 4.79602 14.1775 5.0724C16.3655 5.33689 18.4956 6.98858 18.3444 9.86748C18.3037 10.6332 18.3444 11.4028 18.3444 12.2478H8.902C8.95854 10.936 8.88096 9.64531 9.09924 8.40885ZM21.7488 30.0343L13.6449 33.8415L5.52266 30.033V17.3775H21.7488V30.0343Z" fill="black"/>
</svg>
