<svg width="33" height="38" viewBox="0 0 33 38" fill="none" xmlns="http://www.w3.org/2000/svg">
<path fill-rule="evenodd" clip-rule="evenodd" d="M15.6282 0.293795C16.1353 -0.0979316 16.8437 -0.0979316 17.3508 0.293795C22.7598 4.47304 28.9395 4.43935 31.2726 4.42661C31.3895 4.42596 31.4965 4.42538 31.5937 4.42538C31.9705 4.42538 32.3315 4.57627 32.5961 4.84424C32.8603 5.1122 33.0057 5.47475 32.9998 5.85059C32.8902 12.571 32.5987 17.4552 32.0325 21.1079C31.4657 24.7633 30.6083 27.2951 29.2924 29.2362C27.9673 31.1909 26.2634 32.4152 24.2914 33.5921C23.6326 33.9853 22.9551 34.3677 22.2435 34.7696C20.7737 35.5992 19.1591 36.5106 17.2684 37.7651C16.7967 38.0783 16.1823 38.0783 15.7103 37.7651C13.8226 36.5125 12.2109 35.6021 10.7444 34.7735C10.0305 34.3703 9.35068 33.9866 8.69027 33.5918C6.71953 32.4146 5.01861 31.1903 3.69614 29.2349C2.38319 27.2938 1.52846 24.762 0.963893 21.1073C0.399654 17.4548 0.109824 12.5708 0.000192651 5.85059C-0.00604385 5.47475 0.139361 5.1122 0.403592 4.84424C0.668151 4.57627 1.02921 4.42538 1.40603 4.42538C1.50187 4.42538 1.60823 4.42596 1.72409 4.42661C4.03849 4.43935 10.2185 4.47337 15.6282 0.293795ZM2.83878 7.23046C2.9645 13.1753 3.24842 17.4747 3.74341 20.68C4.27712 24.1339 5.04125 26.2079 6.02761 27.6665C7.00477 29.1108 8.28391 30.0797 10.1355 31.1857C10.6987 31.522 11.326 31.8768 12.0101 32.2635C13.3168 33.0024 14.829 33.8576 16.4895 34.922C18.1533 33.8556 19.6685 32.9994 20.9775 32.2596C21.6592 31.8746 22.2852 31.5207 22.8471 31.1854C24.701 30.079 25.9831 29.1101 26.9626 27.6652C27.9512 26.2066 28.7177 24.133 29.253 20.6794C29.75 17.474 30.0352 13.1751 30.1609 7.23063C27.2944 7.18943 21.6871 6.75432 16.4895 3.14239C11.2971 6.75059 5.69674 7.18852 2.83878 7.23046Z" fill="#3375BB"/>
</svg>
