<svg xmlns="http://www.w3.org/2000/svg" viewBox="0 0 229 229"><defs></defs><title>ZEIP-56</title><g id="Layer_2" data-name="Layer 2"><g id="Layer_1-2" data-name="Layer 1"><circle cx="114.5" cy="114.4" r="112.4"></circle><path class="cls-1" d="M212.2 122.4l-9.4-6.8-9.4 6.8 3.6-11-9.4-6.8h11.6l3.6-11 3.6 11H218l-9.4 6.8zm-16.9-15.3l4.6 3.4-1.8 5.5 4.6-3.4 4.6 3.4-1.8-5.5 4.6-3.4h-5.7l-1.8-5.5-1.8 5.5zM196.3 75l-9.4-6.8-9.4 6.8 3.6-11-9.4-6.8h11.6l3.6-11 3.6 11h11.6l-9.4 6.8zm-16.9-15.4L184 63l-1.8 5.5 4.6-3.4 4.6 3.4-1.8-5.5 4.6-3.4h-5.7l-1.8-5.5-1.8 5.5zM202.8 167.9l-9.4-6.8-9.4 6.8 3.6-11-9.4-6.8h11.6l3.6-11 3.6 11h11.6l-9.4 6.8zm-9.4-10l4.6 3.4-1.8-5.5 4.6-3.4h-5.7l-1.8-5.5-1.8 5.5h-5.7l4.6 3.4-1.8 5.5zM35.5 122.4l-9.4-6.8-9.4 6.8 3.6-11-9.4-6.8h11.6l3.6-11 3.6 11h11.6l-9.4 6.8zm-16.9-15.3l4.6 3.4-1.8 5.5 4.6-3.4 4.6 3.4-1.8-5.5 4.6-3.4h-5.7l-1.8-5.5-1.8 5.5zM51.4 75L42 68.2 32.6 75l3.6-11-9.4-6.8h11.6l3.6-11 3.6 11h11.6L47.8 64zM34.5 59.6l4.6 3.4-1.8 5.5 4.6-3.4 4.6 3.4-1.8-5.5 4.6-3.4h-5.7l-1.8-5.5-1.8 5.5zM44.8 167.9l-9.4-6.8-9.4 6.8 3.6-11-9.4-6.8h11.6l3.6-11 3.6 11h11.6l-9.4 6.8zm-16.9-15.4l4.6 3.4-1.8 5.5 4.6-3.4 4.6 3.4-1.8-5.5 4.6-3.4H37l-1.8-5.5-1.8 5.5z" fill="#00AE99"></path><path class="cls-1" d="M114.5 229A114.5 114.5 0 1 1 229 114.5 114.68 114.68 0 0 1 114.5 229zm0-226A111.5 111.5 0 1 0 226 114.5 111.6 111.6 0 0 0 114.5 3z" fill="#00AE99"></path><path class="cls-1" d="M57.6 32.5l2.3-1.7 13.4 18.5L71 51zM88.4 41.3L74 22.1l2.9-1 12.5 16.7 1.5-.5-.7-20.8 2.8-1 .7 24zM100.2 23.2a7.58 7.58 0 0 1 5.5-3 7.06 7.06 0 0 1 6 1.8 8.9 8.9 0 0 1 2.8 5.8 8.56 8.56 0 0 1-1.5 6.3 7.58 7.58 0 0 1-5.5 3 7.06 7.06 0 0 1-6-1.8 9.14 9.14 0 0 1-2.8-5.8 9.59 9.59 0 0 1 1.5-6.3zm3 10.2a4.74 4.74 0 0 0 4 1.4 4.65 4.65 0 0 0 3.7-2.2 6.82 6.82 0 0 0 .9-4.5 7.33 7.33 0 0 0-1.8-4.2 4.74 4.74 0 0 0-4-1.4 4.56 4.56 0 0 0-3.7 2.2 6.82 6.82 0 0 0-.9 4.5 7.33 7.33 0 0 0 1.8 4.2zM123.1 20.5l4 .3-.2 2.4-4-.3-.8 8.8a2.19 2.19 0 0 0 .5 1.9 3.5 3.5 0 0 0 2.2.8l1.2.1-.2 2.4-1.2-.1a6.73 6.73 0 0 1-4-1.4 4.48 4.48 0 0 1-1.1-3.6l.8-9.2-2.8-.2.2-2.4 2.8.2.4-4.8 2.7.2zM144.3 32.2l-.2.9-11.9-3.2a7.37 7.37 0 0 0 .1 4.7 4.75 4.75 0 0 0 3.2 2.6c2.1.6 3.7.1 4.6-1.3l2.7.7a5.83 5.83 0 0 1-3 2.8 7.12 7.12 0 0 1-4.8.1 6.94 6.94 0 0 1-4.9-3.8 9.76 9.76 0 0 1-.4-6.6 9 9 0 0 1 3.6-5.3 7.46 7.46 0 0 1 6.1-.7 6.58 6.58 0 0 1 4.5 3.5 8.73 8.73 0 0 1 .4 5.6zm-5.7-6.9a4.63 4.63 0 0 0-3.5.2 4.7 4.7 0 0 0-2.2 2.2l9 2.5a4.4 4.4 0 0 0-.5-3 4.1 4.1 0 0 0-2.8-1.9zM165.5 26.9l2.4 1.3-11.1 20.4-2.3-1.3.8-1.5-.6-.3a6.16 6.16 0 0 1-5.4-.5 6.39 6.39 0 0 1-3.4-4.6 9.79 9.79 0 0 1 1.2-6.3 9.51 9.51 0 0 1 4.6-4.5 6.1 6.1 0 0 1 5.7.4 5.92 5.92 0 0 1 3.3 4.2l.6.3zm-14.6 16.4a4.52 4.52 0 0 0 4.2.3 7.07 7.07 0 0 0 3.2-3.2 8.08 8.08 0 0 0 1-4.4 4.49 4.49 0 0 0-2.5-3.4 4.4 4.4 0 0 0-4-.3 7.49 7.49 0 0 0-3.3 3.3 7 7 0 0 0-1 4.5 4.46 4.46 0 0 0 2.4 3.2zM72.2 166l-.9-.8a66.68 66.68 0 0 1-23.5-50.8 65.94 65.94 0 0 1 9.1-33.6l1.2-2 17.4 24.6 13.3 18L78.5 132a39.55 39.55 0 0 0 14.9 16.5l1.9 1.2zM58.4 84.5a64.23 64.23 0 0 0-7.5 30.1 63.5 63.5 0 0 0 21.5 47.7L90 149.9a42.14 42.14 0 0 1-14.6-17.5l-.4-.9 9.9-10.3-11.8-15.9zM79.4 95.4L63.1 72.3l.8-.9a66.68 66.68 0 0 1 50.8-23.5 65.94 65.94 0 0 1 33.6 9.1l2 1.2-24.6 17.4-18 13.3-10.6-10.3a39.55 39.55 0 0 0-16.5 14.9zm-12.6-23L79.2 90a42.14 42.14 0 0 1 17.5-14.6l.9-.4 10.3 9.9 15.9-11.8 20.7-14.7a63.69 63.69 0 0 0-77.7 14zM170.9 150.2l-17.4-24.6-13.3-18L150.5 97a39.55 39.55 0 0 0-14.9-16.5l-1.9-1.2L156.8 63l.9.8a66.68 66.68 0 0 1 23.5 50.8 65.94 65.94 0 0 1-9.1 33.6zm-26.7-42.3l11.8 15.9 14.7 20.7a64.23 64.23 0 0 0 7.5-30.1 63.5 63.5 0 0 0-21.5-47.7l-17.6 12.4a42.14 42.14 0 0 1 14.6 17.5l.4.9zM114.5 181.2a65.94 65.94 0 0 1-33.6-9.1l-2-1.2 24.6-17.4 18-13.3 10.6 10.3a39.55 39.55 0 0 0 16.5-14.9l1.2-1.9 16.3 23.1-.8.9a66.68 66.68 0 0 1-50.8 23.5zm-30-10.6a64.23 64.23 0 0 0 30.1 7.5 63.5 63.5 0 0 0 47.7-21.5L149.9 139a42.14 42.14 0 0 1-17.5 14.6l-.9.4-10.3-9.9-15.9 11.8zM78.44 185.57l-1.73 2.81-20 6.72-.37.6 11.88 7.3-1.38 2.23-14.93-9.19 1.75-2.84 20-6.67.37-.6-10.78-6.63 1.38-2.23zM77.57 206.82L90.45 211l-.81 2.5L74 208.42l7.06-21.73 15.14 4.91-.81 2.49-12.39-4-2.18 6.73 10 3.24-.82 2.5-10-3.26zM99.86 191.83l2.85.41-3.24 22.62-2.85-.41zM107.12 193.06l9.66-.31a8.37 8.37 0 0 1 5.79 1.61 6.37 6.37 0 0 1 2.17 5 6.46 6.46 0 0 1-1.85 5.13 8.26 8.26 0 0 1-5.67 2l-6.78.22.29 9.15-2.88.09zm3.24 11l6.3-.2c3.54-.11 5.26-1.6 5.17-4.45s-1.91-4.23-5.45-4.12l-6.3.2zM137.9 204.67l-8.52 2-.53-2.34 8.51-1.95zM147 193.51a6.73 6.73 0 0 1 5.65-.08 7.61 7.61 0 0 1 3.91 4.14 8 8 0 0 1 .32 6.18 7.44 7.44 0 0 1-4.25 4.2 8 8 0 0 1-5.87.47 6.88 6.88 0 0 1-3.94-3.57l2.56-1.09A4.68 4.68 0 0 0 148 206a5.1 5.1 0 0 0 3.51-.33 4.81 4.81 0 0 0 2.76-2.76 5.49 5.49 0 0 0-.27-4.14 5.35 5.35 0 0 0-2.71-3 4.55 4.55 0 0 0-3.85.06 5 5 0 0 0-3.27 3.68l-2.59 1.1-3.71-11.25 11.77-5 1 2.23-9.64 4.18 2.06 6.15.65-.28a6.16 6.16 0 0 1 3.29-3.13zM163.8 184.45a6.91 6.91 0 0 1 5.37-1.29 7.11 7.11 0 0 1 4.71 3.07 7.75 7.75 0 0 1 1.51 5.68 7.27 7.27 0 0 1-3.24 5 7.46 7.46 0 0 1-6.42 1.35q-3.33-.85-6.67-5.54a16.31 16.31 0 0 1-3.36-8.45 7 7 0 0 1 3.18-6.47 6.86 6.86 0 0 1 4.58-1.44 6.15 6.15 0 0 1 4 1.89l-2.27 1.61a3.71 3.71 0 0 0-4.86 0 4.82 4.82 0 0 0-2.16 4.13 10.49 10.49 0 0 0 2.05 5.69l.57-.41a6 6 0 0 1 .8-2.43 7.27 7.27 0 0 1 2.21-2.39zm3.2 11.39a4.85 4.85 0 0 0 3.67-.93 4.73 4.73 0 0 0 2-3.11 5 5 0 0 0-1.06-3.83 4.76 4.76 0 0 0-3.26-2.2 5 5 0 0 0-3.61 1 4.87 4.87 0 0 0-2.08 3.09 4.75 4.75 0 0 0 1 3.74 5 5 0 0 0 3.34 2.24z" fill="#00AE99"></path></g></g></svg>
