<svg width="487" height="65" viewBox="0 0 487 65" fill="none" xmlns="http://www.w3.org/2000/svg">
<path d="M484.423 2.44989C484.742 2.44989 485.001 2.70664 485.001 3.0252V62.4865V62.5608V62.6361L434.986 17.8174C434.863 17.7083 434.794 17.5527 434.794 17.3898V3.74195C434.794 3.24391 435.387 2.98122 435.757 3.31404L473.996 37.621C474.368 37.9544 474.96 37.6921 474.96 37.1938V3.0252C474.96 2.70664 475.217 2.44989 475.537 2.44989H484.423Z" stroke="#00AE99" stroke-width="3" stroke-linecap="round" stroke-linejoin="round"/>
<path d="M351.314 18.3987C347.329 22.3121 345.415 27.0513 345.415 32.5437C345.415 38.0342 347.329 42.8492 351.314 46.7625C355.298 50.6753 360.201 52.5549 365.795 52.5549C371.386 52.5549 376.214 50.6753 380.197 46.7625C384.257 42.7739 386.173 38.0342 386.173 32.5437C386.173 27.0513 384.181 22.3121 380.197 18.3987C376.214 14.4864 371.386 12.5312 365.795 12.5312C360.201 12.5312 355.375 14.4112 351.314 18.3987ZM387.398 11.3268C393.451 17.1948 396.515 24.2672 396.515 32.5437C396.515 40.8945 393.451 47.966 387.398 53.7584C381.422 59.6274 374.298 62.6361 365.795 62.6361C357.29 62.6361 350.166 59.6274 344.19 53.7584C338.214 47.8907 335.15 40.8945 335.15 32.5437C335.15 24.2672 338.214 17.1948 344.19 11.3268C350.089 5.45872 357.29 2.44989 365.795 2.44989C374.298 2.44989 381.422 5.45872 387.398 11.3268Z" stroke="#00AE99" stroke-width="3" stroke-linecap="round" stroke-linejoin="round"/>
<path d="M290.936 52.7076L281 61.7952C280.593 62.1666 279.896 61.9054 279.896 61.3828V2.90685C279.896 2.38623 280.589 2.12471 280.996 2.49157L290.931 11.4427C291.054 11.553 291.124 11.7024 291.124 11.8585V52.2951C291.124 52.4498 291.056 52.5978 290.936 52.7076Z" stroke="#00AE99" stroke-width="3" stroke-linecap="round" stroke-linejoin="round"/>
<path d="M216.826 41.6049L228.709 61.7748C228.936 62.1592 228.649 62.6361 228.194 62.6361H217.691C217.479 62.6361 217.284 62.526 217.178 62.3482L199.876 33.34C199.646 32.9546 199.935 32.4731 200.395 32.4773L208.585 32.5437C211.378 32.5437 213.782 31.564 215.798 29.6088C217.893 27.6535 218.9 25.2447 218.9 22.4611C218.9 19.7528 217.893 17.4218 215.798 15.4638C213.782 13.5085 211.378 12.5312 208.585 12.5312C208.585 12.5312 188.938 12.5312 188.122 12.5312C187.306 12.5312 186.769 11.4549 186.769 11.4549C186.732 11.42 186.7 11.3801 186.676 11.3374L181.877 3.31404C181.649 2.9301 181.933 2.44989 182.391 2.44989H208.585C214.248 2.44989 219.133 4.40522 223.166 8.31791C227.2 12.3042 229.215 16.9704 229.215 22.4611C229.215 26.6737 228.053 30.4353 225.571 33.822C223.302 37.0164 220.48 39.339 217.108 40.7936C216.785 40.9329 216.651 41.3068 216.826 41.6049Z" stroke="#00AE99" stroke-width="3" stroke-linecap="round" stroke-linejoin="round"/>
<path d="M108.14 52.5549H138.704C139.035 52.5549 139.303 52.8126 139.303 53.1306V62.0603C139.303 62.3784 139.035 62.6361 138.704 62.6361H98.0639C97.7326 62.6361 97.4639 62.3784 97.4639 62.0603C97.4639 61.9002 97.5333 61.7469 97.6561 61.6378L107.731 52.7081C107.843 52.6092 107.988 52.5549 108.14 52.5549ZM107.626 27.5779H130.894C131.225 27.5779 131.494 27.8356 131.494 28.1532V37.0082C131.494 37.3261 131.225 37.583 130.894 37.583H107.626H107.914V27.5779H107.626ZM139.303 3.0252V11.9559C139.303 12.2735 139.035 12.5312 138.704 12.5312H108.154C107.994 12.5312 107.841 12.4694 107.728 12.3612L98.4793 3.43053C98.1039 3.06799 98.3712 2.44989 98.9046 2.44989H138.704C139.035 2.44989 139.303 2.70664 139.303 3.0252Z" stroke="#00AE99" stroke-width="3" stroke-linecap="round" stroke-linejoin="round"/>
<path d="M27.0427 42.4996C23.2219 48.1781 20.5031 52.2171 20.461 52.2773C20.318 52.4778 20.461 52.4486 20.461 52.4486L41.8496 52.45C41.9962 52.45 42.138 52.5042 42.2449 52.6029L52.0057 61.512C52.1246 61.6196 52.1919 61.7724 52.1919 61.9322C52.1919 62.2494 51.9311 62.5065 51.6104 62.5065H3.71727C2.84621 62.5065 2.06164 61.7331 2.06164 60.8729C2.06164 60.8729 1.75887 59.451 2.49537 58.2512C2.64436 58.0383 7.46466 51.0174 13.2738 42.5542L27.0427 42.4996ZM27.027 22.5171C30.8777 16.9057 33.6387 12.8834 33.7132 12.7751C33.9632 12.4111 33.7132 12.4314 33.7132 12.4314L20.5595 12.3758H11.6049C11.4499 12.3758 11.3009 12.3146 11.1916 12.2058L2.23225 3.29736C1.867 2.93571 2.12772 2.32031 2.64436 2.32031H20.5595H50.5362C51.4073 2.32031 52.1919 3.09342 52.1919 3.95307C52.1919 3.95307 52.3264 4.83253 51.7966 5.65792C51.5503 6.04376 46.4464 13.6403 40.4282 22.5931L27.027 22.5171Z" stroke="#00AE99" stroke-width="3" stroke-linecap="round" stroke-linejoin="round"/>
</svg>
