<svg width="121" height="40" viewBox="0 0 121 40" fill="none" xmlns="http://www.w3.org/2000/svg">
<path fill-rule="evenodd" clip-rule="evenodd" d="M0.149592 7.82492C0.149592 3.50335 3.66057 0 7.99153 0H11.9214V9.02161H15.8531V0H31.5175C35.8484 0 39.3594 3.50335 39.3594 7.82492V31.2997C39.3594 35.6213 35.8484 39.1246 31.5175 39.1246H7.99153C3.66057 39.1246 0.149592 35.6213 0.149592 31.2997V15.7891H22.4528C23.2391 15.7891 23.857 16.4069 23.857 17.1932V22.3601C23.857 23.1464 23.2391 23.7641 22.4528 23.7641H17.2573C16.471 23.7641 15.8531 23.1464 15.8531 22.3601V18.5972H11.9214V22.3882C11.9214 25.3367 14.3085 27.7236 17.2573 27.7236H22.4528C25.4016 27.7236 27.7887 25.3367 27.7887 22.3882V17.1932C27.7887 14.2446 25.4016 11.8577 22.4528 11.8577H0.149592V7.82492ZM0.149592 11.8577H0.149414V15.7891H0.149592V11.8577Z" fill="white"/>
<path d="M101.074 31.4422C100.906 31.2761 100.839 31.11 100.839 30.8775C100.839 30.6451 100.906 30.4457 101.074 30.2465L107.405 21.9098L101.546 14.0712C101.411 13.872 101.31 13.6727 101.31 13.4402C101.31 13.2077 101.377 13.0416 101.546 12.8756C101.715 12.7095 101.883 12.6431 102.118 12.6431H105.384C105.654 12.6431 105.855 12.7095 105.99 12.8091C106.125 12.9088 106.26 13.0749 106.428 13.2741L110.569 18.7212L114.677 13.2741C114.71 13.2409 114.778 13.1412 114.946 12.942C115.115 12.7427 115.35 12.6431 115.721 12.6431H118.886C119.121 12.6431 119.289 12.7095 119.458 12.8756C119.593 13.0416 119.694 13.2077 119.694 13.407C119.694 13.6395 119.626 13.872 119.458 14.0712L113.532 21.943L119.896 30.2465C120.03 30.4457 120.131 30.6451 120.131 30.8775C120.131 31.11 120.064 31.2761 119.896 31.4422C119.727 31.6082 119.559 31.6747 119.323 31.6747H115.923C115.518 31.6747 115.182 31.4754 114.913 31.0768L110.468 25.2976L105.99 31.0768C105.721 31.4754 105.384 31.6747 104.98 31.6747H101.681C101.411 31.6747 101.209 31.6082 101.074 31.4422Z" fill="white"/>
<path d="M74.0593 20.8464C73.9915 18.2288 73.1745 16.1721 71.8129 14.5613C70.452 12.9506 68.5121 12.1451 65.9938 12.1451C63.5772 12.1451 61.6718 12.9506 60.2764 14.5949V6.3732C60.2764 5.83621 59.7319 5.50065 59.2552 5.70201L55.2397 7.34636V30.8705C55.2397 31.1054 55.3415 31.3404 55.5117 31.5081C55.6819 31.6759 55.886 31.7766 56.1585 31.7766H59.1535C59.4254 31.7766 59.6634 31.6759 59.8336 31.5081C60.0038 31.3404 60.1062 31.139 60.1062 30.8705V29.4947C61.4677 31.2397 63.4755 32.1122 66.0616 32.1122C68.5799 32.1122 70.5199 31.3068 71.8814 29.7295C73.2423 28.1524 73.957 26.0046 74.0593 23.3535C74.1441 22.5178 74.0593 21.6747 74.0593 20.8464ZM68.8186 23.2193C68.6484 26.4744 67.219 28.0852 64.5644 28.0852C63.1351 28.0852 62.08 27.6154 61.3654 26.7093C60.6507 25.8033 60.2764 24.6958 60.2425 23.3871C60.2079 23.0851 60.2079 22.6152 60.2079 21.9776C60.2079 21.3065 60.2079 20.8367 60.2425 20.5347C60.2764 19.293 60.6846 18.2527 61.3993 17.3802C62.1139 16.5077 63.169 16.0715 64.5305 16.0715C67.219 16.0715 68.6145 17.6822 68.784 20.9373C68.8186 21.1723 68.8186 21.5414 68.8186 22.0447C68.8525 22.6152 68.8525 22.9844 68.8186 23.2193Z" fill="white"/>
<path d="M97.3157 27.4384H83.9911L87.5886 22.6484C88.0555 22.0454 87.6226 21.1745 86.8564 21.1745H82.1927L77.7286 26.9694C77.5956 27.1704 77.4625 27.3714 77.3289 27.5724C77.2291 27.7734 77.1626 28.0413 77.1626 28.3428V30.9555C77.1626 31.2235 77.2291 31.458 77.396 31.6255C77.5623 31.793 77.7625 31.8935 78.0286 31.8935H95.1175C95.5838 31.8935 96.0167 31.659 96.2834 31.2905L98.0153 28.9458C98.4816 28.2758 98.0486 27.4384 97.3157 27.4384Z" fill="white"/>
<path d="M77.4069 10.0071H90.8703L87.235 14.6994C86.7635 15.29 87.2011 16.1431 87.9757 16.1431H92.6876L97.198 10.4665C97.3324 10.2696 97.4674 10.0727 97.6017 9.87583C97.7028 9.67897 97.7699 9.41645 97.7699 9.12112V6.56172C97.7699 6.29919 97.7027 6.06953 97.5345 5.90547C97.3663 5.74141 97.1641 5.64294 96.8948 5.64294H79.6285C79.157 5.64294 78.7195 5.87267 78.4502 6.2336L76.7 8.53053C76.2286 9.15398 76.6661 10.0071 77.4069 10.0071Z" fill="white"/>
</svg>
