<svg width="178" height="39" viewBox="0 0 178 39" fill="none" xmlns="http://www.w3.org/2000/svg">
<path d="M35.2866 7.38594C34.954 6.96415 34.3285 6.94376 33.948 7.32317L27.4167 13.8317C27.0948 14.1523 27.0588 14.6554 27.287 15.0478C28.0081 16.2884 28.3879 17.6967 28.3879 19.1304C28.3879 20.5642 28.0081 21.9725 27.287 23.2131C27.0588 23.6055 27.0948 24.1086 27.4167 24.4292L33.948 30.9377C34.3285 31.3171 34.954 31.2967 35.2866 30.8747C40.7147 23.9882 40.7147 14.2725 35.2866 7.38594ZM8.37531 4.05698C7.95181 4.3882 7.93136 5.01152 8.31209 5.39116L14.8436 11.8995C15.1652 12.22 15.6701 12.2562 16.0636 12.0287C17.3086 11.31 18.7219 10.9316 20.1607 10.9316C21.5994 10.9316 23.0127 11.31 24.2577 12.0287C24.6514 12.2562 25.1561 12.22 25.478 11.8995L32.0092 5.39092C32.3897 5.01152 32.3695 4.3882 31.946 4.05674C25.0354 -1.35225 15.2859 -1.35225 8.37531 4.05674V4.05698ZM25.478 26.3614C25.1561 26.0408 24.6514 26.0047 24.2577 26.2322C23.0127 26.9508 21.5994 27.3292 20.1607 27.3292C18.7219 27.3292 17.3086 26.9508 16.0636 26.2322C15.6699 26.0047 15.1652 26.0408 14.8433 26.3614L8.31209 32.87C7.93159 33.2494 7.95181 33.8727 8.37531 34.2039C15.2856 39.6131 25.0354 39.6131 31.946 34.2039C32.3695 33.8727 32.3897 33.2494 32.0092 32.87L25.478 26.3614ZM13.034 15.0475C13.2623 14.6554 13.226 14.1523 12.9043 13.8315L6.3731 7.3234C5.99237 6.94399 5.36689 6.96438 5.03427 7.38617C-0.393585 14.2725 -0.393585 23.9884 5.03427 30.8749C5.36689 31.297 5.99237 31.3174 6.3731 30.9379L12.9046 24.4294C13.226 24.1088 13.2623 23.6057 13.034 23.2134C12.3129 21.9727 11.9331 20.5643 11.9331 19.1306C11.9331 17.6968 12.3129 16.2884 13.034 15.0478V15.0475Z" fill="white"/>
<path d="M48.3921 28.0271H55.3312C61.7249 28.0271 65.9871 24.3493 65.9871 18.8068C65.9871 13.2644 61.7249 9.58664 55.3312 9.58664H48.3921V28.0271ZM52.6024 24.6601V12.9536H55.3312C59.1258 12.9536 61.6988 15.2328 61.6988 18.8068C61.6988 22.4068 59.1258 24.6601 55.3312 24.6601H52.6024ZM74.4366 28.4414C77.6593 28.4414 80.2324 26.991 81.0641 24.6082L77.7893 23.7794C77.2177 24.8674 76.0741 25.5924 74.5926 25.5924C72.6954 25.5924 71.3698 24.3752 71.0579 22.5104H81.5059C81.558 22.2255 81.558 21.6816 81.558 21.345C81.558 17.1753 78.6469 14.3522 74.4108 14.3522C70.1223 14.3522 67.0816 17.1493 67.0816 21.2931C67.0816 25.5667 70.1223 28.4414 74.4366 28.4414ZM71.0321 20.1276C71.3438 18.3665 72.5655 17.201 74.3067 17.201C76.0999 17.201 77.3995 18.4443 77.6335 20.1276H71.0321ZM83.533 28.0271H87.8735V20.6974H95.6704V17.3307H87.8735V13.2642H96.7879V9.58664H83.533V28.0271ZM100.254 12.9276C101.606 12.9276 102.567 11.9953 102.567 10.6744C102.567 9.37956 101.606 8.42108 100.254 8.42108C98.9029 8.42108 97.9413 9.37933 97.9413 10.6744C97.9413 11.9953 98.9029 12.9276 100.254 12.9276ZM98.3311 28.0271H102.178V14.7663H98.3311V28.0271ZM117.966 28.6745C122.462 28.6745 125.087 26.5249 125.087 23.1061C125.087 18.9623 121.319 18.237 117.992 17.6929C115.289 17.2788 112.846 16.8385 112.846 14.4298C112.846 12.4614 114.457 11.1923 117.42 11.1923C120.565 11.1923 122.384 12.7203 122.384 15.3104H124.671C124.645 11.4515 121.916 9.12037 117.42 9.12037C113.002 9.12037 110.481 11.2699 110.481 14.5592C110.481 18.5219 114.12 19.3767 117.42 19.8946C120.175 20.3349 122.722 20.7493 122.722 23.2615C122.722 25.3075 120.981 26.6025 117.992 26.6025C114.561 26.6025 112.56 24.9191 112.534 22.096H110.195C110.195 26.1622 113.158 28.6745 117.966 28.6745ZM131.442 28.4414C133.548 28.4414 135.081 27.6127 136.016 26.1106H136.251V28.0271H138.408V19.3507C138.408 16.3722 136.251 14.4557 132.846 14.4557C129.545 14.4557 127.388 16.2168 127.388 18.9882H129.571C129.545 17.3564 130.845 16.3981 132.82 16.3981C134.977 16.3981 136.251 17.5378 136.251 19.2988V19.817L132.612 20.2571C128.713 20.6974 126.738 22.4068 126.738 24.712C126.738 26.9653 128.609 28.4414 131.442 28.4414ZM131.754 26.6544C129.987 26.6544 128.895 25.9032 128.895 24.6601C128.895 23.4429 129.935 22.4068 132.612 22.0703L136.251 21.6556V22.8212C136.251 25.0226 134.431 26.6544 131.754 26.6544ZM144.639 28.0271H147.706L152.696 14.9479H150.487L146.276 26.3176H146.042L141.858 14.9477H139.649L144.639 28.0271ZM160.378 28.545C163.289 28.545 165.654 27.1983 166.72 24.9709L164.926 24.0643C164.095 25.6183 162.379 26.6025 160.43 26.6025C157.753 26.6025 155.83 24.8415 155.518 22.1997H167.136C167.162 21.9148 167.162 21.604 167.162 21.345C167.162 17.3304 164.277 14.4298 160.274 14.4298C156.22 14.4298 153.309 17.3304 153.309 21.3191C153.309 25.5148 156.272 28.545 160.378 28.545ZM155.544 20.309C155.908 17.9521 157.753 16.3722 160.17 16.3722C162.665 16.3722 164.511 17.9521 164.9 20.309H155.544ZM169.703 28.0271H171.86V20.9823C171.86 18.3925 173.237 16.6314 175.212 16.6314C175.706 16.6314 176.486 16.7349 177.162 17.0198V15.0255C176.772 14.8182 176.148 14.6887 175.55 14.6887C174.095 14.6887 172.639 15.5175 172.042 16.709H171.808V14.9479H169.703V28.0271Z" fill="white"/>
</svg>
