<svg width="88" height="39" viewBox="0 0 88 39" fill="none" xmlns="http://www.w3.org/2000/svg">
<path d="M73.6772 11.2202C66.2368 11.2202 60.2051 17.2735 60.2051 24.7405C60.2051 32.2075 66.2368 38.2608 73.6772 38.2608C81.1176 38.2608 87.1493 32.2075 87.1493 24.7405C87.1493 17.2735 81.1176 11.2202 73.6772 11.2202ZM73.6772 32.0336C72.2399 32.0336 70.8349 31.6059 69.6398 30.8045C68.4447 30.0031 67.5133 28.8641 66.9633 27.5314C66.4132 26.1988 66.2693 24.7324 66.5497 23.3177C66.8301 21.9029 67.5223 20.6034 68.5386 19.5835C69.5549 18.5635 70.8498 17.8689 72.2595 17.5875C73.6692 17.3061 75.1303 17.4505 76.4582 18.0025C77.7861 18.5545 78.9211 19.4893 79.7196 20.6886C80.5181 21.888 80.9443 23.298 80.9443 24.7405C80.9443 26.6747 80.1787 28.5298 78.8158 29.8975C77.453 31.2652 75.6046 32.0336 73.6772 32.0336Z" fill="white"/>
<path d="M25.9979 25.0261C26.0135 24.7643 26.0215 24.5008 26.0219 24.2356C26.0219 17.0317 20.2032 11.1921 13.0249 11.1921C5.84668 11.1921 0.0279505 17.0317 0.0279505 24.2356C0.0279505 24.5038 0.0359626 24.7701 0.0519875 25.0345L0 35.1192C0 35.9524 0.329815 36.7515 0.916889 37.3407C1.50396 37.9298 2.30021 38.2608 3.13046 38.2608C3.9607 38.2608 4.75695 37.9298 5.34402 37.3407C5.9311 36.7515 6.26091 35.9524 6.26091 35.1192V24.2356C6.26091 22.4353 6.97355 20.7086 8.24205 19.4356C9.51055 18.1626 11.231 17.4474 13.0249 17.4474C14.8189 17.4474 16.5393 18.1626 17.8078 19.4356C19.0763 20.7086 19.7889 22.4353 19.7889 24.2356V35.3755L19.7996 35.3688C19.866 36.1761 20.2405 36.9265 20.8451 37.4633C21.4496 38.0001 22.2374 38.2818 23.0439 38.2496C23.8505 38.2173 24.6134 37.8737 25.1735 37.2904C25.7337 36.7071 26.0476 35.9292 26.0499 35.1192L25.9979 25.0261Z" fill="white"/>
<path d="M56.5755 24.4269C56.5912 24.6887 56.5992 24.9522 56.5995 25.2174C56.5995 32.4213 50.7808 38.2608 43.6026 38.2608C36.4243 38.2608 30.6056 32.4213 30.6056 25.2174C30.6056 24.9492 30.6136 24.6829 30.6296 24.4185L30.5776 14.3338C30.5776 13.5006 30.9075 12.7015 31.4945 12.1123C32.0816 11.5231 32.8778 11.1921 33.7081 11.1921C34.5383 11.1921 35.3346 11.5231 35.9217 12.1123C36.5087 12.7015 36.8385 13.5006 36.8385 14.3338V25.2174C36.8385 27.0177 37.5512 28.7443 38.8197 30.0174C40.0882 31.2904 41.8086 32.0056 43.6026 32.0056C45.3965 32.0056 47.117 31.2904 48.3855 30.0174C49.654 28.7443 50.3666 27.0177 50.3666 25.2174V14.0774L50.3772 14.0841C50.4436 13.2768 50.8182 12.5264 51.4227 11.9897C52.0272 11.4529 52.815 11.1712 53.6215 11.2034C54.4281 11.2356 55.1911 11.5792 55.7512 12.1625C56.3113 12.7458 56.6252 13.5237 56.6275 14.3338L56.5755 24.4269Z" fill="white"/>
<path d="M33.401 7.46142C35.4541 7.46142 37.1184 5.79112 37.1184 3.73071C37.1184 1.6703 35.4541 0 33.401 0C31.3479 0 29.6836 1.6703 29.6836 3.73071C29.6836 5.79112 31.3479 7.46142 33.401 7.46142Z" fill="white"/>
<path d="M53.5812 7.46142C55.6343 7.46142 57.2986 5.79112 57.2986 3.73071C57.2986 1.6703 55.6343 0 53.5812 0C51.5281 0 49.8638 1.6703 49.8638 3.73071C49.8638 5.79112 51.5281 7.46142 53.5812 7.46142Z" fill="white"/>
</svg>
