<svg width="99" height="26" viewBox="0 0 99 26" fill="none" xmlns="http://www.w3.org/2000/svg">
<path d="M3.23332 9.0896C3.20564 10.1296 3.08111 10.7952 2.85973 11.0864C2.65218 11.3637 2.23709 11.5024 1.61445 11.5024C1.13017 11.5024 0.763507 11.3776 0.514451 11.128C0.279231 10.8645 0.161621 10.4832 0.161621 9.984C0.161621 9.984 0.168539 9.88 0.182376 9.672C0.196212 9.45013 0.20313 9.22827 0.20313 9.0064L0.410677 2.1424C0.43835 1.62933 0.576715 1.26187 0.825771 1.04C1.07483 0.804267 1.46225 0.6864 1.98803 0.6864H20.0239C20.5496 0.6864 20.9371 0.804267 21.1861 1.04C21.4352 1.26187 21.5666 1.62933 21.5805 2.1424L21.8088 9.0064C21.8088 9.256 21.8157 9.49173 21.8295 9.7136C21.8434 9.93547 21.8503 10.0395 21.8503 10.0256C21.8503 10.5248 21.7188 10.8992 21.4559 11.1488C21.193 11.3845 20.7987 11.5024 20.2729 11.5024C19.7195 11.5024 19.339 11.3637 19.1314 11.0864C18.9239 10.7952 18.8063 10.1296 18.7786 9.0896L18.571 3.6816H12.6144V22.4224H16.6201C17.2012 22.4224 17.6232 22.5403 17.8861 22.776C18.149 22.9979 18.2805 23.3584 18.2805 23.8576C18.2805 24.3429 18.1559 24.7173 17.9069 24.9808C17.6578 25.2304 17.2981 25.3552 16.8276 25.3552H5.18426C4.71382 25.3552 4.35407 25.2304 4.10501 24.9808C3.85596 24.7173 3.73143 24.3429 3.73143 23.8576C3.73143 23.3445 3.86287 22.9771 4.12577 22.7552C4.4025 22.5333 4.86602 22.4224 5.51633 22.4224H9.39746V3.6816H3.44086L3.23332 9.0896Z" fill="white"/>
<path d="M47.7521 13C47.7521 16.7995 46.7006 19.9195 44.5974 22.36C42.4943 24.7867 39.8031 26 36.5238 26C33.2723 26 30.588 24.7797 28.471 22.3392C26.3679 19.8987 25.3163 16.7856 25.3163 13C25.3163 9.1728 26.361 6.0528 28.4503 3.64C30.5396 1.21333 33.2308 0 36.5238 0C39.8031 0 42.4943 1.22027 44.5974 3.6608C46.7006 6.10133 47.7521 9.2144 47.7521 13ZM36.5238 23.0464C38.8484 23.0464 40.6748 22.1589 42.0031 20.384C43.3452 18.5952 44.0163 16.1339 44.0163 13C44.0163 9.86613 43.3452 7.41173 42.0031 5.6368C40.6748 3.848 38.8484 2.9536 36.5238 2.9536C34.1855 2.9536 32.3522 3.84107 31.0239 5.616C29.7094 7.37707 29.0522 9.8384 29.0522 13C29.0522 16.1339 29.7163 18.5952 31.0446 20.384C32.3867 22.1589 34.2132 23.0464 36.5238 23.0464Z" fill="white"/>
<path d="M58.5653 3.6816V13.3328H62.4465C64.6188 13.3328 66.2446 12.9307 67.3238 12.1264C68.4031 11.3221 68.9427 10.1088 68.9427 8.4864C68.9427 6.89173 68.3961 5.69227 67.3031 4.888C66.2238 4.08373 64.6049 3.6816 62.4465 3.6816H58.5653ZM62.9031 22.4224C63.5811 22.4224 64.0722 22.5403 64.3766 22.776C64.681 22.9979 64.8332 23.3584 64.8332 23.8576C64.8332 24.4123 64.688 24.8005 64.3974 25.0224C64.1068 25.2443 63.5534 25.3552 62.737 25.3552H52.588C52.1175 25.3552 51.7578 25.2304 51.5087 24.9808C51.2597 24.7173 51.1352 24.3429 51.1352 23.8576C51.1352 23.3723 51.2528 23.0117 51.488 22.776C51.737 22.5403 52.1175 22.4224 52.6295 22.4224H55.3068V3.6816H53.854C52.6364 3.6816 51.8754 3.5776 51.571 3.3696C51.2804 3.14773 51.1352 2.75253 51.1352 2.184C51.1352 1.69867 51.2597 1.3312 51.5087 1.0816C51.7578 0.818133 52.1175 0.6864 52.588 0.6864H62.1974C65.5597 0.6864 68.1125 1.33813 69.8559 2.6416C71.5993 3.94507 72.471 5.8656 72.471 8.4032C72.471 10.9408 71.6062 12.8544 69.8766 14.144C68.1471 15.4336 65.5873 16.0784 62.1974 16.0784H58.5653V22.4224H62.9031Z" fill="white"/>
<path d="M98.8087 13C98.8087 16.7995 97.7571 19.9195 95.654 22.36C93.5508 24.7867 90.8596 26 87.5804 26C84.3288 26 81.6446 24.7797 79.5276 22.3392C77.4244 19.8987 76.3729 16.7856 76.3729 13C76.3729 9.1728 77.4175 6.0528 79.5068 3.64C81.5961 1.21333 84.2873 0 87.5804 0C90.8596 0 93.5508 1.22027 95.654 3.6608C97.7571 6.10133 98.8087 9.2144 98.8087 13ZM87.5804 23.0464C89.9049 23.0464 91.7313 22.1589 93.0596 20.384C94.4018 18.5952 95.0728 16.1339 95.0728 13C95.0728 9.86613 94.4018 7.41173 93.0596 5.6368C91.7313 3.848 89.9049 2.9536 87.5804 2.9536C85.242 2.9536 83.4087 3.84107 82.0804 5.616C80.7659 7.37707 80.1087 9.8384 80.1087 13C80.1087 16.1339 80.7729 18.5952 82.1012 20.384C83.4433 22.1589 85.2697 23.0464 87.5804 23.0464Z" fill="white"/>
</svg>
