<svg width="184" height="23" viewBox="0 0 184 23" fill="none" xmlns="http://www.w3.org/2000/svg">
<path d="M183.743 0.049324C183.865 0.049324 183.963 0.147044 183.963 0.268289V22.8996V22.9279V22.9565L164.927 5.89827C164.88 5.85674 164.854 5.79755 164.854 5.73553V0.541089C164.854 0.351531 165.08 0.25155 165.22 0.378224L179.775 13.4356C179.916 13.5625 180.141 13.4627 180.141 13.2731V0.268289C180.141 0.147044 180.239 0.049324 180.361 0.049324H183.743Z" fill="white"/>
<path d="M133.082 6.11953C131.565 7.60897 130.836 9.41275 130.836 11.5032C130.836 13.5929 131.565 15.4255 133.082 16.9149C134.598 18.4042 136.464 19.1195 138.593 19.1195C140.721 19.1195 142.559 18.4042 144.075 16.9149C145.62 15.3969 146.349 13.5929 146.349 11.5032C146.349 9.41275 145.591 7.60897 144.075 6.11953C142.559 4.63049 140.721 3.88632 138.593 3.88632C136.464 3.88632 134.627 4.60186 133.082 6.11953ZM146.815 3.42791C149.119 5.66131 150.285 8.35311 150.285 11.5032C150.285 14.6815 149.119 17.373 146.815 19.5776C144.541 21.8114 141.829 22.9565 138.593 22.9565C135.356 22.9565 132.645 21.8114 130.37 19.5776C128.096 17.3443 126.93 14.6815 126.93 11.5032C126.93 8.35311 128.096 5.66131 130.37 3.42791C132.616 1.1945 135.356 0.049324 138.593 0.049324C141.829 0.049324 144.541 1.1945 146.815 3.42791Z" fill="white"/>
<path d="M110.101 19.1777L106.32 22.6364C106.165 22.7778 105.899 22.6784 105.899 22.4795V0.22324C105.899 0.0250891 106.163 -0.0744468 106.318 0.0651798L110.1 3.47204C110.146 3.51402 110.173 3.57089 110.173 3.63029V19.0207C110.173 19.0796 110.147 19.1359 110.101 19.1777Z" fill="white"/>
<path d="M81.8948 14.9519L86.4175 22.6287C86.5037 22.775 86.3945 22.9565 86.2214 22.9565H82.2241C82.1432 22.9565 82.0692 22.9146 82.0286 22.8469L75.4435 11.8063C75.3559 11.6596 75.4659 11.4763 75.6409 11.4779L78.7581 11.5032C79.8211 11.5032 80.7362 11.1303 81.5035 10.3861C82.3011 9.64194 82.6843 8.72514 82.6843 7.6657C82.6843 6.63488 82.3011 5.74771 81.5035 5.0025C80.7362 4.2583 79.8211 3.88632 78.7581 3.88632C78.7581 3.88632 71.2806 3.88632 70.9699 3.88632C70.6593 3.88632 70.455 3.47668 70.455 3.47668C70.4408 3.46341 70.4288 3.44821 70.4195 3.43197L68.5931 0.378224C68.5063 0.232096 68.6145 0.049324 68.7886 0.049324H78.7581C80.9135 0.049324 82.773 0.793534 84.308 2.28272C85.8432 3.79992 86.6101 5.57592 86.6101 7.6657C86.6101 9.26905 86.1677 10.7007 85.2233 11.9897C84.3595 13.2055 83.2856 14.0895 82.0019 14.6432C81.8793 14.6962 81.828 14.8385 81.8948 14.9519Z" fill="white"/>
<path d="M40.5281 19.1195H52.161C52.2871 19.1195 52.3891 19.2176 52.3891 19.3387V22.7374C52.3891 22.8584 52.2871 22.9565 52.161 22.9565H36.6932C36.5671 22.9565 36.4648 22.8584 36.4648 22.7374C36.4648 22.6764 36.4913 22.6181 36.538 22.5766L40.3727 19.1779C40.4151 19.1402 40.4704 19.1195 40.5281 19.1195ZM40.3326 9.61317H49.1886C49.3146 9.61317 49.4169 9.71125 49.4169 9.83213V13.2024C49.4169 13.3234 49.3146 13.4212 49.1886 13.4212H40.3326H40.4421V9.61317H40.3326ZM52.3891 0.268289V3.66736C52.3891 3.78824 52.2871 3.88632 52.161 3.88632H40.5337C40.4728 3.88632 40.4143 3.86279 40.3713 3.82163L36.8513 0.422562C36.7084 0.284577 36.8102 0.049324 37.0132 0.049324H52.161C52.2871 0.049324 52.3891 0.147044 52.3891 0.268289Z" fill="white"/>
<path d="M9.66222 15.2924C8.20804 17.4537 7.17322 18.991 7.15719 19.0139C7.10279 19.0902 7.15719 19.0791 7.15719 19.0791L15.2978 19.0796C15.3536 19.0796 15.4076 19.1003 15.4483 19.1378L19.1633 22.5287C19.2085 22.5696 19.2342 22.6278 19.2342 22.6886C19.2342 22.8093 19.1349 22.9072 19.0128 22.9072H0.78446C0.45293 22.9072 0.15432 22.6128 0.15432 22.2854C0.15432 22.2854 0.0390839 21.7442 0.319401 21.2876C0.376104 21.2066 2.21074 18.5344 4.42172 15.3132L9.66222 15.2924ZM9.65627 7.68698C11.1219 5.55126 12.1727 4.02037 12.2011 3.97913C12.2962 3.84059 12.2011 3.84834 12.2011 3.84834L7.19469 3.82719H3.78655C3.72755 3.82719 3.67084 3.80389 3.62923 3.76247L0.219255 0.37187C0.0802399 0.234223 0.179471 0 0.376104 0H7.19469H18.604C18.9355 0 19.2342 0.294248 19.2342 0.621435C19.2342 0.621435 19.2854 0.956163 19.0837 1.27031C18.99 1.41716 17.0474 4.30846 14.7568 7.71591L9.65627 7.68698Z" fill="white"/>
</svg>
