<svg width="183" height="140" viewBox="0 0 183 140" fill="none" xmlns="http://www.w3.org/2000/svg">
<mask id="mask0" mask-type="alpha" maskUnits="userSpaceOnUse" x="-17" y="-27" width="200" height="200">
<path d="M83 172C137.676 172 182 127.676 182 73C182 18.3238 137.676 -26 83 -26C28.3238 -26 -16 18.3238 -16 73C-16 127.676 28.3238 172 83 172Z" fill="#C4C4C4" stroke="#00AE99" stroke-width="2" stroke-miterlimit="10"/>
</mask>
<g mask="url(#mask0)">
<path d="M83 172C137.676 172 182 127.676 182 73C182 18.3238 137.676 -26 83 -26C28.3238 -26 -16 18.3238 -16 73C-16 127.676 28.3238 172 83 172Z" stroke="#00AE99" stroke-width="2" stroke-miterlimit="10"/>
<path d="M44.861 88.4182C74.8881 88.4182 99.2299 64.0765 99.2299 34.0494C99.2299 4.02231 74.8881 -20.3195 44.861 -20.3195C14.834 -20.3195 -9.50781 4.02231 -9.50781 34.0494C-9.50781 64.0765 14.834 88.4182 44.861 88.4182Z" stroke="#00AE99" stroke-width="2" stroke-miterlimit="10"/>
<path d="M121.139 165.508C151.166 165.508 175.508 141.167 175.508 111.139C175.508 81.1123 151.166 56.7706 121.139 56.7706C91.1123 56.7706 66.7705 81.1123 66.7705 111.139C66.7705 141.167 91.1123 165.508 121.139 165.508Z" stroke="#00AE99" stroke-width="2" stroke-miterlimit="10"/>
<path d="M162.119 265.32C224.19 265.32 274.508 215.001 274.508 152.93C274.508 90.8595 224.19 40.5411 162.119 40.5411C100.048 40.5411 49.7295 90.8595 49.7295 152.93C49.7295 215.001 100.048 265.32 162.119 265.32Z" stroke="#00AE99" stroke-width="2" stroke-miterlimit="10"/>
<path d="M3.06903 106.27C65.1399 106.27 115.458 55.952 115.458 -6.11896C115.458 -68.1899 65.1399 -118.508 3.06903 -118.508C-59.0019 -118.508 -109.32 -68.1899 -109.32 -6.11896C-109.32 55.952 -59.0019 106.27 3.06903 106.27Z" stroke="#00AE99" stroke-width="2" stroke-miterlimit="10"/>
<path d="M37.2763 57.582H22.1392V20.3103H37.2763M37.2763 57.582V20.3103M37.2763 57.582V54.1592H70.8277V46.0892M37.2763 20.3103V4.83612H46.8336V23.5511H70.8277V30.7852M70.8277 38.8552H62.0134M70.8277 38.8552V30.7852M70.8277 38.8552V46.0892M70.8277 30.7852H62.0134M70.8277 46.0892H62.0134" stroke="#00AE99" stroke-width="2" stroke-miterlimit="10"/>
<path d="M112.744 83.5493H97.6064V120.821H112.744M112.744 83.5493V120.821M112.744 83.5493V86.9721H146.295V95.0421M112.744 120.821V136.295H122.301V117.58H146.295V110.346M146.295 102.276H137.481M146.295 102.276V110.346M146.295 102.276V95.0421M146.295 110.346H137.481M146.295 95.0421H137.481" stroke="#00AE99" stroke-width="2" stroke-miterlimit="10"/>
</g>
</svg>
